<?xml version="1.0" encoding="UTF-8"?>
<svg version="1.1" xmlns="http://www.w3.org/2000/svg" width="361" height="361">
<path d="M0 0 C0.62036133 0.32758301 1.24072266 0.65516602 1.87988281 0.99267578 C10.35199233 5.48858371 17.80903205 10.64042024 25 17 C25.89976562 17.79019531 26.79953125 18.58039062 27.7265625 19.39453125 C31.94420288 23.14561849 36.05999019 26.95630573 40 31 C40.56847656 31.53496094 41.13695312 32.06992187 41.72265625 32.62109375 C66.05386744 55.88811678 79.44272509 88.56587574 86 121 C86.2475 122.20140625 86.495 123.4028125 86.75 124.640625 C91.44930965 152.70594652 87.86571222 182.45344541 78 209 C77.73316406 209.72622559 77.46632813 210.45245117 77.19140625 211.20068359 C69.75534468 231.11171686 58.87057845 249.045656 44.30859375 264.5390625 C42.25781689 266.72516981 40.30879725 268.9610155 38.375 271.25 C34.88724177 275.23831613 31.10051009 278.65194042 27 282 C25.66582031 283.10794922 25.66582031 283.10794922 24.3046875 284.23828125 C-0.04448275 303.76120932 -29.15419425 316.36479243 -60 321 C-61.13953125 321.185625 -62.2790625 321.37125 -63.453125 321.5625 C-69.5635737 322.29799648 -75.73299765 322.18599179 -81.87866211 322.18530273 C-84.0332472 322.18747057 -86.18730321 322.20562162 -88.34179688 322.22460938 C-135.17320689 322.41198597 -177.34646063 301.50996705 -210.1875 269.125 C-242.94191714 236.18098257 -258.43104946 191.32289365 -258.30493164 145.3671875 C-258.02102091 129.95721937 -255.66060583 114.69275736 -251 100 C-250.68506592 98.99791504 -250.68506592 98.99791504 -250.36376953 97.97558594 C-246.90110849 87.11736488 -242.45989615 76.99720597 -237 67 C-236.66129883 66.37383789 -236.32259766 65.74767578 -235.97363281 65.10253906 C-230.13241887 54.44634535 -222.9268173 45.18197717 -215 36 C-214.51208984 35.43087891 -214.02417969 34.86175781 -213.52148438 34.27539062 C-207.27948418 27.04917463 -200.5794799 20.81164031 -193 15 C-192.07703125 14.26136719 -191.1540625 13.52273437 -190.203125 12.76171875 C-136.21872787 -29.47742441 -59.30563844 -31.89534208 0 0 Z " fill="#FEFDFD" transform="translate(267,30)"/>
<path d="M0 0 C0.62036133 0.32758301 1.24072266 0.65516602 1.87988281 0.99267578 C10.35199233 5.48858371 17.80903205 10.64042024 25 17 C25.89976562 17.79019531 26.79953125 18.58039062 27.7265625 19.39453125 C31.94420288 23.14561849 36.05999019 26.95630573 40 31 C40.56847656 31.53496094 41.13695312 32.06992187 41.72265625 32.62109375 C66.05386744 55.88811678 79.44272509 88.56587574 86 121 C86.2475 122.20140625 86.495 123.4028125 86.75 124.640625 C91.44930965 152.70594652 87.86571222 182.45344541 78 209 C77.73316406 209.72622559 77.46632813 210.45245117 77.19140625 211.20068359 C69.75534468 231.11171686 58.87057845 249.045656 44.30859375 264.5390625 C42.25781689 266.72516981 40.30879725 268.9610155 38.375 271.25 C34.88724177 275.23831613 31.10051009 278.65194042 27 282 C25.66582031 283.10794922 25.66582031 283.10794922 24.3046875 284.23828125 C-0.04448275 303.76120932 -29.15419425 316.36479243 -60 321 C-61.13953125 321.185625 -62.2790625 321.37125 -63.453125 321.5625 C-69.5635737 322.29799648 -75.73299765 322.18599179 -81.87866211 322.18530273 C-84.0332472 322.18747057 -86.18730321 322.20562162 -88.34179688 322.22460938 C-135.17320689 322.41198597 -177.34646063 301.50996705 -210.1875 269.125 C-242.94191714 236.18098257 -258.43104946 191.32289365 -258.30493164 145.3671875 C-258.02102091 129.95721937 -255.66060583 114.69275736 -251 100 C-250.68506592 98.99791504 -250.68506592 98.99791504 -250.36376953 97.97558594 C-246.90110849 87.11736488 -242.45989615 76.99720597 -237 67 C-236.66129883 66.37383789 -236.32259766 65.74767578 -235.97363281 65.10253906 C-230.13241887 54.44634535 -222.9268173 45.18197717 -215 36 C-214.51208984 35.43087891 -214.02417969 34.86175781 -213.52148438 34.27539062 C-207.27948418 27.04917463 -200.5794799 20.81164031 -193 15 C-192.07703125 14.26136719 -191.1540625 13.52273437 -190.203125 12.76171875 C-136.21872787 -29.47742441 -59.30563844 -31.89534208 0 0 Z M-116 14 C-117.38093994 14.31113667 -118.76248131 14.61961284 -120.14453125 14.92578125 C-137.57653371 19.02582561 -154.72079939 27.19472813 -169 38 C-169.80566406 38.58652344 -170.61132812 39.17304687 -171.44140625 39.77734375 C-199.54068657 61.11114727 -218.7174403 93.02117948 -224.05493164 127.94213867 C-226.34230287 145.66221933 -226.58846695 164.67394879 -222 182 C-221.82307617 182.68707031 -221.64615234 183.37414062 -221.46386719 184.08203125 C-211.61803485 221.83289099 -188.66133271 252.21079408 -155.25 272.1875 C-136.85888506 282.28296017 -116.38603017 289.93980514 -95.21484375 290.2734375 C-94.48466537 290.28582962 -93.754487 290.29822174 -93.00218201 290.31098938 C-90.64724097 290.34323431 -88.29262468 290.36217018 -85.9375 290.375 C-84.7333847 290.38184311 -84.7333847 290.38184311 -83.50494385 290.38882446 C-70.0967357 290.41609392 -57.85817361 288.97539428 -45 285 C-44.14712402 284.75411133 -43.29424805 284.50822266 -42.41552734 284.25488281 C-23.59287196 278.8007701 -6.91499879 268.48964047 8 256 C8.76957031 255.38382813 9.53914062 254.76765625 10.33203125 254.1328125 C16.03065112 249.43454208 20.47357336 243.80637125 25 238 C25.52335938 237.35417969 26.04671875 236.70835937 26.5859375 236.04296875 C50.84064946 205.28906602 58.64494689 166.77686728 54.23071289 128.38037109 C51.92535851 111.73814917 46.18127005 96.60889639 38 82 C37.62359375 81.32694824 37.2471875 80.65389648 36.859375 79.96044922 C31.05511248 69.76671317 24.269457 61.29285009 16 53 C15.13503906 52.12988281 14.27007812 51.25976562 13.37890625 50.36328125 C12.59386719 49.58339844 11.80882812 48.80351563 11 48 C10.38640625 47.38898438 9.7728125 46.77796875 9.140625 46.1484375 C-6.69891311 31.29068894 -28.08498306 20.51693347 -49 15 C-50.09127197 14.70802734 -50.09127197 14.70802734 -51.20458984 14.41015625 C-71.94603347 9.1089395 -95.25458278 8.50526787 -116 14 Z " fill="#FB0402" transform="translate(267,30)"/>
<path d="M0 0 C1.27371524 0.70897777 2.52859592 1.45427889 3.75 2.25 C4.636875 2.78625 5.52375 3.3225 6.4375 3.875 C17.00156185 14.72457704 19.31461185 29.63813626 19.19921875 44.16601562 C19.18060791 45.25136597 19.18060791 45.25136597 19.16162109 46.35864258 C19.12472996 48.57875075 19.12060634 50.79719247 19.12109375 53.01757812 C19.05480383 66.66418387 17.77297281 81.27617655 8 91.75 C0.48952462 98.43836398 -6.41374165 100.0600178 -16.45703125 99.7578125 C-25.17513183 98.59061057 -32.45346748 94.37729725 -37.85546875 87.4375 C-45.0902361 76.08884533 -45.59324754 62.74237958 -45.51074219 49.64941406 C-45.49997422 47.62014159 -45.51073027 45.5917467 -45.5234375 43.5625 C-45.49822962 30.73169054 -43.99519205 17.40183178 -35.9375 6.8125 C-26.56111509 -2.12777398 -12.20824297 -5.27644399 0 0 Z " fill="#1C1C1C" transform="translate(221.25,140.75)"/>
<path d="M0 0 C5.14637125 4.5570921 8.39553686 10.0298171 9.3203125 16.8203125 C9.63747353 23.43190016 7.71674019 28.34106462 4.046875 33.8125 C2.13305267 35.8994554 0.4303959 37.22348607 -1.953125 38.8125 C-2.613125 38.8125 -3.273125 38.8125 -3.953125 38.8125 C-3.953125 39.4725 -3.953125 40.1325 -3.953125 40.8125 C-2.9321875 40.9053125 -2.9321875 40.9053125 -1.890625 41 C3.77746284 42.56776898 7.73205156 45.80440814 10.984375 50.6875 C14.64914294 58.02925176 14.41577506 66.49673144 11.97265625 74.19921875 C7.8325995 83.23928787 1.8639934 88.79579004 -6.99609375 93.0859375 C-14.89206495 96.01737591 -26.05905083 96.48140816 -33.890625 93.1875 C-35.9609375 92.07421875 -35.9609375 92.07421875 -37.953125 90.8125 C-38.67242187 90.36519531 -39.39171875 89.91789062 -40.1328125 89.45703125 C-44.96544721 86.15561597 -47.45471347 83.08692435 -49.953125 77.8125 C-50.25089844 77.19890625 -50.54867187 76.5853125 -50.85546875 75.953125 C-52.40475556 72.61180598 -52.953125 70.56316495 -52.953125 66.8125 C-50.53687179 66.47590751 -48.12019692 66.14311612 -45.703125 65.8125 C-45.02121094 65.71710938 -44.33929688 65.62171875 -43.63671875 65.5234375 C-40.35940512 65.0779774 -37.26928347 64.8125 -33.953125 64.8125 C-33.540625 66.05 -33.128125 67.2875 -32.703125 68.5625 C-31.3142152 72.16219741 -30.27118072 74.62956861 -26.953125 76.8125 C-22.49817857 78.03676009 -19.03247928 78.17907315 -14.640625 76.6875 C-11.65522254 74.60466108 -9.95855753 72.85435354 -7.953125 69.8125 C-7.35996836 66.40814829 -7.35996836 66.40814829 -7.515625 62.8125 C-7.51691406 61.61625 -7.51820313 60.42 -7.51953125 59.1875 C-7.98321807 55.57826202 -8.7602464 53.68646089 -10.953125 50.8125 C-16.90119701 47.21887316 -22.09665104 47.55855652 -28.953125 47.8125 C-28.293125 42.8625 -27.633125 37.9125 -26.953125 32.8125 C-25.40625 32.585625 -23.859375 32.35875 -22.265625 32.125 C-18.84905016 31.40776159 -16.84203983 30.7436272 -13.828125 28.875 C-11.01749868 24.28431034 -10.97795245 20.05103023 -11.953125 14.8125 C-14.11391588 11.81527394 -15.49930078 11.05699485 -19.11328125 10.44921875 C-22.95157745 10.22494435 -25.39035972 10.51888333 -28.828125 12.3125 C-31.64981419 15.63213434 -32.64012525 18.666185 -33.953125 22.8125 C-37.28843535 22.49708836 -40.62113218 22.16119692 -43.953125 21.8125 C-44.675 21.7403125 -45.396875 21.668125 -46.140625 21.59375 C-47.7548434 21.40542452 -49.35695887 21.11814883 -50.953125 20.8125 C-52.246977 18.224796 -51.76593159 17.4620155 -50.890625 14.75 C-47.54771014 5.35656052 -42.33344166 -1.07515041 -33.390625 -5.4375 C-21.44516419 -9.1130264 -10.15489821 -7.20205547 0 0 Z " fill="#1E1E1E" transform="translate(149.953125,145.1875)"/>
<path d="M0 0 C4.2965329 2.53886035 6.25168155 5.36695611 8 10 C9.12214298 17.42162148 9.18619681 24.82701439 9.18530273 32.31933594 C9.1874884 34.36414452 9.20570412 36.40841134 9.22460938 38.453125 C9.31490617 59.45857702 9.31490617 59.45857702 4 66 C1.68162542 68.31837458 0.37238931 68.93523664 -2.875 69.5 C-7.05291662 68.83153334 -9.51629267 67.34863168 -12 64 C-15.70530324 55.57410691 -15.46341888 46.46165678 -15.39111328 37.44848633 C-15.37504991 35.06988986 -15.39102389 32.69299777 -15.41015625 30.31445312 C-15.43877156 9.96711447 -15.43877156 9.96711447 -9.75 1.75 C-6.15786146 -0.53590634 -4.18727017 -0.67295413 0 0 Z " fill="#FCFCFC" transform="translate(211,155)"/>
<path d="M0 0 C2.31 0 4.62 0 7 0 C7.33 0.66 7.66 1.32 8 2 C8.99 1.34 9.98 0.68 11 0 C16.21321982 -0.66385571 20.16696443 0.06678577 25 2 C26.34246312 1.35191436 27.67432801 0.68177416 29 0 C35.82105263 -0.75789474 35.82105263 -0.75789474 39.734375 1.7578125 C43.20433832 6.72344967 42.53656046 11.41453941 42.3125 17.3125 C42.28994141 18.43462891 42.26738281 19.55675781 42.24414062 20.71289062 C42.18533776 23.47662536 42.10320401 26.23762554 42 29 C39.69 29 37.38 29 35 29 C34.97494385 28.36908447 34.9498877 27.73816895 34.92407227 27.08813477 C34.80845863 24.24603175 34.68557684 21.40428917 34.5625 18.5625 C34.52318359 17.56927734 34.48386719 16.57605469 34.44335938 15.55273438 C34.40146484 14.60849609 34.35957031 13.66425781 34.31640625 12.69140625 C34.26141968 11.37958374 34.26141968 11.37958374 34.20532227 10.04125977 C34.21818934 8.0072598 34.21818934 8.0072598 33 7 C31.00041636 6.95919217 28.99954746 6.95745644 27 7 C25.82530556 9.34938888 25.79965111 10.95073205 25.68359375 13.5703125 C25.64169922 14.46621094 25.59980469 15.36210938 25.55664062 16.28515625 C25.51732422 17.22230469 25.47800781 18.15945312 25.4375 19.125 C25.39431641 20.06988281 25.35113281 21.01476562 25.30664062 21.98828125 C25.20040928 24.32537092 25.09836824 26.6625683 25 29 C22.69 29 20.38 29 18 29 C17.97494385 28.40461426 17.9498877 27.80922852 17.92407227 27.19580078 C17.80822506 24.50530864 17.68544804 21.8151766 17.5625 19.125 C17.52318359 18.18785156 17.48386719 17.25070313 17.44335938 16.28515625 C17.40146484 15.38925781 17.35957031 14.49335937 17.31640625 13.5703125 C17.27974854 12.74289551 17.24309082 11.91547852 17.20532227 11.06298828 C17.11761673 8.93820571 17.11761673 8.93820571 16 7 C14.00045254 6.95745644 11.99958364 6.95919217 10 7 C8.38219843 8.61780157 8.77727853 10.45635518 8.68359375 12.69140625 C8.64169922 13.63564453 8.59980469 14.57988281 8.55664062 15.55273438 C8.51732422 16.54595703 8.47800781 17.53917969 8.4375 18.5625 C8.39431641 19.55958984 8.35113281 20.55667969 8.30664062 21.58398438 C8.20019702 24.0558415 8.09818072 26.5278031 8 29 C5.36 29 2.72 29 0 29 C0 19.43 0 9.86 0 0 Z " fill="#1D1D1D" transform="translate(247,97)"/>
<path d="M0 0 C2.31 0 4.62 0 7 0 C7.33 6.6 7.66 13.2 8 20 C9.134375 18.515 10.26875 17.03 11.4375 15.5 C15.21150652 11.18588521 15.21150652 11.18588521 18.53515625 10.40234375 C20.75360036 10.43398558 22.8209365 10.59142559 25 11 C24.04367001 12.29315061 23.08486149 13.58446853 22.125 14.875 C21.59132812 15.59429687 21.05765625 16.31359375 20.5078125 17.0546875 C19 19 19 19 17 21 C17.29856724 25.38664175 19.29515873 28.50020763 21.5625 32.1875 C25 37.79678068 25 37.79678068 25 40 C22.36 40 19.72 40 17 40 C15.02 36.04 13.04 32.08 11 28 C7.7882039 29.63778399 7.7882039 29.63778399 7.48828125 32.3828125 C7.43027344 33.28773437 7.37226563 34.19265625 7.3125 35.125 C7.24675781 36.03507812 7.18101562 36.94515625 7.11328125 37.8828125 C7.07589844 38.58148438 7.03851563 39.28015625 7 40 C4.69 40 2.38 40 0 40 C0 26.8 0 13.6 0 0 Z " fill="#1D1D1D" transform="translate(217,86)"/>
<path d="M0 0 C1.32 0 2.64 0 4 0 C4 7.26 4 14.52 4 22 C2.02 22 0.04 22 -2 22 C-2 15.4 -2 8.8 -2 2 C-1.34 2 -0.68 2 0 2 C0 1.34 0 0.68 0 0 Z " fill="#191A19" transform="translate(284,104)"/>
<path d="M0 0 C2.07588858 -0.00219852 4.1512551 -0.02042685 6.22705078 -0.03930664 C7.54060547 -0.04124023 8.85416016 -0.04317383 10.20751953 -0.04516602 C12.00406982 -0.05132935 12.00406982 -0.05132935 13.83691406 -0.05761719 C16.94970703 0.18530273 16.94970703 0.18530273 20.94970703 2.18530273 C8.07970703 2.18530273 -4.79029297 2.18530273 -18.05029297 2.18530273 C-18.05029297 2.84530273 -18.05029297 3.50530273 -18.05029297 4.18530273 C-19.00742188 4.27618164 -19.00742188 4.27618164 -19.98388672 4.36889648 C-20.81017578 4.45268555 -21.63646484 4.53647461 -22.48779297 4.62280273 C-23.72335938 4.74461914 -23.72335938 4.74461914 -24.98388672 4.86889648 C-27.03691322 4.97461088 -27.03691322 4.97461088 -28.05029297 6.18530273 C-29.56957335 6.25710237 -31.09196779 6.26922281 -32.61279297 6.24780273 C-33.43908203 6.2387793 -34.26537109 6.22975586 -35.11669922 6.22045898 C-35.75478516 6.20885742 -36.39287109 6.19725586 -37.05029297 6.18530273 C-33.67043718 3.93206554 -30.64603888 3.34064382 -26.73779297 2.62280273 C-25.44228516 2.37401367 -24.14677734 2.12522461 -22.81201172 1.86889648 C-21.57064453 1.64331055 -20.32927734 1.41772461 -19.05029297 1.18530273 C-18.12724365 1.00966797 -17.20419434 0.8340332 -16.25317383 0.65307617 C-10.85527065 -0.13527526 -5.44637558 -0.0006473 0 0 Z " fill="#FDC8C7" transform="translate(180.05029296875,40.814697265625)"/>
<path d="M0 0 C1.116898 3.35069401 0.89914401 4.05425535 -0.14453125 7.2890625 C-0.40854736 8.13871582 -0.67256348 8.98836914 -0.94458008 9.86376953 C-1.23099365 10.77497559 -1.51740723 11.68618164 -1.8125 12.625 C-7.23850359 30.88329274 -7.4846853 49.04856887 -8 68 C-8.33 68 -8.66 68 -9 68 C-9.02464849 62.60653012 -9.04283531 57.21309275 -9.05493164 51.81958008 C-9.05997231 49.98331125 -9.06680477 48.14704646 -9.07543945 46.31079102 C-9.08751672 43.67723599 -9.09323081 41.04373384 -9.09765625 38.41015625 C-9.10281754 37.58411392 -9.10797882 36.75807159 -9.11329651 35.90699768 C-9.11349205 33.93763632 -9.06204152 31.96838386 -9 30 C-8.67 29.67 -8.34 29.34 -8 29 C-7.76712992 27.31816052 -7.58735834 25.6287584 -7.4375 23.9375 C-7.35371094 23.01839844 -7.26992188 22.09929687 -7.18359375 21.15234375 C-7.12300781 20.44207031 -7.06242187 19.73179687 -7 19 C-6.34 19 -5.68 19 -5 19 C-5.02320313 18.39671875 -5.04640625 17.7934375 -5.0703125 17.171875 C-5.08835938 16.37265625 -5.10640625 15.5734375 -5.125 14.75 C-5.14820313 13.96109375 -5.17140625 13.1721875 -5.1953125 12.359375 C-4.97908341 9.7473276 -4.29513426 8.257234 -3 6 C-2.46375 4.9275 -1.9275 3.855 -1.375 2.75 C-0.92125 1.8425 -0.4675 0.935 0 0 Z " fill="#DF1B18" transform="translate(50,128)"/>
<path d="M0 0 C0.495 0.99 0.495 0.99 1 2 C-10.71875 7.859375 -10.71875 7.859375 -12.8515625 8.92089844 C-14.3099278 9.65339555 -15.76293797 10.39663339 -17.2109375 11.14941406 C-17.91476563 11.51260742 -18.61859375 11.87580078 -19.34375 12.25 C-19.97474609 12.58 -20.60574219 12.91 -21.25585938 13.25 C-23.56460073 14.24278463 -25.52380799 14.309524 -28 14 C-28.33 14.99 -28.66 15.98 -29 17 C-35.71162938 17.88021369 -42.23405981 18.11381955 -49 18 C-49 17.67 -49 17.34 -49 17 C-47.81664062 16.74605469 -46.63328125 16.49210937 -45.4140625 16.23046875 C-29.05418705 12.68655079 -14.96728289 7.63037951 0 0 Z " fill="#E02320" transform="translate(253,301)"/>
<path d="M0 0 C0.33 1.32 0.66 2.64 1 4 C0.01 4.495 0.01 4.495 -1 5 C-1.7166207 7.31847874 -2.38242027 9.65319703 -3 12 C-4 14 -4 14 -7.0625 15.125 C-8.031875 15.41375 -9.00125 15.7025 -10 16 C-10.10570312 16.72703125 -10.21140625 17.4540625 -10.3203125 18.203125 C-11.05726745 21.23565226 -12.13636494 23.17232216 -13.875 25.75 C-14.64457031 26.91789062 -14.64457031 26.91789062 -15.4296875 28.109375 C-17 30 -17 30 -20 31 C-18.37388705 26.38076706 -15.96758474 22.43489499 -13.375 18.3125 C-12.93494629 17.60931641 -12.49489258 16.90613281 -12.04150391 16.18164062 C-8.40001235 10.45085478 -4.43267405 5.15081677 0 0 Z " fill="#DF0F0F" transform="translate(49,69)"/>
<path d="M0 0 C3.78527521 0.51152368 5.44108688 1.20845842 8 4 C8.99 4.33 9.98 4.66 11 5 C11.9140625 7.36328125 11.9140625 7.36328125 12.625 10.3125 C12.86476563 11.27800781 13.10453125 12.24351562 13.3515625 13.23828125 C13.56554688 14.14964844 13.77953125 15.06101562 14 16 C14.33177183 17.33372274 14.6644325 18.6672272 15 20 C8.95272744 14.33068197 2.75835999 7.92144406 0 0 Z " fill="#F90403" transform="translate(37,273)"/>
<path d="M0 0 C0.33 0 0.66 0 1 0 C1.02685938 2.14576637 1.04633088 4.29162645 1.0625 6.4375 C1.07410156 7.63246094 1.08570313 8.82742187 1.09765625 10.05859375 C1 13 1 13 0 14 C-0.15806531 15.92478813 -0.251135 17.8549921 -0.31640625 19.78515625 C-0.35830078 20.95498047 -0.40019531 22.12480469 -0.44335938 23.33007812 C-0.50233398 25.17762695 -0.50233398 25.17762695 -0.5625 27.0625 C-0.60568359 28.29806641 -0.64886719 29.53363281 -0.69335938 30.80664062 C-0.79984198 33.87097335 -0.90185424 36.93539073 -1 40 C-1.66 40 -2.32 40 -3 40 C-3.45334685 26.39959447 -2.13286638 13.42873847 0 0 Z " fill="#D01111" transform="translate(12,145)"/>
<path d="M0 0 C-1.98 0.33 -3.96 0.66 -6 1 C-6 1.66 -6 2.32 -6 3 C-7.27617187 3.24234375 -8.55234375 3.4846875 -9.8671875 3.734375 C-11.5366405 4.07201718 -13.20590179 4.41060826 -14.875 4.75 C-15.71675781 4.90726563 -16.55851562 5.06453125 -17.42578125 5.2265625 C-18.23144531 5.39414062 -19.03710938 5.56171875 -19.8671875 5.734375 C-20.61081543 5.88100586 -21.35444336 6.02763672 -22.12060547 6.17871094 C-24.19415391 6.86974352 -24.19415391 6.86974352 -25.25830078 9.07910156 C-25.50306152 9.71299805 -25.74782227 10.34689453 -26 11 C-28.475 10.01 -28.475 10.01 -31 9 C-28.75810223 6.75810223 -27.33442367 6.28569865 -24.3515625 5.30859375 C-23.42859375 5.00373047 -22.505625 4.69886719 -21.5546875 4.38476562 C-20.58789062 4.07216797 -19.62109375 3.75957031 -18.625 3.4375 C-17.6659375 3.12103516 -16.706875 2.80457031 -15.71875 2.47851562 C-4.12234677 -1.32504003 -4.12234677 -1.32504003 0 0 Z " fill="#D4100D" transform="translate(144,14)"/>
<path d="M0 0 C3.875 1.75 3.875 1.75 5 4 C5.08471364 5.81341842 5.10721083 7.62994161 5.09765625 9.4453125 C5.09443359 10.52167969 5.09121094 11.59804687 5.08789062 12.70703125 C5.07951172 13.83496094 5.07113281 14.96289062 5.0625 16.125 C5.05798828 17.26066406 5.05347656 18.39632812 5.04882812 19.56640625 C5.03701615 22.37765638 5.02054507 25.1888023 5 28 C4.67 28 4.34 28 4 28 C3.67 21.07 3.34 14.14 3 7 C1.35 7.33 -0.3 7.66 -2 8 C-2.6875 5.6875 -2.6875 5.6875 -3 3 C-1.5625 1.1875 -1.5625 1.1875 0 0 Z " fill="#313231" transform="translate(284,98)"/>
<path d="M0 0 C0.33 0 0.66 0 1 0 C0.67 2.64 0.34 5.28 0 8 C-0.99 8.33 -1.98 8.66 -3 9 C-4.20882096 11.00016466 -4.20882096 11.00016466 -5 13 C-5.66 13 -6.32 13 -7 13 C-8.37310707 14.29233607 -9.71034824 15.62437146 -11 17 C-11.66 16.67 -12.32 16.34 -13 16 C-11.84371094 14.64455078 -11.84371094 14.64455078 -10.6640625 13.26171875 C-9.65095837 12.07038333 -8.63794212 10.87897317 -7.625 9.6875 C-7.11710937 9.09259766 -6.60921875 8.49769531 -6.0859375 7.88476562 C-5.59609375 7.30791016 -5.10625 6.73105469 -4.6015625 6.13671875 C-4.15119629 5.60780029 -3.70083008 5.07888184 -3.23681641 4.53393555 C-2.07125727 3.08837533 -1.03003696 1.54505544 0 0 Z " fill="#E91410" transform="translate(294,264)"/>
<path d="M0 0 C2.96257199 2.96257199 2.97071915 5.14890339 3.11352539 9.29980469 C3.10828857 10.57758789 3.10305176 11.85537109 3.09765625 13.171875 C3.09553383 14.1955014 3.09553383 14.1955014 3.09336853 15.23980713 C3.08779084 17.40991684 3.07524254 19.5799217 3.0625 21.75 C3.05748211 23.22525892 3.05291971 24.70051947 3.04882812 26.17578125 C3.03782875 29.78388798 3.02057953 33.39193375 3 37 C2.67 37 2.34 37 2 37 C1.96241577 36.17145508 1.96241577 36.17145508 1.92407227 35.32617188 C1.38592129 23.54298399 0.78242577 11.7696813 0 0 Z " fill="#E63432" transform="translate(320,151)"/>
<path d="M0 0 C1 3 1 3 0.22729492 4.97705078 C-0.18415771 5.70907715 -0.59561035 6.44110352 -1.01953125 7.1953125 C-1.46490234 7.99324219 -1.91027344 8.79117187 -2.36914062 9.61328125 C-2.84544922 10.44214844 -3.32175781 11.27101563 -3.8125 12.125 C-4.27720703 12.96160156 -4.74191406 13.79820312 -5.22070312 14.66015625 C-8.72356719 20.8617836 -8.72356719 20.8617836 -11 22 C-11.1875 19.625 -11.1875 19.625 -11 17 C-10.01 16.34 -9.02 15.68 -8 15 C-7.7497843 11.91634129 -7.7497843 11.91634129 -8 9 C-7.01 9.33 -6.02 9.66 -5 10 C-5 9.34 -5 8.68 -5 8 C-4.34 8 -3.68 8 -3 8 C-3 6.02 -3 4.04 -3 2 C-2.34 2 -1.68 2 -1 2 C-0.67 1.34 -0.34 0.68 0 0 Z " fill="#D7100E" transform="translate(338,251)"/>
<path d="M0 0 C1.134375 0.020625 2.26875 0.04125 3.4375 0.0625 C-5.78653667 5.14782809 -17.2073425 6.24416943 -27.5625 6.0625 C-24.97581224 3.47581224 -23.59358979 3.72020694 -20 3.5 C-16.46833192 3.56452788 -16.46833192 3.56452788 -13.5625 2.0625 C-11.24432911 1.74152249 -8.92470643 1.55029044 -6.59375 1.34375 C-3.33684056 0.89279331 -3.92277464 0.06882061 0 0 Z " fill="#D10F0E" transform="translate(226.5625,344.9375)"/>
<path d="M0 0 C8.91648697 2.93792082 16.2823896 7.79561719 24 13 C21 14 21 14 19 13.25 C17 12 17 12 15.5 10.4375 C13.72539815 8.73683989 12.38993744 8.41205818 10 8 C10 7.34 10 6.68 10 6 C9.01 6 8.02 6 7 6 C7 5.34 7 4.68 7 4 C6.1028125 3.7834375 6.1028125 3.7834375 5.1875 3.5625 C3.43849596 3.1127561 1.71322977 2.57107659 0 2 C0 1.34 0 0.68 0 0 Z " fill="#D31413" transform="translate(256,25)"/>
<path d="M0 0 C0 0.66 0 1.32 0 2 C-4.38206645 6.21652171 -8.70323565 9.8385445 -15 10 C-11.33829025 5.99500496 -5.76187936 0 0 0 Z " fill="#DD0A0C" transform="translate(93,33)"/>
<path d="M0 0 C0 0.66 0 1.32 0 2 C-10.05610192 2.14141393 -19.97562315 1.72904559 -30 1 C-30 0.67 -30 0.34 -30 0 C-19.96493779 -1.74522821 -10.09835783 -0.88637624 0 0 Z " fill="#D61710" transform="translate(200,9)"/>
<path d="M0 0 C0.33 0 0.66 0 1 0 C1.06058594 1.07121094 1.12117187 2.14242187 1.18359375 3.24609375 C1.26798537 4.64324391 1.35263406 6.04037857 1.4375 7.4375 C1.47681641 8.14455078 1.51613281 8.85160156 1.55664062 9.58007812 C1.47624438 13.08690419 1.47624438 13.08690419 3 16 C3.07258946 18.18639453 3.08373783 20.37500389 3.0625 22.5625 C3.05347656 23.76003906 3.04445313 24.95757812 3.03515625 26.19140625 C3.02355469 27.11824219 3.01195312 28.04507813 3 29 C2.67 29 2.34 29 2 29 C-2.21637427 6.64912281 -2.21637427 6.64912281 0 0 Z " fill="#D1100E" transform="translate(10,186)"/>
<path d="M0 0 C0.66 0.33 1.32 0.66 2 1 C0.92781239 2.63237552 -0.15821244 4.25566803 -1.25 5.875 C-2.15492187 7.23238281 -2.15492187 7.23238281 -3.078125 8.6171875 C-5.00035444 11.00043945 -6.26310917 11.79530019 -9 13 C-9.33 13.66 -9.66 14.32 -10 15 C-10.66 15 -11.32 15 -12 15 C-10.38462556 11.10082032 -7.72075127 8.28706228 -4.875 5.25 C-4.40707031 4.74339844 -3.93914063 4.23679687 -3.45703125 3.71484375 C-2.30873459 2.47280859 -1.15491328 1.23588506 0 0 Z " fill="#D90C0B" transform="translate(63,54)"/>
<path d="M0 0 C-2.60060504 1.34070318 -5.20504916 2.67273354 -7.8125 4 C-8.55048828 4.3815625 -9.28847656 4.763125 -10.04882812 5.15625 C-10.76103516 5.5171875 -11.47324219 5.878125 -12.20703125 6.25 C-13.18893433 6.75273437 -13.18893433 6.75273437 -14.19067383 7.265625 C-16 8 -16 8 -19 8 C-19 7.34 -19 6.68 -19 6 C-17.68 6 -16.36 6 -15 6 C-15 5.34 -15 4.68 -15 4 C-13.35 4 -11.7 4 -10 4 C-10 3.34 -10 2.68 -10 2 C-9.01 2 -8.02 2 -7 2 C-7 1.34 -7 0.68 -7 0 C-3.98968256 -0.93423645 -3.13349732 -1.04449911 0 0 Z " fill="#D8100E" transform="translate(266,331)"/>
<path d="M0 0 C2.64 0 5.28 0 8 0 C7.43628586 3.26954202 6.50037734 4.82575883 4 7 C2.68 6.34 1.36 5.68 0 5 C0 3.33333333 0 1.66666667 0 0 Z " fill="#222223" transform="translate(276,97)"/>
<path d="M0 0 C5.70985379 3.65119902 10.94464135 7.48244546 16 12 C14 13 14 13 10.5625 11.875 C7.0074689 10.27376698 5.81891888 8.4646074 4 5 C2.68036291 3.98199424 1.34990354 2.97751635 0 2 C0 1.34 0 0.68 0 0 Z " fill="#D71412" transform="translate(281,39)"/>
<path d="M0 0 C4.48993869 0.58652352 8.22543184 1.7643538 12.375 3.5625 C13.43460938 4.01753906 14.49421875 4.47257812 15.5859375 4.94140625 C16.38257813 5.29074219 17.17921875 5.64007813 18 6 C14.11764181 7.49828872 11.56550712 6.43110582 7.75 5.0625 C6.67234375 4.68222656 5.5946875 4.30195313 4.484375 3.91015625 C3.66453125 3.60980469 2.8446875 3.30945313 2 3 C2 2.34 2 1.68 2 1 C1.34 0.67 0.68 0.34 0 0 Z " fill="#DD1214" transform="translate(237,18)"/>
<path d="M0 0 C2.28934156 4.0887462 2.17053285 6.39590413 1 11 C-0.49723419 13.53150781 -2.1598517 15.6880188 -4 18 C-5.68550367 14.62899267 -3.68863036 11.27985368 -2.5625 7.875 C-2.19801758 6.74384766 -2.19801758 6.74384766 -1.82617188 5.58984375 C-1.22404181 3.72442121 -0.61286537 1.86192317 0 0 Z " fill="#E21E1A" transform="translate(317,216)"/>
<path d="M0 0 C1.98 0 3.96 0 6 0 C3.51340379 2.48659621 1.39516054 3.0343111 -1.9375 4.125 C-2.99839844 4.47820312 -4.05929688 4.83140625 -5.15234375 5.1953125 C-8 6 -8 6 -11 6 C-11 5.34 -11 4.68 -11 4 C-9.35 4 -7.7 4 -6 4 C-5.67 3.01 -5.34 2.02 -5 1 C-3.35 1.33 -1.7 1.66 0 2 C0 1.34 0 0.68 0 0 Z " fill="#D3140D" transform="translate(241,339)"/>
<path d="M0 0 C1.91562291 2.87343437 2.29210899 3.77503541 2.6328125 7.01171875 C2.71660156 7.76904297 2.80039062 8.52636719 2.88671875 9.30664062 C2.96535156 10.09232422 3.04398437 10.87800781 3.125 11.6875 C3.21136719 12.48478516 3.29773438 13.28207031 3.38671875 14.10351562 C3.59848472 16.06823326 3.80021473 18.03402796 4 20 C-0.26429585 13.60355623 -0.27018742 7.46017494 0 0 Z " fill="#FDD1D0" transform="translate(317,143)"/>
<path d="M0 0 C5.51068783 -0.22042751 9.77092924 0.06751733 15 2 C17.32694964 2.37531446 19.65976685 2.71917202 22 3 C22 3.33 22 3.66 22 4 C14.37404682 4.45755719 7.3970146 2.74536299 0 1 C0 0.67 0 0.34 0 0 Z " fill="#C81113" transform="translate(143,347)"/>
<path d="M0 0 C3.24208567 0.35049575 4.61527704 0.56221181 6.8125 3.0625 C7.204375 3.701875 7.59625 4.34125 8 5 C7.34 5 6.68 5 6 5 C6.33 6.65 6.66 8.3 7 10 C3.60582235 6.87378374 1.3937282 4.43458973 0 0 Z " fill="#DA1110" transform="translate(37,273)"/>
<path d="M0 0 C2.97 0 5.94 0 9 0 C7.68 1.65 6.36 3.3 5 5 C3.68 4.67 2.36 4.34 1 4 C0.67 2.68 0.34 1.36 0 0 Z " fill="#151515" transform="translate(233,97)"/>
<path d="M0 0 C0.33 1.32 0.66 2.64 1 4 C0.34 4 -0.32 4 -1 4 C-1 5.32 -1 6.64 -1 8 C-2.875 10.0625 -2.875 10.0625 -5 12 C-5.99 13.485 -5.99 13.485 -7 15 C-7.66 14.67 -8.32 14.34 -9 14 C-6.03 9.38 -3.06 4.76 0 0 Z " fill="#DF231F" transform="translate(304,249)"/>
<path d="M0 0 C1.32 0.33 2.64 0.66 4 1 C4.66666667 4.33333333 5.33333333 7.66666667 6 11 C6.66 11 7.32 11 8 11 C8 12.65 8 14.3 8 16 C5.70351643 13.10414095 3.95652443 10.1827969 2.3125 6.875 C1.65701172 5.57175781 1.65701172 5.57175781 0.98828125 4.2421875 C0 2 0 2 0 0 Z " fill="#E11A18" transform="translate(305,112)"/>
<path d="M0 0 C1.12377697 3.30435084 0.89554742 5.0506862 -0.4375 8.25 C-0.72496094 8.95640625 -1.01242187 9.6628125 -1.30859375 10.390625 C-1.53675781 10.92171875 -1.76492188 11.4528125 -2 12 C-2.33 12 -2.66 12 -3 12 C-3.33 8.7 -3.66 5.4 -4 2 C-2.68 2 -1.36 2 0 2 C0 1.34 0 0.68 0 0 Z " fill="#DE0E0B" transform="translate(346,230)"/>
<path d="M0 0 C0.33 0 0.66 0 1 0 C1.20140476 3.62528568 0.85776765 5.86501708 -1 9 C-0.34 9.33 0.32 9.66 1 10 C-0.65 10.66 -2.3 11.32 -4 12 C-3.45660208 7.43545749 -2.20536179 4.0271824 0 0 Z " fill="#E30F0F" transform="translate(23,112)"/>
<path d="M0 0 C3.67882073 3.28466137 5.75150101 6.66360908 8 11 C8 11.66 8 12.32 8 13 C7.34 13 6.68 13 6 13 C5.62875 11.88625 5.62875 11.88625 5.25 10.75 C4.15703819 7.90133031 4.15703819 7.90133031 1.875 5.9375 C0 4 0 4 0 0 Z " fill="#D21214" transform="translate(325,84)"/>
<path d="M0 0 C2.875 0.25 2.875 0.25 6 1 C7.25 3 7.25 3 8 5 C8.66 5.33 9.32 5.66 10 6 C10 6.66 10 7.32 10 8 C6.05205855 6.32971708 3.18203882 3.8204435 0 1 C0 0.67 0 0.34 0 0 Z " fill="#DF0B0E" transform="translate(71,311)"/>
<path d="M0 0 C0.66 0.99 1.32 1.98 2 3 C1.34 3 0.68 3 0 3 C0 4.65 0 6.3 0 8 C-0.66 8 -1.32 8 -2 8 C-2.33 9.98 -2.66 11.96 -3 14 C-3.99 14.33 -4.98 14.66 -6 15 C-4.36041242 9.76727367 -2.61047965 4.84803364 0 0 Z " fill="#E32120" transform="translate(311,234)"/>
<path d="M0 0 C0.33 0.66 0.66 1.32 1 2 C-1.36292656 4.52588702 -2.66462511 5.88820837 -6 7 C-7.68538601 8.99665314 -7.68538601 8.99665314 -9 11 C-9.99 10.67 -10.98 10.34 -12 10 C-10.37744772 8.51814875 -8.75188112 7.03959744 -7.125 5.5625 C-6.22007813 4.73878906 -5.31515625 3.91507813 -4.3828125 3.06640625 C-2 1 -2 1 0 0 Z " fill="#D31013" transform="translate(77,43)"/>
<path d="M0 0 C2.475 0.99 2.475 0.99 5 2 C4.67 4.64 4.34 7.28 4 10 C1.16625119 6.79663178 0.4794463 4.21912747 0 0 Z " fill="#E30B0F" transform="translate(19,236)"/>
<path d="M0 0 C0.66 0 1.32 0 2 0 C2 0.66 2 1.32 2 2 C3.32 2.33 4.64 2.66 6 3 C6.66 5.31 7.32 7.62 8 10 C4.71211176 6.88983545 2.16264012 3.98381075 0 0 Z " fill="#D21411" transform="translate(44,283)"/>
<path d="M0 0 C-1.62249941 0.83819158 -3.24808497 1.6704116 -4.875 2.5 C-6.23238281 3.19609375 -6.23238281 3.19609375 -7.6171875 3.90625 C-10 5 -10 5 -12 5 C-11 2 -11 2 -9.2578125 1.015625 C-8.55398437 0.76296875 -7.85015625 0.5103125 -7.125 0.25 C-6.07699219 -0.14445312 -6.07699219 -0.14445312 -5.0078125 -0.546875 C-3 -1 -3 -1 0 0 Z " fill="#FED9D5" transform="translate(249,304)"/>
<path d="M0 0 C4.23429756 1.31061591 8.07407404 2.94356259 12 5 C8.35839192 6.21386936 7.66834531 5.6674695 4.3125 4.0625 C3.10013672 3.49208984 3.10013672 3.49208984 1.86328125 2.91015625 C1.24839844 2.60980469 0.63351563 2.30945312 0 2 C0 1.34 0 0.68 0 0 Z " fill="#FED3CE" transform="translate(234,51)"/>
<path d="M0 0 C0.6875 1.6875 0.6875 1.6875 1 4 C-0.25 6.6875 -0.25 6.6875 -2 9 C-2.99 9.33 -3.98 9.66 -5 10 C-3.66511872 6.40608886 -2.03977277 3.24509304 0 0 Z " fill="#CE1311" transform="translate(34,90)"/>
<path d="M0 0 C0.99 0.33 1.98 0.66 3 1 C1.35830472 3.02054804 -0.30911778 5.02043058 -2 7 C-2.33 7 -2.66 7 -3 7 C-3 5.35 -3 3.7 -3 2 C-2.34 2 -1.68 2 -1 2 C-0.67 1.34 -0.34 0.68 0 0 Z " fill="#E61210" transform="translate(88,72)"/>
<path d="M0 0 C2.31 1.98 4.62 3.96 7 6 C5.02 6.99 5.02 6.99 3 8 C1.92474806 5.34771188 0.90543849 2.71631546 0 0 Z " fill="#E32423" transform="translate(77,274)"/>
<path d="M0 0 C0.96661363 3.12180401 0.98988909 5.52083795 0.5625 8.75 C0.40974609 9.94882813 0.40974609 9.94882813 0.25390625 11.171875 C0.12822266 12.07679688 0.12822266 12.07679688 0 13 C-0.33 13 -0.66 13 -1 13 C-1.22151549 11.20991533 -1.42682213 9.41781838 -1.625 7.625 C-1.74101563 6.62726563 -1.85703125 5.62953125 -1.9765625 4.6015625 C-1.98429687 3.74304688 -1.99203125 2.88453125 -2 2 C-1.34 1.34 -0.68 0.68 0 0 Z " fill="#E43D3E" transform="translate(43,156)"/>
<path d="M0 0 C0.99 0 1.98 0 3 0 C2.46930939 3.82097239 1.50298434 6.06171403 -1 9 C-0.67 6.03 -0.34 3.06 0 0 Z " fill="#E31614" transform="translate(52,119)"/>
<path d="M0 0 C0.33 0.99 0.66 1.98 1 3 C-0.32 4.32 -1.64 5.64 -3 7 C-3.66 6.67 -4.32 6.34 -5 6 C-3.35 4.02 -1.7 2.04 0 0 Z " fill="#E11C1F" transform="translate(286,274)"/>
<path d="M0 0 C0.66 0.33 1.32 0.66 2 1 C2 2.98 2 4.96 2 7 C0.68 5.68 -0.64 4.36 -2 3 C-1.34 2.67 -0.68 2.34 0 2 C0 1.34 0 0.68 0 0 Z " fill="#161616" transform="translate(222,101)"/>
<path d="M0 0 C0.66 0.33 1.32 0.66 2 1 C-1.5 5.875 -1.5 5.875 -6 7 C-4.02 4.69 -2.04 2.38 0 0 Z " fill="#FED4D1" transform="translate(91,73)"/>
<path d="M0 0 C0.78375 0.04125 1.5675 0.0825 2.375 0.125 C1.715 1.445 1.055 2.765 0.375 4.125 C-2.1 3.135 -2.1 3.135 -4.625 2.125 C-2.625 0.125 -2.625 0.125 0 0 Z " fill="#E60C0A" transform="translate(117.625,20.875)"/>
</svg>
