<svg id="svg" version="1.1" xmlns="http://www.w3.org/2000/svg" xmlns:xlink="http://www.w3.org/1999/xlink" width="400" height="400" viewBox="0, 0, 400,400"><g id="svgg"><path id="path0" d="M187.183 0.133 C 187.064 0.262,184.678 0.393,181.881 0.424 C 179.085 0.456,176.697 0.643,176.575 0.841 C 176.453 1.038,175.283 1.200,173.976 1.200 C 172.659 1.200,171.600 1.378,171.600 1.600 C 171.600 1.828,170.408 2.000,168.824 2.000 C 167.297 2.000,165.936 2.180,165.800 2.400 C 165.664 2.620,164.573 2.800,163.376 2.800 C 162.179 2.800,161.200 2.980,161.200 3.200 C 161.200 3.420,160.311 3.600,159.224 3.600 C 158.137 3.600,157.136 3.780,157.000 4.000 C 156.864 4.220,156.133 4.400,155.376 4.400 C 154.619 4.400,154.000 4.580,154.000 4.800 C 154.000 5.020,153.201 5.200,152.224 5.200 C 151.247 5.200,150.336 5.380,150.200 5.600 C 150.064 5.820,149.423 6.000,148.776 6.000 C 148.129 6.000,147.600 6.180,147.600 6.400 C 147.600 6.620,147.186 6.800,146.680 6.800 C 146.174 6.800,145.518 7.025,145.221 7.300 C 144.784 7.706,144.742 7.688,145.000 7.200 C 145.258 6.712,145.216 6.694,144.779 7.100 C 144.482 7.375,143.751 7.600,143.153 7.600 C 142.556 7.600,142.007 7.778,141.933 7.997 C 141.860 8.215,141.318 8.433,140.729 8.481 C 140.140 8.530,139.745 8.712,139.852 8.885 C 139.960 9.058,139.407 9.200,138.624 9.200 C 137.841 9.200,137.200 9.380,137.200 9.600 C 137.200 9.820,136.671 10.000,136.024 10.000 C 135.377 10.000,134.736 10.180,134.600 10.400 C 134.464 10.620,133.928 10.800,133.410 10.800 C 132.891 10.800,132.407 10.978,132.333 11.197 C 132.260 11.415,131.718 11.633,131.129 11.681 C 130.540 11.730,130.145 11.912,130.252 12.085 C 130.360 12.258,129.907 12.400,129.247 12.400 C 128.587 12.400,127.936 12.580,127.800 12.800 C 127.664 13.020,127.203 13.200,126.776 13.200 C 126.349 13.200,126.000 13.380,126.000 13.600 C 126.000 13.820,125.561 14.000,125.024 14.000 C 124.487 14.000,123.936 14.180,123.800 14.400 C 123.664 14.620,123.203 14.800,122.776 14.800 C 122.349 14.800,122.000 14.980,122.000 15.200 C 122.000 15.420,121.640 15.600,121.200 15.600 C 120.760 15.600,120.400 15.780,120.400 16.000 C 120.400 16.220,119.860 16.400,119.200 16.400 C 118.540 16.400,118.000 16.580,118.000 16.800 C 118.000 17.020,117.640 17.200,117.200 17.200 C 116.760 17.200,116.400 17.380,116.400 17.600 C 116.400 17.820,116.040 18.000,115.600 18.000 C 115.160 18.000,114.800 18.180,114.800 18.400 C 114.800 18.620,114.440 18.800,114.000 18.800 C 113.560 18.800,113.200 18.980,113.200 19.200 C 113.200 19.420,112.840 19.600,112.400 19.600 C 111.960 19.600,111.600 19.780,111.600 20.000 C 111.600 20.220,111.240 20.400,110.800 20.400 C 110.360 20.400,110.000 20.580,110.000 20.800 C 110.000 21.020,109.640 21.200,109.200 21.200 C 108.760 21.200,108.400 21.380,108.400 21.600 C 108.400 21.820,108.040 22.000,107.600 22.000 C 107.160 22.000,106.800 22.180,106.800 22.400 C 106.800 22.620,106.440 22.800,106.000 22.800 C 105.560 22.800,105.200 22.980,105.200 23.200 C 105.200 23.420,104.840 23.600,104.400 23.600 C 103.960 23.600,103.600 23.780,103.600 24.000 C 103.600 24.220,103.280 24.400,102.888 24.400 C 102.497 24.400,101.917 24.760,101.600 25.200 C 101.283 25.640,100.703 26.000,100.312 26.000 C 99.920 26.000,99.600 26.180,99.600 26.400 C 99.600 26.620,99.240 26.800,98.800 26.800 C 98.360 26.800,98.000 26.980,98.000 27.200 C 98.000 27.420,97.764 27.600,97.475 27.600 C 97.187 27.600,96.564 27.960,96.092 28.400 C 95.620 28.840,95.038 29.200,94.800 29.200 C 94.562 29.200,93.980 29.560,93.508 30.000 C 93.036 30.440,92.413 30.800,92.125 30.800 C 91.836 30.800,91.600 30.980,91.600 31.200 C 91.600 31.420,91.364 31.600,91.075 31.600 C 90.787 31.600,90.164 31.960,89.692 32.400 C 89.220 32.840,88.596 33.200,88.305 33.200 C 88.014 33.200,87.517 33.560,87.200 34.000 C 86.883 34.440,86.420 34.800,86.171 34.800 C 85.922 34.800,85.154 35.340,84.463 36.000 C 83.772 36.660,83.024 37.200,82.800 37.200 C 82.576 37.200,81.828 37.740,81.137 38.400 C 80.446 39.060,79.710 39.600,79.501 39.600 C 79.292 39.600,78.617 40.140,78.000 40.800 C 77.383 41.460,76.681 42.000,76.440 42.000 C 76.198 42.000,75.259 42.720,74.352 43.600 C 73.445 44.480,72.534 45.200,72.326 45.200 C 72.118 45.200,71.071 46.100,70.000 47.200 C 68.929 48.300,67.863 49.200,67.632 49.200 C 67.084 49.200,48.400 67.884,48.400 68.432 C 48.400 68.663,47.500 69.729,46.400 70.800 C 45.300 71.871,44.400 72.902,44.400 73.090 C 44.400 73.278,43.680 74.228,42.800 75.200 C 41.920 76.172,41.200 77.112,41.200 77.288 C 41.200 77.463,40.660 78.172,40.000 78.863 C 39.340 79.554,38.800 80.274,38.800 80.463 C 38.800 80.652,38.260 81.372,37.600 82.063 C 36.940 82.754,36.400 83.562,36.400 83.859 C 36.400 84.157,36.250 84.400,36.068 84.400 C 35.885 84.400,35.481 84.895,35.170 85.500 C 34.860 86.105,34.289 86.891,33.903 87.247 C 33.516 87.603,33.200 88.148,33.200 88.459 C 33.200 88.769,32.840 89.283,32.400 89.600 C 31.960 89.917,31.600 90.414,31.600 90.705 C 31.600 90.996,31.240 91.620,30.800 92.092 C 30.360 92.564,30.000 93.187,30.000 93.475 C 30.000 93.764,29.820 94.000,29.600 94.000 C 29.380 94.000,29.200 94.320,29.200 94.712 C 29.200 95.103,28.840 95.683,28.400 96.000 C 27.960 96.317,27.600 96.897,27.600 97.288 C 27.600 97.680,27.420 98.000,27.200 98.000 C 26.980 98.000,26.800 98.360,26.800 98.800 C 26.800 99.240,26.620 99.600,26.400 99.600 C 26.180 99.600,26.000 99.920,26.000 100.312 C 26.000 100.703,25.640 101.283,25.200 101.600 C 24.760 101.917,24.400 102.497,24.400 102.888 C 24.400 103.280,24.220 103.600,24.000 103.600 C 23.780 103.600,23.600 103.960,23.600 104.400 C 23.600 104.840,23.420 105.200,23.200 105.200 C 22.980 105.200,22.800 105.560,22.800 106.000 C 22.800 106.440,22.620 106.800,22.400 106.800 C 22.180 106.800,22.000 107.160,22.000 107.600 C 22.000 108.040,21.820 108.400,21.600 108.400 C 21.380 108.400,21.200 108.760,21.200 109.200 C 21.200 109.640,21.020 110.000,20.800 110.000 C 20.580 110.000,20.400 110.360,20.400 110.800 C 20.400 111.240,20.220 111.600,20.000 111.600 C 19.780 111.600,19.600 111.960,19.600 112.400 C 19.600 112.840,19.420 113.200,19.200 113.200 C 18.980 113.200,18.800 113.560,18.800 114.000 C 18.800 114.440,18.620 114.800,18.400 114.800 C 18.180 114.800,18.000 115.160,18.000 115.600 C 18.000 116.040,17.820 116.400,17.600 116.400 C 17.380 116.400,17.200 116.749,17.200 117.176 C 17.200 117.603,17.020 118.064,16.800 118.200 C 16.580 118.336,16.400 118.887,16.400 119.424 C 16.400 119.961,16.220 120.400,16.000 120.400 C 15.780 120.400,15.600 120.760,15.600 121.200 C 15.600 121.640,15.420 122.000,15.200 122.000 C 14.980 122.000,14.800 122.439,14.800 122.976 C 14.800 123.513,14.620 124.064,14.400 124.200 C 14.180 124.336,14.000 124.797,14.000 125.224 C 14.000 125.651,13.820 126.000,13.600 126.000 C 13.380 126.000,13.200 126.540,13.200 127.200 C 13.200 127.860,13.020 128.400,12.800 128.400 C 12.580 128.400,12.400 128.749,12.400 129.176 C 12.400 129.603,12.220 130.064,12.000 130.200 C 11.780 130.336,11.600 130.887,11.600 131.424 C 11.600 131.961,11.420 132.400,11.200 132.400 C 10.980 132.400,10.800 132.929,10.800 133.576 C 10.800 134.223,10.620 134.864,10.400 135.000 C 10.180 135.136,10.000 135.689,10.000 136.229 C 10.000 136.769,9.820 137.568,9.600 138.005 C 9.380 138.442,9.020 139.158,8.800 139.595 C 8.580 140.032,8.400 140.741,8.400 141.171 C 8.400 141.601,8.220 142.064,8.000 142.200 C 7.780 142.336,7.600 143.067,7.600 143.824 C 7.600 144.581,7.420 145.200,7.200 145.200 C 6.980 145.200,6.800 145.920,6.800 146.800 C 6.800 147.680,6.620 148.400,6.400 148.400 C 6.180 148.400,6.000 149.019,6.000 149.776 C 6.000 150.533,5.820 151.264,5.600 151.400 C 5.380 151.536,5.200 152.357,5.200 153.224 C 5.200 154.091,5.020 154.800,4.800 154.800 C 4.580 154.800,4.400 155.509,4.400 156.376 C 4.400 157.243,4.220 158.064,4.000 158.200 C 3.780 158.336,3.600 159.236,3.600 160.200 C 3.600 161.164,3.420 162.064,3.200 162.200 C 2.980 162.336,2.800 163.326,2.800 164.400 C 2.800 165.474,2.620 166.464,2.400 166.600 C 2.180 166.736,2.000 167.816,2.000 169.000 C 2.000 170.184,1.820 171.264,1.600 171.400 C 1.380 171.536,1.200 172.861,1.200 174.344 C 1.200 175.930,0.999 177.241,0.713 177.527 C 0.011 178.229,0.016 221.776,0.717 222.477 C 1.000 222.760,1.200 224.089,1.200 225.680 C 1.200 227.227,1.373 228.400,1.600 228.400 C 1.820 228.400,2.000 229.379,2.000 230.576 C 2.000 231.773,2.180 232.864,2.400 233.000 C 2.620 233.136,2.800 234.126,2.800 235.200 C 2.800 236.274,2.980 237.264,3.200 237.400 C 3.420 237.536,3.600 238.436,3.600 239.400 C 3.600 240.364,3.780 241.264,4.000 241.400 C 4.220 241.536,4.400 242.267,4.400 243.024 C 4.400 243.781,4.580 244.400,4.800 244.400 C 5.020 244.400,5.200 245.300,5.200 246.400 C 5.200 247.500,5.380 248.400,5.600 248.400 C 5.820 248.400,6.000 249.120,6.000 250.000 C 6.000 250.880,6.180 251.600,6.400 251.600 C 6.620 251.600,6.800 252.219,6.800 252.976 C 6.800 253.733,6.980 254.464,7.200 254.600 C 7.420 254.736,7.600 255.377,7.600 256.024 C 7.600 256.671,7.780 257.200,8.000 257.200 C 8.220 257.200,8.400 257.740,8.400 258.400 C 8.400 259.060,8.580 259.600,8.800 259.600 C 9.020 259.600,9.200 260.140,9.200 260.800 C 9.200 261.460,9.380 262.000,9.600 262.000 C 9.820 262.000,10.000 262.540,10.000 263.200 C 10.000 263.860,10.180 264.400,10.400 264.400 C 10.620 264.400,10.800 264.940,10.800 265.600 C 10.800 266.260,10.980 266.800,11.200 266.800 C 11.420 266.800,11.600 267.340,11.600 268.000 C 11.600 268.660,11.780 269.200,12.000 269.200 C 12.220 269.200,12.400 269.549,12.400 269.976 C 12.400 270.403,12.580 270.864,12.800 271.000 C 13.020 271.136,13.200 271.687,13.200 272.224 C 13.200 272.761,13.380 273.200,13.600 273.200 C 13.820 273.200,14.000 273.740,14.000 274.400 C 14.000 275.060,14.180 275.600,14.400 275.600 C 14.620 275.600,14.800 275.960,14.800 276.400 C 14.800 276.840,14.980 277.200,15.200 277.200 C 15.420 277.200,15.600 277.560,15.600 278.000 C 15.600 278.440,15.780 278.800,16.000 278.800 C 16.220 278.800,16.400 279.340,16.400 280.000 C 16.400 280.660,16.580 281.200,16.800 281.200 C 17.020 281.200,17.200 281.560,17.200 282.000 C 17.200 282.440,17.380 282.800,17.600 282.800 C 17.820 282.800,18.000 283.160,18.000 283.600 C 18.000 284.040,18.180 284.400,18.400 284.400 C 18.620 284.400,18.800 284.760,18.800 285.200 C 18.800 285.640,18.980 286.000,19.200 286.000 C 19.420 286.000,19.600 286.360,19.600 286.800 C 19.600 287.240,19.780 287.600,20.000 287.600 C 20.220 287.600,20.400 287.960,20.400 288.400 C 20.400 288.840,20.580 289.200,20.800 289.200 C 21.020 289.200,21.200 289.560,21.200 290.000 C 21.200 290.440,21.380 290.800,21.600 290.800 C 21.820 290.800,22.000 291.160,22.000 291.600 C 22.000 292.040,22.180 292.400,22.400 292.400 C 22.620 292.400,22.800 292.760,22.800 293.200 C 22.800 293.640,22.980 294.000,23.200 294.000 C 23.420 294.000,23.600 294.360,23.600 294.800 C 23.600 295.240,23.780 295.600,24.000 295.600 C 24.220 295.600,24.400 295.960,24.400 296.400 C 24.400 296.840,24.580 297.200,24.800 297.200 C 25.020 297.200,25.200 297.560,25.200 298.000 C 25.200 298.440,25.380 298.800,25.600 298.800 C 25.820 298.800,26.000 299.036,26.000 299.325 C 26.000 299.613,26.360 300.236,26.800 300.708 C 27.240 301.180,27.600 301.844,27.600 302.183 C 27.600 302.522,27.780 302.800,28.000 302.800 C 28.220 302.800,28.400 303.120,28.400 303.512 C 28.400 303.903,28.760 304.483,29.200 304.800 C 29.640 305.117,30.000 305.697,30.000 306.088 C 30.000 306.480,30.180 306.800,30.400 306.800 C 30.620 306.800,30.800 307.036,30.800 307.325 C 30.800 307.613,31.160 308.236,31.600 308.708 C 32.040 309.180,32.400 309.804,32.400 310.095 C 32.400 310.386,32.760 310.883,33.200 311.200 C 33.640 311.517,34.000 312.009,34.000 312.292 C 34.000 312.575,34.540 313.372,35.200 314.063 C 35.860 314.754,36.400 315.522,36.400 315.771 C 36.400 316.020,36.760 316.483,37.200 316.800 C 37.640 317.117,38.000 317.609,38.000 317.892 C 38.000 318.175,38.540 318.972,39.200 319.663 C 39.860 320.354,40.400 321.122,40.400 321.371 C 40.400 321.620,40.760 322.083,41.200 322.400 C 41.640 322.717,42.000 323.185,42.000 323.440 C 42.000 323.695,42.720 324.645,43.600 325.552 C 44.480 326.459,45.200 327.365,45.200 327.566 C 45.200 327.766,46.280 329.027,47.600 330.368 C 48.920 331.708,50.000 332.981,50.000 333.195 C 50.000 333.721,66.303 350.000,66.829 350.000 C 67.058 350.000,68.304 351.080,69.600 352.400 C 70.896 353.720,72.160 354.800,72.409 354.800 C 72.659 354.800,73.554 355.520,74.400 356.400 C 75.246 357.280,76.149 358.000,76.408 358.000 C 76.667 358.000,77.383 358.540,78.000 359.200 C 78.617 359.860,79.337 360.400,79.600 360.400 C 79.863 360.400,80.583 360.940,81.200 361.600 C 81.817 362.260,82.569 362.800,82.872 362.800 C 83.175 362.800,83.683 363.160,84.000 363.600 C 84.317 364.040,84.831 364.400,85.141 364.400 C 85.452 364.400,85.997 364.716,86.353 365.103 C 86.709 365.489,87.495 366.060,88.100 366.370 C 88.705 366.681,89.200 367.085,89.200 367.268 C 89.200 367.450,89.520 367.600,89.912 367.600 C 90.303 367.600,90.883 367.960,91.200 368.400 C 91.517 368.840,92.057 369.200,92.400 369.200 C 92.743 369.200,93.283 369.560,93.600 370.000 C 93.917 370.440,94.414 370.800,94.705 370.800 C 94.996 370.800,95.620 371.160,96.092 371.600 C 96.564 372.040,97.187 372.400,97.475 372.400 C 97.764 372.400,98.000 372.580,98.000 372.800 C 98.000 373.020,98.360 373.200,98.800 373.200 C 99.240 373.200,99.600 373.380,99.600 373.600 C 99.600 373.820,99.960 374.000,100.400 374.000 C 100.840 374.000,101.200 374.180,101.200 374.400 C 101.200 374.620,101.520 374.800,101.912 374.800 C 102.303 374.800,102.883 375.160,103.200 375.600 C 103.517 376.040,104.097 376.400,104.488 376.400 C 104.880 376.400,105.200 376.580,105.200 376.800 C 105.200 377.020,105.560 377.200,106.000 377.200 C 106.440 377.200,106.800 377.380,106.800 377.600 C 106.800 377.820,107.160 378.000,107.600 378.000 C 108.040 378.000,108.400 378.180,108.400 378.400 C 108.400 378.620,108.760 378.800,109.200 378.800 C 109.640 378.800,110.000 378.980,110.000 379.200 C 110.000 379.420,110.360 379.600,110.800 379.600 C 111.240 379.600,111.600 379.780,111.600 380.000 C 111.600 380.220,111.960 380.400,112.400 380.400 C 112.840 380.400,113.200 380.580,113.200 380.800 C 113.200 381.020,113.560 381.200,114.000 381.200 C 114.440 381.200,114.800 381.380,114.800 381.600 C 114.800 381.820,115.160 382.000,115.600 382.000 C 116.040 382.000,116.400 382.180,116.400 382.400 C 116.400 382.620,116.749 382.800,117.176 382.800 C 117.603 382.800,118.064 382.980,118.200 383.200 C 118.336 383.420,118.887 383.600,119.424 383.600 C 119.961 383.600,120.400 383.780,120.400 384.000 C 120.400 384.220,120.760 384.400,121.200 384.400 C 121.640 384.400,122.000 384.580,122.000 384.800 C 122.000 385.020,122.360 385.200,122.800 385.200 C 123.240 385.200,123.600 385.380,123.600 385.600 C 123.600 385.820,124.140 386.000,124.800 386.000 C 125.460 386.000,126.000 386.180,126.000 386.400 C 126.000 386.620,126.439 386.800,126.976 386.800 C 127.513 386.800,128.064 386.980,128.200 387.200 C 128.336 387.420,128.797 387.600,129.224 387.600 C 129.651 387.600,130.000 387.780,130.000 388.000 C 130.000 388.220,130.540 388.400,131.200 388.400 C 131.860 388.400,132.400 388.580,132.400 388.800 C 132.400 389.020,132.940 389.200,133.600 389.200 C 134.260 389.200,134.800 389.380,134.800 389.600 C 134.800 389.820,135.149 390.000,135.576 390.000 C 136.003 390.000,136.464 390.180,136.600 390.400 C 136.736 390.620,137.276 390.800,137.800 390.800 C 138.324 390.800,138.864 390.980,139.000 391.200 C 139.136 391.420,139.867 391.600,140.624 391.600 C 141.381 391.600,142.000 391.780,142.000 392.000 C 142.000 392.220,142.720 392.400,143.600 392.400 C 144.480 392.400,145.200 392.580,145.200 392.800 C 145.200 393.020,145.740 393.200,146.400 393.200 C 147.060 393.200,147.600 393.380,147.600 393.600 C 147.600 393.820,148.320 394.000,149.200 394.000 C 150.080 394.000,150.800 394.180,150.800 394.400 C 150.800 394.620,151.509 394.800,152.376 394.800 C 153.243 394.800,154.064 394.980,154.200 395.200 C 154.336 395.420,155.182 395.600,156.080 395.600 C 157.155 395.600,157.882 395.832,158.210 396.281 C 158.525 396.712,159.567 397.067,161.054 397.250 C 162.344 397.409,164.210 397.752,165.200 398.011 C 166.190 398.271,168.530 398.636,170.400 398.823 C 172.270 399.009,175.690 399.363,178.000 399.609 C 183.798 400.226,226.048 399.990,226.839 399.336 C 227.147 399.080,228.660 398.787,230.200 398.683 C 231.740 398.579,233.810 398.273,234.800 398.004 C 235.790 397.734,237.644 397.427,238.919 397.320 C 240.629 397.178,241.364 396.926,241.716 396.363 C 242.062 395.809,242.652 395.600,243.873 395.600 C 244.797 395.600,245.664 395.420,245.800 395.200 C 245.936 394.980,246.757 394.800,247.624 394.800 C 248.491 394.800,249.200 394.620,249.200 394.400 C 249.200 394.180,249.920 394.000,250.800 394.000 C 251.680 394.000,252.400 393.820,252.400 393.600 C 252.400 393.380,252.929 393.200,253.576 393.200 C 254.223 393.200,254.864 393.020,255.000 392.800 C 255.136 392.580,255.867 392.400,256.624 392.400 C 257.381 392.400,258.000 392.220,258.000 392.000 C 258.000 391.780,258.540 391.600,259.200 391.600 C 259.860 391.600,260.400 391.420,260.400 391.200 C 260.400 390.980,260.940 390.800,261.600 390.800 C 262.260 390.800,262.800 390.620,262.800 390.400 C 262.800 390.180,263.340 390.000,264.000 390.000 C 264.660 390.000,265.200 389.820,265.200 389.600 C 265.200 389.380,265.729 389.200,266.376 389.200 C 267.023 389.200,267.664 389.020,267.800 388.800 C 267.936 388.580,268.487 388.400,269.024 388.400 C 269.561 388.400,270.000 388.220,270.000 388.000 C 270.000 387.780,270.349 387.600,270.776 387.600 C 271.203 387.600,271.664 387.420,271.800 387.200 C 271.936 386.980,272.487 386.800,273.024 386.800 C 273.561 386.800,274.000 386.620,274.000 386.400 C 274.000 386.180,274.439 386.000,274.976 386.000 C 275.513 386.000,276.064 385.820,276.200 385.600 C 276.336 385.380,276.797 385.200,277.224 385.200 C 277.651 385.200,278.000 385.020,278.000 384.800 C 278.000 384.580,278.360 384.400,278.800 384.400 C 279.240 384.400,279.600 384.220,279.600 384.000 C 279.600 383.780,279.960 383.600,280.400 383.600 C 280.840 383.600,281.200 383.420,281.200 383.200 C 281.200 382.980,281.740 382.800,282.400 382.800 C 283.060 382.800,283.600 382.620,283.600 382.400 C 283.600 382.180,283.960 382.000,284.400 382.000 C 284.840 382.000,285.200 381.820,285.200 381.600 C 285.200 381.380,285.560 381.200,286.000 381.200 C 286.440 381.200,286.800 381.020,286.800 380.800 C 286.800 380.580,287.160 380.400,287.600 380.400 C 288.040 380.400,288.400 380.220,288.400 380.000 C 288.400 379.780,288.760 379.600,289.200 379.600 C 289.640 379.600,290.000 379.420,290.000 379.200 C 290.000 378.980,290.360 378.800,290.800 378.800 C 291.240 378.800,291.600 378.620,291.600 378.400 C 291.600 378.180,291.960 378.000,292.400 378.000 C 292.840 378.000,293.200 377.820,293.200 377.600 C 293.200 377.380,293.560 377.200,294.000 377.200 C 294.440 377.200,294.800 377.020,294.800 376.800 C 294.800 376.580,295.078 376.400,295.417 376.400 C 295.756 376.400,296.420 376.040,296.892 375.600 C 297.364 375.160,297.987 374.800,298.275 374.800 C 298.564 374.800,298.800 374.620,298.800 374.400 C 298.800 374.180,299.160 374.000,299.600 374.000 C 300.040 374.000,300.400 373.820,300.400 373.600 C 300.400 373.380,300.720 373.200,301.112 373.200 C 301.503 373.200,302.083 372.840,302.400 372.400 C 302.717 371.960,303.297 371.600,303.688 371.600 C 304.080 371.600,304.400 371.420,304.400 371.200 C 304.400 370.980,304.636 370.800,304.925 370.800 C 305.213 370.800,305.836 370.440,306.308 370.000 C 306.780 369.560,307.404 369.200,307.695 369.200 C 307.986 369.200,308.483 368.840,308.800 368.400 C 309.117 367.960,309.697 367.600,310.088 367.600 C 310.480 367.600,310.800 367.450,310.800 367.268 C 310.800 367.085,311.295 366.680,311.900 366.368 C 312.505 366.055,313.349 365.485,313.775 365.100 C 314.202 364.715,314.747 364.400,314.987 364.400 C 315.227 364.400,315.683 364.040,316.000 363.600 C 316.317 363.160,316.825 362.800,317.128 362.800 C 317.431 362.800,318.183 362.260,318.800 361.600 C 319.417 360.940,320.137 360.400,320.400 360.400 C 320.663 360.400,321.383 359.860,322.000 359.200 C 322.617 358.540,323.333 358.000,323.592 358.000 C 323.851 358.000,324.754 357.280,325.600 356.400 C 326.446 355.520,327.330 354.800,327.566 354.800 C 327.802 354.800,329.092 353.720,330.432 352.400 C 331.773 351.080,333.039 350.000,333.246 350.000 C 333.756 350.000,350.800 332.875,350.800 332.362 C 350.800 332.139,351.880 330.896,353.200 329.600 C 354.520 328.304,355.600 327.037,355.600 326.783 C 355.600 326.529,356.140 325.817,356.800 325.200 C 357.460 324.583,358.000 323.863,358.000 323.600 C 358.000 323.337,358.540 322.617,359.200 322.000 C 359.860 321.383,360.400 320.663,360.400 320.400 C 360.400 320.137,360.940 319.417,361.600 318.800 C 362.260 318.183,362.800 317.463,362.800 317.200 C 362.800 316.937,363.340 316.217,364.000 315.600 C 364.660 314.983,365.200 314.274,365.200 314.023 C 365.200 313.772,365.560 313.180,366.000 312.708 C 366.440 312.236,366.800 311.613,366.800 311.325 C 366.800 311.036,366.980 310.800,367.200 310.800 C 367.420 310.800,367.600 310.480,367.600 310.088 C 367.600 309.697,367.960 309.117,368.400 308.800 C 368.840 308.483,369.200 307.943,369.200 307.600 C 369.200 307.257,369.560 306.717,370.000 306.400 C 370.440 306.083,370.800 305.503,370.800 305.112 C 370.800 304.720,370.980 304.400,371.200 304.400 C 371.420 304.400,371.600 304.080,371.600 303.688 C 371.600 303.297,371.960 302.717,372.400 302.400 C 372.840 302.083,373.200 301.503,373.200 301.112 C 373.200 300.720,373.380 300.400,373.600 300.400 C 373.820 300.400,374.000 300.040,374.000 299.600 C 374.000 299.160,374.180 298.800,374.400 298.800 C 374.620 298.800,374.800 298.480,374.800 298.088 C 374.800 297.697,375.160 297.117,375.600 296.800 C 376.040 296.483,376.400 295.903,376.400 295.512 C 376.400 295.120,376.580 294.800,376.800 294.800 C 377.020 294.800,377.200 294.440,377.200 294.000 C 377.200 293.560,377.380 293.200,377.600 293.200 C 377.820 293.200,378.000 292.840,378.000 292.400 C 378.000 291.960,378.180 291.600,378.400 291.600 C 378.620 291.600,378.800 291.240,378.800 290.800 C 378.800 290.360,378.980 290.000,379.200 290.000 C 379.420 290.000,379.600 289.640,379.600 289.200 C 379.600 288.760,379.780 288.400,380.000 288.400 C 380.220 288.400,380.400 288.040,380.400 287.600 C 380.400 287.160,380.580 286.800,380.800 286.800 C 381.020 286.800,381.200 286.260,381.200 285.600 C 381.200 284.940,381.335 284.399,381.500 284.397 C 381.847 284.393,382.800 282.466,382.800 281.767 C 382.800 281.506,383.160 281.199,383.600 281.084 C 384.141 280.943,384.400 280.538,384.400 279.837 C 384.400 279.267,384.535 278.799,384.700 278.797 C 385.101 278.793,386.000 276.819,386.000 275.944 C 386.000 275.561,386.180 275.136,386.400 275.000 C 386.620 274.864,386.800 274.403,386.800 273.976 C 386.800 273.549,386.980 273.200,387.200 273.200 C 387.420 273.200,387.600 272.838,387.600 272.395 C 387.600 271.952,387.759 271.277,387.953 270.895 C 388.148 270.513,388.529 269.660,388.800 269.000 C 389.071 268.340,389.452 267.487,389.647 267.105 C 389.841 266.723,390.000 266.046,390.000 265.600 C 390.000 265.154,390.180 264.432,390.400 263.995 C 390.620 263.558,390.980 262.842,391.200 262.405 C 391.420 261.968,391.600 261.079,391.600 260.429 C 391.600 259.779,391.780 259.136,392.000 259.000 C 392.220 258.864,392.400 258.324,392.400 257.800 C 392.400 257.276,392.580 256.736,392.800 256.600 C 393.020 256.464,393.200 255.731,393.200 254.971 C 393.200 254.211,393.359 253.277,393.553 252.895 C 394.677 250.687,395.056 249.220,395.467 245.500 C 395.583 244.455,395.840 243.600,396.039 243.600 C 396.237 243.600,396.400 242.891,396.400 242.024 C 396.400 241.157,396.580 240.336,396.800 240.200 C 397.020 240.064,397.200 238.984,397.200 237.800 C 397.200 236.616,397.380 235.536,397.600 235.400 C 397.820 235.264,398.000 234.454,398.000 233.600 C 398.000 232.746,398.180 231.936,398.400 231.800 C 398.625 231.661,398.800 229.756,398.800 227.456 C 398.800 224.713,398.965 223.195,399.300 222.860 C 400.007 222.153,400.032 177.714,399.326 177.278 C 399.024 177.091,398.782 175.312,398.660 172.392 C 398.444 167.199,398.082 164.498,397.558 164.174 C 397.361 164.052,397.200 162.984,397.200 161.800 C 397.200 160.616,397.020 159.536,396.800 159.400 C 396.580 159.264,396.400 158.544,396.400 157.800 C 396.400 157.056,396.220 156.336,396.000 156.200 C 395.780 156.064,395.600 155.164,395.600 154.200 C 395.600 153.236,395.420 152.336,395.200 152.200 C 394.980 152.064,394.800 151.331,394.800 150.571 C 394.800 149.811,394.620 148.832,394.400 148.395 C 394.180 147.958,393.820 147.242,393.600 146.805 C 393.380 146.368,393.200 145.389,393.200 144.629 C 393.200 143.869,393.020 143.136,392.800 143.000 C 392.580 142.864,392.400 142.324,392.400 141.800 C 392.400 141.276,392.220 140.736,392.000 140.600 C 391.780 140.464,391.600 139.911,391.600 139.371 C 391.600 138.831,391.420 138.032,391.200 137.595 C 390.980 137.158,390.620 136.442,390.400 136.005 C 390.180 135.568,390.000 134.846,390.000 134.400 C 390.000 133.954,389.841 133.277,389.647 132.895 C 389.452 132.513,389.071 131.660,388.800 131.000 C 388.529 130.340,388.148 129.487,387.953 129.105 C 387.759 128.723,387.600 128.048,387.600 127.605 C 387.600 127.162,387.420 126.800,387.200 126.800 C 386.980 126.800,386.800 126.451,386.800 126.024 C 386.800 125.597,386.620 125.136,386.400 125.000 C 386.180 124.864,386.000 124.420,386.000 124.014 C 386.000 123.385,385.312 121.738,383.987 119.200 C 383.815 118.870,383.516 118.632,383.322 118.672 C 383.128 118.711,382.930 118.261,382.881 117.672 C 382.833 117.082,382.615 116.540,382.397 116.467 C 382.178 116.393,382.000 115.988,382.000 115.567 C 382.000 115.145,381.820 114.800,381.600 114.800 C 381.380 114.800,381.200 114.440,381.200 114.000 C 381.200 113.560,381.020 113.200,380.800 113.200 C 380.580 113.200,380.400 112.840,380.400 112.400 C 380.400 111.960,380.220 111.600,380.000 111.600 C 379.780 111.600,379.600 111.240,379.600 110.800 C 379.600 110.360,379.420 110.000,379.200 110.000 C 378.980 110.000,378.800 109.640,378.800 109.200 C 378.800 108.760,378.620 108.400,378.400 108.400 C 378.180 108.400,378.000 108.040,378.000 107.600 C 378.000 107.160,377.820 106.800,377.600 106.800 C 377.380 106.800,377.200 106.440,377.200 106.000 C 377.200 105.560,377.020 105.200,376.800 105.200 C 376.580 105.200,376.400 104.840,376.400 104.400 C 376.400 103.960,376.220 103.600,376.000 103.600 C 375.780 103.600,375.600 103.364,375.600 103.075 C 375.600 102.787,375.240 102.164,374.800 101.692 C 374.360 101.220,374.000 100.556,374.000 100.217 C 374.000 99.878,373.820 99.600,373.600 99.600 C 373.380 99.600,373.200 99.240,373.200 98.800 C 373.200 98.360,373.020 98.000,372.800 98.000 C 372.580 98.000,372.400 97.680,372.400 97.288 C 372.400 96.897,372.040 96.317,371.600 96.000 C 371.160 95.683,370.800 95.143,370.800 94.800 C 370.800 94.457,370.440 93.917,370.000 93.600 C 369.560 93.283,369.200 92.703,369.200 92.312 C 369.200 91.920,369.020 91.600,368.800 91.600 C 368.580 91.600,368.400 91.364,368.400 91.075 C 368.400 90.787,368.040 90.164,367.600 89.692 C 367.160 89.220,366.800 88.596,366.800 88.305 C 366.800 88.014,366.440 87.517,366.000 87.200 C 365.560 86.883,365.200 86.420,365.200 86.171 C 365.200 85.922,364.660 85.154,364.000 84.463 C 363.340 83.772,362.800 82.975,362.800 82.692 C 362.800 82.409,362.440 81.917,362.000 81.600 C 361.560 81.283,361.200 80.779,361.200 80.480 C 361.200 80.182,360.480 79.246,359.600 78.400 C 358.720 77.554,358.000 76.651,358.000 76.392 C 358.000 76.133,357.460 75.417,356.800 74.800 C 356.140 74.183,355.600 73.497,355.600 73.274 C 355.600 73.052,354.520 71.773,353.200 70.432 C 351.880 69.092,350.800 67.819,350.800 67.604 C 350.800 67.078,332.898 49.200,332.371 49.200 C 332.143 49.200,330.896 48.120,329.600 46.800 C 328.304 45.480,327.040 44.400,326.791 44.400 C 326.541 44.400,325.646 43.680,324.800 42.800 C 323.954 41.920,323.051 41.200,322.792 41.200 C 322.533 41.200,321.817 40.660,321.200 40.000 C 320.583 39.340,319.831 38.800,319.528 38.800 C 319.225 38.800,318.717 38.440,318.400 38.000 C 318.083 37.560,317.620 37.200,317.371 37.200 C 317.122 37.200,316.354 36.660,315.663 36.000 C 314.972 35.340,314.202 34.800,313.951 34.800 C 313.699 34.800,313.203 34.484,312.847 34.097 C 312.491 33.711,311.705 33.140,311.100 32.830 C 310.495 32.519,310.000 32.115,310.000 31.932 C 310.000 31.750,309.680 31.600,309.288 31.600 C 308.897 31.600,308.317 31.240,308.000 30.800 C 307.683 30.360,307.103 30.000,306.712 30.000 C 306.320 30.000,306.000 29.820,306.000 29.600 C 306.000 29.380,305.680 29.200,305.288 29.200 C 304.897 29.200,304.317 28.840,304.000 28.400 C 303.683 27.960,303.103 27.600,302.712 27.600 C 302.320 27.600,302.000 27.420,302.000 27.200 C 302.000 26.980,301.640 26.800,301.200 26.800 C 300.760 26.800,300.400 26.620,300.400 26.400 C 300.400 26.180,300.164 26.000,299.875 26.000 C 299.587 26.000,298.964 25.640,298.492 25.200 C 298.020 24.760,297.356 24.400,297.017 24.400 C 296.678 24.400,296.400 24.220,296.400 24.000 C 296.400 23.780,296.040 23.600,295.600 23.600 C 295.160 23.600,294.800 23.420,294.800 23.200 C 294.800 22.980,294.440 22.800,294.000 22.800 C 293.560 22.800,293.200 22.620,293.200 22.400 C 293.200 22.180,292.840 22.000,292.400 22.000 C 291.960 22.000,291.600 21.820,291.600 21.600 C 291.600 21.380,291.240 21.200,290.800 21.200 C 290.360 21.200,290.000 21.020,290.000 20.800 C 290.000 20.580,289.640 20.400,289.200 20.400 C 288.760 20.400,288.399 20.265,288.397 20.100 C 288.393 19.741,286.456 18.800,285.720 18.800 C 285.434 18.800,285.200 18.620,285.200 18.400 C 285.200 18.180,284.840 18.000,284.400 18.000 C 283.960 18.000,283.600 17.820,283.600 17.600 C 283.600 17.380,283.240 17.200,282.800 17.200 C 282.360 17.200,282.000 17.020,282.000 16.800 C 282.000 16.580,281.651 16.400,281.224 16.400 C 280.797 16.400,280.336 16.220,280.200 16.000 C 280.064 15.780,279.513 15.600,278.976 15.600 C 278.439 15.600,278.000 15.420,278.000 15.200 C 278.000 14.980,277.640 14.800,277.200 14.800 C 276.760 14.800,276.400 14.620,276.400 14.400 C 276.400 14.180,275.961 14.000,275.424 14.000 C 274.887 14.000,274.336 13.820,274.200 13.600 C 274.064 13.380,273.603 13.200,273.176 13.200 C 272.749 13.200,272.400 13.020,272.400 12.800 C 272.400 12.580,271.860 12.400,271.200 12.400 C 270.540 12.400,270.000 12.220,270.000 12.000 C 270.000 11.780,269.460 11.600,268.800 11.600 C 268.140 11.600,267.600 11.420,267.600 11.200 C 267.600 10.980,267.240 10.800,266.800 10.800 C 266.360 10.800,266.000 10.620,266.000 10.400 C 266.000 10.180,265.471 10.000,264.824 10.000 C 264.177 10.000,263.536 9.820,263.400 9.600 C 263.264 9.380,262.724 9.200,262.200 9.200 C 261.676 9.200,261.136 9.020,261.000 8.800 C 260.864 8.580,260.133 8.400,259.376 8.400 C 258.619 8.400,258.000 8.220,258.000 8.000 C 258.000 7.780,257.460 7.600,256.800 7.600 C 256.140 7.600,255.600 7.420,255.600 7.200 C 255.600 6.980,255.071 6.800,254.424 6.800 C 253.777 6.800,253.136 6.620,253.000 6.400 C 252.864 6.180,252.033 6.000,251.153 6.000 C 250.273 6.000,249.644 5.853,249.755 5.674 C 249.865 5.494,249.111 5.304,248.078 5.252 C 247.045 5.200,246.140 4.987,246.067 4.779 C 245.993 4.570,245.408 4.400,244.767 4.400 C 244.125 4.400,243.600 4.220,243.600 4.000 C 243.600 3.780,242.711 3.600,241.624 3.600 C 240.537 3.600,239.536 3.420,239.400 3.200 C 239.264 2.980,238.094 2.800,236.800 2.800 C 235.506 2.800,234.336 2.620,234.200 2.400 C 234.064 2.180,232.894 2.000,231.600 2.000 C 230.306 2.000,229.136 1.820,229.000 1.600 C 228.864 1.380,227.604 1.200,226.200 1.200 C 224.796 1.200,223.543 1.031,223.416 0.825 C 223.288 0.619,222.873 0.447,222.492 0.442 C 222.111 0.437,214.060 0.313,204.600 0.166 C 195.140 0.020,187.302 0.005,187.183 0.133 M218.200 34.940 C 230.416 36.572,234.745 37.400,243.800 39.839 C 275.466 48.368,304.450 66.706,326.244 92.000 C 330.785 97.271,341.600 112.038,341.600 112.969 C 341.600 113.087,342.214 114.144,342.964 115.316 C 368.846 155.777,373.427 218.506,353.764 263.226 C 353.014 264.933,352.400 266.424,352.400 266.540 C 352.400 266.985,347.410 277.160,345.700 280.200 C 318.126 329.230,273.014 358.813,215.400 365.644 C 200.349 367.429,173.276 365.222,158.600 361.014 C 157.500 360.699,155.250 360.058,153.600 359.589 C 148.629 358.177,140.077 355.217,136.775 353.765 C 135.068 353.014,133.568 352.400,133.443 352.400 C 132.699 352.400,119.062 345.314,114.586 342.602 C 90.703 328.128,72.477 309.827,57.148 284.927 C 38.604 254.805,29.887 211.185,35.581 177.000 C 35.801 175.680,36.268 172.800,36.620 170.600 C 39.383 153.303,48.162 129.606,56.994 115.600 C 61.758 108.046,63.272 105.743,65.370 102.858 C 86.918 73.227,120.025 49.775,153.000 40.784 C 154.760 40.304,157.370 39.577,158.800 39.168 C 163.002 37.967,167.212 37.149,177.200 35.593 C 187.802 33.942,208.288 33.615,218.200 34.940 " stroke="none" fill="#db1414" fill-rule="evenodd"></path><path id="path1" d="M184.400 35.794 C 152.199 39.511,127.375 49.046,102.200 67.365 C 56.078 100.928,29.894 159.409,35.803 215.657 C 39.359 249.495,52.384 280.911,73.027 305.436 C 74.306 306.956,75.454 308.290,75.577 308.400 C 75.700 308.510,77.652 310.611,79.915 313.068 C 121.831 358.582,187.554 376.122,248.235 357.988 C 259.474 354.629,275.299 347.647,284.323 342.066 C 312.003 324.945,331.826 303.954,346.414 276.317 C 377.997 216.482,368.605 140.341,323.514 90.669 C 321.882 88.871,319.838 86.604,318.973 85.631 C 301.791 66.308,269.662 47.557,241.400 40.357 C 223.939 35.909,200.005 33.993,184.400 35.794 M243.371 94.629 C 243.915 95.172,244.000 96.879,244.000 107.229 C 244.000 114.322,244.151 119.200,244.371 119.200 C 244.575 119.200,246.650 117.049,248.981 114.421 C 255.034 107.598,254.308 108.000,260.574 108.000 C 268.556 108.000,268.558 108.025,261.300 115.803 C 258.275 119.044,255.654 121.949,255.475 122.257 C 255.256 122.635,257.144 126.297,261.275 133.508 C 265.438 140.775,267.400 144.584,267.400 145.400 L 267.400 146.600 262.329 146.712 L 257.259 146.823 256.286 145.512 C 255.752 144.790,253.826 141.500,252.006 138.200 C 247.483 129.996,247.793 130.269,245.700 132.647 L 244.000 134.578 244.000 139.958 C 244.000 146.946,244.118 146.800,238.470 146.800 C 232.132 146.800,232.800 149.895,232.800 120.512 C 232.800 104.068,232.941 95.283,233.214 94.774 C 233.779 93.718,242.338 93.595,243.371 94.629 M299.153 108.479 C 300.117 108.943,301.557 110.015,302.353 110.861 C 304.116 112.734,304.132 112.735,306.037 111.014 C 313.996 103.824,325.820 107.344,327.575 117.427 C 328.192 120.969,328.145 145.695,327.520 146.320 C 326.718 147.122,318.238 146.969,317.549 146.140 C 317.118 145.620,316.957 142.645,316.800 132.240 C 316.564 116.619,316.498 116.400,312.040 116.400 C 306.821 116.400,305.608 120.059,305.603 135.820 C 305.599 147.733,306.059 146.800,300.200 146.800 C 294.314 146.800,294.801 147.899,294.792 134.620 C 294.780 117.619,294.356 116.106,289.711 116.491 C 284.279 116.941,283.678 118.607,283.522 133.639 C 283.426 142.945,283.283 145.619,282.851 146.139 C 282.162 146.969,273.683 147.123,272.880 146.320 C 272.521 145.961,272.400 141.194,272.400 127.334 C 272.400 105.848,271.833 108.000,277.497 108.000 C 281.470 108.000,282.179 108.317,282.678 110.314 L 283.006 111.628 284.403 110.583 C 288.947 107.184,294.744 106.356,299.153 108.479 M139.824 158.568 C 140.582 159.122,140.605 160.174,140.800 204.268 L 141.000 249.400 149.169 249.509 C 154.371 249.578,157.531 249.777,157.869 250.057 C 158.621 250.681,158.650 274.191,157.900 274.676 C 157.625 274.854,153.710 275.090,149.200 275.200 L 141.000 275.400 140.800 289.281 C 140.664 298.750,140.458 303.303,140.152 303.609 C 139.694 304.066,113.871 304.215,113.143 303.765 C 112.954 303.648,112.800 297.458,112.800 290.009 C 112.800 282.560,112.691 276.181,112.557 275.833 C 112.339 275.264,109.395 275.200,83.371 275.200 C 55.165 275.200,54.418 275.180,54.014 274.426 C 53.288 273.070,53.469 251.014,54.218 249.566 C 54.807 248.426,55.927 246.757,63.453 235.800 C 65.266 233.160,69.020 227.670,71.795 223.600 C 74.570 219.530,78.566 213.680,80.675 210.600 C 82.784 207.520,86.780 201.665,89.555 197.588 C 92.330 193.512,96.490 187.417,98.800 184.044 C 101.110 180.671,105.716 173.926,109.036 169.056 C 112.356 164.185,115.540 159.705,116.111 159.100 L 117.149 158.000 128.098 158.000 C 136.922 158.000,139.198 158.110,139.824 158.568 M229.529 159.625 C 253.501 165.630,264.904 189.008,264.930 232.200 C 264.957 279.032,251.709 303.060,224.000 306.435 C 203.128 308.977,185.048 298.634,177.234 279.682 C 168.339 258.110,167.842 213.389,176.227 189.153 C 184.601 164.949,205.208 153.533,229.529 159.625 M215.066 182.807 C 204.015 184.728,200.343 199.010,200.926 237.800 C 201.406 269.790,204.836 280.250,215.535 282.355 C 230.580 285.315,235.987 267.249,234.380 219.400 C 233.438 191.374,227.753 180.602,215.066 182.807 M111.573 204.941 C 110.989 205.741,108.463 209.468,94.452 230.200 C 91.478 234.600,87.460 240.538,85.523 243.396 C 83.585 246.254,82.000 248.819,82.000 249.096 C 82.000 249.946,112.230 249.819,112.557 248.967 C 112.911 248.045,112.855 204.481,112.500 204.265 C 112.335 204.165,111.918 204.469,111.573 204.941 " stroke="none" fill="#fbfbfb" fill-rule="evenodd"></path><path id="path2" d="M188.400 34.858 C 158.491 36.912,125.120 49.063,103.042 65.939 C 101.699 66.965,99.878 68.294,98.996 68.891 C 92.575 73.235,75.353 90.335,69.673 98.007 C 68.943 98.993,67.053 101.545,65.473 103.677 C 53.595 119.708,44.416 139.823,38.856 162.000 C 21.752 230.231,53.312 305.075,114.800 342.100 C 120.276 345.398,132.071 351.471,134.404 352.194 C 134.952 352.364,136.101 352.856,136.957 353.288 C 139.130 354.386,148.613 357.679,153.401 358.999 C 155.601 359.606,158.134 360.336,159.031 360.623 C 175.054 365.739,204.384 367.048,226.275 363.624 C 234.082 362.403,236.805 361.789,247.600 358.813 C 268.894 352.942,292.858 339.438,310.798 323.200 C 313.108 321.110,315.506 318.950,316.129 318.400 C 334.244 302.406,352.943 270.098,360.348 242.000 C 367.223 215.913,367.345 182.972,360.655 159.400 C 360.342 158.300,359.590 155.600,358.982 153.400 C 338.792 80.275,265.788 29.543,188.400 34.858 M220.600 36.349 C 251.122 40.492,278.269 51.814,301.869 70.242 C 305.906 73.395,316.840 83.232,318.973 85.631 C 319.838 86.604,321.882 88.871,323.514 90.669 C 377.049 149.642,378.981 241.231,328.023 304.400 C 317.128 317.906,301.232 331.607,284.323 342.066 C 262.579 355.515,233.464 364.022,205.800 365.010 C 158.384 366.702,111.490 347.353,79.915 313.068 C 77.652 310.611,75.700 308.510,75.577 308.400 C 74.713 307.626,70.153 301.926,67.447 298.236 C 50.840 275.595,40.992 251.497,36.620 222.800 C 26.717 157.802,59.712 90.659,118.130 56.928 C 138.280 45.294,158.801 38.749,184.400 35.794 C 191.533 34.971,212.855 35.297,220.600 36.349 M233.214 94.774 C 232.941 95.283,232.800 104.068,232.800 120.512 C 232.800 149.895,232.132 146.800,238.470 146.800 C 244.118 146.800,244.000 146.946,244.000 139.958 L 244.000 134.578 245.700 132.647 C 247.793 130.269,247.483 129.996,252.006 138.200 C 253.826 141.500,255.752 144.790,256.286 145.512 L 257.259 146.823 262.329 146.712 L 267.400 146.600 267.400 145.400 C 267.400 144.584,265.438 140.775,261.275 133.508 C 257.144 126.297,255.256 122.635,255.475 122.257 C 255.654 121.949,258.275 119.044,261.300 115.803 C 268.558 108.025,268.556 108.000,260.574 108.000 C 254.308 108.000,255.034 107.598,248.981 114.421 C 246.650 117.049,244.575 119.200,244.371 119.200 C 244.151 119.200,244.000 114.322,244.000 107.229 C 244.000 96.879,243.915 95.172,243.371 94.629 C 242.338 93.595,233.779 93.718,233.214 94.774 M242.745 94.934 C 243.043 95.293,243.223 99.524,243.294 107.834 C 243.387 118.660,243.477 120.200,244.016 120.200 C 244.355 120.200,246.930 117.635,249.739 114.500 L 254.844 108.800 260.198 108.800 C 267.419 108.800,267.496 108.201,259.110 117.252 C 256.739 119.810,254.800 122.239,254.800 122.648 C 254.800 123.058,257.623 128.323,261.074 134.348 C 268.412 147.161,268.356 146.400,261.968 146.400 C 257.052 146.400,257.436 146.750,252.397 137.700 C 247.895 129.617,247.793 129.531,245.528 131.900 C 243.336 134.194,243.200 134.688,243.200 140.360 C 243.200 146.543,243.314 146.400,238.400 146.400 C 233.030 146.400,233.600 149.506,233.600 120.219 C 233.600 100.311,233.707 94.823,234.100 94.665 C 235.282 94.188,242.307 94.407,242.745 94.934 M290.537 107.594 C 288.631 107.997,286.418 109.075,284.403 110.583 L 283.006 111.628 282.678 110.314 C 282.179 108.317,281.470 108.000,277.497 108.000 C 271.833 108.000,272.400 105.848,272.400 127.334 C 272.400 141.194,272.521 145.961,272.880 146.320 C 273.683 147.123,282.162 146.969,282.851 146.139 C 283.283 145.619,283.426 142.945,283.522 133.639 C 283.678 118.607,284.279 116.941,289.711 116.491 C 294.356 116.106,294.780 117.619,294.792 134.620 C 294.801 147.899,294.314 146.800,300.200 146.800 C 306.059 146.800,305.599 147.733,305.603 135.820 C 305.608 120.059,306.821 116.400,312.040 116.400 C 316.498 116.400,316.564 116.619,316.800 132.240 C 316.957 142.645,317.118 145.620,317.549 146.140 C 318.238 146.969,326.718 147.122,327.520 146.320 C 328.145 145.695,328.192 120.969,327.575 117.427 C 325.820 107.344,313.996 103.824,306.037 111.014 C 304.132 112.735,304.116 112.734,302.353 110.861 C 299.679 108.019,294.848 106.683,290.537 107.594 M298.992 109.000 C 299.868 109.428,301.322 110.549,302.224 111.489 C 304.212 113.565,303.934 113.562,306.276 111.533 C 313.145 105.583,322.842 107.043,326.242 114.539 L 327.359 117.000 327.526 131.025 C 327.726 147.724,328.146 146.400,322.648 146.400 C 317.219 146.400,317.669 147.611,317.524 132.600 C 317.409 120.742,317.341 119.682,316.600 118.200 C 314.467 113.933,307.619 115.492,305.975 120.619 C 305.632 121.690,305.415 125.984,305.302 133.922 L 305.136 145.644 304.142 146.022 C 302.806 146.530,296.942 146.504,295.974 145.986 C 295.234 145.590,295.200 145.021,295.200 133.046 C 295.200 116.447,294.297 114.186,288.379 115.959 C 283.559 117.403,283.072 118.977,282.882 133.724 L 282.728 145.647 281.738 146.024 C 280.032 146.672,274.151 146.494,273.429 145.771 C 272.535 144.878,272.468 109.973,273.359 109.234 C 273.722 108.932,275.297 108.810,277.859 108.885 L 281.800 109.000 281.925 110.522 C 282.098 112.611,282.860 112.733,284.965 111.007 C 288.694 107.952,295.005 107.048,298.992 109.000 M116.111 159.100 C 115.540 159.705,112.356 164.185,109.036 169.056 C 105.716 173.926,101.110 180.671,98.800 184.044 C 96.490 187.417,92.330 193.512,89.555 197.588 C 86.780 201.665,82.784 207.520,80.675 210.600 C 78.566 213.680,74.570 219.530,71.795 223.600 C 69.020 227.670,65.266 233.160,63.453 235.800 C 55.927 246.757,54.807 248.426,54.218 249.566 C 53.469 251.014,53.288 273.070,54.014 274.426 C 54.418 275.180,55.165 275.200,83.371 275.200 C 109.395 275.200,112.339 275.264,112.557 275.833 C 112.691 276.181,112.800 282.560,112.800 290.009 C 112.800 297.458,112.954 303.648,113.143 303.765 C 113.871 304.215,139.694 304.066,140.152 303.609 C 140.458 303.303,140.664 298.750,140.800 289.281 L 141.000 275.400 149.200 275.200 C 153.710 275.090,157.625 274.854,157.900 274.676 C 158.650 274.191,158.621 250.681,157.869 250.057 C 157.531 249.777,154.371 249.578,149.169 249.509 L 141.000 249.400 140.800 204.268 C 140.605 160.174,140.582 159.122,139.824 158.568 C 139.198 158.110,136.922 158.000,128.098 158.000 L 117.149 158.000 116.111 159.100 M212.600 158.385 C 184.208 160.998,170.404 185.407,170.403 233.000 C 170.402 281.687,184.780 305.227,215.400 306.671 C 248.537 308.234,264.960 283.542,264.930 232.200 C 264.899 180.226,247.161 155.205,212.600 158.385 M139.899 204.200 C 139.992 246.132,140.048 249.436,140.676 249.900 C 141.163 250.260,143.549 250.400,149.196 250.400 C 154.764 250.400,157.179 250.539,157.520 250.880 C 158.144 251.504,158.205 272.470,157.586 273.626 C 157.198 274.351,156.674 274.400,149.360 274.400 C 138.810 274.400,140.000 272.553,140.000 288.934 C 140.000 299.061,139.875 302.765,139.520 303.120 C 138.834 303.806,114.366 303.806,113.680 303.120 C 113.325 302.765,113.200 299.061,113.200 288.934 C 113.200 275.793,113.168 275.211,112.426 274.814 C 111.914 274.540,102.061 274.400,83.240 274.400 C 55.050 274.400,54.825 274.394,54.391 273.584 C 54.096 273.033,53.994 269.101,54.077 261.484 L 54.200 250.200 57.531 245.400 C 59.363 242.760,62.210 238.620,63.858 236.200 C 65.505 233.780,69.260 228.290,72.202 224.000 C 75.143 219.710,79.946 212.696,82.875 208.414 C 87.566 201.555,90.805 196.820,102.864 179.200 C 104.445 176.890,107.086 173.020,108.734 170.600 C 110.382 168.180,112.886 164.532,114.299 162.494 L 116.868 158.788 128.334 158.894 L 139.800 159.000 139.899 204.200 M226.831 159.606 C 251.845 164.704,263.369 185.884,264.260 228.400 C 265.353 280.539,250.082 306.088,217.800 306.131 C 192.718 306.165,176.700 289.583,172.626 259.365 C 168.188 226.453,172.002 194.290,182.323 177.582 C 191.312 163.030,208.858 155.944,226.831 159.606 M213.538 182.534 C 203.326 186.347,200.262 197.904,200.265 232.600 C 200.269 270.610,204.518 282.958,217.607 282.991 C 230.922 283.025,235.203 270.646,235.198 232.125 C 235.194 199.688,232.207 187.440,223.254 183.158 C 220.935 182.049,215.732 181.715,213.538 182.534 M223.509 184.055 C 232.048 188.152,235.163 203.597,234.553 238.800 C 234.020 269.518,230.622 279.846,220.254 282.265 C 211.897 284.214,205.838 278.385,202.979 265.646 C 199.785 251.415,200.064 211.609,203.460 197.000 C 206.258 184.963,214.419 179.693,223.509 184.055 M111.910 203.509 C 111.224 204.303,108.085 208.900,98.601 223.000 C 94.902 228.500,89.461 236.562,86.511 240.914 C 83.549 245.284,81.206 249.136,81.279 249.514 C 81.444 250.371,111.641 250.796,112.653 249.956 C 113.288 249.429,113.484 203.423,112.853 203.033 C 112.663 202.915,112.238 203.130,111.910 203.509 M112.800 226.391 C 112.800 238.460,112.691 248.619,112.557 248.967 C 112.230 249.819,82.000 249.946,82.000 249.096 C 82.000 248.819,83.585 246.254,85.523 243.396 C 87.460 240.538,91.478 234.600,94.452 230.200 C 113.908 201.411,112.094 204.018,112.500 204.265 C 112.665 204.365,112.800 214.322,112.800 226.391 " stroke="none" fill="#c09e9e" fill-rule="evenodd"></path><path id="path3" d="M185.200 34.589 C 175.455 35.636,164.518 37.533,158.800 39.168 C 157.370 39.577,154.760 40.304,153.000 40.784 C 120.025 49.775,86.918 73.227,65.370 102.858 C 63.272 105.743,61.758 108.046,56.994 115.600 C 48.162 129.606,39.383 153.303,36.620 170.600 C 36.268 172.800,35.801 175.680,35.581 177.000 C 32.200 197.301,33.972 222.923,40.339 245.800 C 51.931 287.452,81.771 324.933,119.800 345.612 C 122.945 347.322,133.151 352.400,133.443 352.400 C 133.568 352.400,135.068 353.014,136.775 353.765 C 140.077 355.217,148.629 358.177,153.600 359.589 C 155.250 360.058,157.500 360.699,158.600 361.014 C 173.276 365.222,200.349 367.429,215.400 365.644 C 273.014 358.813,318.126 329.230,345.700 280.200 C 347.410 277.160,352.400 266.985,352.400 266.540 C 352.400 266.424,353.014 264.933,353.764 263.226 C 364.906 237.887,368.818 204.522,364.156 174.600 C 360.880 153.568,352.579 130.348,342.964 115.316 C 342.214 114.144,341.600 113.087,341.600 112.969 C 341.600 112.038,330.785 97.271,326.244 92.000 C 304.450 66.706,275.466 48.368,243.800 39.839 C 234.745 37.400,230.416 36.572,218.200 34.940 C 211.966 34.107,191.689 33.891,185.200 34.589 M210.200 34.803 C 279.583 39.144,340.939 88.051,358.982 153.400 C 359.590 155.600,360.342 158.300,360.655 159.400 C 373.896 206.052,361.107 264.880,329.262 303.800 C 326.056 307.719,317.678 317.033,316.129 318.400 C 315.506 318.950,313.108 321.110,310.798 323.200 C 294.724 337.749,274.899 349.548,254.899 356.470 C 250.265 358.073,248.722 358.533,241.169 360.556 C 221.643 365.786,197.254 367.085,176.088 364.021 C 171.880 363.412,160.940 361.232,159.031 360.623 C 158.134 360.336,155.601 359.606,153.401 358.999 C 148.613 357.679,139.130 354.386,136.957 353.288 C 136.101 352.856,134.952 352.364,134.404 352.194 C 132.071 351.471,120.276 345.398,114.800 342.100 C 53.312 305.075,21.752 230.231,38.856 162.000 C 44.416 139.823,53.595 119.708,65.473 103.677 C 67.053 101.545,68.943 98.993,69.673 98.007 C 75.353 90.335,92.575 73.235,98.996 68.891 C 99.878 68.294,101.699 66.965,103.042 65.939 C 131.175 44.434,172.450 32.442,210.200 34.803 " stroke="none" fill="#b47274" fill-rule="evenodd"></path><path id="path4" d="M234.100 94.665 C 233.707 94.823,233.600 100.311,233.600 120.219 C 233.600 149.506,233.030 146.400,238.400 146.400 C 243.314 146.400,243.200 146.543,243.200 140.360 C 243.200 134.688,243.336 134.194,245.528 131.900 C 247.793 129.531,247.895 129.617,252.397 137.700 C 257.436 146.750,257.052 146.400,261.968 146.400 C 268.356 146.400,268.412 147.161,261.074 134.348 C 257.623 128.323,254.800 123.058,254.800 122.648 C 254.800 122.239,256.739 119.810,259.110 117.252 C 267.496 108.201,267.419 108.800,260.198 108.800 L 254.844 108.800 249.739 114.500 C 246.930 117.635,244.355 120.200,244.016 120.200 C 243.477 120.200,243.387 118.660,243.294 107.834 C 243.223 99.524,243.043 95.293,242.745 94.934 C 242.307 94.407,235.282 94.188,234.100 94.665 M288.678 108.769 C 287.621 109.193,285.950 110.200,284.965 111.007 C 282.860 112.733,282.098 112.611,281.925 110.522 L 281.800 109.000 277.859 108.885 C 275.297 108.810,273.722 108.932,273.359 109.234 C 272.468 109.973,272.535 144.878,273.429 145.771 C 274.151 146.494,280.032 146.672,281.738 146.024 L 282.728 145.647 282.882 133.724 C 283.072 118.977,283.559 117.403,288.379 115.959 C 294.297 114.186,295.200 116.447,295.200 133.046 C 295.200 145.021,295.234 145.590,295.974 145.986 C 296.942 146.504,302.806 146.530,304.142 146.022 L 305.136 145.644 305.302 133.922 C 305.415 125.984,305.632 121.690,305.975 120.619 C 307.619 115.492,314.467 113.933,316.600 118.200 C 317.341 119.682,317.409 120.742,317.524 132.600 C 317.669 147.611,317.219 146.400,322.648 146.400 C 328.146 146.400,327.726 147.724,327.526 131.025 L 327.359 117.000 326.242 114.539 C 322.842 107.043,313.145 105.583,306.276 111.533 C 303.934 113.562,304.212 113.565,302.224 111.489 C 299.025 108.151,293.160 106.973,288.678 108.769 M114.299 162.494 C 112.886 164.532,110.382 168.180,108.734 170.600 C 107.086 173.020,104.445 176.890,102.864 179.200 C 90.805 196.820,87.566 201.555,82.875 208.414 C 79.946 212.696,75.143 219.710,72.202 224.000 C 69.260 228.290,65.505 233.780,63.858 236.200 C 62.210 238.620,59.363 242.760,57.531 245.400 L 54.200 250.200 54.077 261.484 C 53.994 269.101,54.096 273.033,54.391 273.584 C 54.825 274.394,55.050 274.400,83.240 274.400 C 102.061 274.400,111.914 274.540,112.426 274.814 C 113.168 275.211,113.200 275.793,113.200 288.934 C 113.200 299.061,113.325 302.765,113.680 303.120 C 114.366 303.806,138.834 303.806,139.520 303.120 C 139.875 302.765,140.000 299.061,140.000 288.934 C 140.000 272.553,138.810 274.400,149.360 274.400 C 156.674 274.400,157.198 274.351,157.586 273.626 C 158.205 272.470,158.144 251.504,157.520 250.880 C 157.179 250.539,154.764 250.400,149.196 250.400 C 143.549 250.400,141.163 250.260,140.676 249.900 C 140.048 249.436,139.992 246.132,139.899 204.200 L 139.800 159.000 128.334 158.894 L 116.868 158.788 114.299 162.494 M208.600 159.596 C 194.164 162.516,184.460 170.811,178.241 185.545 C 168.047 209.695,168.415 259.575,178.953 282.024 C 193.217 312.412,236.847 315.056,253.658 286.550 C 267.938 262.335,268.278 204.548,254.288 179.531 C 245.424 163.681,227.362 155.800,208.600 159.596 M223.254 183.158 C 232.207 187.440,235.194 199.688,235.198 232.125 C 235.203 270.646,230.922 283.025,217.607 282.991 C 204.518 282.958,200.269 270.610,200.265 232.600 C 200.262 197.904,203.326 186.347,213.538 182.534 C 215.732 181.715,220.935 182.049,223.254 183.158 M113.200 226.375 C 113.200 245.444,113.104 249.582,112.653 249.956 C 111.641 250.796,81.444 250.371,81.279 249.514 C 81.206 249.136,83.549 245.284,86.511 240.914 C 89.461 236.562,94.902 228.500,98.601 223.000 C 112.196 202.789,112.276 202.676,112.853 203.033 C 113.044 203.151,113.200 213.655,113.200 226.375 " stroke="none" fill="#000000" fill-rule="evenodd"></path></g></svg>