<svg version="1.1" id="Layer_1" xmlns="http://www.w3.org/2000/svg" xmlns:xlink="http://www.w3.org/1999/xlink" x="0px" y="0px"
	 width="100%" viewBox="0 0 770 1023" enable-background="new 0 0 770 1023" xml:space="preserve">
<path fill="#000090" opacity="1.000000" stroke="none" 
	d="
M0.999996,1011.000000 
	C1.000000,678.970642 1.000000,346.941254 1.355345,14.523006 
	C5.360260,9.819027 7.954637,4.423461 13.803669,2.337115 
	C14.002763,2.266098 13.940462,1.462261 14.000000,1.000000 
	C262.029388,1.000000 510.058746,1.000000 758.480103,1.359841 
	C762.184753,4.902359 765.469177,8.115589 768.840027,11.235329 
	C769.354980,11.711810 770.270020,11.755913 771.000000,12.000000 
	C771.000000,345.362701 771.000000,678.725403 770.644714,1012.467285 
	C768.994080,1014.264404 767.763123,1015.748474 766.389160,1017.085632 
	C763.972168,1019.437744 761.467712,1021.700012 759.000000,1024.000000 
	C510.970642,1024.000000 262.941254,1024.000000 14.519968,1023.640503 
	C9.266689,1020.415039 5.228378,1016.760071 2.684994,1011.601440 
	C2.495671,1011.217407 1.578702,1011.192078 0.999996,1011.000000 
M705.806213,207.500061 
	C705.806213,164.230942 705.806213,120.961815 705.806213,77.459457 
	C492.657074,77.459457 280.115021,77.459457 67.326050,77.459457 
	C67.326050,326.255432 67.326050,574.777344 67.326050,823.536987 
	C280.157501,823.536987 492.696533,823.536987 705.806213,823.536987 
	C705.806213,618.339355 705.806213,413.419708 705.806213,207.500061 
z"/>
<path fill="#000000" opacity="1.000000" stroke="none" 
	d="
M13.523338,1.000000 
	C13.940462,1.462261 14.002763,2.266098 13.803669,2.337115 
	C7.954637,4.423461 5.360260,9.819027 1.355345,14.067057 
	C1.000000,9.743702 1.000000,5.487404 1.000000,1.000000 
	C5.013751,1.000000 9.030214,1.000000 13.523338,1.000000 
z"/>
<path fill="#000000" opacity="1.000000" stroke="none" 
	d="
M0.999996,1011.476685 
	C1.578702,1011.192078 2.495671,1011.217407 2.684994,1011.601440 
	C5.228378,1016.760071 9.266689,1020.415039 14.064016,1023.640503 
	C9.743699,1024.000000 5.487399,1024.000000 1.000000,1024.000000 
	C1.000000,1019.986267 1.000000,1015.969788 0.999996,1011.476685 
z"/>
<path fill="#000000" opacity="1.000000" stroke="none" 
	d="
M771.000000,11.517044 
	C770.270020,11.755913 769.354980,11.711810 768.840027,11.235329 
	C765.469177,8.115589 762.184753,4.902359 758.936035,1.359841 
	C762.917175,1.000000 766.834351,1.000000 771.000000,1.000000 
	C771.000000,4.342352 771.000000,7.688220 771.000000,11.517044 
z"/>
<path fill="#000000" opacity="1.000000" stroke="none" 
	d="
M759.479126,1024.000000 
	C761.467712,1021.700012 763.972168,1019.437744 766.389160,1017.085632 
	C767.763123,1015.748474 768.994080,1014.264404 770.644714,1012.923218 
	C771.000000,1016.591980 771.000000,1020.183899 771.000000,1024.000000 
	C767.321228,1024.000000 763.639832,1024.000000 759.479126,1024.000000 
z"/>
<path fill="#FDFDFE" opacity="1.000000" stroke="none" 
	d="
M705.806213,208.000061 
	C705.806213,413.419708 705.806213,618.339355 705.806213,823.536987 
	C492.696533,823.536987 280.157501,823.536987 67.326050,823.536987 
	C67.326050,574.777344 67.326050,326.255432 67.326050,77.459457 
	C280.115021,77.459457 492.657074,77.459457 705.806213,77.459457 
	C705.806213,120.961815 705.806213,164.230942 705.806213,208.000061 
M237.974548,343.672668 
	C239.929260,351.328491 241.883972,358.984283 243.923660,366.972900 
	C319.739716,366.972900 396.427795,366.972900 473.058990,366.972900 
	C477.521698,334.400360 494.285645,315.728149 519.117798,314.731201 
	C532.897156,314.177948 545.180908,317.546265 555.672180,326.612976 
	C567.902832,337.182800 573.039978,350.968750 573.090027,367.144989 
	C575.095642,367.234894 576.720154,367.370514 578.344666,367.371246 
	C607.336548,367.384094 636.328491,367.384186 665.320374,367.377808 
	C671.514343,367.376465 671.427856,367.397675 668.977356,361.797241 
	C668.413208,360.507904 668.558899,358.861755 668.557007,357.379578 
	C668.532654,338.384918 668.556335,319.390198 668.517944,300.395599 
	C668.513916,298.413940 668.416138,296.382141 667.981995,294.459351 
	C661.895325,267.498779 655.620972,240.579742 649.716187,213.579758 
	C648.632935,208.626694 646.801270,207.030884 641.545410,207.035965 
	C471.593048,207.200104 301.640472,207.134216 131.688156,207.322052 
	C125.610588,207.328766 121.945580,206.137390 120.672028,199.869019 
	C120.159035,197.344101 118.830696,195.028397 114.849541,196.625412 
	C114.849541,198.373962 114.861099,200.335449 114.847519,202.296783 
	C114.791145,210.437073 115.473793,218.666718 114.511864,226.699097 
	C112.457458,243.853989 109.574585,260.910461 106.969002,277.997803 
	C106.492950,281.119781 107.024834,284.954010 102.031166,285.328125 
	C101.265457,285.385498 100.240829,287.571198 100.059700,288.873230 
	C99.305840,294.292480 99.015335,299.780090 98.151649,305.178101 
	C97.838989,307.132263 96.397446,308.905762 95.471008,310.761688 
	C95.149269,310.608887 94.827522,310.456085 94.505783,310.303284 
	C94.505783,329.205353 94.505783,348.107422 94.505783,367.047638 
	C110.815956,367.047638 126.727310,367.047638 142.581863,367.047638 
	C147.740738,334.523193 160.451797,319.065155 184.974655,315.224426 
	C207.034683,311.769470 227.306671,322.457184 237.974548,343.672668 
M433.641296,564.924744 
	C409.347534,566.351624 391.570374,578.252747 382.460510,600.452454 
	C367.206757,637.623840 367.647705,675.486938 382.261383,712.860779 
	C387.565460,726.425781 397.216339,736.762634 410.680695,743.101440 
	C443.443909,758.525940 480.614105,744.584045 493.857971,710.588074 
	C507.278168,676.139343 507.284515,640.756958 495.061951,605.976807 
	C485.089142,577.598450 464.605499,564.480469 433.641296,564.924744 
M629.972290,575.471619 
	C624.037048,572.948242 618.317322,569.469360 612.127869,568.073608 
	C590.125916,563.112427 568.132996,567.064026 546.043091,568.769714 
	C546.043091,627.966553 546.043091,686.671204 546.043091,745.593384 
	C557.416931,745.593384 568.497681,745.593384 580.094727,745.593384 
	C580.094727,724.655273 580.094727,703.929565 580.094727,682.704041 
	C582.391174,682.704041 584.178162,682.753235 585.961609,682.695435 
	C593.281311,682.458435 600.654114,682.665222 607.908936,681.841858 
	C629.670959,679.372070 643.233887,667.029358 647.850037,645.861023 
	C650.614136,633.185913 650.776917,620.368042 648.585571,607.619385 
	C646.409668,594.960693 641.381775,583.732056 629.972290,575.471619 
M138.883698,625.489258 
	C140.849762,636.810364 146.076294,646.237061 155.475983,653.000366 
	C160.464920,656.590088 165.740677,659.794739 170.987823,663.008606 
	C177.516815,667.007690 184.670853,670.191345 190.567871,674.950317 
	C195.022629,678.545288 199.362335,683.542480 201.264526,688.813721 
	C208.009903,707.506104 195.722427,722.399963 176.274826,718.947876 
	C168.834961,717.627258 161.759338,713.593201 154.865753,710.107483 
	C150.800491,708.051941 147.417450,704.647217 143.390366,701.593567 
	C139.526474,712.039062 135.795441,722.125366 132.102524,732.108704 
	C146.072433,743.623047 168.816116,750.196716 188.162231,748.449829 
	C216.669006,745.875793 232.238892,731.261414 235.576080,702.980652 
	C238.479691,678.374268 230.707962,658.283936 208.764984,645.005615 
	C203.355682,641.732300 197.661606,638.926270 192.283066,635.606323 
	C186.641769,632.124268 180.789032,628.782288 175.817352,624.469910 
	C169.798965,619.249573 169.969925,612.082825 172.409729,605.056580 
	C174.683334,598.509033 179.806061,595.524780 186.466904,594.762634 
	C196.281387,593.639526 204.860519,596.721802 212.675003,602.403503 
	C215.804626,604.678955 218.875366,607.035461 222.330536,609.622803 
	C225.033478,599.913818 227.657272,590.980591 229.882660,581.949158 
	C230.204987,580.641113 229.052841,578.215515 227.845291,577.401428 
	C215.937378,569.374512 202.733246,565.330139 188.341568,565.263489 
	C154.863358,565.108398 132.673096,591.677246 138.883698,625.489258 
M286.070160,676.500000 
	C286.070160,699.445496 286.070160,722.390991 286.070160,745.562134 
	C297.841827,745.562134 309.079315,745.562134 320.834717,745.562134 
	C320.834717,696.414368 320.834717,647.518921 320.834717,597.992432 
	C331.707031,597.992432 342.079498,597.992432 352.456879,597.992432 
	C352.456879,587.593323 352.456879,577.830933 352.456879,567.921753 
	C319.663940,567.921753 287.122772,567.921753 254.589447,567.921753 
	C254.589447,578.097046 254.589447,587.881042 254.589447,598.160645 
	C265.070374,598.160645 275.318420,598.160645 286.070160,598.160645 
	C286.070160,624.271240 286.070160,649.885620 286.070160,676.500000 
M365.500305,479.515045 
	C273.069550,479.515045 180.638809,479.515045 88.091965,479.515045 
	C88.091965,483.331970 88.091965,486.582733 88.091965,489.992676 
	C284.555023,489.992676 480.774200,489.992676 677.114319,489.992676 
	C677.114319,486.463654 677.114319,483.218994 677.114319,479.515045 
	C573.400940,479.515045 469.950653,479.515045 365.500305,479.515045 
M187.015533,402.812531 
	C188.679123,402.829285 190.342712,402.860504 192.006302,402.860687 
	C218.065491,402.863708 235.755722,381.823029 231.285782,356.146149 
	C227.875153,336.554352 209.447952,323.134796 188.378098,324.898743 
	C167.046829,326.684601 150.516449,347.562073 153.707626,368.686676 
	C156.437042,386.754578 167.009064,397.831177 187.015533,402.812531 
M545.735474,331.737183 
	C538.806580,326.983307 531.227722,324.689819 522.739624,324.803467 
	C506.445435,325.021729 492.334778,334.474548 486.276520,349.661865 
	C480.573700,363.958191 484.435974,381.638031 495.531006,392.024200 
	C507.520996,403.248230 525.806946,406.200806 540.092346,399.424164 
	C566.683289,386.809998 570.589966,349.606506 545.735474,331.737183 
z"/>
<path fill="#040404" opacity="1.000000" stroke="none" 
	d="
M237.808304,343.332092 
	C227.306671,322.457184 207.034683,311.769470 184.974655,315.224426 
	C160.451797,319.065155 147.740738,334.523193 142.581863,367.047638 
	C126.727310,367.047638 110.815956,367.047638 94.505783,367.047638 
	C94.505783,348.107422 94.505783,329.205353 94.505783,310.303284 
	C94.827522,310.456085 95.149269,310.608887 95.471008,310.761688 
	C96.397446,308.905762 97.838989,307.132263 98.151649,305.178101 
	C99.015335,299.780090 99.305840,294.292480 100.059700,288.873230 
	C100.240829,287.571198 101.265457,285.385498 102.031166,285.328125 
	C107.024834,284.954010 106.492950,281.119781 106.969002,277.997803 
	C109.574585,260.910461 112.457458,243.853989 114.511864,226.699097 
	C115.473793,218.666718 114.791145,210.437073 114.847519,202.296783 
	C114.861099,200.335449 114.849541,198.373962 114.849541,196.625412 
	C118.830696,195.028397 120.159035,197.344101 120.672028,199.869019 
	C121.945580,206.137390 125.610588,207.328766 131.688156,207.322052 
	C301.640472,207.134216 471.593048,207.200104 641.545410,207.035965 
	C646.801270,207.030884 648.632935,208.626694 649.716187,213.579758 
	C655.620972,240.579742 661.895325,267.498779 667.981995,294.459351 
	C668.416138,296.382141 668.513916,298.413940 668.517944,300.395599 
	C668.556335,319.390198 668.532654,338.384918 668.557007,357.379578 
	C668.558899,358.861755 668.413208,360.507904 668.977356,361.797241 
	C671.427856,367.397675 671.514343,367.376465 665.320374,367.377808 
	C636.328491,367.384186 607.336548,367.384094 578.344666,367.371246 
	C576.720154,367.370514 575.095642,367.234894 573.090027,367.144989 
	C573.039978,350.968750 567.902832,337.182800 555.672180,326.612976 
	C545.180908,317.546265 532.897156,314.177948 519.117798,314.731201 
	C494.285645,315.728149 477.521698,334.400360 473.058990,366.972900 
	C396.427795,366.972900 319.739716,366.972900 243.923660,366.972900 
	C241.883972,358.984283 239.929260,351.328491 237.808304,343.332092 
M646.127014,249.324341 
	C644.492554,241.845551 642.584351,234.412140 641.334106,226.869644 
	C640.664490,222.829788 638.916748,221.865875 635.072510,221.887543 
	C608.262695,222.038574 581.451599,221.962494 554.640930,221.980316 
	C553.198608,221.981277 551.756470,222.172684 550.239624,222.280746 
	C550.239624,243.180740 550.239624,263.690552 550.239624,284.205505 
	C584.835693,284.205505 619.006897,284.205505 653.723450,284.205505 
	C651.173096,272.497528 648.738525,261.320862 646.127014,249.324341 
M439.194733,284.654358 
	C443.630280,285.432526 444.801239,283.571442 444.737946,279.175354 
	C444.484100,261.538025 444.509186,243.893372 444.726898,226.255081 
	C444.776642,222.225220 443.527618,221.212051 439.640503,221.237534 
	C415.343597,221.396744 391.045135,221.312851 366.747192,221.329300 
	C365.294952,221.330276 363.842834,221.502930 362.185242,221.608826 
	C362.185242,242.672562 362.185242,263.374115 362.185242,284.654572 
	C387.747986,284.654572 413.001221,284.654572 439.194733,284.654358 
M173.971329,222.940475 
	C173.971329,243.342499 173.971329,263.744507 173.971329,284.203979 
	C175.234726,284.418976 175.872894,284.622070 176.511246,284.622589 
	C201.985367,284.643799 227.459839,284.582001 252.933243,284.721527 
	C256.745026,284.742401 256.741241,282.745850 256.732727,280.005005 
	C256.677429,262.189911 256.583984,244.373108 256.793823,226.560287 
	C256.842316,222.443893 255.718292,221.190781 251.516434,221.224289 
	C227.375763,221.416824 203.232742,221.303619 179.090622,221.350510 
	C177.491425,221.353607 175.893143,221.823151 173.971329,222.940475 
M272.749908,221.318573 
	C271.297668,221.412384 269.845428,221.506195 268.203369,221.612259 
	C268.203369,242.678894 268.203369,263.378876 268.203369,284.036469 
	C268.982574,284.298615 269.445618,284.590302 269.909088,284.590912 
	C295.711700,284.626526 321.514557,284.591919 347.316803,284.703125 
	C351.001770,284.719025 350.711884,282.511230 350.709686,280.108093 
	C350.693329,262.129120 350.567780,244.148438 350.798645,226.172409 
	C350.852020,222.014542 349.383698,221.221527 345.618195,221.244263 
	C321.647095,221.388901 297.674683,221.318146 272.749908,221.318573 
M507.499817,284.653229 
	C516.485535,284.653046 525.473755,284.529968 534.455566,284.716797 
	C537.769287,284.785675 538.722778,283.640015 538.700073,280.404785 
	C538.572693,262.267914 538.587524,244.129410 538.686096,225.992203 
	C538.702209,223.035339 537.866333,221.917648 534.743530,221.904037 
	C509.968353,221.796143 485.192688,221.611710 460.420380,221.237045 
	C456.551422,221.178513 455.696503,222.495819 455.728912,226.109055 
	C455.891571,244.245346 455.794159,262.383911 455.823456,280.521637 
	C455.825470,281.772095 456.115479,283.022095 456.319092,284.653168 
	C473.274963,284.653168 489.887360,284.653168 507.499817,284.653229 
M161.760742,221.616226 
	C151.636353,221.328903 141.509933,221.095673 131.388840,220.719681 
	C128.533707,220.613617 127.446854,221.483353 127.000198,224.539307 
	C125.342384,235.881927 123.246109,247.160156 121.340958,258.467041 
	C119.914078,266.935394 118.527832,275.410614 117.160034,283.662323 
	C117.858902,284.143707 118.128082,284.491119 118.399094,284.492554 
	C132.210129,284.565979 146.021942,284.671082 159.831100,284.526489 
	C160.803482,284.516327 162.591721,282.642609 162.594757,281.631256 
	C162.653976,261.839294 162.504349,242.046722 161.760742,221.616226 
z"/>
<path fill="#030303" opacity="1.000000" stroke="none" 
	d="
M434.122498,564.900146 
	C464.605499,564.480469 485.089142,577.598450 495.061951,605.976807 
	C507.284515,640.756958 507.278168,676.139343 493.857971,710.588074 
	C480.614105,744.584045 443.443909,758.525940 410.680695,743.101440 
	C397.216339,736.762634 387.565460,726.425781 382.261383,712.860779 
	C367.647705,675.486938 367.206757,637.623840 382.460510,600.452454 
	C391.570374,578.252747 409.347534,566.351624 434.122498,564.900146 
M407.517456,658.500488 
	C407.697235,663.656860 407.697754,668.827087 408.093994,673.966797 
	C408.928131,684.786560 410.349945,695.507324 415.605164,705.271179 
	C420.497437,714.360657 428.311523,718.648621 438.476288,718.597046 
	C448.470795,718.546326 455.527283,713.542236 459.845581,704.750916 
	C461.592072,701.195435 463.054626,697.400085 463.968903,693.552856 
	C468.881287,672.880798 468.947174,651.916077 466.065094,631.049072 
	C464.926849,622.808105 462.635010,614.207275 458.665192,606.980591 
	C449.306213,589.943420 425.787598,590.451111 416.274292,607.419189 
	C413.947327,611.569641 411.798615,616.207031 411.157104,620.840515 
	C409.474152,632.995605 408.667664,645.272034 407.517456,658.500488 
z"/>
<path fill="#020202" opacity="1.000000" stroke="none" 
	d="
M630.259155,575.689026 
	C641.381775,583.732056 646.409668,594.960693 648.585571,607.619385 
	C650.776917,620.368042 650.614136,633.185913 647.850037,645.861023 
	C643.233887,667.029358 629.670959,679.372070 607.908936,681.841858 
	C600.654114,682.665222 593.281311,682.458435 585.961609,682.695435 
	C584.178162,682.753235 582.391174,682.704041 580.094727,682.704041 
	C580.094727,703.929565 580.094727,724.655273 580.094727,745.593384 
	C568.497681,745.593384 557.416931,745.593384 546.043091,745.593384 
	C546.043091,686.671204 546.043091,627.966553 546.043091,568.769714 
	C568.132996,567.064026 590.125916,563.112427 612.127869,568.073608 
	C618.317322,569.469360 624.037048,572.948242 630.259155,575.689026 
M580.099915,615.500549 
	C580.099915,627.945679 580.099915,640.390747 580.099915,652.860901 
	C587.292908,652.860901 593.950195,653.249390 600.539673,652.747620 
	C606.684387,652.279785 611.249390,648.822327 612.784607,642.617981 
	C615.795898,630.448608 615.825317,618.186707 612.634521,606.041260 
	C611.325500,601.058777 608.070923,596.885010 602.876648,596.389893 
	C595.412964,595.678528 587.831116,596.208313 580.099915,596.208313 
	C580.099915,602.852417 580.099915,608.676636 580.099915,615.500549 
z"/>
<path fill="#030303" opacity="1.000000" stroke="none" 
	d="
M138.823059,625.059082 
	C132.673096,591.677246 154.863358,565.108398 188.341568,565.263489 
	C202.733246,565.330139 215.937378,569.374512 227.845291,577.401428 
	C229.052841,578.215515 230.204987,580.641113 229.882660,581.949158 
	C227.657272,590.980591 225.033478,599.913818 222.330536,609.622803 
	C218.875366,607.035461 215.804626,604.678955 212.675003,602.403503 
	C204.860519,596.721802 196.281387,593.639526 186.466904,594.762634 
	C179.806061,595.524780 174.683334,598.509033 172.409729,605.056580 
	C169.969925,612.082825 169.798965,619.249573 175.817352,624.469910 
	C180.789032,628.782288 186.641769,632.124268 192.283066,635.606323 
	C197.661606,638.926270 203.355682,641.732300 208.764984,645.005615 
	C230.707962,658.283936 238.479691,678.374268 235.576080,702.980652 
	C232.238892,731.261414 216.669006,745.875793 188.162231,748.449829 
	C168.816116,750.196716 146.072433,743.623047 132.102524,732.108704 
	C135.795441,722.125366 139.526474,712.039062 143.390366,701.593567 
	C147.417450,704.647217 150.800491,708.051941 154.865753,710.107483 
	C161.759338,713.593201 168.834961,717.627258 176.274826,718.947876 
	C195.722427,722.399963 208.009903,707.506104 201.264526,688.813721 
	C199.362335,683.542480 195.022629,678.545288 190.567871,674.950317 
	C184.670853,670.191345 177.516815,667.007690 170.987823,663.008606 
	C165.740677,659.794739 160.464920,656.590088 155.475983,653.000366 
	C146.076294,646.237061 140.849762,636.810364 138.823059,625.059082 
z"/>
<path fill="#040404" opacity="1.000000" stroke="none" 
	d="
M286.070160,676.000000 
	C286.070160,649.885620 286.070160,624.271240 286.070160,598.160645 
	C275.318420,598.160645 265.070374,598.160645 254.589447,598.160645 
	C254.589447,587.881042 254.589447,578.097046 254.589447,567.921753 
	C287.122772,567.921753 319.663940,567.921753 352.456879,567.921753 
	C352.456879,577.830933 352.456879,587.593323 352.456879,597.992432 
	C342.079498,597.992432 331.707031,597.992432 320.834717,597.992432 
	C320.834717,647.518921 320.834717,696.414368 320.834717,745.562134 
	C309.079315,745.562134 297.841827,745.562134 286.070160,745.562134 
	C286.070160,722.390991 286.070160,699.445496 286.070160,676.000000 
z"/>
<path fill="#010101" opacity="1.000000" stroke="none" 
	d="
M366.000305,479.515045 
	C469.950653,479.515045 573.400940,479.515045 677.114319,479.515045 
	C677.114319,483.218994 677.114319,486.463654 677.114319,489.992676 
	C480.774200,489.992676 284.555023,489.992676 88.091965,489.992676 
	C88.091965,486.582733 88.091965,483.331970 88.091965,479.515045 
	C180.638809,479.515045 273.069550,479.515045 366.000305,479.515045 
z"/>
<path fill="#070707" opacity="1.000000" stroke="none" 
	d="
M186.580109,402.742188 
	C167.009064,397.831177 156.437042,386.754578 153.707626,368.686676 
	C150.516449,347.562073 167.046829,326.684601 188.378098,324.898743 
	C209.447952,323.134796 227.875153,336.554352 231.285782,356.146149 
	C235.755722,381.823029 218.065491,402.863708 192.006302,402.860687 
	C190.342712,402.860504 188.679123,402.829285 186.580109,402.742188 
M179.978348,375.479919 
	C181.723969,376.726257 183.340790,378.232086 185.237732,379.173523 
	C192.993927,383.022797 200.160675,381.311676 206.243835,374.363098 
	C210.938797,369.000183 211.406113,360.890106 207.365509,354.896362 
	C202.574081,347.788849 195.274719,345.289612 187.372955,347.586670 
	C176.874176,350.638702 171.362747,364.993683 179.978348,375.479919 
z"/>
<path fill="#070707" opacity="1.000000" stroke="none" 
	d="
M546.034851,331.935242 
	C570.589966,349.606506 566.683289,386.809998 540.092346,399.424164 
	C525.806946,406.200806 507.520996,403.248230 495.531006,392.024200 
	C484.435974,381.638031 480.573700,363.958191 486.276520,349.661865 
	C492.334778,334.474548 506.445435,325.021729 522.739624,324.803467 
	C531.227722,324.689819 538.806580,326.983307 546.034851,331.935242 
M536.924194,353.724976 
	C527.801147,341.708801 511.283691,346.236877 506.873962,358.455139 
	C504.218536,365.812683 507.183014,374.046906 513.627075,378.129211 
	C520.622681,382.560913 529.510803,381.788422 535.283569,376.247040 
	C541.171753,370.594849 541.992493,361.927460 536.924194,353.724976 
z"/>
<path fill="#FBFBFB" opacity="1.000000" stroke="none" 
	d="
M646.215454,249.734253 
	C648.738525,261.320862 651.173096,272.497528 653.723450,284.205505 
	C619.006897,284.205505 584.835693,284.205505 550.239624,284.205505 
	C550.239624,263.690552 550.239624,243.180740 550.239624,222.280746 
	C551.756470,222.172684 553.198608,221.981277 554.640930,221.980316 
	C581.451599,221.962494 608.262695,222.038574 635.072510,221.887543 
	C638.916748,221.865875 640.664490,222.829788 641.334106,226.869644 
	C642.584351,234.412140 644.492554,241.845551 646.215454,249.734253 
z"/>
<path fill="#F9F9F9" opacity="1.000000" stroke="none" 
	d="
M438.724579,284.654480 
	C413.001221,284.654572 387.747986,284.654572 362.185242,284.654572 
	C362.185242,263.374115 362.185242,242.672562 362.185242,221.608826 
	C363.842834,221.502930 365.294952,221.330276 366.747192,221.329300 
	C391.045135,221.312851 415.343597,221.396744 439.640503,221.237534 
	C443.527618,221.212051 444.776642,222.225220 444.726898,226.255081 
	C444.509186,243.893372 444.484100,261.538025 444.737946,279.175354 
	C444.801239,283.571442 443.630280,285.432526 438.724579,284.654480 
z"/>
<path fill="#F9F9F9" opacity="1.000000" stroke="none" 
	d="
M174.132874,222.508102 
	C175.893143,221.823151 177.491425,221.353607 179.090622,221.350510 
	C203.232742,221.303619 227.375763,221.416824 251.516434,221.224289 
	C255.718292,221.190781 256.842316,222.443893 256.793823,226.560287 
	C256.583984,244.373108 256.677429,262.189911 256.732727,280.005005 
	C256.741241,282.745850 256.745026,284.742401 252.933243,284.721527 
	C227.459839,284.582001 201.985367,284.643799 176.511246,284.622589 
	C175.872894,284.622070 175.234726,284.418976 173.971329,284.203979 
	C173.971329,263.744507 173.971329,243.342499 174.132874,222.508102 
z"/>
<path fill="#F9F9F9" opacity="1.000000" stroke="none" 
	d="
M273.226318,221.318451 
	C297.674683,221.318146 321.647095,221.388901 345.618195,221.244263 
	C349.383698,221.221527 350.852020,222.014542 350.798645,226.172409 
	C350.567780,244.148438 350.693329,262.129120 350.709686,280.108093 
	C350.711884,282.511230 351.001770,284.719025 347.316803,284.703125 
	C321.514557,284.591919 295.711700,284.626526 269.909088,284.590912 
	C269.445618,284.590302 268.982574,284.298615 268.203369,284.036469 
	C268.203369,263.378876 268.203369,242.678894 268.203369,221.612259 
	C269.845428,221.506195 271.297668,221.412384 273.226318,221.318451 
z"/>
<path fill="#FAFAFA" opacity="1.000000" stroke="none" 
	d="
M506.999817,284.653198 
	C489.887360,284.653168 473.274963,284.653168 456.319092,284.653168 
	C456.115479,283.022095 455.825470,281.772095 455.823456,280.521637 
	C455.794159,262.383911 455.891571,244.245346 455.728912,226.109055 
	C455.696503,222.495819 456.551422,221.178513 460.420380,221.237045 
	C485.192688,221.611710 509.968353,221.796143 534.743530,221.904037 
	C537.866333,221.917648 538.702209,223.035339 538.686096,225.992203 
	C538.587524,244.129410 538.572693,262.267914 538.700073,280.404785 
	C538.722778,283.640015 537.769287,284.785675 534.455566,284.716797 
	C525.473755,284.529968 516.485535,284.653046 506.999817,284.653198 
z"/>
<path fill="#F8F8F8" opacity="1.000000" stroke="none" 
	d="
M162.079071,221.935242 
	C162.504349,242.046722 162.653976,261.839294 162.594757,281.631256 
	C162.591721,282.642609 160.803482,284.516327 159.831100,284.526489 
	C146.021942,284.671082 132.210129,284.565979 118.399094,284.492554 
	C118.128082,284.491119 117.858902,284.143707 117.160034,283.662323 
	C118.527832,275.410614 119.914078,266.935394 121.340958,258.467041 
	C123.246109,247.160156 125.342384,235.881927 127.000198,224.539307 
	C127.446854,221.483353 128.533707,220.613617 131.388840,220.719681 
	C141.509933,221.095673 151.636353,221.328903 162.079071,221.935242 
z"/>
<path fill="#FDFDFD" opacity="1.000000" stroke="none" 
	d="
M407.514679,658.000305 
	C408.667664,645.272034 409.474152,632.995605 411.157104,620.840515 
	C411.798615,616.207031 413.947327,611.569641 416.274292,607.419189 
	C425.787598,590.451111 449.306213,589.943420 458.665192,606.980591 
	C462.635010,614.207275 464.926849,622.808105 466.065094,631.049072 
	C468.947174,651.916077 468.881287,672.880798 463.968903,693.552856 
	C463.054626,697.400085 461.592072,701.195435 459.845581,704.750916 
	C455.527283,713.542236 448.470795,718.546326 438.476288,718.597046 
	C428.311523,718.648621 420.497437,714.360657 415.605164,705.271179 
	C410.349945,695.507324 408.928131,684.786560 408.093994,673.966797 
	C407.697754,668.827087 407.697235,663.656860 407.514679,658.000305 
z"/>
<path fill="#FBFBFB" opacity="1.000000" stroke="none" 
	d="
M580.099915,615.000732 
	C580.099915,608.676636 580.099915,602.852417 580.099915,596.208313 
	C587.831116,596.208313 595.412964,595.678528 602.876648,596.389893 
	C608.070923,596.885010 611.325500,601.058777 612.634521,606.041260 
	C615.825317,618.186707 615.795898,630.448608 612.784607,642.617981 
	C611.249390,648.822327 606.684387,652.279785 600.539673,652.747620 
	C593.950195,653.249390 587.292908,652.860901 580.099915,652.860901 
	C580.099915,640.390747 580.099915,627.945679 580.099915,615.000732 
z"/>
<path fill="#F8F8F8" opacity="1.000000" stroke="none" 
	d="
M179.720673,375.208527 
	C171.362747,364.993683 176.874176,350.638702 187.372955,347.586670 
	C195.274719,345.289612 202.574081,347.788849 207.365509,354.896362 
	C211.406113,360.890106 210.938797,369.000183 206.243835,374.363098 
	C200.160675,381.311676 192.993927,383.022797 185.237732,379.173523 
	C183.340790,378.232086 181.723969,376.726257 179.720673,375.208527 
z"/>
<path fill="#F7F7F7" opacity="1.000000" stroke="none" 
	d="
M537.141052,354.033081 
	C541.992493,361.927460 541.171753,370.594849 535.283569,376.247040 
	C529.510803,381.788422 520.622681,382.560913 513.627075,378.129211 
	C507.183014,374.046906 504.218536,365.812683 506.873962,358.455139 
	C511.283691,346.236877 527.801147,341.708801 537.141052,354.033081 
z"/>
</svg>