<?xml version="1.0" encoding="UTF-8"?>
<svg version="1.1" xmlns="http://www.w3.org/2000/svg" width="499" height="500">
<path d="M0 0 C0.57911133 0.41233887 1.15822266 0.82467773 1.75488281 1.24951172 C8.94554563 6.38116485 15.5199763 12.00883844 22 18 C23.68634909 19.50129378 25.37385206 21.00129243 27.0625 22.5 C41.54324097 35.55082454 54.65438578 50.43042001 65 67 C65.64710938 68.02996094 66.29421875 69.05992188 66.9609375 70.12109375 C94.03408004 113.64947348 107.09697435 161.8156435 106 213 C105.98743164 213.69641602 105.97486328 214.39283203 105.96191406 215.11035156 C104.63317602 273.87311367 79.9683231 330.4894585 40.375 373.40234375 C38.34222535 375.62569103 36.38195292 377.88746425 34.4375 380.1875 C30.68108202 384.50738067 26.54871377 388.51666726 22 392 C21.34 392 20.68 392 20 392 C19.67 392.99 19.34 393.98 19 395 C6.13084966 407.61494491 -11.02730914 417.82350349 -27 426 C-27.76828125 426.39638672 -28.5365625 426.79277344 -29.328125 427.20117188 C-51.9216718 438.73179568 -75.09563473 446.30622926 -100 451 C-100.88026855 451.17789062 -101.76053711 451.35578125 -102.66748047 451.5390625 C-159.02552664 462.7021418 -225.59327291 449.57143962 -273.625 418.4375 C-275.76267494 416.97671087 -277.88716222 415.49648774 -280 414 C-281.4064152 413.04259862 -282.81404611 412.08698155 -284.22265625 411.1328125 C-291.77458823 405.96840443 -298.8135006 400.67092443 -305.453125 394.36328125 C-308.07884795 391.92683587 -310.81310033 389.71767226 -313.625 387.5 C-318.12519879 383.8615414 -321.96650666 379.96894231 -325.75 375.59765625 C-328.12457279 372.85617898 -330.58820122 370.21407324 -333.0625 367.5625 C-340.27252147 359.61043331 -346.15819758 350.83257456 -352.125 341.9375 C-352.86145752 340.8400647 -352.86145752 340.8400647 -353.61279297 339.72045898 C-388.27680571 287.56186159 -400.92013783 220.54988426 -389.01904297 159.14794922 C-382.005271 124.7381613 -369.85294943 91.54153691 -349 63 C-347.54045531 60.81330805 -346.08214069 58.62579462 -344.625 56.4375 C-340.68678351 50.73672509 -336.31593257 45.7236178 -331.5625 40.7109375 C-329.43235813 38.45740327 -327.3876407 36.1698986 -325.375 33.8125 C-319.1350189 26.63428785 -312.2677783 20.12303666 -305 14 C-304.21367187 13.32453125 -303.42734375 12.6490625 -302.6171875 11.953125 C-294.80690279 5.37849728 -286.52997579 -0.40318267 -278 -6 C-277.11948975 -6.57983643 -277.11948975 -6.57983643 -276.22119141 -7.17138672 C-198.52116403 -57.67083062 -97.8018779 -56.67170339 0 0 Z " fill="#BB1123" transform="translate(393,45)"/>
<path d="M0 0 C3.91346778 0.53666384 5.3372682 2.1632967 7.828125 5.13671875 C11.74654037 9.64482193 15.81797776 13.92647769 20.046875 18.14453125 C20.6709021 18.7675412 21.2949292 19.39055115 21.93786621 20.03244019 C23.8732814 21.96110995 25.81155238 23.88687856 27.75 25.8125 C29.06403814 27.12150787 30.37784171 28.43075126 31.69140625 29.74023438 C34.09719086 32.13792914 36.50430031 34.53427535 38.91308594 36.92895508 C42.39260445 40.38887907 45.86514192 43.85558924 49.3203125 47.33984375 C51.45943507 49.46337505 53.62204793 51.55073764 55.8046875 53.62890625 C57.16167902 54.93987577 58.51844563 56.25107814 59.875 57.5625 C60.57625 58.22185547 61.2775 58.88121094 62 59.56054688 C62.65742188 60.20185547 63.31484375 60.84316406 63.9921875 61.50390625 C64.59401855 62.07955322 65.19584961 62.6552002 65.81591797 63.24829102 C67 65 67 65 66.81591797 66.98266602 C65.98858383 69.02822615 65.07045359 70.87050233 63.953125 72.7734375 C63.52733154 73.50393311 63.10153809 74.23442871 62.6628418 74.98706055 C62.196604 75.77508057 61.73036621 76.56310059 61.25 77.375 C60.76120361 78.2100708 60.27240723 79.0451416 59.76879883 79.90551758 C58.18502845 82.60715525 56.5934972 85.3040894 55 88 C54.4829248 88.8760791 53.96584961 89.7521582 53.43310547 90.65478516 C51.30922118 94.25257477 49.18402331 97.84957052 47.05419922 101.44384766 C42.95877898 108.3587099 38.91184383 115.30081829 34.875 122.25 C30.23112827 130.24154049 25.48847252 138.16087529 20.63378906 146.02587891 C17.68011248 150.8297705 14.89796784 155.69377945 12.28125 160.69140625 C11.03094895 162.94423528 9.61905309 164.96667553 8.125 167.0625 C5.30777056 171.50786853 4.91120688 175.88091621 6 181 C7.91911456 184.2539921 7.91911456 184.2539921 11 186 C15.45946627 186.41685075 18.18825679 185.75324698 22.07421875 183.59375 C22.98880859 183.09746094 23.90339844 182.60117187 24.84570312 182.08984375 C25.78349609 181.56519531 26.72128906 181.04054688 27.6875 180.5 C29.56342557 179.4633378 31.44221189 178.43183053 33.32421875 177.40625 C34.15010498 176.94541016 34.97599121 176.48457031 35.8269043 176.00976562 C38 175 38 175 41 175 C41 200.08 41 225.16 41 251 C59.81 251 78.62 251 98 251 C98 225.92 98 200.84 98 175 C104.7222418 177.24074727 104.7222418 177.24074727 108.09375 179.1640625 C108.81433594 179.56367188 109.53492188 179.96328125 110.27734375 180.375 C111.76246438 181.21021723 113.24424359 182.05140318 114.72265625 182.8984375 C118.93396569 185.2188012 122.05323043 186.78914492 127 186 C130.79291755 182.79709185 132.84840481 180.75935823 133.27734375 175.78125 C132.95703941 171.41428383 131.8332873 169.21824821 129.5625 165.5 C129.19979004 164.89526855 128.83708008 164.29053711 128.46337891 163.66748047 C127.32212205 161.76995139 126.16156858 159.88514442 125 158 C123.97538801 156.29557852 122.95079467 154.59114302 121.92944336 152.88476562 C121.21483101 151.69214561 120.49813006 150.50077504 119.77954102 149.31054688 C116.12194658 143.24451754 112.56160517 137.12273815 109 131 C103.32791329 121.25369518 103.32791329 121.25369518 97.5625 111.5625 C96.88574219 110.43585938 96.20898438 109.30921875 95.51171875 108.1484375 C93.38429546 104.6230974 91.23231404 101.11299616 89.08203125 97.6015625 C88.02993167 95.87400649 86.97906322 94.14571033 85.92892456 92.41696167 C84.88754896 90.70809251 83.83749943 89.00451901 82.78735352 87.30102539 C82.15369873 86.2568042 81.52004395 85.21258301 80.8671875 84.13671875 C80.29081543 83.19530029 79.71444336 82.25388184 79.12060547 81.28393555 C78.56590576 80.15338745 78.56590576 80.15338745 78 79 C78.33 78.34 78.66 77.68 79 77 C118.66666667 116.66666667 158.33333333 156.33333333 198 196 C194.25 199.875 194.25 199.875 192 201 C192.63276855 201.8206897 192.63276855 201.8206897 193.27832031 202.65795898 C195.27238962 205.24846383 197.26196652 207.84235994 199.25 210.4375 C199.97348633 211.38149658 200.69697266 212.32549316 201.44238281 213.2980957 C206.55983404 220.0131985 211.49744029 226.82572702 216.19238281 233.84350586 C216.63936523 234.49714111 217.08634766 235.15077637 217.546875 235.82421875 C217.92682617 236.39229248 218.30677734 236.96036621 218.69824219 237.5456543 C220.31334304 239.35007212 221.72680769 240.17857352 224 241 C226.7604155 239.8437539 226.7604155 239.8437539 229.5 238 C232.34375 236.1875 232.34375 236.1875 235 235 C240.23025274 236.63975491 244.35647657 241.14932596 247.796875 245.2734375 C253.64574454 252.02421029 260.10446243 258.20906088 266.4375 264.5 C267.75479059 265.81226585 269.07184986 267.12476395 270.38867188 268.4375 C273.5897861 271.62768506 276.79401865 274.81470651 280 278 C278.29493768 283.11518696 273.27874096 285.06324603 268.84814453 287.83789062 C267.62696851 288.60576353 266.41161578 289.38298522 265.20263672 290.16992188 C224.84168938 316.38140354 173.09917973 325.82455861 126 317 C125.23671387 316.86078125 124.47342773 316.7215625 123.68701172 316.578125 C99.59082353 312.06694264 73.98205583 303.45510422 54 289 C53.03707031 288.30648438 52.07414062 287.61296875 51.08203125 286.8984375 C49.21574499 285.54248315 47.35661232 284.17657636 45.5078125 282.796875 C43.07637201 280.99006286 43.07637201 280.99006286 40.62890625 279.64453125 C37.0519897 277.40696533 33.98030789 274.71426023 30.8125 271.9375 C30.14976074 271.35822754 29.48702148 270.77895508 28.80419922 270.18212891 C19.64941491 262.1164061 11.56403791 253.57635743 4 244 C3.44054687 243.33097656 2.88109375 242.66195312 2.3046875 241.97265625 C-18.48352236 216.61505727 -31.57569984 184.15907157 -37 152 C-37.2616394 150.53203979 -37.2616394 150.53203979 -37.52856445 149.03442383 C-39.14417293 139.10320462 -39.35767061 129.3541131 -39.3125 119.3125 C-39.31067719 118.47206146 -39.30885437 117.63162292 -39.30697632 116.76571655 C-39.26254378 104.60668781 -38.87067783 92.86640192 -36 81 C-35.82839355 80.24380371 -35.65678711 79.48760742 -35.47998047 78.70849609 C-32.66631196 66.43044129 -28.63355401 54.69946703 -24 43 C-23.74025391 42.32404785 -23.48050781 41.6480957 -23.21289062 40.95166016 C-17.50405499 26.19894287 -8.80661064 13.07063866 0 0 Z " fill="#FEFDFD" transform="translate(89,130)"/>
<path d="M0 0 C1.39940959 0.96846558 2.82498495 1.89892042 4.25488281 2.82177734 C11.27250508 7.41913054 17.16437758 13.13464868 23.20410156 18.91552734 C25.89581343 21.48306908 28.7128242 23.80322894 31.62207031 26.12255859 C34.09487158 28.66909017 36.33840514 31.40610204 38.62207031 34.12255859 C39.30269531 34.90373047 39.98332031 35.68490234 40.68457031 36.48974609 C47.50570321 44.50457725 53.11615501 53.1718855 58.62207031 62.12255859 C59.02458008 62.76821777 59.42708984 63.41387695 59.84179688 64.07910156 C67.06404554 75.7735655 71.9127296 88.24513927 76.62207031 101.12255859 C77.05519531 102.27884766 77.48832031 103.43513672 77.93457031 104.62646484 C79.96171764 110.31989815 81.40551826 116.11213948 82.74707031 121.99755859 C82.90602783 122.69276611 83.06498535 123.38797363 83.22875977 124.10424805 C86.01875694 136.95527771 86.99914626 149.51916547 86.93457031 162.62255859 C86.93241516 163.41180725 86.93026001 164.20105591 86.92803955 165.01422119 C86.73410395 209.41426427 72.33824879 254.72194889 43.62207031 289.12255859 C36.57587676 285.90411985 31.53164435 280.13627151 26.62207031 274.30615234 C23.33974102 270.72251548 19.64630617 267.59734497 15.97753906 264.41943359 C13.8490923 262.34393327 12.70493577 260.85162992 11.62207031 258.12255859 C12.04617188 257.73326172 12.47027344 257.34396484 12.90722656 256.94287109 C24.92805427 245.47685081 31.39124357 231.95927243 31.92285156 215.31787109 C31.94212313 213.2945216 31.94566851 211.27096943 31.93457031 209.24755859 C31.92965576 208.18762695 31.92474121 207.12769531 31.91967773 206.03564453 C31.80938328 198.68946805 31.23063311 192.04729758 28.62207031 185.12255859 C28.09419922 183.64335937 28.09419922 183.64335937 27.55566406 182.13427734 C23.90663 172.6564232 19.04984711 164.1001671 11.62207031 157.12255859 C11.62207031 156.46255859 11.62207031 155.80255859 11.62207031 155.12255859 C10.87957031 154.83767578 10.13707031 154.55279297 9.37207031 154.25927734 C6.99644096 153.27730555 4.86428719 152.1793191 2.62207031 150.93505859 C-3.63542942 147.73509287 -10.2907569 145.72286749 -16.97753906 143.62182617 C-28.20465785 140.04405469 -28.20465785 140.04405469 -30.68261719 135.98583984 C-31.63715884 132.05505877 -31.59070099 128.33741123 -31.50292969 124.31005859 C-31.49390625 123.52179688 -31.48488281 122.73353516 -31.47558594 121.92138672 C-31.45215473 119.98831193 -31.41628807 118.0553948 -31.37792969 116.12255859 C-30.34406128 116.48607422 -30.34406128 116.48607422 -29.28930664 116.85693359 C-26.09648677 117.96627383 -22.8939109 119.04441142 -19.69042969 120.12255859 C-18.60697266 120.50412109 -17.52351562 120.88568359 -16.40722656 121.27880859 C-8.00582 124.07096745 0.97740063 126.00411516 9.62207031 123.12255859 C11.20306564 118.3795726 11.76262133 113.65416627 9.65722656 108.98095703 C8.23956313 106.73562214 6.71866137 104.61942903 5.12207031 102.49755859 C3.92910443 100.83628518 2.73640852 99.17481787 1.54394531 97.51318359 C0.90779297 96.64242187 0.27164063 95.77166016 -0.38378906 94.87451172 C-3.87701868 90.05378642 -7.24119915 85.14336701 -10.62792969 80.24755859 C-11.98649979 78.29517534 -13.34585056 76.34333504 -14.70605469 74.39208984 C-15.65641602 73.02818115 -15.65641602 73.02818115 -16.62597656 71.63671875 C-17.20412109 70.8070459 -17.78226563 69.97737305 -18.37792969 69.12255859 C-22.7496428 62.84812337 -27.09839909 56.5648831 -31.31542969 50.18505859 C-34.6670617 45.12422778 -38.17561286 40.19645422 -41.72827148 35.27661133 C-44.92322217 30.82542061 -47.87869652 26.25642048 -50.77246094 21.60302734 C-52.78632665 18.49158032 -55.00394658 15.57917968 -57.31152344 12.68115234 C-58.37792969 11.12255859 -58.37792969 11.12255859 -58.37792969 9.12255859 C-61.23986257 11.81795659 -63.35149642 14.44850133 -65.37792969 17.81005859 C-68.4782159 22.7957437 -71.78239147 27.59257896 -75.19042969 32.37255859 C-79.02384316 37.75757762 -82.79383252 43.17165521 -86.44042969 48.68505859 C-93.56285358 59.44707923 -100.9241469 70.04134709 -108.29711914 80.6328125 C-109.67936174 82.61884358 -111.06071613 84.60549314 -112.44116211 86.59277344 C-115.54831592 91.06501667 -118.66232932 95.53135915 -121.81152344 99.97412109 C-122.32392578 100.70308594 -122.83632812 101.43205078 -123.36425781 102.18310547 C-124.30025773 103.51466929 -125.24252639 104.84185911 -126.19238281 106.16357422 C-128.48764108 109.44611783 -129.9611751 112.10655984 -130.37792969 116.12255859 C-136.37336891 111.15443555 -141.8596045 105.7761122 -147.35229492 100.26171875 C-148.33832153 99.27540956 -149.3245694 98.28932152 -150.3110199 97.30343628 C-152.96978838 94.644953 -155.62547695 91.98341267 -158.28059649 89.32128572 C-161.06278925 86.53281313 -163.84784166 83.74719958 -166.63258362 80.96127319 C-171.89717414 75.69358296 -177.1592118 70.42335033 -182.42032248 65.15218484 C-188.41354744 59.14775639 -194.40963503 53.14619006 -200.4059571 47.14485478 C-212.73312146 34.80725685 -225.05671104 22.4660943 -237.37792969 10.12255859 C-235.68080165 6.40901718 -234.15866966 5.05036878 -230.62792969 2.93505859 C-226.84070017 0.6302167 -223.10296065 -1.71333664 -219.41479492 -4.17407227 C-153.72361116 -47.63646809 -64.18446948 -44.94336812 0 0 Z " fill="#FEFDFD" transform="translate(362.3779296875,84.87744140625)"/>
<path d="M0 0 C0.66 0 1.32 0 2 0 C3.75607839 2.32009662 5.39007382 4.64332533 7 7.0625 C7.73367798 8.14700439 7.73367798 8.14700439 8.48217773 9.25341797 C12.11903029 14.64095668 15.70552184 20.06262662 19.29223633 25.48364258 C22.566181 30.40916671 25.99196102 35.21323893 29.45678711 40.00561523 C32.54458502 44.29995629 35.39346176 48.71054692 38.19042969 53.20043945 C39.93171262 55.89435357 41.76789221 58.46897834 43.67578125 61.046875 C48.12042397 67.12023326 52.35225078 73.32523487 56.5625 79.5625 C58.00062128 81.68926261 59.43941542 83.81557038 60.87890625 85.94140625 C61.56581543 86.95968506 62.25272461 87.97796387 62.96044922 89.02709961 C65.45919143 92.66932895 68.05757922 96.23472256 70.69213867 99.77978516 C72.51108105 102.86760706 72.88474606 105.47922317 72.52734375 109.015625 C71.51032345 112.84263472 70.43708601 113.98962894 67 116 C54.67222594 118.99100092 41.34290518 112.17159296 30 108 C29.94579299 110.56278699 29.90622993 113.12441483 29.875 115.6875 C29.84986328 116.7693457 29.84986328 116.7693457 29.82421875 117.87304688 C29.74074798 123.75032568 29.74074798 123.75032568 32 129 C34.39047134 130.2968307 36.46727204 131.23178735 39 132.125 C39.67844971 132.38087891 40.35689941 132.63675781 41.0559082 132.90039062 C44.72645429 134.26285273 48.41358335 135.45339995 52.1875 136.5 C60.33376293 138.81582726 68.50438353 142.40526024 74 149 C74.515625 149.50402344 75.03125 150.00804687 75.5625 150.52734375 C81.82993421 156.92068624 85.33196529 164.9447523 89 173 C89.54720703 174.16982422 89.54720703 174.16982422 90.10546875 175.36328125 C92.83221918 183.40064605 93.35894861 191.37770086 93.3125 199.8125 C93.30512817 201.39635498 93.30512817 201.39635498 93.29760742 203.01220703 C93.03303982 220.63647979 87.60601039 234.39398961 75 247 C72.63996887 247.83351135 72.63996887 247.83351135 70 248 C67.88017273 246.69590759 67.88017273 246.69590759 65.76049805 244.66381836 C64.96004562 243.90810043 64.1595932 243.15238251 63.33488464 242.37376404 C62.4857399 241.53757034 61.63659515 240.70137665 60.76171875 239.83984375 C59.88095169 238.98379044 59.00018463 238.12773712 58.09272766 237.2457428 C56.23138846 235.42359512 54.37833204 233.59295423 52.53295898 231.75463867 C49.72286741 228.95711968 46.84717492 226.23136644 43.97460938 223.49804688 C42.17120703 221.71945753 40.37097027 219.93765158 38.57421875 218.15234375 C37.71495285 217.34651352 36.85568695 216.54068329 35.97038269 215.71043396 C32.35931212 212.01510855 30.17905958 209.60512635 29.59378052 204.35856628 C29.67700195 200.55712891 29.67700195 200.55712891 30.03120422 197.0050354 C30.31368126 193.98155633 30.31368126 193.98155633 28.45573425 192.11975098 C26.36946745 190.79071694 24.30273323 189.90092544 22 189 C20.44088776 188.1918031 18.88884883 187.36983151 17.34375 186.53515625 C14.92263848 185.29320844 12.49707495 184.06102808 10.06640625 182.83789062 C0.66573381 178.00042952 -6.72445135 171.69380897 -14.25 164.3125 C-15.03890625 163.57322266 -15.8278125 162.83394531 -16.640625 162.07226562 C-22.24510704 156.5671874 -24.97034054 151.56030831 -27 144 C-27.22187988 143.27280762 -27.44375977 142.54561523 -27.67236328 141.79638672 C-29.52695276 134.94537107 -29.22236662 127.98160035 -29.125 120.9375 C-29.11597656 119.69033203 -29.10695313 118.44316406 -29.09765625 117.15820312 C-29.07426209 114.10526496 -29.04148174 111.05273694 -29 108 C-29.64437012 108.24234375 -30.28874023 108.4846875 -30.95263672 108.734375 C-33.92077983 109.83978909 -36.89754151 110.91994153 -39.875 112 C-40.88820313 112.3815625 -41.90140625 112.763125 -42.9453125 113.15625 C-49.29819218 115.43677091 -55.22236896 117.17885585 -62 116 C-64.7265625 114.4609375 -64.7265625 114.4609375 -66.625 112.375 C-67.27726563 111.70210938 -67.92953125 111.02921875 -68.6015625 110.3359375 C-70.42040035 107.29776702 -70.44999587 105.49087706 -70 102 C-68.85546875 99.7890625 -68.85546875 99.7890625 -67.1875 97.625 C-66.54941406 96.76777344 -65.91132813 95.91054687 -65.25390625 95.02734375 C-64.51011719 94.02832031 -63.76632813 93.02929688 -63 92 C-61.18675284 89.41054599 -59.406606 86.79878912 -57.625 84.1875 C-56.66978041 82.79522316 -55.71405253 81.40329492 -54.7578125 80.01171875 C-54.29149414 79.33286621 -53.82517578 78.65401367 -53.34472656 77.95458984 C-51.4028161 75.13197997 -49.45180633 72.31577796 -47.5 69.5 C-38.69745602 56.79210201 -29.97433921 44.03176532 -21.28833008 31.24389648 C-16.68031354 24.46247266 -12.05650999 17.69245992 -7.3984375 10.9453125 C-5.10032029 7.62667041 -5.10032029 7.62667041 -2.89306641 4.24755859 C-1.97570965 2.80081142 -0.99329815 1.39570039 0 0 Z " fill="#050505" transform="translate(302,94)"/>
<path d="M0 0 C6.80486517 3.00088052 10.6722543 9.64437887 14.4375 15.8125 C14.84726074 16.47483643 15.25702148 17.13717285 15.67919922 17.81958008 C20.48602586 25.66722802 25.03419293 33.66863564 29.61108398 41.65161133 C33.22795408 47.95514217 36.91830979 54.17844595 40.77734375 60.3359375 C44.84062894 66.93803156 48.6194753 73.71720281 52.45898438 80.45117188 C55.99588893 86.62866764 59.64811335 92.69148777 63.53491211 98.65576172 C66.47910141 103.36666085 67.58920394 106.30436194 67 112 C64.97333762 115.70390021 63.51955484 117.65363011 60 120 C54 120 54 120 31 108 C31 133.08 31 158.16 31 184 C12.19 184 -6.62 184 -26 184 C-26 158.92 -26 133.84 -26 108 C-33.92 111.96 -33.92 111.96 -42 116 C-51.71428571 120.85714286 -51.71428571 120.85714286 -56 120 C-58.8125 117.5625 -58.8125 117.5625 -61 115 C-61.33 114.67 -61.66 114.34 -62 114 C-63.33409509 108.88403536 -62.55281084 104.64938235 -59.9453125 100.12890625 C-57.77208194 96.6309325 -55.467836 93.22056582 -53.16992188 89.80371094 C-51.77534448 87.65364045 -50.64001754 85.44889976 -49.5625 83.125 C-46.99972469 77.7511528 -43.85071939 72.78348597 -40.71777344 67.73022461 C-36.44022078 60.79649528 -32.36439149 53.75502194 -28.3125 46.6875 C-23.90855326 39.00927402 -19.46626601 31.38340055 -14.765625 23.8828125 C-12.69855214 20.50781301 -10.75363339 17.07339296 -8.8125 13.625 C-6.13073822 8.8644992 -3.31353867 4.34901951 0 0 Z " fill="#050505" transform="translate(156,197)"/>
<path d="M0 0 C0.01401855 1.10903687 0.01401855 1.10903687 0.02832031 2.24047852 C0.20390604 21.09423105 0.20390604 21.09423105 4.2578125 39.375 C5 42 5 42 4 45 C-7.55 33.45 -19.1 21.9 -31 10 C-27.94672157 7.96448105 -25.56329325 7.15189935 -22.0625 6.125 C-16.47713257 4.46127353 -10.96383354 2.65227443 -5.4609375 0.734375 C-3 0 -3 0 0 0 Z " fill="#FBF9F9" transform="translate(273,202)"/>
<path d="M0 0 C7.17591585 2.5160837 12.26029147 9.78851594 17.125 15.32421875 C19.50025403 17.88823469 21.98488388 20.18972276 24.609375 22.49609375 C35.57571054 32.14510037 35.57571054 32.14510037 37.484375 37.87109375 C35.74602443 38.93208703 33.99317696 39.96935858 32.234375 40.99609375 C31.25984375 41.57617188 30.2853125 42.15625 29.28125 42.75390625 C26.484375 43.87109375 26.484375 43.87109375 24.4140625 43.41015625 C21.77744735 41.30726886 19.84560412 38.8159278 17.859375 36.12109375 C17.21077515 35.25979858 17.21077515 35.25979858 16.54907227 34.38110352 C13.01815518 29.66491204 9.59143937 24.87327506 6.1875 20.06494141 C2.0660994 14.24755175 -2.20823 8.55186106 -6.515625 2.87109375 C-4.22550414 0.75061147 -3.18337236 -0.16312312 0 0 Z " fill="#0A0808" transform="translate(286.515625,328.12890625)"/>
<path d="M0 0 C4.02578112 1.25004115 7.63092545 2.7296427 11.328125 4.75 C12.29234375 5.2759375 13.2565625 5.801875 14.25 6.34375 C15.735 7.16359375 15.735 7.16359375 17.25 8 C18.25546875 8.5465625 19.2609375 9.093125 20.296875 9.65625 C27.73549107 13.73549107 27.73549107 13.73549107 30 16 C30.23046875 18.05859375 30.23046875 18.05859375 30.1875 20.4375 C30.18105469 21.21996094 30.17460937 22.00242187 30.16796875 22.80859375 C30 25 30 25 29 28 C25.93286756 26.63757574 23.88159707 25.10300295 21.5625 22.6875 C21.00691406 22.11386719 20.45132812 21.54023438 19.87890625 20.94921875 C19.25886719 20.30597656 18.63882812 19.66273438 18 19 C15.23545153 16.22134669 12.45459337 13.45959393 9.66796875 10.703125 C8.5077816 9.55211448 7.34762577 8.40107239 6.1875 7.25 C5.2912793 6.36634766 5.2912793 6.36634766 4.37695312 5.46484375 C2.89903092 3.99536682 1.44698549 2.49994982 0 1 C0 0.67 0 0.34 0 0 Z " fill="#F9F4F4" transform="translate(303,272)"/>
<path d="M0 0 C1.28777344 0.01160156 2.57554687 0.02320313 3.90234375 0.03515625 C5.83787109 0.04869141 5.83787109 0.04869141 7.8125 0.0625 C8.81152344 0.07410156 9.81054688 0.08570313 10.83984375 0.09765625 C10.83984375 0.42765625 10.83984375 0.75765625 10.83984375 1.09765625 C-3.57731049 3.90424016 -17.70667561 4.38533757 -32.34765625 4.34765625 C-33.68967606 4.34608521 -33.68967606 4.34608521 -35.05880737 4.34448242 C-44.46458819 4.32123941 -53.81008894 4.24588671 -63.16015625 3.09765625 C-63.16015625 2.76765625 -63.16015625 2.43765625 -63.16015625 2.09765625 C-62.55373795 2.09987686 -61.94731964 2.10209747 -61.32252502 2.10438538 C-54.97910148 2.12660474 -48.63568911 2.14163201 -42.29223633 2.15258789 C-39.92862498 2.15759931 -37.56501671 2.16441021 -35.20141602 2.1730957 C-31.79312377 2.18530151 -28.38487271 2.19091662 -24.9765625 2.1953125 C-23.40570641 2.20305443 -23.40570641 2.20305443 -21.80311584 2.21095276 C-15.83988656 2.21140301 -10.06592579 1.95695835 -4.16015625 1.09765625 C-3.16015625 0.09765625 -3.16015625 0.09765625 0 0 Z " fill="#8A1119" transform="translate(282.16015625,494.90234375)"/>
<path d="M0 0 C1.18719263 4.36503148 0.67009018 7.53273214 0 12 C0.66 12.33 1.32 12.66 2 13 C1.67 13.99 1.34 14.98 1 16 C0.01 16 -0.98 16 -2 16 C-2 17.65 -2 19.3 -2 21 C-2.66 21 -3.32 21 -4 21 C-4.144375 22.0725 -4.28875 23.145 -4.4375 24.25 C-4.83749442 26.91662949 -5.27591924 29.41399729 -6 32 C-6.66 32 -7.32 32 -8 32 C-8 33.65 -8 35.3 -8 37 C-8.66 37 -9.32 37 -10 37 C-9.938125 37.721875 -9.87625 38.44375 -9.8125 39.1875 C-10.03523932 42.52858974 -11.1282246 44.27032755 -13 47 C-13.66 46.67 -14.32 46.34 -15 46 C-14.75878418 45.38817871 -14.51756836 44.77635742 -14.26904297 44.14599609 C-8.58394683 29.62642816 -3.76747999 15.1330495 0 0 Z " fill="#B02939" transform="translate(445,288)"/>
<path d="M0 0 C1.32 0.33 2.64 0.66 4 1 C4 1.66 4 2.32 4 3 C4.99 3 5.98 3 7 3 C7.66 4.98 8.32 6.96 9 9 C10.32 8.67 11.64 8.34 13 8 C13.66 9.65 14.32 11.3 15 13 C15.66 13 16.32 13 17 13 C17.4640625 14.2065625 17.4640625 14.2065625 17.9375 15.4375 C20.43300747 20.45251019 24.71871711 24.47554702 29 28 C31.16126127 28.79771427 31.16126127 28.79771427 33 29 C33.495 31.475 33.495 31.475 34 34 C25.35612887 27.9940405 18.36726969 20.67729954 11.5546875 12.703125 C9.9270975 10.82652351 9.9270975 10.82652351 7.375 8.9375 C4.19527549 6.34351422 2.28867693 3.40032001 0 0 Z " fill="#AA2133" transform="translate(281,320)"/>
<path d="M0 0 C9.66666667 9.66666667 19.33333333 19.33333333 29 29 C28.01 29.33 27.02 29.66 26 30 C24 29 24 29 22.6875 26.75 C20.78546232 23.65038303 18.63028807 21.50794909 16 19 C15.49984375 18.47921875 14.9996875 17.9584375 14.484375 17.421875 C11.84978652 14.6808385 9.6227391 12.39336119 6 11 C6 10.01 6 9.02 6 8 C4.35 7.67 2.7 7.34 1 7 C0.67 4.69 0.34 2.38 0 0 Z " fill="#951D2A" transform="translate(331,300)"/>
<path d="M0 0 C0.43570312 0.37511719 0.87140625 0.75023437 1.3203125 1.13671875 C2.5634979 2.20499711 3.80839242 3.27128866 5.0546875 4.3359375 C6.27257928 5.37774854 7.48674984 6.42394341 8.6953125 7.4765625 C11.13197673 9.5703795 12.91849589 10.97283196 16 12 C16 12.99 16 13.98 16 15 C17.62339805 16.70884005 19.29319053 18.37446717 21 20 C21.66 20.99 22.32 21.98 23 23 C21.68 23.33 20.36 23.66 19 24 C19 23.01 19 22.02 19 21 C18.01 21.33 17.02 21.66 16 22 C13.8125 21.5625 13.8125 21.5625 12 21 C12.66 19.35 13.32 17.7 14 16 C13.4946875 15.59007812 12.989375 15.18015625 12.46875 14.7578125 C11.8190625 14.21898437 11.169375 13.68015625 10.5 13.125 C9.8503125 12.59132813 9.200625 12.05765625 8.53125 11.5078125 C8.0259375 11.01023437 7.520625 10.51265625 7 10 C7 9.34 7 8.68 7 8 C6.34 8 5.68 8 5 8 C0 2.52380952 0 2.52380952 0 0 Z " fill="#B22030" transform="translate(360,330)"/>
<path d="M0 0 C6.01826738 4.97161218 11.66337352 10.29829243 17 16 C17 16.33 17 16.66 17 17 C14.1875 17.3125 14.1875 17.3125 11 17 C8.68858396 14.14925356 8 12.6860549 8 9 C5.69 9 3.38 9 1 9 C1.66 7.35 2.32 5.7 3 4 C2.34 4 1.68 4 1 4 C0.67 2.68 0.34 1.36 0 0 Z " fill="#B11F2F" transform="translate(138,108)"/>
<path d="M0 0 C1.90465715 3.8093143 -0.87082203 8.53753462 -2.08984375 12.421875 C-2.94990779 15.80307095 -3.00505157 18.54472296 -3 22 C-3.66 22.66 -4.32 23.32 -5 24 C-5.38403123 25.94151362 -5.38403123 25.94151362 -5.5 28.0625 C-5.665 29.361875 -5.83 30.66125 -6 32 C-6.99 32.495 -6.99 32.495 -8 33 C-7.52429976 25.52104902 -6.04649954 18.63403495 -4 11.4375 C-3.72671875 10.44169922 -3.4534375 9.44589844 -3.171875 8.41992188 C-1.14613884 1.14613884 -1.14613884 1.14613884 0 0 Z M0 15 C0.66 15.99 1.32 16.98 2 18 C1.34 18 0.68 18 0 18 C0 18.99 0 19.98 0 21 C-0.99 21 -1.98 21 -3 21 C-1.125 16.125 -1.125 16.125 0 15 Z " fill="#A61727" transform="translate(13,171)"/>
<path d="M0 0 C2 2 2 2 2.22705078 3.97119141 C2.21657715 4.75671387 2.20610352 5.54223633 2.1953125 6.3515625 C2.18886719 7.20234375 2.18242188 8.053125 2.17578125 8.9296875 C2.15902344 9.81914062 2.14226562 10.70859375 2.125 11.625 C2.11597656 12.5221875 2.10695312 13.419375 2.09765625 14.34375 C2.0740497 16.56276586 2.0411231 18.78125077 2 21 C2.66 21 3.32 21 4 21 C5.2039337 24.75399798 5.09877617 28.33217412 5.0625 32.25 C5.05347656 33.51328125 5.04445313 34.7765625 5.03515625 36.078125 C5.02355469 37.04234375 5.01195312 38.0065625 5 39 C4.67 39 4.34 39 4 39 C-0.77553612 12.0423526 -0.77553612 12.0423526 0 0 Z " fill="#9C1625" transform="translate(1,262)"/>
<path d="M0 0 C0.67095703 0.58007812 0.67095703 0.58007812 1.35546875 1.171875 C4.1442105 3.57411736 6.93789285 5.95031428 9.8125 8.25 C12.52768737 10.42214989 14.81795507 12.84625389 17.125 15.4375 C17.66382813 16.03433594 18.20265625 16.63117188 18.7578125 17.24609375 C20 19 20 19 20 22 C18 20.625 18 20.625 16 19 C16 18.34 16 17.68 16 17 C14.68 17 13.36 17 12 17 C12 16.01 12 15.02 12 14 C11.34 14 10.68 14 10 14 C8.97388051 12.34928604 7.97691857 10.68029994 7 9 C4.93532144 6.59120835 4.11005341 6.03668447 1 5 C0.67 3.35 0.34 1.7 0 0 Z " fill="#B23040" transform="translate(290,260)"/>
<path d="M0 0 C5.62470954 5.09739302 11.58472519 11.75417556 14 19 C11.5625 18.375 11.5625 18.375 9 17 C8.1875 13.875 8.1875 13.875 8 11 C7.34 11 6.68 11 6 11 C5.67 10.34 5.34 9.68 5 9 C2.97536745 8.34786708 2.97536745 8.34786708 1 8 C0.34 5.69 -0.32 3.38 -1 1 C-0.67 0.67 -0.34 0.34 0 0 Z " fill="#A91527" transform="translate(443,93)"/>
<path d="M0 0 C2.475 0.495 2.475 0.495 5 1 C4.01 1.99 3.02 2.98 2 4 C3.58667578 7.90285767 6.13350481 10.33520982 9.125 13.25 C10.03507813 14.14203125 10.94515625 15.0340625 11.8828125 15.953125 C12.58148438 16.62859375 13.28015625 17.3040625 14 18 C13.34 18.66 12.68 19.32 12 20 C10 18.625 10 18.625 8 17 C8 16.34 8 15.68 8 15 C7.34 15 6.68 15 6 15 C6 14.01 6 13.02 6 12 C4.68 12 3.36 12 2 12 C-0.60018816 8.09971775 -0.15085514 4.52565431 0 0 Z " fill="#AF2334" transform="translate(124,89)"/>
<path d="M0 0 C2.64 0 5.28 0 8 0 C10 6.75 10 6.75 10 9 C10.63474075 10.34882408 11.29848848 11.6846659 12 13 C7.82556637 9.49925018 3.6854506 6.02049157 0 2 C0 1.34 0 0.68 0 0 Z " fill="#BA293A" transform="translate(214,252)"/>
<path d="M0 0 C3 1 3 1 3.9375 2.75 C4.288125 3.4925 4.63875 4.235 5 5 C7.621992 8.79736773 9.55965358 10.64322748 14 12 C14.33 14.64 14.66 17.28 15 20 C14.484375 19.29875 13.96875 18.5975 13.4375 17.875 C11.51363976 15.60583152 9.83557747 13.97125506 7.5625 12.125 C3.95964237 9.14332472 1.57046695 5.89464689 -1 2 C-0.67 1.34 -0.34 0.68 0 0 Z " fill="#9D2B38" transform="translate(152,188)"/>
<path d="M0 0 C0.556875 0.28875 1.11375 0.5775 1.6875 0.875 C4.01604463 2.07338209 4.01604463 2.07338209 6.6875 2.875 C9 4 9 4 9.8125 6.125 C9.874375 6.74375 9.93625 7.3625 10 8 C11.32 8.33 12.64 8.66 14 9 C14 9.66 14 10.32 14 11 C14.66 11 15.32 11 16 11 C16.33 10.34 16.66 9.68 17 9 C17 11.31 17 13.62 17 16 C12.80838948 12.44624326 8.66663011 8.84210234 4.5625 5.1875 C3.69753906 4.41792969 2.83257812 3.64835937 1.94140625 2.85546875 C1.30074219 2.24316406 0.66007812 1.63085938 0 1 C0 0.67 0 0.34 0 0 Z " fill="#AD2738" transform="translate(374,93)"/>
<path d="M0 0 C5.66129431 4.69766975 10.85228904 9.74723372 16 15 C15.34 15.66 14.68 16.32 14 17 C14 16.34 14 15.68 14 15 C13.01 15 12.02 15 11 15 C11 14.01 11 13.02 11 12 C9.68 12 8.36 12 7 12 C4 7.92857143 4 7.92857143 4 5 C3.34 5 2.68 5 2 5 C2 4.34 2 3.68 2 3 C1.01 2.67 0.02 2.34 -1 2 C-0.67 1.34 -0.34 0.68 0 0 Z " fill="#AF2536" transform="translate(199,169)"/>
<path d="M0 0 C4.6875 3.61328125 4.6875 3.61328125 6 5 C6 5.99 6 6.98 6 8 C7.65 8.33 9.3 8.66 11 9 C11.33 9.99 11.66 10.98 12 12 C11.01 13.485 11.01 13.485 10 15 C8.56041153 13.41856529 7.12341355 11.83477221 5.6875 10.25 C4.88699219 9.36828125 4.08648437 8.4865625 3.26171875 7.578125 C1.39083089 5.44550672 -0.34084286 3.29812057 -2 1 C-1.34 0.67 -0.68 0.34 0 0 Z " fill="#B12538" transform="translate(393,108)"/>
<path d="M0 0 C0.66 1.32 1.32 2.64 2 4 C1.01 4.33 0.02 4.66 -1 5 C-1.33 6.65 -1.66 8.3 -2 10 C-2.66 10 -3.32 10 -4 10 C-4.66 11.65 -5.32 13.3 -6 15 C-6.66 15 -7.32 15 -8 15 C-8.99 17.475 -8.99 17.475 -10 20 C-10.66 20 -11.32 20 -12 20 C-10.49228041 15.6086637 -8.1202577 12.05479866 -5.4375 8.3125 C-2.5019847 4.29029545 -2.5019847 4.29029545 0 0 Z " fill="#A6162B" transform="translate(47,103)"/>
<path d="M0 0 C2.64 0.33 5.28 0.66 8 1 C9.0625 3.375 9.0625 3.375 10 6 C9.67 6.66 9.34 7.32 9 8 C10.32 8.33 11.64 8.66 13 9 C12.01 10.485 12.01 10.485 11 12 C9.16364422 10.19047409 7.33083792 8.37759362 5.5 6.5625 C4.97535156 6.04623047 4.45070313 5.52996094 3.91015625 4.99804688 C2.58775448 3.68423213 1.29164432 2.34406495 0 1 C0 0.67 0 0.34 0 0 Z " fill="#B62B3C" transform="translate(108,147)"/>
<path d="M0 0 C3.21043882 1.38188453 5.04936365 2.92421903 7.25 5.625 C7.77078125 6.25664062 8.2915625 6.88828125 8.828125 7.5390625 C9.40820312 8.26222656 9.40820312 8.26222656 10 9 C9.01 9.33 8.02 9.66 7 10 C6.319375 8.7625 6.319375 8.7625 5.625 7.5 C5.08875 6.675 4.5525 5.85 4 5 C3.34 5 2.68 5 2 5 C1.34 5.66 0.68 6.32 0 7 C-2.125 6.625 -2.125 6.625 -4 6 C-2.68 4.02 -1.36 2.04 0 0 Z " fill="#120606" transform="translate(156,197)"/>
<path d="M0 0 C7.91909556 2.45765035 15.41985296 5.66818573 23 9 C23 9.33 23 9.66 23 10 C17.94010528 10.291917 15.9289631 10.0178992 12 7 C9.93962815 6.05254922 7.85399363 5.15867135 5.75 4.3125 C4.67234375 3.87550781 3.5946875 3.43851562 2.484375 2.98828125 C1.66453125 2.66214844 0.8446875 2.33601563 0 2 C0 1.34 0 0.68 0 0 Z " fill="#AA2234" transform="translate(156,427)"/>
<path d="M0 0 C6.25 6.25 6.25 6.25 7 11 C7.99 11.33 8.98 11.66 10 12 C9.34 12.66 8.68 13.32 8 14 C4.7 10.7 1.4 7.4 -2 4 C-1.34 2.68 -0.68 1.36 0 0 Z " fill="#B42739" transform="translate(198,232)"/>
<path d="M0 0 C0.33 1.32 0.66 2.64 1 4 C-1.64 4 -4.28 4 -7 4 C-6.34 3.67 -5.68 3.34 -5 3 C-5 2.34 -5 1.68 -5 1 C-6.0725 1.515625 -7.145 2.03125 -8.25 2.5625 C-11.25254899 4.00603317 -12.83246499 4.05818094 -16 3 C-5.62642369 -1.77676538 -5.62642369 -1.77676538 0 0 Z " fill="#B22131" transform="translate(333,434)"/>
<path d="M0 0 C2.97 0.33 5.94 0.66 9 1 C10 5 10 5 9 8 C9.66 8.33 10.32 8.66 11 9 C8 9 8 9 5.95703125 7.28515625 C5.24933594 6.55167969 4.54164063 5.81820313 3.8125 5.0625 C3.09707031 4.33160156 2.38164062 3.60070312 1.64453125 2.84765625 C0 1 0 1 0 0 Z " fill="#BC2132" transform="translate(228,267)"/>
<path d="M0 0 C1.3303125 0.495 1.3303125 0.495 2.6875 1 C5.70923347 1.91222143 7.88373706 2.18330958 11 2 C10.01 2.495 10.01 2.495 9 3 C9.66 5.64 10.32 8.28 11 11 C6.74828319 7.6381774 3.3618226 4.25171681 0 0 Z " fill="#B82739" transform="translate(249,288)"/>
<path d="M0 0 C0.66 0.33 1.32 0.66 2 1 C0.875 3.5 0.875 3.5 -1 6 C-4.1875 6.3125 -4.1875 6.3125 -7 6 C-7.33 7.32 -7.66 8.64 -8 10 C-9.98 10.33 -11.96 10.66 -14 11 C-9.85989729 6.45924219 -5.17609824 3.28157862 0 0 Z " fill="#A8172B" transform="translate(115,39)"/>
<path d="M0 0 C0.33 1.32 0.66 2.64 1 4 C0.34 4 -0.32 4 -1 4 C-1 6.64 -1 9.28 -1 12 C-1.99 11.67 -2.98 11.34 -4 11 C-4.33 11.99 -4.66 12.98 -5 14 C-7.0625 15.1875 -7.0625 15.1875 -9 16 C-7.56691865 12.04093183 -5.66858051 8.71281819 -3.375 5.1875 C-2.74335938 4.21167969 -2.11171875 3.23585938 -1.4609375 2.23046875 C-0.73777344 1.12638672 -0.73777344 1.12638672 0 0 Z " fill="#B12334" transform="translate(424,346)"/>
<path d="M0 0 C2.31 0 4.62 0 7 0 C7 0.99 7 1.98 7 3 C8.98 2.67 10.96 2.34 13 2 C13 2.66 13 3.32 13 4 C15.46326712 5.6446674 15.46326712 5.6446674 18 7 C17.01 7.495 17.01 7.495 16 8 C13.23325418 6.92664301 10.56805742 5.79739939 7.875 4.5625 C7.12089844 4.22412109 6.36679688 3.88574219 5.58984375 3.53710938 C3.72340669 2.69839399 1.8612857 1.85008607 0 1 C0 0.67 0 0.34 0 0 Z " fill="#A01525" transform="translate(141,474)"/>
<path d="M0 0 C0.66 0 1.32 0 2 0 C3.5859375 1.609375 3.5859375 1.609375 5.375 3.75 C5.99761719 4.47832031 6.62023437 5.20664062 7.26171875 5.95703125 C7.83535156 6.63121094 8.40898437 7.30539062 9 8 C11.59040845 10.88645514 13.11100135 12.44442876 17 13 C17.33 14.65 17.66 16.3 18 18 C2.38297872 7.14893617 2.38297872 7.14893617 0 0 Z " fill="#912E38" transform="translate(297,336)"/>
<path d="M0 0 C-0.639375 0.103125 -1.27875 0.20625 -1.9375 0.3125 C-2.618125 0.539375 -3.29875 0.76625 -4 1 C-4.33 1.99 -4.66 2.98 -5 4 C-5.88751953 4.09087891 -5.88751953 4.09087891 -6.79296875 4.18359375 C-10.90978208 4.62012371 -14.95544533 5.08671346 -19 6 C-19 5.34 -19 4.68 -19 4 C-16.21079611 3.1369594 -13.41913928 2.28427693 -10.625 1.4375 C-9.8309375 1.19064453 -9.036875 0.94378906 -8.21875 0.68945312 C-7.45820313 0.46064453 -6.69765625 0.23183594 -5.9140625 -0.00390625 C-5.2123291 -0.21861572 -4.5105957 -0.4333252 -3.78759766 -0.65454102 C-2 -1 -2 -1 0 0 Z " fill="#AD2636" transform="translate(317,439)"/>
<path d="M0 0 C1.8161982 0.42188459 3.62794073 0.86299165 5.4375 1.3125 C6.44683594 1.55613281 7.45617187 1.79976563 8.49609375 2.05078125 C9.32238281 2.36402344 10.14867187 2.67726563 11 3 C11.33 3.99 11.66 4.98 12 6 C12.99 6.33 13.98 6.66 15 7 C14.67 7.99 14.34 8.98 14 10 C12.22611914 8.90073597 10.45600316 7.79539498 8.6875 6.6875 C7.20830078 5.76517578 7.20830078 5.76517578 5.69921875 4.82421875 C3.49827965 3.33675339 1.76671012 1.9596614 0 0 Z " fill="#AF2D3C" transform="translate(344,73)"/>
<path d="M0 0 C0.66 0.33 1.32 0.66 2 1 C1.67 1.66 1.34 2.32 1 3 C0.34 3 -0.32 3 -1 3 C-1.04125 3.61875 -1.0825 4.2375 -1.125 4.875 C-1.558125 5.926875 -1.558125 5.926875 -2 7 C-4.8125 8.125 -4.8125 8.125 -8 9 C-9.34721283 9.63815344 -10.68747118 10.29325371 -12 11 C-8.68542782 6.30435607 -4.63720719 3.27530896 0 0 Z " fill="#A81427" transform="translate(99,50)"/>
<path d="M0 0 C0.43570312 0.37511719 0.87140625 0.75023437 1.3203125 1.13671875 C2.5634979 2.20499711 3.80839242 3.27128866 5.0546875 4.3359375 C6.27257928 5.37774854 7.48674984 6.42394341 8.6953125 7.4765625 C11.13197673 9.5703795 12.91849589 10.97283196 16 12 C15.01 12.99 14.02 13.98 13 15 C10.95880212 13.38405168 8.95927063 11.7143618 7 10 C7 9.34 7 8.68 7 8 C6.34 8 5.68 8 5 8 C0 2.52380952 0 2.52380952 0 0 Z " fill="#961D2A" transform="translate(360,330)"/>
<path d="M0 0 C0.556875 0.474375 1.11375 0.94875 1.6875 1.4375 C4.18346074 3.12395996 6.0446237 3.58953107 9 4 C8.34 4.66 7.68 5.32 7 6 C8.32 7.65 9.64 9.3 11 11 C10.01 11 9.02 11 8 11 C6.65080468 9.34614767 5.31866272 7.678298 4 6 C1.88339573 4.68834743 1.88339573 4.68834743 0 4 C0 2.68 0 1.36 0 0 Z " fill="#A52E3B" transform="translate(236,206)"/>
<path d="M0 0 C1.32 0.33 2.64 0.66 4 1 C-0.29 3.97 -4.58 6.94 -9 10 C-9.66 9.01 -10.32 8.02 -11 7 C-9.35 6.67 -7.7 6.34 -6 6 C-6 5.34 -6 4.68 -6 4 C-3 2 -3 2 0 2 C0 1.34 0 0.68 0 0 Z " fill="#AE2535" transform="translate(144,77)"/>
<path d="M0 0 C1.93166016 0.01740234 1.93166016 0.01740234 3.90234375 0.03515625 C5.19269531 0.04417969 6.48304688 0.05320312 7.8125 0.0625 C8.81152344 0.07410156 9.81054688 0.08570313 10.83984375 0.09765625 C10.83984375 0.42765625 10.83984375 0.75765625 10.83984375 1.09765625 C2.76422202 2.53560479 -4.95455255 3.39364997 -13.16015625 3.09765625 C-13.16015625 2.76765625 -13.16015625 2.43765625 -13.16015625 2.09765625 C-12.20302734 2.00677734 -12.20302734 2.00677734 -11.2265625 1.9140625 C-9.98712891 1.78837891 -9.98712891 1.78837891 -8.72265625 1.66015625 C-7.89894531 1.57894531 -7.07523437 1.49773437 -6.2265625 1.4140625 C-3.20400948 0.95125192 -3.46308448 0.10701744 0 0 Z " fill="#97121D" transform="translate(282.16015625,494.90234375)"/>
<path d="M0 0 C8.44646925 6.15034169 8.44646925 6.15034169 12 10 C11.01 10.33 10.02 10.66 9 11 C8.67 10.34 8.34 9.68 8 9 C6.21884951 8.02846337 4.43767943 7.05696256 2.65625 6.0859375 C0.57370174 4.72049312 -0.24266041 3.3561676 -1 1 C-0.67 0.67 -0.34 0.34 0 0 Z " fill="#AA212F" transform="translate(394,365)"/>
<path d="M0 0 C4.52615993 3.67832017 8.39424999 7.41086363 12 12 C10.35 12 8.7 12 7 12 C6.01 10.02 5.02 8.04 4 6 C3.01 6 2.02 6 1 6 C0.67 4.02 0.34 2.04 0 0 Z " fill="#AF2737" transform="translate(263,233)"/>
<path d="M0 0 C4.52615993 3.67832017 8.39424999 7.41086363 12 12 C10.35 12 8.7 12 7 12 C6.566875 11.030625 6.13375 10.06125 5.6875 9.0625 C4.2985139 5.72268235 4.2985139 5.72268235 1 5 C0.67 3.35 0.34 1.7 0 0 Z " fill="#AF2637" transform="translate(215,185)"/>
<path d="M0 0 C1.24546405 2.49092811 0.7767578 3.41080733 0 6 C-0.66 6 -1.32 6 -2 6 C-2.2475 6.5775 -2.495 7.155 -2.75 7.75 C-4.16683317 10.3002997 -5.87627537 12.01785701 -8 14 C-8.66 13.67 -9.32 13.34 -10 13 C-5.05 6.565 -5.05 6.565 0 0 Z " fill="#A61527" transform="translate(58,89)"/>
<path d="M0 0 C6 6 6 6 6.125 8.625 C6.08375 9.40875 6.0425 10.1925 6 11 C4.82460004 10.07347299 3.65989423 9.13336613 2.5 8.1875 C1.52546875 7.40439453 1.52546875 7.40439453 0.53125 6.60546875 C-1 5 -1 5 -1 2 C-0.67 1.34 -0.34 0.68 0 0 Z " fill="#B8283A" transform="translate(102,136)"/>
<path d="M0 0 C4.52615993 3.67832017 8.39424999 7.41086363 12 12 C11.01 12 10.02 12 9 12 C8.34 11.01 7.68 10.02 7 9 C6.0409375 8.8453125 6.0409375 8.8453125 5.0625 8.6875 C3 8 3 8 1.25 5.0625 C0 2 0 2 0 0 Z " fill="#AC2333" transform="translate(155,125)"/>
<path d="M0 0 C0.66 0.33 1.32 0.66 2 1 C1.28972656 1.68707031 0.57945313 2.37414062 -0.15234375 3.08203125 C-1.07144531 3.98308594 -1.99054688 4.88414063 -2.9375 5.8125 C-3.85402344 6.70582031 -4.77054688 7.59914063 -5.71484375 8.51953125 C-8.17935108 10.85436593 -8.17935108 10.85436593 -9 14 C-10.65 14.33 -12.3 14.66 -14 15 C-9.59156563 9.70987876 -4.92440206 4.81191572 0 0 Z " fill="#A0182B" transform="translate(80,66)"/>
<path d="M0 0 C2.91843445 2.626591 4.94517315 5.66976339 7 9 C7 9.66 7 10.32 7 11 C5.68 11.33 4.36 11.66 3 12 C2.71125 11.030625 2.4225 10.06125 2.125 9.0625 C1.35785318 5.89335797 1.35785318 5.89335797 -1 5 C-0.67 3.35 -0.34 1.7 0 0 Z " fill="#A61427" transform="translate(457,112)"/>
<path d="M0 0 C0 0.66 0 1.32 0 2 C-0.99 2 -1.98 2 -3 2 C-3.33 3.32 -3.66 4.64 -4 6 C-6.97 6.66 -9.94 7.32 -13 8 C-9.81692689 4.43495812 -5.03655764 0 0 0 Z " fill="#A6162A" transform="translate(130,31)"/>
<path d="M0 0 C1.54627671 2.31941506 2.86182828 4.52979752 4.125 7 C4.47820312 7.680625 4.83140625 8.36125 5.1953125 9.0625 C6 11 6 11 6 14 C3 13 3 13 1.8515625 11.234375 C0.94156723 8.84668099 0.59919786 6.79090905 0.375 4.25 C0.30023438 3.45078125 0.22546875 2.6515625 0.1484375 1.828125 C0.09945313 1.22484375 0.05046875 0.6215625 0 0 Z " fill="#A91529" transform="translate(475,144)"/>
<path d="M0 0 C-3.44855464 1.89499785 -6.98800385 2.99640115 -10.75 4.125 C-11.92046875 4.47820313 -13.0909375 4.83140625 -14.296875 5.1953125 C-15.63492188 5.59363281 -15.63492188 5.59363281 -17 6 C-17.33 5.01 -17.66 4.02 -18 3 C-15.93918639 2.49309416 -13.87626474 1.99475381 -11.8125 1.5 C-10.66394531 1.2215625 -9.51539063 0.943125 -8.33203125 0.65625 C-5.43181171 0.08504615 -2.93903615 -0.13283779 0 0 Z " fill="#AC2739" transform="translate(199,56)"/>
<path d="M0 0 C0 5.61 0 11.22 0 17 C-0.99 17 -1.98 17 -3 17 C-2.34 12.71 -1.68 8.42 -1 4 C-1.66 3.67 -2.32 3.34 -3 3 C-3 2.34 -3 1.68 -3 1 C-1 0 -1 0 0 0 Z " fill="#C20724" transform="translate(499,241)"/>
<path d="M0 0 C3 1 3 1 4 3 C6.02463255 3.65213292 6.02463255 3.65213292 8 4 C8 4.66 8 5.32 8 6 C3.15311808 5.21824485 -1.3766367 3.60155722 -6 2 C-5.38125 1.855625 -4.7625 1.71125 -4.125 1.5625 C-1.96741678 1.06847775 -1.96741678 1.06847775 0 0 Z " fill="#B22B3C" transform="translate(313,57)"/>
<path d="M0 0 C3.33557632 2.9905167 5.15083921 5.93184627 7 10 C6.01 10 5.02 10 4 10 C4 9.34 4 8.68 4 8 C3.01 8 2.02 8 1 8 C0.67 5.36 0.34 2.72 0 0 Z " fill="#AB2634" transform="translate(75,348)"/>
<path d="M0 0 C2.20665404 3.30998105 2.78262095 5.82021436 3.625 9.6875 C3.88539062 10.86699219 4.14578125 12.04648437 4.4140625 13.26171875 C4.60742188 14.16535156 4.80078125 15.06898438 5 16 C4.34 16.33 3.68 16.66 3 17 C0.74566386 11.43930418 0.40038172 5.9214349 0 0 Z " fill="#AD323D" transform="translate(54,293)"/>
<path d="M0 0 C4.40824473 2.90299043 8.71640781 5.91581363 13 9 C12.01 9.495 12.01 9.495 11 10 C7.34467432 8.44454226 4.72391724 6.84773166 2 4 C-0.09989652 2.82425289 -0.09989652 2.82425289 -2 2 C-1.34 1.34 -0.68 0.68 0 0 Z " fill="#A2192B" transform="translate(388,42)"/>
<path d="M0 0 C1.11074104 3.33222313 0.88927847 5.62074182 0 9 C-0.33 9.66 -0.66 10.32 -1 11 C-1.99 10.67 -2.98 10.34 -4 10 C-2.8905928 6.51329166 -1.73662334 3.22515763 0 0 Z " fill="#B12337" transform="translate(429,336)"/>
<path d="M0 0 C0.33 0 0.66 0 1 0 C1.0810206 2.10353495 1.13919907 4.20795952 1.1875 6.3125 C1.22230469 7.48425781 1.25710938 8.65601563 1.29296875 9.86328125 C1 13 1 13 -2 16 C-1.34 10.72 -0.68 5.44 0 0 Z " fill="#AC2D3A" transform="translate(448,270)"/>
<path d="M0 0 C-1.7015625 0.433125 -1.7015625 0.433125 -3.4375 0.875 C-4.613125 1.24625 -5.78875 1.6175 -7 2 C-7.33 2.66 -7.66 3.32 -8 4 C-10.64 3.67 -13.28 3.34 -16 3 C-11.08294543 0.13171817 -5.53605896 -1.7423757 0 0 Z " fill="#A31729" transform="translate(194,8)"/>
<path d="M0 0 C0.99 0.66 1.98 1.32 3 2 C5.32387947 2.39387788 7.65793749 2.73486085 10 3 C7.03821227 4.67110042 4.62928808 5.32682752 1.25 5.625 C0.45078125 5.69976562 -0.3484375 5.77453125 -1.171875 5.8515625 C-2.07679688 5.92503906 -2.07679688 5.92503906 -3 6 C-2.01 5.67 -1.02 5.34 0 5 C-0.2784375 4.0409375 -0.2784375 4.0409375 -0.5625 3.0625 C-0.706875 2.381875 -0.85125 1.70125 -1 1 C-0.67 0.67 -0.34 0.34 0 0 Z " fill="#A21120" transform="translate(301,488)"/>
<path d="M0 0 C1.32 0.33 2.64 0.66 4 1 C4 1.66 4 2.32 4 3 C4.99 3 5.98 3 7 3 C7.99 5.31 8.98 7.62 10 10 C5.31168831 8.51948052 5.31168831 8.51948052 3.875 6.125 C3.441875 5.073125 3.441875 5.073125 3 4 C2.02418241 2.64886795 1.02970259 1.31053056 0 0 Z " fill="#9E2635" transform="translate(281,320)"/>
<path d="M0 0 C1 3 1 3 -0.1875 6 C-1.91646162 8.86172959 -3.19955455 10.26179248 -6 12 C-4.68139111 7.38486888 -2.78644563 3.90102388 0 0 Z " fill="#141414" transform="translate(149,208)"/>
<path d="M0 0 C0.99 0.33 1.98 0.66 3 1 C3 1.66 3 2.32 3 3 C4.32 3 5.64 3 7 3 C7 3.66 7 4.32 7 5 C8.32 5 9.64 5 11 5 C11 5.66 11 6.32 11 7 C5.93001981 6.34580901 1.58009223 4.1453591 -3 2 C-2.01 1.34 -1.02 0.68 0 0 Z " fill="#AC2739" transform="translate(329,64)"/>
<path d="M0 0 C1.37562854 1.28965176 2.70766393 2.62689293 4 4 C4 4.66 4 5.32 4 6 C0.7 5.67 -2.6 5.34 -6 5 C-6 4.67 -6 4.34 -6 4 C-4.35 3.67 -2.7 3.34 -1 3 C-0.67 2.01 -0.34 1.02 0 0 Z " fill="#A61422" transform="translate(202,489)"/>
<path d="M0 0 C2.33294775 -0.04241723 4.66702567 -0.04092937 7 0 C7.33 0.33 7.66 0.66 8 1 C10.32817964 1.36760731 12.6618385 1.70241581 15 2 C15 2.66 15 3.32 15 4 C9.72684667 3.5547115 4.98229776 2.91626837 0 1 C0 0.67 0 0.34 0 0 Z " fill="#9A1624" transform="translate(173,487)"/>
<path d="M0 0 C2.96002571 1.37429765 5.41439966 3.01770641 8 5 C8.66 5.33 9.32 5.66 10 6 C10.625 8.5625 10.625 8.5625 11 11 C6.86378916 7.6189962 3.18683431 4.33409466 0 0 Z " fill="#220002" transform="translate(362,331)"/>
<path d="M0 0 C0.66 0 1.32 0 2 0 C2.33 2.31 2.66 4.62 3 7 C-3.875 3.25 -3.875 3.25 -5 1 C-2.525 1.495 -2.525 1.495 0 2 C0 1.34 0 0.68 0 0 Z " fill="#AA1124" transform="translate(107,449)"/>
<path d="M0 0 C1.14926266 0.95421808 2.29430541 1.91352045 3.4375 2.875 C4.07558594 3.40867187 4.71367187 3.94234375 5.37109375 4.4921875 C7 6 7 6 8 8 C4.62537285 7.45276317 2.91765 6.9451 0 5 C-0.1875 2.375 -0.1875 2.375 0 0 Z " fill="#AB2434" transform="translate(314,284)"/>
<path d="M0 0 C2.32472205 2.85306797 3.7508258 5.54074837 5 9 C3.68 9 2.36 9 1 9 C0.67 6.03 0.34 3.06 0 0 Z " fill="#B12837" transform="translate(68,334)"/>
<path d="M0 0 C1.1055189 0.93590504 2.20935453 1.87379858 3.3125 2.8125 C3.92738281 3.33457031 4.54226563 3.85664063 5.17578125 4.39453125 C6.85424679 5.87172469 8.43882034 7.40039131 10 9 C9.67 9.66 9.34 10.32 9 11 C8.236875 10.195625 7.47375 9.39125 6.6875 8.5625 C4.20569102 5.83200976 4.20569102 5.83200976 1 5 C0.67 3.35 0.34 1.7 0 0 Z " fill="#9C2231" transform="translate(290,260)"/>
<path d="M0 0 C0.66 0 1.32 0 2 0 C4 4.75 4 4.75 4 7 C4.63474075 8.34882408 5.29848848 9.6846659 6 11 C1.77202073 8.00518135 1.77202073 8.00518135 0 6 C-0.375 2.6875 -0.375 2.6875 0 0 Z " fill="#B01F2F" transform="translate(220,254)"/>
<path d="M0 0 C2.02350324 3.03525486 2.32124018 4.19426202 2.625 7.6875 C2.69976562 8.49574219 2.77453125 9.30398437 2.8515625 10.13671875 C2.90054687 10.75160156 2.94953125 11.36648437 3 12 C0.9375 9.9375 0.9375 9.9375 -1 7 C-0.75 3.1875 -0.75 3.1875 0 0 Z " fill="#A61529" transform="translate(490,187)"/>
<path d="M0 0 C0.99 0.33 1.98 0.66 3 1 C3 1.66 3 2.32 3 3 C3.66 3 4.32 3 5 3 C6.79682816 6.80504787 7.07349791 7.70600835 6 12 C4.02 8.04 2.04 4.08 0 0 Z " fill="#AA2335" transform="translate(424,153)"/>
<path d="M0 0 C3.53372712 1.96318174 6.24479785 4.04070881 9 7 C8.01 7.33 7.02 7.66 6 8 C4.62437146 6.71034824 3.29233607 5.37310707 2 4 C2 3.34 2 2.68 2 2 C1.34 2 0.68 2 0 2 C0 1.34 0 0.68 0 0 Z " fill="#AD2638" transform="translate(115,398)"/>
<path d="M0 0 C0.66 0.66 1.32 1.32 2 2 C0.35 4.97 -1.3 7.94 -3 11 C-4.32342458 7.02972626 -3.36639254 4.88343142 -2 1 C-1.34 0.67 -0.68 0.34 0 0 Z " fill="#B02839" transform="translate(73,152)"/>
<path d="M0 0 C2.475 0.495 2.475 0.495 5 1 C5.33 1.99 5.66 2.98 6 4 C5.01 5.485 5.01 5.485 4 7 C0 2.25 0 2.25 0 0 Z " fill="#B01C2E" transform="translate(399,116)"/>
<path d="M0 0 C-1.45537568 0.83848804 -2.91440373 1.67063934 -4.375 2.5 C-5.59316406 3.19609375 -5.59316406 3.19609375 -6.8359375 3.90625 C-9 5 -9 5 -11 5 C-10 2 -10 2 -8.22265625 1.015625 C-7.15337891 0.63664062 -7.15337891 0.63664062 -6.0625 0.25 C-5.35222656 -0.01296875 -4.64195312 -0.2759375 -3.91015625 -0.546875 C-2 -1 -2 -1 0 0 Z " fill="#971121" transform="translate(375,466)"/>
<path d="M0 0 C1.14926266 0.95421808 2.29430541 1.91352045 3.4375 2.875 C4.07558594 3.40867188 4.71367187 3.94234375 5.37109375 4.4921875 C7 6 7 6 8 8 C7.01 8.33 6.02 8.66 5 9 C4.67 7.68 4.34 6.36 4 5 C3.01 5 2.02 5 1 5 C0.67 3.35 0.34 1.7 0 0 Z " fill="#AF293A" transform="translate(247,217)"/>
<path d="M0 0 C-2.33214148 1.20628008 -4.49642139 2.1654738 -7 3 C-9.1875 2.0625 -9.1875 2.0625 -11 1 C-11 0.67 -11 0.34 -11 0 C-7.01803543 -1.05404945 -4.01804691 -0.84098656 0 0 Z " fill="#BD4252" transform="translate(212,4)"/>
<path d="M0 0 C0.66 0.66 1.32 1.32 2 2 C-1.69418201 3.231394 -4.2056261 2.64432764 -8 2 C-6.17297827 -1.65404345 -3.39088524 -1.20321734 0 0 Z " fill="#BC2D40" transform="translate(280,2)"/>
<path d="M0 0 C3.79588866 0.54226981 5.47211993 2.20127563 8 5 C6.02 5 4.04 5 2 5 C1.34 3.35 0.68 1.7 0 0 Z " fill="#B22838" transform="translate(129,410)"/>
<path d="M0 0 C2.31 0.66 4.62 1.32 7 2 C7 3.65 7 5.3 7 7 C5.83040013 6.02433888 4.66438823 5.044375 3.5 4.0625 C2.8503125 3.51722656 2.200625 2.97195312 1.53125 2.41015625 C1.0259375 1.94480469 0.520625 1.47945312 0 1 C0 0.67 0 0.34 0 0 Z " fill="#B53243" transform="translate(169,208)"/>
<path d="M0 0 C3 1 3 1 4.1875 2.875 C5 5 5 5 5 8 C3.02 6.35 1.04 4.7 -1 3 C-0.67 2.01 -0.34 1.02 0 0 Z " fill="#B83644" transform="translate(152,188)"/>
<path d="M0 0 C1.17539996 0.92652701 2.34010577 1.86663387 3.5 2.8125 C4.1496875 3.33457031 4.799375 3.85664063 5.46875 4.39453125 C7 6 7 6 7 9 C6.67 8.34 6.34 7.68 6 7 C5.34 7 4.68 7 4 7 C4 6.34 4 5.68 4 5 C3.01 5 2.02 5 1 5 C0.67 3.35 0.34 1.7 0 0 Z " fill="#AF293A" transform="translate(191,161)"/>
<path d="M0 0 C1.17539996 0.92652701 2.34010577 1.86663387 3.5 2.8125 C4.1496875 3.33457031 4.799375 3.85664063 5.46875 4.39453125 C7 6 7 6 7 9 C6.566875 8.525625 6.13375 8.05125 5.6875 7.5625 C3.97690387 5.76313043 3.97690387 5.76313043 1 5 C0.67 3.35 0.34 1.7 0 0 Z " fill="#AD2A3A" transform="translate(167,137)"/>
<path d="M0 0 C0.33 0.66 0.66 1.32 1 2 C1.66 2 2.32 2 3 2 C3.33 1.34 3.66 0.68 4 0 C4 2.31 4 4.62 4 7 C2.35 5.68 0.7 4.36 -1 3 C-0.67 2.01 -0.34 1.02 0 0 Z " fill="#B62B3C" transform="translate(387,102)"/>
<path d="M0 0 C8.57142857 -0.28571429 8.57142857 -0.28571429 12 2 C12 2.33 12 2.66 12 3 C10.56163249 2.88541307 9.12429034 2.75790884 7.6875 2.625 C6.88699219 2.55539062 6.08648437 2.48578125 5.26171875 2.4140625 C3 2 3 2 0 0 Z " fill="#F5D3D6" transform="translate(197,442)"/>
<path d="M0 0 C0.66 0.33 1.32 0.66 2 1 C1.67 1.99 1.34 2.98 1 4 C-0.84765625 4.73046875 -0.84765625 4.73046875 -3.0625 5.1875 C-3.79597656 5.34605469 -4.52945312 5.50460937 -5.28515625 5.66796875 C-6.13400391 5.83232422 -6.13400391 5.83232422 -7 6 C-7 5.34 -7 4.68 -7 4 C-1.7265625 0.77734375 -1.7265625 0.77734375 0 0 Z " fill="#AD2435" transform="translate(344,425)"/>
<path d="M0 0 C2.01920337 1.30406884 4.01924973 2.63823419 6 4 C6 4.33 6 4.66 6 5 C4.35 5 2.7 5 1 5 C0.67 3.35 0.34 1.7 0 0 Z M-1 4 C-0.01 4.495 -0.01 4.495 1 5 C0.67 5.66 0.34 6.32 0 7 C-0.33 6.01 -0.66 5.02 -1 4 Z " fill="#B22638" transform="translate(138,415)"/>
<path d="M0 0 C-0.33 0.99 -0.66 1.98 -1 3 C-1.99 3 -2.98 3 -4 3 C-4.33 3.99 -4.66 4.98 -5 6 C-6.32 5.67 -7.64 5.34 -9 5 C-7.87926138 4.16094435 -6.75325453 3.32892169 -5.625 2.5 C-4.99851562 2.0359375 -4.37203125 1.571875 -3.7265625 1.09375 C-2 0 -2 0 0 0 Z " fill="#AD2C3D" transform="translate(368,411)"/>
<path d="M0 0 C0.33 0 0.66 0 1 0 C1.25 3.25 1.25 3.25 1 7 C-0.32 8.32 -1.64 9.64 -3 11 C-2.01 7.37 -1.02 3.74 0 0 Z " fill="#B33244" transform="translate(440,307)"/>
<path d="M0 0 C2.31 0.66 4.62 1.32 7 2 C7 3.65 7 5.3 7 7 C5.83040013 6.02433888 4.66438823 5.044375 3.5 4.0625 C2.8503125 3.51722656 2.200625 2.97195313 1.53125 2.41015625 C1.0259375 1.94480469 0.520625 1.47945313 0 1 C0 0.67 0 0.34 0 0 Z " fill="#B53140" transform="translate(228,267)"/>
<path d="M0 0 C0.66 0.33 1.32 0.66 2 1 C0.15083921 5.06815373 -1.66442368 8.0094833 -5 11 C-3.77472971 6.94718288 -2.30119506 3.55639236 0 0 Z " fill="#1A1A1A" transform="translate(128,243)"/>
<path d="M0 0 C1.8125 0.125 1.8125 0.125 4 1 C5.75 4.0625 5.75 4.0625 7 7 C5.02 6.34 3.04 5.68 1 5 C0.67 3.35 0.34 1.7 0 0 Z " fill="#B13746" transform="translate(275,245)"/>
<path d="M0 0 C2.475 0.99 2.475 0.99 5 2 C5 2.66 5 3.32 5 4 C6.32 4.66 7.64 5.32 9 6 C8.67 6.66 8.34 7.32 8 8 C6.66372225 6.85760183 5.33104612 5.71098945 4 4.5625 C3.2575 3.92441406 2.515 3.28632813 1.75 2.62890625 C1.1725 2.09136719 0.595 1.55382812 0 1 C0 0.67 0 0.34 0 0 Z " fill="#9E1622" transform="translate(79,431)"/>
<path d="M0 0 C2.97 0.495 2.97 0.495 6 1 C6 2.98 6 4.96 6 7 C1.125 2.25 1.125 2.25 0 0 Z " fill="#AF2536" transform="translate(364,403)"/>
<path d="M0 0 C0.598125 0.350625 1.19625 0.70125 1.8125 1.0625 C1.4825 1.7225 1.1525 2.3825 0.8125 3.0625 C-1.625 2.6875 -1.625 2.6875 -4.1875 2.0625 C-4.5175 1.4025 -4.8475 0.7425 -5.1875 0.0625 C-2.1875 -0.9375 -2.1875 -0.9375 0 0 Z " fill="#B31C2B" transform="translate(312.1875,281.9375)"/>
<path d="M0 0 C5.75 1.75 5.75 1.75 8 4 C7.01 4.66 6.02 5.32 5 6 C3.35 4.02 1.7 2.04 0 0 Z " fill="#EFDFE2" transform="translate(303,272)"/>
<path d="M0 0 C2.97 0.495 2.97 0.495 6 1 C6.33 2.98 6.66 4.96 7 7 C5.83040013 6.02433888 4.66438823 5.044375 3.5 4.0625 C2.8503125 3.51722656 2.200625 2.97195312 1.53125 2.41015625 C1.0259375 1.94480469 0.520625 1.47945312 0 1 C0 0.67 0 0.34 0 0 Z " fill="#B33946" transform="translate(189,228)"/>
<path d="M0 0 C0.33 0.66 0.66 1.32 1 2 C-2.41176471 8.70588235 -2.41176471 8.70588235 -5 10 C-3.84414715 6.08788267 -2.64465038 3.1254959 0 0 Z " fill="#FEE7E8" transform="translate(79,146)"/>
<path d="M0 0 C0.99 1.98 1.98 3.96 3 6 C-0.65316671 4.75023244 -1.78065836 4.32901247 -4 1 C-2 0 -2 0 0 0 Z " fill="#A51323" transform="translate(99,444)"/>
<path d="M0 0 C0.66 0.33 1.32 0.66 2 1 C2 1.66 2 2.32 2 3 C3.98 3.66 5.96 4.32 8 5 C8 5.66 8 6.32 8 7 C4.06326356 5.68775452 1.77280706 4.08089673 -1 1 C-0.67 0.67 -0.34 0.34 0 0 Z " fill="#FDE3E4" transform="translate(143,416)"/>
<path d="M0 0 C1.32 0.33 2.64 0.66 4 1 C4 1.66 4 2.32 4 3 C5.32 3.33 6.64 3.66 8 4 C7.67 4.99 7.34 5.98 7 7 C5.83040013 6.02433888 4.66438823 5.044375 3.5 4.0625 C2.8503125 3.51722656 2.200625 2.97195313 1.53125 2.41015625 C1.0259375 1.94480469 0.520625 1.47945313 0 1 C0 0.67 0 0.34 0 0 Z " fill="#FCE9E7" transform="translate(119,400)"/>
<path d="M0 0 C2.97 0.495 2.97 0.495 6 1 C6.33 2.98 6.66 4.96 7 7 C5.83040013 6.02433888 4.66438823 5.044375 3.5 4.0625 C2.8503125 3.51722656 2.200625 2.97195313 1.53125 2.41015625 C1.0259375 1.94480469 0.520625 1.47945313 0 1 C0 0.67 0 0.34 0 0 Z " fill="#B33845" transform="translate(349,388)"/>
<path d="M0 0 C1.98 0.99 1.98 0.99 4 2 C3.01 3.98 2.02 5.96 1 8 C0.67 8 0.34 8 0 8 C0 5.36 0 2.72 0 0 Z " fill="#A7131D" transform="translate(451,388)"/>
<path d="M0 0 C1.24546405 2.49092811 0.7767578 3.41080733 0 6 C-1.65 6.33 -3.3 6.66 -5 7 C-1.125 1.125 -1.125 1.125 0 0 Z " fill="#B02638" transform="translate(411,367)"/>
<path d="M0 0 C0.33 0.66 0.66 1.32 1 2 C0.06553465 4.03144641 -0.93224776 6.03533587 -2 8 C-4 5 -4 5 -4 3 C-2 1.375 -2 1.375 0 0 Z " fill="#A21220" transform="translate(470,363)"/>
<path d="M0 0 C1.9375 0.625 1.9375 0.625 4 2 C4.75 5.125 4.75 5.125 5 8 C2.74754119 5.31158141 1.11786042 3.35358125 0 0 Z " fill="#FAE0E2" transform="translate(80,354)"/>
<path d="M0 0 C0.763125 0.474375 1.52625 0.94875 2.3125 1.4375 C4.96410548 3.10106097 4.96410548 3.10106097 8 4 C7.01 4.99 6.02 5.98 5 7 C3.29115995 5.37660195 1.62553283 3.70680947 0 2 C0 1.34 0 0.68 0 0 Z " fill="#78222B" transform="translate(368,338)"/>
<path d="M0 0 C0.66 0.33 1.32 0.66 2 1 C2.6328125 3.06640625 2.6328125 3.06640625 3.125 5.5625 C3.29257812 6.38878906 3.46015625 7.21507812 3.6328125 8.06640625 C3.75398438 8.70449219 3.87515625 9.34257812 4 10 C3.34 10 2.68 10 2 10 C1.01 7.03 0.02 4.06 -1 1 C-0.67 0.67 -0.34 0.34 0 0 Z " fill="#AE2438" transform="translate(436,176)"/>
<path d="M0 0 C0.66 0 1.32 0 2 0 C2 0.66 2 1.32 2 2 C2.99 2.33 3.98 2.66 5 3 C5.33 4.98 5.66 6.96 6 9 C3.03134491 6.45543849 1.6380249 3.51005335 0 0 Z " fill="#AC2334" transform="translate(410,130)"/>
<path d="M0 0 C4.875 3.625 4.875 3.625 6 7 C5.01 7 4.02 7 3 7 C0 2.77777778 0 2.77777778 0 0 Z " fill="#FCE5E3" transform="translate(406,127)"/>
<path d="M0 0 C-1 3 -1 3 -3.375 4.75 C-6 6 -6 6 -9 5 C-7.87926138 4.16094435 -6.75325453 3.32892169 -5.625 2.5 C-4.99851563 2.0359375 -4.37203125 1.571875 -3.7265625 1.09375 C-2 0 -2 0 0 0 Z " fill="#FDE1E4" transform="translate(150,77)"/>
</svg>
