<?xml version="1.0" encoding="UTF-8"?>
<svg version="1.1" xmlns="http://www.w3.org/2000/svg" width="770" height="1023">
<path d="M0 0 C254.1 0 508.2 0 770 0 C770 337.59 770 675.18 770 1023 C515.9 1023 261.8 1023 0 1023 C0 685.41 0 347.82 0 0 Z " fill="#00008F" transform="translate(0,0)"/>
<path d="M0 0 C80.52 0 161.04 0 244 0 C244 56.76 244 113.52 244 172 C297.46 172 350.92 172 406 172 C406.04030303 232.8978847 406.04030303 232.8978847 406.04882812 258.33007812 C406.05078614 264.14200849 406.05280666 269.95393883 406.05493164 275.76586914 C406.05519539 276.49434659 406.05545914 277.22282405 406.05573088 277.97337657 C406.06008568 289.74944075 406.06797252 301.52550006 406.0771528 313.30156135 C406.08648905 325.3780084 406.09205555 337.45445289 406.09408849 349.5309034 C406.09546378 356.98870014 406.09981467 364.44648315 406.10791647 371.90427566 C406.11380429 377.61329978 406.11445903 383.32231501 406.11310768 389.03134155 C406.1133842 391.38041837 406.11539183 393.72949568 406.11920547 396.07856941 C406.12413609 399.27057449 406.12300064 402.46251946 406.12025452 405.65452576 C406.12316736 406.59711335 406.1260802 407.53970095 406.12908131 408.5108518 C406.11412121 414.88587879 406.11412121 414.88587879 405 416 C402.93705722 416.09681822 400.87073958 416.12186923 398.80552673 416.12025452 C398.15288849 416.12111053 397.50025024 416.12196655 396.82783508 416.12284851 C394.61818778 416.12451322 392.40861507 416.11896474 390.19897461 416.11352539 C388.59688348 416.11321929 386.99479222 416.11335215 385.39270115 416.11389065 C381.08740433 416.11411718 376.78213508 416.10830519 372.47684479 416.10128021 C368.44261077 416.09560148 364.40838359 416.09531798 360.37414551 416.09460449 C348.56192666 416.08934913 336.74971299 416.07538808 324.9375 416.0625 C298.558125 416.041875 272.17875 416.02125 245 416 C245 472.43 245 528.86 245 587 C164.15 587 83.3 587 0 587 C-0.33 530.9 -0.66 474.8 -1 417 C-54.92758434 416.71055291 -54.92758434 416.71055291 -108.85522461 416.43188477 C-119.26086426 416.3729248 -119.26086426 416.3729248 -124.12477112 416.34410095 C-127.53805218 416.3242181 -130.95133516 416.30714529 -134.36463928 416.29173279 C-138.71011225 416.27202076 -143.05553423 416.24760682 -147.400962 416.21969402 C-149.00098888 416.21023419 -150.60102683 416.20246781 -152.20107067 416.19653046 C-154.35199412 416.18831299 -156.5027926 416.17406914 -158.65367126 416.15821838 C-160.46637717 416.14853956 -160.46637717 416.14853956 -162.31570339 416.1386652 C-165 416 -165 416 -166 415 C-166.09805942 411.87760807 -166.12990476 408.77731859 -166.12025452 405.65452576 C-166.12153615 404.16478928 -166.12153615 404.16478928 -166.12284368 402.64495713 C-166.12450149 399.28989819 -166.11897221 395.93488837 -166.11352539 392.57983398 C-166.11324356 390.18562827 -166.11340118 387.79142246 -166.1139679 385.3972168 C-166.11419621 380.22869319 -166.11134489 375.06018086 -166.10573006 369.89166069 C-166.09761712 362.41876712 -166.09500005 354.94587967 -166.09374207 347.47298218 C-166.09155122 335.34990459 -166.08489025 323.22683371 -166.07543945 311.10375977 C-166.06626618 299.32446323 -166.05919639 287.54516852 -166.05493164 275.76586914 C-166.05452964 274.66639128 -166.05452964 274.66639128 -166.05411953 273.54470176 C-166.05180681 267.16919438 -166.04965395 260.79368695 -166.04751682 254.41817951 C-166.03810024 226.94544669 -166.01818182 199.47273165 -166 172 C-111.22 172 -56.44 172 0 172 C0 115.24 0 58.48 0 0 Z " fill="#D9000B" transform="translate(264,217)"/>
<path d="M0 0 C80.52 0 161.04 0 244 0 C244 56.76 244 113.52 244 172 C297.46 172 350.92 172 406 172 C406.04030303 232.8978847 406.04030303 232.8978847 406.04882812 258.33007812 C406.05078614 264.14200849 406.05280666 269.95393883 406.05493164 275.76586914 C406.05519539 276.49434659 406.05545914 277.22282405 406.05573088 277.97337657 C406.06008568 289.74944075 406.06797252 301.52550006 406.0771528 313.30156135 C406.08648905 325.3780084 406.09205555 337.45445289 406.09408849 349.5309034 C406.09546378 356.98870014 406.09981467 364.44648315 406.10791647 371.90427566 C406.11380429 377.61329978 406.11445903 383.32231501 406.11310768 389.03134155 C406.1133842 391.38041837 406.11539183 393.72949568 406.11920547 396.07856941 C406.12413609 399.27057449 406.12300064 402.46251946 406.12025452 405.65452576 C406.12316736 406.59711335 406.1260802 407.53970095 406.12908131 408.5108518 C406.11412121 414.88587879 406.11412121 414.88587879 405 416 C402.93705722 416.09681822 400.87073958 416.12186923 398.80552673 416.12025452 C398.15288849 416.12111053 397.50025024 416.12196655 396.82783508 416.12284851 C394.61818778 416.12451322 392.40861507 416.11896474 390.19897461 416.11352539 C388.59688348 416.11321929 386.99479222 416.11335215 385.39270115 416.11389065 C381.08740433 416.11411718 376.78213508 416.10830519 372.47684479 416.10128021 C368.44261077 416.09560148 364.40838359 416.09531798 360.37414551 416.09460449 C348.56192666 416.08934913 336.74971299 416.07538808 324.9375 416.0625 C298.558125 416.041875 272.17875 416.02125 245 416 C245 472.43 245 528.86 245 587 C164.15 587 83.3 587 0 587 C-0.33 530.9 -0.66 474.8 -1 417 C-54.92758434 416.71055291 -54.92758434 416.71055291 -108.85522461 416.43188477 C-119.26086426 416.3729248 -119.26086426 416.3729248 -124.12477112 416.34410095 C-127.53805218 416.3242181 -130.95133516 416.30714529 -134.36463928 416.29173279 C-138.71011225 416.27202076 -143.05553423 416.24760682 -147.400962 416.21969402 C-149.00098888 416.21023419 -150.60102683 416.20246781 -152.20107067 416.19653046 C-154.35199412 416.18831299 -156.5027926 416.17406914 -158.65367126 416.15821838 C-160.46637717 416.14853956 -160.46637717 416.14853956 -162.31570339 416.1386652 C-165 416 -165 416 -166 415 C-166.09805942 411.87760807 -166.12990476 408.77731859 -166.12025452 405.65452576 C-166.12153615 404.16478928 -166.12153615 404.16478928 -166.12284368 402.64495713 C-166.12450149 399.28989819 -166.11897221 395.93488837 -166.11352539 392.57983398 C-166.11324356 390.18562827 -166.11340118 387.79142246 -166.1139679 385.3972168 C-166.11419621 380.22869319 -166.11134489 375.06018086 -166.10573006 369.89166069 C-166.09761712 362.41876712 -166.09500005 354.94587967 -166.09374207 347.47298218 C-166.09155122 335.34990459 -166.08489025 323.22683371 -166.07543945 311.10375977 C-166.06626618 299.32446323 -166.05919639 287.54516852 -166.05493164 275.76586914 C-166.05452964 274.66639128 -166.05452964 274.66639128 -166.05411953 273.54470176 C-166.05180681 267.16919438 -166.04965395 260.79368695 -166.04751682 254.41817951 C-166.03810024 226.94544669 -166.01818182 199.47273165 -166 172 C-111.22 172 -56.44 172 0 172 C0 115.24 0 58.48 0 0 Z M2 2 C2 58.43 2 114.86 2 173 C-52.78 173 -107.56 173 -164 173 C-164 252.53 -164 332.06 -164 414 C-109.88 414.33 -55.76 414.66 0 415 C0.33 471.43 0.66 527.86 1 586 C80.86 586 160.72 586 243 586 C243.33 529.57 243.66 473.14 244 415 C323.2 414.505 323.2 414.505 404 414 C404 334.47 404 254.94 404 173 C351.2 172.67 298.4 172.34 244 172 C243.67 115.9 243.34 59.8 243 2 C163.47 2 83.94 2 2 2 Z " fill="#7D0041" transform="translate(264,217)"/>
<path d="M0 0 C80.52 0 161.04 0 244 0 C244 56.76 244 113.52 244 172 C243.67 172 243.34 172 243 172 C243 115.9 243 59.8 243 2 C163.47 2 83.94 2 2 2 C2 58.43 2 114.86 2 173 C-52.78 173 -107.56 173 -164 173 C-164 252.53 -164 332.06 -164 414 C-109.88 414 -55.76 414 0 414 C0 414.33 0 414.66 0 415 C-54.78 415 -109.56 415 -166 415 C-166 334.81 -166 254.62 -166 172 C-111.22 172 -56.44 172 0 172 C0 115.24 0 58.48 0 0 Z " fill="#8E0036" transform="translate(264,217)"/>
<path d="M0 0 C4.95 0 9.9 0 15 0 C15 4.95 15 9.9 15 15 C12 11 12 11 10.3125 8 C7.39557252 4.21587786 4.3414397 2.79137075 0 1 C0 0.67 0 0.34 0 0 Z " fill="#000000" transform="translate(755,0)"/>
<path d="M0 0 C4.95 0 9.9 0 15 0 C11 3 11 3 8.5625 4.1875 C5.3629438 6.45060073 3.93319242 8.98758927 2.015625 12.35546875 C1.68046875 12.89816406 1.3453125 13.44085938 1 14 C0.67 14 0.34 14 0 14 C0 9.38 0 4.76 0 0 Z " fill="#000000" transform="translate(0,0)"/>
<path d="M0 0 C0.33 0 0.66 0 1 0 C1 4.62 1 9.24 1 14 C-3.62 14 -8.24 14 -13 14 C-8 10 -8 10 -5 10 C-4.731875 9.278125 -4.46375 8.55625 -4.1875 7.8125 C-3.00645167 5.01528026 -1.66638302 2.53580025 0 0 Z " fill="#000000" transform="translate(769,1009)"/>
<path d="M0 0 C4 5 4 5 5 7.75 C5.33 8.4925 5.66 9.235 6 10 C7.89179203 10.6814823 7.89179203 10.6814823 10 11 C11.32 11.99 12.64 12.98 14 14 C9.38 14 4.76 14 0 14 C0 9.38 0 4.76 0 0 Z " fill="#000000" transform="translate(0,1009)"/>
</svg>
