<svg version="1.1" id="Layer_1" xmlns="http://www.w3.org/2000/svg" xmlns:xlink="http://www.w3.org/1999/xlink" x="0px" y="0px"
	 width="100%" viewBox="0 0 770 1023" enable-background="new 0 0 770 1023" xml:space="preserve">
<path fill="#000090" opacity="1.000000" stroke="none" 
	d="
M1.000000,1012.000000 
	C1.000000,679.303955 1.000000,346.607941 1.356160,13.532919 
	C5.815462,9.420305 9.923946,5.692464 14.001158,1.930726 
	C14.155568,1.788262 14.007249,1.317680 14.000000,1.000000 
	C261.696045,1.000000 509.392090,1.000000 757.479248,1.358797 
	C761.645996,5.337477 765.403198,8.977253 769.225586,12.547139 
	C769.616821,12.912497 770.399170,12.859103 771.000000,13.000005 
	C771.000000,345.696045 771.000000,678.392090 770.645386,1011.481750 
	C766.527100,1015.916870 762.763550,1019.958435 759.000000,1024.000000 
	C510.637299,1024.000000 262.274597,1024.000000 13.520094,1023.639404 
	C9.080218,1020.453064 5.353447,1017.343140 3.093688,1012.775879 
	C2.853640,1012.290710 1.719404,1012.247986 1.000000,1012.000000 
M66.768929,650.499939 
	C66.768929,708.106873 66.768929,765.713745 66.768929,823.473877 
	C279.865875,823.473877 492.400726,823.473877 704.892700,823.473877 
	C704.892700,574.599915 704.892700,326.064270 704.892700,77.446350 
	C492.101074,77.446350 279.697174,77.446350 66.768906,77.446350 
	C66.768906,268.302155 66.768906,458.901001 66.768929,650.499939 
z"/>
<path fill="#000000" opacity="1.000000" stroke="none" 
	d="
M13.523338,1.000000 
	C14.007249,1.317680 14.155568,1.788262 14.001158,1.930726 
	C9.923946,5.692464 5.815462,9.420305 1.356160,13.076969 
	C1.000000,9.074012 1.000000,5.148024 1.000000,1.000000 
	C5.013897,1.000000 9.030287,1.000000 13.523338,1.000000 
z"/>
<path fill="#000000" opacity="1.000000" stroke="none" 
	d="
M771.000000,12.520829 
	C770.399170,12.859103 769.616821,12.912497 769.225586,12.547139 
	C765.403198,8.977253 761.645996,5.337477 757.935181,1.358797 
	C762.252258,1.000000 766.504517,1.000000 771.000000,1.000000 
	C771.000000,4.678430 771.000000,8.360040 771.000000,12.520829 
z"/>
<path fill="#000000" opacity="1.000000" stroke="none" 
	d="
M1.000000,1012.479187 
	C1.719404,1012.247986 2.853640,1012.290710 3.093688,1012.775879 
	C5.353447,1017.343140 9.080218,1020.453064 13.064144,1023.639404 
	C9.078021,1024.000000 5.156042,1024.000000 1.000000,1024.000000 
	C1.000000,1020.321411 1.000000,1016.639893 1.000000,1012.479187 
z"/>
<path fill="#000000" opacity="1.000000" stroke="none" 
	d="
M759.479126,1024.000000 
	C762.763550,1019.958435 766.527100,1015.916870 770.645386,1011.937683 
	C771.000000,1015.921997 771.000000,1019.843933 771.000000,1024.000000 
	C767.321411,1024.000000 763.639893,1024.000000 759.479126,1024.000000 
z"/>
<path fill="#FEFEFE" opacity="1.000000" stroke="none" 
	d="
M66.768921,649.999878 
	C66.768906,458.901001 66.768906,268.302155 66.768906,77.446350 
	C279.697174,77.446350 492.101074,77.446350 704.892700,77.446350 
	C704.892700,326.064270 704.892700,574.599915 704.892700,823.473877 
	C492.400726,823.473877 279.865875,823.473877 66.768929,823.473877 
	C66.768929,765.713745 66.768929,708.106873 66.768921,649.999878 
M390.094299,441.500000 
	C390.094299,433.248108 390.094299,424.996216 390.094299,416.261230 
	C423.886444,421.615692 455.244720,417.293671 484.753571,399.977234 
	C481.908630,396.506989 479.490021,393.565186 477.080841,390.615662 
	C474.561218,387.530975 471.807465,384.600220 469.615479,381.297333 
	C467.953094,378.792480 466.527863,379.175964 464.257111,380.229523 
	C459.296234,382.531219 454.337158,385.056549 449.105927,386.521118 
	C410.036041,397.459412 374.655975,390.512024 343.841125,363.650909 
	C324.320618,346.634979 312.551086,324.921692 308.256409,299.519073 
	C304.323090,276.253967 307.666351,253.749466 318.292999,232.528275 
	C320.719482,227.682648 323.544037,223.036377 326.322144,218.052963 
	C319.368744,212.406281 312.621216,206.926773 305.703369,201.308945 
	C291.021698,221.636200 282.821808,243.760040 280.438141,267.825165 
	C277.839783,294.058075 282.440521,319.164093 294.408142,342.847626 
	C307.555847,368.866547 326.995331,388.639862 352.465607,402.692993 
	C354.077606,403.582397 355.761475,406.101807 355.772003,407.872681 
	C355.969025,441.033691 355.879639,474.196259 355.979095,507.358124 
	C355.988617,510.536865 354.934387,511.604004 351.813324,512.066711 
	C332.644745,514.908691 314.010223,519.982239 296.244080,527.642395 
	C262.173248,542.332520 232.811005,563.575012 208.613480,591.895752 
	C184.884827,619.667725 168.224716,651.082581 159.268524,686.472900 
	C158.116852,691.023682 156.348755,692.177063 151.930206,692.120422 
	C133.435760,691.883240 114.936516,692.020447 96.439026,692.020508 
	C94.674416,692.020508 92.909805,692.020508 91.210808,692.020508 
	C91.210808,703.803894 91.210808,714.886902 91.210808,725.982056 
	C289.910156,725.982056 488.262878,725.982056 686.707642,725.982056 
	C686.707642,714.508484 686.707642,703.453003 686.707642,692.020447 
	C684.557434,692.020447 682.753296,692.020447 680.949158,692.020447 
	C660.951904,692.020447 640.954102,691.951355 620.957825,692.089966 
	C617.707581,692.112549 616.688843,691.036560 615.626221,687.923645 
	C610.428528,672.696655 605.879395,657.096558 599.005249,642.623779 
	C582.479187,607.829895 558.325439,578.981812 527.280090,555.992126 
	C488.049377,526.940979 444.174072,511.174133 395.302216,509.816162 
	C391.148254,509.700714 389.964844,508.633026 390.004333,504.490723 
	C390.201355,483.828735 390.094330,463.163849 390.094299,441.500000 
M459.541748,236.962952 
	C455.069702,237.776337 455.383759,234.005142 454.817810,231.624329 
	C450.474060,213.351257 446.366852,195.022003 442.038544,176.745163 
	C441.010620,172.404709 439.424683,168.196411 438.095428,163.927322 
	C437.644196,163.920425 437.192993,163.913513 436.741760,163.906616 
	C431.098145,188.273392 425.454559,212.640167 419.776154,237.157089 
	C393.506531,234.947449 367.923248,232.795532 341.137970,230.542526 
	C342.871796,231.824936 343.587616,232.445343 344.385376,232.931183 
	C364.667755,245.282883 384.931000,257.666504 405.282959,269.902649 
	C407.844269,271.442566 408.198303,272.750854 407.042145,275.460541 
	C399.222839,293.786957 391.573547,312.185974 383.890686,330.570435 
	C382.263214,334.464844 380.724274,338.396240 379.144562,342.310608 
	C379.546417,342.504822 379.948273,342.699036 380.350128,342.893250 
	C382.739807,341.011261 385.214111,339.226501 387.505493,337.231628 
	C403.411865,323.383606 419.294098,309.507751 435.143158,295.594238 
	C437.114716,293.863495 438.605560,293.851471 440.641327,295.653168 
	C451.455688,305.223877 462.369965,314.682098 473.283325,324.140411 
	C480.984131,330.814484 488.738556,337.426697 496.469025,344.066559 
	C496.600342,341.681671 495.955414,339.856384 495.207428,338.074371 
	C486.530670,317.403107 477.903107,296.710693 469.083801,276.100342 
	C467.681519,272.823242 468.195099,271.221130 471.309784,269.384766 
	C485.468658,261.036926 499.471619,252.424179 513.514587,243.880280 
	C520.351074,239.720856 527.152222,235.503464 533.969421,231.312317 
	C533.824280,231.070694 533.679199,230.829056 533.534058,230.587433 
	C509.163757,232.688232 484.793488,234.789032 459.541748,236.962952 
z"/>
<path fill="#060505" opacity="1.000000" stroke="none" 
	d="
M390.094299,442.000000 
	C390.094330,463.163849 390.201355,483.828735 390.004333,504.490723 
	C389.964844,508.633026 391.148254,509.700714 395.302216,509.816162 
	C444.174072,511.174133 488.049377,526.940979 527.280090,555.992126 
	C558.325439,578.981812 582.479187,607.829895 599.005249,642.623779 
	C605.879395,657.096558 610.428528,672.696655 615.626221,687.923645 
	C616.688843,691.036560 617.707581,692.112549 620.957825,692.089966 
	C640.954102,691.951355 660.951904,692.020447 680.949158,692.020447 
	C682.753296,692.020447 684.557434,692.020447 686.707642,692.020447 
	C686.707642,703.453003 686.707642,714.508484 686.707642,725.982056 
	C488.262878,725.982056 289.910156,725.982056 91.210808,725.982056 
	C91.210808,714.886902 91.210808,703.803894 91.210808,692.020508 
	C92.909805,692.020508 94.674416,692.020508 96.439026,692.020508 
	C114.936516,692.020447 133.435760,691.883240 151.930206,692.120422 
	C156.348755,692.177063 158.116852,691.023682 159.268524,686.472900 
	C168.224716,651.082581 184.884827,619.667725 208.613480,591.895752 
	C232.811005,563.575012 262.173248,542.332520 296.244080,527.642395 
	C314.010223,519.982239 332.644745,514.908691 351.813324,512.066711 
	C354.934387,511.604004 355.988617,510.536865 355.979095,507.358124 
	C355.879639,474.196259 355.969025,441.033691 355.772003,407.872681 
	C355.761475,406.101807 354.077606,403.582397 352.465607,402.692993 
	C326.995331,388.639862 307.555847,368.866547 294.408142,342.847626 
	C282.440521,319.164093 277.839783,294.058075 280.438141,267.825165 
	C282.821808,243.760040 291.021698,221.636200 305.703369,201.308945 
	C312.621216,206.926773 319.368744,212.406281 326.322144,218.052963 
	C323.544037,223.036377 320.719482,227.682648 318.292999,232.528275 
	C307.666351,253.749466 304.323090,276.253967 308.256409,299.519073 
	C312.551086,324.921692 324.320618,346.634979 343.841125,363.650909 
	C374.655975,390.512024 410.036041,397.459412 449.105927,386.521118 
	C454.337158,385.056549 459.296234,382.531219 464.257111,380.229523 
	C466.527863,379.175964 467.953094,378.792480 469.615479,381.297333 
	C471.807465,384.600220 474.561218,387.530975 477.080841,390.615662 
	C479.490021,393.565186 481.908630,396.506989 484.753571,399.977234 
	C455.244720,417.293671 423.886444,421.615692 390.094299,416.261230 
	C390.094299,424.996216 390.094299,433.248108 390.094299,442.000000 
z"/>
<path fill="#0A0A0A" opacity="1.000000" stroke="none" 
	d="
M459.982483,236.926392 
	C484.793488,234.789032 509.163757,232.688232 533.534058,230.587433 
	C533.679199,230.829056 533.824280,231.070694 533.969421,231.312317 
	C527.152222,235.503464 520.351074,239.720856 513.514587,243.880280 
	C499.471619,252.424179 485.468658,261.036926 471.309784,269.384766 
	C468.195099,271.221130 467.681519,272.823242 469.083801,276.100342 
	C477.903107,296.710693 486.530670,317.403107 495.207428,338.074371 
	C495.955414,339.856384 496.600342,341.681671 496.469025,344.066559 
	C488.738556,337.426697 480.984131,330.814484 473.283325,324.140411 
	C462.369965,314.682098 451.455688,305.223877 440.641327,295.653168 
	C438.605560,293.851471 437.114716,293.863495 435.143158,295.594238 
	C419.294098,309.507751 403.411865,323.383606 387.505493,337.231628 
	C385.214111,339.226501 382.739807,341.011261 380.350128,342.893250 
	C379.948273,342.699036 379.546417,342.504822 379.144562,342.310608 
	C380.724274,338.396240 382.263214,334.464844 383.890686,330.570435 
	C391.573547,312.185974 399.222839,293.786957 407.042145,275.460541 
	C408.198303,272.750854 407.844269,271.442566 405.282959,269.902649 
	C384.931000,257.666504 364.667755,245.282883 344.385376,232.931183 
	C343.587616,232.445343 342.871796,231.824936 341.137970,230.542526 
	C367.923248,232.795532 393.506531,234.947449 419.776154,237.157089 
	C425.454559,212.640167 431.098145,188.273392 436.741760,163.906616 
	C437.192993,163.913513 437.644196,163.920425 438.095428,163.927322 
	C439.424683,168.196411 441.010620,172.404709 442.038544,176.745163 
	C446.366852,195.022003 450.474060,213.351257 454.817810,231.624329 
	C455.383759,234.005142 455.069702,237.776337 459.982483,236.926392 
z"/>
</svg>