<?xml version="1.0" encoding="UTF-8"?>
<svg version="1.1" xmlns="http://www.w3.org/2000/svg" width="500" height="500">
<path d="M0 0 C4.3048672 3.2330942 8.03133592 7.00850833 11.81987321 10.8214916 C13.17263014 12.16511187 13.17263014 12.16511187 14.55271548 13.53587598 C17.03587696 16.00274391 19.50971638 18.47877353 21.98200059 20.95653605 C24.6576161 23.63483486 27.34183702 26.30448674 30.0248903 28.97533071 C35.27202791 34.20146789 40.51093637 39.43577879 45.74669012 44.67331841 C50.00422492 48.93216338 54.26431603 53.18843484 58.5262121 57.44291532 C59.75611928 58.67072321 60.98602562 59.89853194 62.21593112 61.12634152 C63.13430092 62.04314604 63.13430092 62.04314604 64.07122365 62.97847185 C75.63607643 74.52444452 87.19096262 86.08035201 98.74296353 97.63918106 C109.30028572 108.20207897 119.87075061 118.75171289 130.4473991 129.29525616 C141.32116201 140.13524893 152.18557641 150.98453215 163.04015845 161.84373254 C169.12886228 167.93467744 175.221224 174.02185232 181.32351053 180.09919202 C186.51790299 185.27252863 191.70343396 190.45455306 196.87787112 195.6478522 C199.51541672 198.29452853 202.15674005 200.93710369 204.80920732 203.56883276 C207.69085746 206.4282019 210.55256206 209.30676076 213.41289079 212.1874584 C214.24528329 213.00733305 215.07767579 213.8272077 215.9352923 214.67192703 C223.77494483 222.63134739 229.45190248 231.14772722 229.67590654 242.5719341 C229.47045559 256.43987318 220.80362234 265.89874748 211.42634904 275.21590078 C210.5306022 276.11773873 209.63485536 277.01957667 208.71196467 277.94874305 C206.24509674 280.43190452 203.76906711 282.90574394 201.29130459 285.37802815 C198.61300579 288.05364366 195.9433539 290.73786459 193.27250993 293.42091787 C188.04637276 298.66805548 182.81206185 303.90696394 177.57452223 309.14271768 C173.31567726 313.40025249 169.0594058 317.6603436 164.80492532 321.92223966 C163.57711744 323.15214685 162.3493087 324.38205318 161.12149912 325.61195868 C160.20469461 326.53032849 160.20469461 326.53032849 159.26936879 327.46725122 C147.72339612 339.032104 136.16748864 350.58699018 124.60865959 362.1389911 C114.04576168 372.69631329 103.49612775 383.26677817 92.95258448 393.84342667 C82.11259172 404.71718958 71.26330849 415.58160398 60.40410811 426.43618602 C54.3131632 432.52488985 48.22598832 438.61725156 42.14864862 444.71953809 C36.97531202 449.91393055 31.79328758 455.09946152 26.59998844 460.27389868 C23.95331212 462.91144429 21.31073696 465.55276761 18.67900789 468.20523489 C15.81963874 471.08688502 12.94107989 473.94858963 10.06038225 476.80891836 C9.2405076 477.64131086 8.42063295 478.47370335 7.57591361 479.33131987 C-0.38350675 487.1709724 -8.89988658 492.84793005 -20.32409346 493.0719341 C-34.19203254 492.86648315 -43.65090684 484.1996499 -52.96806014 474.82237661 C-53.86989808 473.92662976 -54.77173603 473.03088292 -55.7009024 472.10799223 C-58.18406388 469.6411243 -60.6579033 467.16509468 -63.13018751 464.68733215 C-65.80580302 462.00903335 -68.49002395 459.33938147 -71.17307723 456.6685375 C-76.42021484 451.44240032 -81.6591233 446.20808942 -86.89487704 440.9705498 C-91.15241185 436.71170482 -95.41250295 432.45543337 -99.67439902 428.20095289 C-100.9043062 426.973145 -102.13421254 425.74533626 -103.36411804 424.51752669 C-103.97636458 423.90632368 -104.58861111 423.29512067 -105.21941058 422.66539636 C-116.78426336 411.11942369 -128.33914954 399.5635162 -139.89115045 388.00468715 C-150.44847264 377.44178924 -161.01893753 366.89215532 -171.59558602 356.34861205 C-182.46934894 345.50861928 -193.33376333 334.65933605 -204.18834537 323.80013567 C-210.27704921 317.70919077 -216.36941092 311.62201588 -222.47169745 305.54467618 C-227.66608991 300.37133958 -232.85162088 295.18931515 -238.02605804 289.996016 C-240.66360364 287.34933968 -243.30492697 284.70676452 -245.95739424 282.07503545 C-248.83904438 279.2156663 -251.70074898 276.33710745 -254.56107771 273.45640981 C-255.39347021 272.63653516 -256.22586271 271.81666051 -257.08347923 270.97194117 C-264.92313175 263.01252082 -270.6000894 254.49614099 -270.82409346 243.0719341 C-270.61864251 229.20399502 -261.95180926 219.74512073 -252.57453597 210.42796743 C-251.67878912 209.52612948 -250.78304228 208.62429153 -249.86015159 207.69512516 C-247.39328366 205.21196368 -244.91725404 202.73812426 -242.43949151 200.26584005 C-239.76119271 197.59022454 -237.09154082 194.90600362 -234.42069685 192.22295034 C-229.19455968 186.97581273 -223.96024877 181.73690427 -218.72270916 176.50115053 C-214.46386418 172.24361572 -210.20759272 167.98352461 -205.95311224 163.72162855 C-204.72530436 162.49172136 -203.49749562 161.26181502 -202.26968604 160.03190953 C-201.65848303 159.41966299 -201.04728002 158.80741645 -200.41755571 158.17661699 C-188.87158304 146.61176421 -177.31567556 135.05687803 -165.75684651 123.50487711 C-155.1939486 112.94755492 -144.64431467 102.37709003 -134.1007714 91.80044154 C-123.26077864 80.92667863 -112.41149541 70.06226423 -101.55229503 59.20768219 C-95.46135013 53.11897836 -89.37417524 47.02661665 -83.29683554 40.92433012 C-78.12349894 35.72993765 -72.9414745 30.54440668 -67.74817536 25.36996952 C-65.10149904 22.73242392 -62.45892388 20.0911006 -59.82719481 17.43863332 C-56.96782566 14.55698319 -54.08926681 11.69527858 -51.20856917 8.83494985 C-50.38869452 8.00255735 -49.56881987 7.17016485 -48.72410053 6.31254834 C-34.13271958 -8.05927164 -17.31275347 -11.78950201 0 0 Z " fill="#FDFD02" transform="translate(270.5740934610367,7.178065896034241)"/>
<path d="M0 0 C4.3048672 3.2330942 8.03133592 7.00850833 11.81987321 10.8214916 C13.17263014 12.16511187 13.17263014 12.16511187 14.55271548 13.53587598 C17.03587696 16.00274391 19.50971638 18.47877353 21.98200059 20.95653605 C24.6576161 23.63483486 27.34183702 26.30448674 30.0248903 28.97533071 C35.27202791 34.20146789 40.51093637 39.43577879 45.74669012 44.67331841 C50.00422492 48.93216338 54.26431603 53.18843484 58.5262121 57.44291532 C59.75611928 58.67072321 60.98602562 59.89853194 62.21593112 61.12634152 C63.13430092 62.04314604 63.13430092 62.04314604 64.07122365 62.97847185 C75.63607643 74.52444452 87.19096262 86.08035201 98.74296353 97.63918106 C109.30028572 108.20207897 119.87075061 118.75171289 130.4473991 129.29525616 C141.32116201 140.13524893 152.18557641 150.98453215 163.04015845 161.84373254 C169.12886228 167.93467744 175.221224 174.02185232 181.32351053 180.09919202 C186.51790299 185.27252863 191.70343396 190.45455306 196.87787112 195.6478522 C199.51541672 198.29452853 202.15674005 200.93710369 204.80920732 203.56883276 C207.69085746 206.4282019 210.55256206 209.30676076 213.41289079 212.1874584 C214.24528329 213.00733305 215.07767579 213.8272077 215.9352923 214.67192703 C223.77494483 222.63134739 229.45190248 231.14772722 229.67590654 242.5719341 C229.47045559 256.43987318 220.80362234 265.89874748 211.42634904 275.21590078 C210.5306022 276.11773873 209.63485536 277.01957667 208.71196467 277.94874305 C206.24509674 280.43190452 203.76906711 282.90574394 201.29130459 285.37802815 C198.61300579 288.05364366 195.9433539 290.73786459 193.27250993 293.42091787 C188.04637276 298.66805548 182.81206185 303.90696394 177.57452223 309.14271768 C173.31567726 313.40025249 169.0594058 317.6603436 164.80492532 321.92223966 C163.57711744 323.15214685 162.3493087 324.38205318 161.12149912 325.61195868 C160.20469461 326.53032849 160.20469461 326.53032849 159.26936879 327.46725122 C147.72339612 339.032104 136.16748864 350.58699018 124.60865959 362.1389911 C114.04576168 372.69631329 103.49612775 383.26677817 92.95258448 393.84342667 C82.11259172 404.71718958 71.26330849 415.58160398 60.40410811 426.43618602 C54.3131632 432.52488985 48.22598832 438.61725156 42.14864862 444.71953809 C36.97531202 449.91393055 31.79328758 455.09946152 26.59998844 460.27389868 C23.95331212 462.91144429 21.31073696 465.55276761 18.67900789 468.20523489 C15.81963874 471.08688502 12.94107989 473.94858963 10.06038225 476.80891836 C9.2405076 477.64131086 8.42063295 478.47370335 7.57591361 479.33131987 C-0.38350675 487.1709724 -8.89988658 492.84793005 -20.32409346 493.0719341 C-34.19203254 492.86648315 -43.65090684 484.1996499 -52.96806014 474.82237661 C-53.86989808 473.92662976 -54.77173603 473.03088292 -55.7009024 472.10799223 C-58.18406388 469.6411243 -60.6579033 467.16509468 -63.13018751 464.68733215 C-65.80580302 462.00903335 -68.49002395 459.33938147 -71.17307723 456.6685375 C-76.42021484 451.44240032 -81.6591233 446.20808942 -86.89487704 440.9705498 C-91.15241185 436.71170482 -95.41250295 432.45543337 -99.67439902 428.20095289 C-100.9043062 426.973145 -102.13421254 425.74533626 -103.36411804 424.51752669 C-103.97636458 423.90632368 -104.58861111 423.29512067 -105.21941058 422.66539636 C-116.78426336 411.11942369 -128.33914954 399.5635162 -139.89115045 388.00468715 C-150.44847264 377.44178924 -161.01893753 366.89215532 -171.59558602 356.34861205 C-182.46934894 345.50861928 -193.33376333 334.65933605 -204.18834537 323.80013567 C-210.27704921 317.70919077 -216.36941092 311.62201588 -222.47169745 305.54467618 C-227.66608991 300.37133958 -232.85162088 295.18931515 -238.02605804 289.996016 C-240.66360364 287.34933968 -243.30492697 284.70676452 -245.95739424 282.07503545 C-248.83904438 279.2156663 -251.70074898 276.33710745 -254.56107771 273.45640981 C-255.39347021 272.63653516 -256.22586271 271.81666051 -257.08347923 270.97194117 C-264.92313175 263.01252082 -270.6000894 254.49614099 -270.82409346 243.0719341 C-270.61864251 229.20399502 -261.95180926 219.74512073 -252.57453597 210.42796743 C-251.67878912 209.52612948 -250.78304228 208.62429153 -249.86015159 207.69512516 C-247.39328366 205.21196368 -244.91725404 202.73812426 -242.43949151 200.26584005 C-239.76119271 197.59022454 -237.09154082 194.90600362 -234.42069685 192.22295034 C-229.19455968 186.97581273 -223.96024877 181.73690427 -218.72270916 176.50115053 C-214.46386418 172.24361572 -210.20759272 167.98352461 -205.95311224 163.72162855 C-204.72530436 162.49172136 -203.49749562 161.26181502 -202.26968604 160.03190953 C-201.65848303 159.41966299 -201.04728002 158.80741645 -200.41755571 158.17661699 C-188.87158304 146.61176421 -177.31567556 135.05687803 -165.75684651 123.50487711 C-155.1939486 112.94755492 -144.64431467 102.37709003 -134.1007714 91.80044154 C-123.26077864 80.92667863 -112.41149541 70.06226423 -101.55229503 59.20768219 C-95.46135013 53.11897836 -89.37417524 47.02661665 -83.29683554 40.92433012 C-78.12349894 35.72993765 -72.9414745 30.54440668 -67.74817536 25.36996952 C-65.10149904 22.73242392 -62.45892388 20.0911006 -59.82719481 17.43863332 C-56.96782566 14.55698319 -54.08926681 11.69527858 -51.20856917 8.83494985 C-50.38869452 8.00255735 -49.56881987 7.17016485 -48.72410053 6.31254834 C-34.13271958 -8.05927164 -17.31275347 -11.78950201 0 0 Z M-35.19788802 23.22972524 C-36.11227532 24.13415717 -37.02666263 25.03858909 -37.96875864 25.97042805 C-40.49822339 28.47371518 -42.99555794 31.00704197 -45.48863435 33.54650068 C-48.18548307 36.28248393 -50.91119158 38.98944885 -53.63343489 41.70012319 C-58.95775704 47.01081827 -64.25521048 52.34756115 -69.54430295 57.69331781 C-75.70265297 63.91537002 -81.88838228 70.10989837 -88.0757122 76.30311092 C-99.11126216 87.35078721 -110.1235778 98.4213304 -121.12218916 109.50577199 C-131.80029102 120.2671306 -142.49162263 131.01508706 -153.1993376 141.74698293 C-154.18921817 142.73910815 -154.18921817 142.73910815 -155.19909633 143.75127629 C-157.85154054 146.40966885 -160.50402166 149.06802456 -163.15656534 151.72631787 C-174.58616545 163.18137026 -186.00471385 174.64743576 -197.42186496 186.114894 C-199.27229693 187.97329183 -201.12299398 189.83142531 -202.97375667 191.68949378 C-209.44964902 198.19141206 -215.92220948 204.69659397 -222.38541771 211.21112362 C-225.05857909 213.90548501 -227.73321889 216.59832943 -230.41212904 219.28697622 C-233.31133771 222.19692614 -236.20267032 225.11457304 -239.09315169 228.03319204 C-239.94720817 228.88824404 -240.80126465 229.74329603 -241.68120164 230.6242587 C-242.45033951 231.40354566 -243.21947739 232.18283262 -244.01192248 232.98573434 C-244.68050534 233.65897849 -245.3490882 234.33222263 -246.03793114 235.02586812 C-248.13282892 237.47520215 -248.5603671 239.75467492 -249.19909346 242.8844341 C-248.4929953 247.33285251 -247.6000573 248.28000635 -244.60428298 251.48789537 C-243.78335567 252.37031715 -242.96242836 253.25273893 -242.11662447 254.16190076 C-238.2726926 258.18347882 -234.39354992 262.164019 -230.46606123 266.10405385 C-229.59492485 266.98168919 -228.72378847 267.85932453 -227.82625401 268.76355487 C-225.43718769 271.16932878 -223.04600593 273.57296096 -220.65377748 275.97558808 C-218.59545368 278.04363679 -216.53891801 280.11345935 -214.48236537 282.18326915 C-207.13293599 289.57993213 -199.77635224 296.96946119 -192.41784346 304.35709035 C-191.83675629 304.94048511 -191.25566912 305.52387986 -190.65697324 306.12495324 C-179.10423916 317.72312069 -167.54800374 329.31779668 -155.98596632 340.90669 C-153.4526293 343.44601514 -150.91934122 345.98538909 -148.38610518 348.52481496 C-147.44177922 349.47144039 -147.44177922 349.47144039 -146.47837597 350.43718957 C-136.25867844 360.68265448 -126.05467566 370.94360974 -115.85669714 381.2106883 C-105.37231369 391.76552218 -94.87288254 402.30520231 -84.35887635 412.83052951 C-78.46134855 418.73521477 -72.57079107 424.64651276 -66.69730818 430.5751251 C-61.70167246 435.61762201 -56.69274712 440.64641763 -51.66582155 445.65773023 C-49.1024858 448.21395426 -46.54607836 450.77622453 -44.00678122 453.3563484 C-41.25340346 456.15364223 -38.46959808 458.91932441 -35.68212569 461.68266714 C-34.88570835 462.50170508 -34.08929101 463.32074303 -33.26873982 464.16460031 C-28.95586753 468.38287658 -25.80927511 470.7070331 -19.71092045 471.18229896 C-15.04398128 470.39524373 -11.79757468 467.29628487 -8.54144347 464.05772626 C-7.76924129 463.29443978 -6.99703912 462.53115329 -6.20143688 461.74473691 C-4.94612985 460.4888768 -4.94612985 460.4888768 -3.66546309 459.20764577 C-2.76759856 458.31713462 -1.86973404 457.42662348 -0.9446615 456.50912714 C1.5435843 454.04085995 4.02555906 451.56637015 6.50649035 449.09075391 C9.18462797 446.42044018 11.86841202 443.75581091 14.55134904 441.09032094 C21.02555025 434.65558879 27.49010858 428.21121076 33.95350099 421.76562458 C36.99812928 418.72976822 40.0437357 415.69489347 43.08921373 412.65988958 C53.212533 402.5705818 63.33334113 392.47876503 73.44691408 382.37968671 C76.06961282 379.76080765 78.69232207 377.1419391 81.3150667 374.52310598 C81.96692151 373.87221864 82.61877633 373.22133131 83.29038432 372.55072011 C93.85818353 361.99953333 104.44291319 351.46550312 115.03481564 340.93851839 C125.91049537 330.12895403 136.77108298 319.3044126 147.61695254 308.46493673 C153.70641707 302.37980381 159.80230992 296.3014294 165.91509569 290.23971593 C171.11884862 285.07934118 176.30878437 279.90555975 181.48115543 274.71372263 C184.12038654 272.06539254 186.7656708 269.42396292 189.4287771 266.79962385 C192.31623496 263.95383909 195.17174008 261.07798637 198.02521074 258.19812429 C198.87100497 257.37426854 199.71679921 256.5504128 200.58822358 255.70159173 C204.86359371 251.32990267 207.33212781 248.14362851 207.79546225 241.94933367 C206.98494296 237.28346509 203.88833757 234.03315481 200.64887464 230.77087343 C199.49964487 229.60642002 199.49964487 229.60642002 198.32719833 228.41844231 C197.06652497 227.15627568 197.06652497 227.15627568 195.78038347 225.86861074 C194.88649433 224.9659571 193.9926052 224.06330345 193.07162851 223.13329667 C190.59390246 220.63171362 188.10994394 218.13640172 185.62484241 215.64214826 C182.9443141 212.94968024 180.26944483 210.2515991 177.59367692 207.55440176 C171.13403842 201.04579148 164.66456276 194.54700323 158.1933243 188.04992899 C156.36561458 186.21479199 154.53816504 184.37939633 152.7108084 182.54390776 C141.36064033 171.14328008 130.00729185 159.74583033 118.64431989 148.35796297 C116.01442901 145.72221286 113.38457025 143.08643072 110.75476396 140.45059621 C110.10114832 139.79548847 109.44753268 139.14038073 108.7741105 138.46542124 C98.17875353 127.84473896 87.60413948 117.20364828 77.03783821 106.5540668 C66.1879029 95.61931924 55.31922698 84.70348375 44.43203062 73.80583256 C38.32015806 67.6871304 32.21689605 61.56034133 26.13461435 55.41221082 C20.95671809 50.17834816 15.7621785 44.96175988 10.54502665 39.76701405 C7.88381202 37.11618081 5.23136372 34.45790317 2.60017717 31.77723348 C-0.25313752 28.87070981 -3.14375579 26.0044052 -6.03968489 23.14033926 C-6.86451874 22.28774123 -7.68935259 21.4351432 -8.53918141 20.55670887 C-12.27938993 16.91731854 -15.24543734 14.29109725 -20.56850684 13.77654684 C-27.11659304 14.40288686 -30.81688145 18.70286981 -35.19788802 23.22972524 Z " fill="#070705" transform="translate(270.5740934610367,7.178065896034241)"/>
<path d="M0 0 C12.04287607 6.69656897 16.25041276 20.57750528 20.38671875 32.8046875 C20.67168213 33.64 20.95664551 34.4753125 21.25024414 35.3359375 C22 38 22 38 22.35717773 40.9453125 C23.06421746 45.93335983 24.01882301 49.45977472 27.95336914 52.73193359 C31.70447166 55.50016128 35.68038446 57.87586789 39.6875 60.25 C41.07303008 61.10734637 42.45651942 61.96799999 43.83789062 62.83203125 C47.20291717 64.92693293 50.59247708 66.97502327 54 69 C54.24733887 68.4009082 54.49467773 67.80181641 54.74951172 67.18457031 C56.21005329 64.63304241 57.55532668 63.64483045 60.0078125 62.046875 C61.22936035 61.24709229 61.22936035 61.24709229 62.47558594 60.43115234 C63.34989258 59.87637207 64.22419922 59.3215918 65.125 58.75 C66.01993164 58.17588379 66.91486328 57.60176758 67.83691406 57.01025391 C95.42503476 39.58024586 95.42503476 39.58024586 108 41 C119.29023255 46.75580483 123.46009764 58.83666831 127.19140625 70.17578125 C127.88194108 72.58764927 128.27575301 74.83906581 128.625 77.3125 C130.74732439 83.00418814 134.92259353 84.97194776 140 88 C141.78493023 89.07596495 143.56791507 90.15495628 145.34838867 91.23828125 C147.05982326 92.27309123 148.78362037 93.2873704 150.5078125 94.30078125 C151.33023438 94.86152344 152.15265625 95.42226562 153 96 C153 96.66 153 97.32 153 98 C155.97 98.99 155.97 98.99 159 100 C158.5020163 103.73487777 158.12508244 105.81237635 156 109 C148.64785632 107.47379104 141.49215062 105.50757946 134.3125 103.3125 C133.21099609 102.99861328 132.10949219 102.68472656 130.97460938 102.36132812 C124.37120808 100.32491409 119.48506493 98.23984287 116 92 C116 91.34 116 90.68 116 90 C115.34 90 114.68 90 114 90 C113.34964629 92.51974253 112.70462507 95.04065935 112.0625 97.5625 C111.88009766 98.26697266 111.69769531 98.97144531 111.50976562 99.69726562 C111.33251953 100.39658203 111.15527344 101.09589844 110.97265625 101.81640625 C110.81031494 102.45006104 110.64797363 103.08371582 110.48071289 103.73657227 C110.24276001 104.85696899 110.24276001 104.85696899 110 106 C109.71318359 107.07523926 109.42636719 108.15047852 109.13085938 109.25830078 C108.94886509 114.46211487 110.95606919 116.94233011 113.93359375 121.05078125 C114.44551773 121.7907988 114.95744171 122.53081635 115.48487854 123.29325867 C117.11759193 125.64632108 118.77615233 127.97958976 120.4375 130.3125 C122.08986854 132.66661518 123.73668208 135.02444801 125.37940979 137.38529968 C126.40206151 138.85130965 127.43131287 140.31274159 128.46763611 141.76911926 C132 146.78126396 132 146.78126396 132 149 C130.68 149.33 129.36 149.66 128 150 C128.76471362 153.14735248 129.53791777 156.292563 130.3125 159.4375 C130.52583984 160.31599609 130.73917969 161.19449219 130.95898438 162.09960938 C132.20355225 167.13360781 133.63860015 172.02746303 135.32397461 176.93041992 C136.29131058 179.89181647 136.96644813 182.8944114 137.625 185.9375 C138.4694598 190.0905692 138.4694598 190.0905692 140 194 C140.039992 195.99960012 140.04346799 198.00047242 140 200 C138.11157486 200.87042243 136.21388098 201.72075474 134.3125 202.5625 C133.25675781 203.03816406 132.20101562 203.51382813 131.11328125 204.00390625 C127.83366107 205.05322011 126.24104461 205.00418265 123 204 C122.82984375 203.47792969 122.6596875 202.95585937 122.484375 202.41796875 C121.10575427 198.23077494 119.67216249 194.07279504 118.14453125 189.9375 C115.95395301 183.93483175 113.93490958 177.88170022 111.9375 171.8125 C109.74636025 165.15560875 107.49900587 158.5478403 105 152 C104.67 151.01 104.34 150.02 104 149 C99.05 149 94.1 149 89 149 C88.67 150.98 88.34 152.96 88 155 C87.13889797 157.35440555 86.21703654 159.68708786 85.25 162 C83.17906674 167.02265119 81.23126253 172.05676972 79.4375 177.1875 C77.55859639 182.53006938 75.48468044 187.74615648 73.26953125 192.95703125 C71.0583058 198.25716857 69.03527408 203.63034071 67 209 C63.07545517 208.45702445 60.7766851 207.39837626 57.6875 204.9375 C56.99011719 204.38964844 56.29273438 203.84179688 55.57421875 203.27734375 C55.05472656 202.85582031 54.53523438 202.43429687 54 202 C54.60032914 196.61502516 55.48166858 191.40572088 56.7421875 186.1328125 C56.91122589 185.41318329 57.08026428 184.69355408 57.25442505 183.95211792 C57.61046944 182.44074624 57.96855786 180.92985474 58.32861328 179.41943359 C58.8716784 177.13894833 59.40702864 174.85675346 59.94140625 172.57421875 C61.73418295 164.96844287 63.64329269 157.45549546 66 150 C60.72 150 55.44 150 50 150 C50.73918649 145.56488104 51.3658428 142.6736107 53.0390625 138.69140625 C53.4510791 137.70462891 53.8630957 136.71785156 54.28759766 135.70117188 C54.72894043 134.66541016 55.1702832 133.62964844 55.625 132.5625 C56.3044165 130.9527832 56.3044165 130.9527832 56.99755859 129.31054688 C61.09631502 119.65718364 65.38284847 110.13229284 70.13671875 100.78125 C70.67981689 99.71003906 70.67981689 99.71003906 71.23388672 98.6171875 C71.92814756 97.25443738 72.62852416 95.89477681 73.33642578 94.5390625 C76.20354521 88.94128402 78.04342024 83.36294743 78.625 77.0625 C78.810625 75.0515625 78.810625 75.0515625 79 73 C73.555 73.99 73.555 73.99 68 75 C67.91435791 76.01425049 67.82871582 77.02850098 67.74047852 78.07348633 C67.42175677 81.83650388 67.09820541 85.59909322 66.77319336 89.36157227 C66.63320255 90.99004015 66.49452167 92.6186212 66.35717773 94.24731445 C66.15953354 96.58836355 65.95718176 98.92896524 65.75390625 101.26953125 C65.6934462 101.99775589 65.63298615 102.72598053 65.57069397 103.47627258 C65.30454572 106.49541206 64.96272964 109.11181107 64 112 C59.545 112.495 59.545 112.495 55 113 C55 103.43 55 93.86 55 84 C47.504792 81.7514152 47.504792 81.7514152 40 79.53515625 C15.14209195 72.24685866 15.14209195 72.24685866 9 64 C8.00847086 62.99160029 7.00948948 61.99041961 6 61 C4.7919445 65.03581016 3.61225089 69.0793817 2.4375 73.125 C2.09525391 74.26710938 1.75300781 75.40921875 1.40039062 76.5859375 C1.08134766 77.69453125 0.76230469 78.803125 0.43359375 79.9453125 C0.13509521 80.96125488 -0.16340332 81.97719727 -0.47094727 83.02392578 C-1.41986365 88.36185411 -0.20223243 92.22017086 2.6875 96.6875 C5.40050384 101.01155125 7.88968473 105.39590112 10.28491211 109.90307617 C11.4234927 111.95900426 12.61922005 113.98435138 13.87060547 115.97363281 C19.70929341 125.41777125 22.60189917 134.7747561 25.25 145.5 C25.65953306 147.10075421 26.07098612 148.70101846 26.484375 150.30078125 C27.0910571 152.65156125 27.69588387 155.00267077 28.29217529 157.35610962 C29.79175845 163.26979473 31.43505909 169.12940308 33.13378906 174.98925781 C34.24478595 178.85081746 35.27362943 182.72752076 36.25 186.625 C36.42273438 187.29144531 36.59546875 187.95789063 36.7734375 188.64453125 C37.59553451 191.91334555 38 194.59736222 38 198 C36.00480701 198.82423369 34.00355326 199.63380193 32 200.4375 C30.88625 200.88996094 29.7725 201.34242188 28.625 201.80859375 C24.65677204 203.1128066 21.14074728 203.53304073 17 204 C15.11515359 198.49086543 13.23125254 192.98140872 11.34814453 187.47167969 C10.71036951 185.60603574 10.07235728 183.74047287 9.43408203 181.875 C-0.53404866 152.73980227 -0.53404866 152.73980227 -4.07397461 141.62915039 C-5.06522526 138.81481392 -6.17433009 137.24151457 -8.1875 135.0625 C-9.10789062 134.05509766 -9.10789062 134.05509766 -10.046875 133.02734375 C-12.542893 130.43647707 -15.10018678 127.916307 -17.71484375 125.4453125 C-19 124 -19 124 -19 122 C-19.66 122 -20.32 122 -21 122 C-21.25265625 123.28777344 -21.5053125 124.57554687 -21.765625 125.90234375 C-22.90851871 131.03433751 -24.72536467 135.7225801 -26.75 140.5625 C-27.47278388 142.32754021 -28.19412137 144.09317336 -28.9140625 145.859375 C-29.26887695 146.72755859 -29.62369141 147.59574219 -29.98925781 148.49023438 C-31.4325875 152.07415448 -32.78689896 155.68823239 -34.125 159.3125 C-36.02626423 164.45034093 -38.00438605 169.54796889 -40.0625 174.625 C-42.48179321 180.61954115 -44.69261869 186.66525659 -46.83984375 192.76171875 C-48.94425552 198.63564925 -51.14734116 204.44548368 -54 210 C-66.56097561 202.68292683 -66.56097561 202.68292683 -69 200 C-69.42635862 194.43615242 -68.41083414 189.53376104 -67.1015625 184.1796875 C-66.90654144 183.35800079 -66.71152039 182.53631409 -66.5105896 181.68972778 C-66.09900042 179.96267014 -65.68362221 178.23651153 -65.26464844 176.51123047 C-64.62574038 173.87805137 -63.99942998 171.24211451 -63.375 168.60546875 C-62.97209077 166.92169857 -62.56846914 165.23809866 -62.1640625 163.5546875 C-61.97752106 162.77124969 -61.79097961 161.98781189 -61.5987854 161.18063354 C-60.65270132 157.30341937 -59.55357141 153.68755608 -58 150 C-57.68285183 148.27872574 -57.41537431 146.5478505 -57.1875 144.8125 C-56.35550368 139.44414277 -55.05758735 134.33608598 -53.5625 129.125 C-48.92460644 113.44951117 -48.92460644 113.44951117 -48.6640625 97.2578125 C-49.81435171 86.10268222 -49.21570169 74.98217358 -47 64 C-46.78214844 62.90945312 -46.56429687 61.81890625 -46.33984375 60.6953125 C-44.79727655 53.53038289 -42.64249038 46.83402685 -40 40 C-45.94 40.495 -45.94 40.495 -52 41 C-52.13277344 42.89105469 -52.26554687 44.78210938 -52.40234375 46.73046875 C-52.58056296 49.21615776 -52.75895752 51.70183419 -52.9375 54.1875 C-53.06801758 56.05631836 -53.06801758 56.05631836 -53.20117188 57.96289062 C-53.33168945 59.7659668 -53.33168945 59.7659668 -53.46484375 61.60546875 C-53.543396 62.71043701 -53.62194824 63.81540527 -53.70288086 64.95385742 C-53.97084898 67.70113616 -54.43498722 70.30200725 -55 73 C-55.21698487 75.43505237 -55.40290745 77.87301384 -55.5625 80.3125 C-55.64628906 81.56675781 -55.73007813 82.82101563 -55.81640625 84.11328125 C-55.87699219 85.06589844 -55.93757812 86.01851563 -56 87 C-60.15944744 88.30492469 -63.65036909 89.12019705 -68 89 C-68.23236097 81.55933818 -68.4097024 74.11946563 -68.51812172 66.67590237 C-68.57017916 63.21874241 -68.64068229 59.76407473 -68.75439453 56.30834961 C-68.88448873 52.32957517 -68.93247153 48.35178631 -68.9765625 44.37109375 C-69.05398178 42.52226845 -69.05398178 42.52226845 -69.13296509 40.63609314 C-69.13844118 32.22105812 -69.13844118 32.22105812 -65.77752686 28.61624146 C-59.36007 24 -59.36007 24 -56 24 C-56 23.34 -56 22.68 -56 22 C-53.9375 20.58984375 -53.9375 20.58984375 -51 18.9375 C-49.90558594 18.32003906 -48.81117188 17.70257813 -47.68359375 17.06640625 C-46.79003174 16.56778076 -46.79003174 16.56778076 -45.87841797 16.05908203 C-43.93857747 14.965369 -42.01752769 13.84320175 -40.09765625 12.71484375 C-14.19114903 -2.38284219 -14.19114903 -2.38284219 0 0 Z " fill="#040401" transform="translate(209,147)"/>
<path d="M0 0 C5.07779099 3.42455672 8.49529535 7.0435404 10.6875 12.8125 C11.49021788 18.8902211 9.77915828 23.64973083 6.6875 28.8125 C2.12542786 33.26052034 -1.83242267 35.1066466 -8.1875 35.1875 C-13.40269621 35.09867671 -16.33347391 34.39362348 -20.3125 30.8125 C-21.055 30.19375 -21.7975 29.575 -22.5625 28.9375 C-26.15207235 24.57873357 -26.82518685 19.62219994 -26.6953125 14.12109375 C-25.80809651 8.77063814 -22.56203677 4.97278414 -18.6875 1.375 C-13.08478161 -2.31099894 -6.17963822 -2.215342 0 0 Z " fill="#060501" transform="translate(224.3125,108.1875)"/>
<path d="M0 0 C4.20074145 4.65487566 5.36023452 7.53267407 5.28125 13.68359375 C4.71980097 18.30775033 1.87306063 20.99465745 -1.0625 24.375 C-5.61088531 26.89112804 -9.92271886 26.72957999 -15 26 C-19.20985682 24.07971443 -20.57301712 23.00923225 -22.375 18.75 C-22.58125 17.8425 -22.7875 16.935 -23 16 C-24.0725 16.66 -25.145 17.32 -26.25 18 C-29.30980686 19.88295807 -30.1335864 20 -34 20 C-35.484375 18.3203125 -35.484375 18.3203125 -36.75 16.125 C-37.17796875 15.40570313 -37.6059375 14.68640625 -38.046875 13.9453125 C-39 12 -39 12 -39 10 C-37.44539063 9.77957031 -37.44539063 9.77957031 -35.859375 9.5546875 C-34.48935998 9.32947955 -33.11957954 9.10284133 -31.75 8.875 C-31.06808594 8.7821875 -30.38617188 8.689375 -29.68359375 8.59375 C-25.66136727 7.89083663 -24.18545257 7.23302782 -21.609375 3.99609375 C-21.07828125 3.00738281 -20.5471875 2.01867187 -20 1 C-14.87883158 -5.1880785 -6.24480472 -4.02442971 0 0 Z " fill="#090801" transform="translate(332,159)"/>
<path d="M0 0 C0.74250313 11.32317268 -3.81161472 19.77736624 -8.875 29.6640625 C-13.19591185 38.31007313 -16.90832991 47.26205693 -20.75341797 56.12646484 C-21.83240101 58.61366233 -22.91690082 61.09833384 -24.00390625 63.58203125 C-24.54474142 64.82531623 -25.08515499 66.06878476 -25.625 67.3125 C-26.07101562 68.33988281 -26.51703125 69.36726563 -26.9765625 70.42578125 C-28.14189789 73.19065247 -28.14189789 73.19065247 -29 77 C-23.72 77 -18.44 77 -13 77 C-16.14285714 91.85714286 -16.14285714 91.85714286 -18 99 C-18.33 99 -18.66 99 -19 99 C-19.2358396 93.22192976 -18.86783046 88.48675196 -17 83 C-16.34 83 -15.68 83 -15 83 C-15 81.68 -15 80.36 -15 79 C-16.60681641 79.01740234 -16.60681641 79.01740234 -18.24609375 79.03515625 C-19.64322743 79.04453299 -21.04036299 79.05363331 -22.4375 79.0625 C-23.14455078 79.07087891 -23.85160156 79.07925781 -24.58007812 79.08789062 C-26.38693559 79.09653588 -28.19387603 79.05220011 -30 79 C-31 78 -31 78 -31.1328125 76.00390625 C-31.13023437 75.19824219 -31.12765625 74.39257812 -31.125 73.5625 C-31.12757813 72.75941406 -31.13015625 71.95632813 -31.1328125 71.12890625 C-31 69 -31 69 -30 67 C-29.01 67 -28.02 67 -27 67 C-27 65.68 -27 64.36 -27 63 C-26.34 63 -25.68 63 -25 63 C-25 61.35 -25 59.7 -25 58 C-24.34 58 -23.68 58 -23 58 C-23 56.68 -23 55.36 -23 54 C-22.34 54 -21.68 54 -21 54 C-21.061875 52.700625 -21.061875 52.700625 -21.125 51.375 C-20.99542279 47.87641532 -20.23980344 45.25448403 -19 42 C-20.65 41.67 -22.3 41.34 -24 41 C-20.53785351 38.94835763 -19.40610765 39 -15 39 C-14.01 26.79 -13.02 14.58 -12 2 C-7.14786828 0.38262276 -4.81798756 -0.22942798 0 0 Z " fill="#FBFB07" transform="translate(288,220)"/>
<path d="M0 0 C-1.43793123 4.88488694 -2.89601487 9.75009906 -4.5625 14.5625 C-10.21615225 31.43465592 -9.89005986 49.48319523 -8 67 C-9.97446663 63.18269785 -11.12829651 60.08980726 -11.09765625 55.76953125 C-11.09282227 54.56586914 -11.09282227 54.56586914 -11.08789062 53.33789062 C-11.07951172 52.50451172 -11.07113281 51.67113281 -11.0625 50.8125 C-11.05798828 49.96751953 -11.05347656 49.12253906 -11.04882812 48.25195312 C-11.03705403 46.16793845 -11.0191189 44.08396023 -11 42 C-11.66 42 -12.32 42 -13 42 C-13.66 43.98 -14.32 45.96 -15 48 C-15.66 48 -16.32 48 -17 48 C-17.02714735 45.77090129 -17.04646254 43.54170633 -17.0625 41.3125 C-17.07990234 39.45044922 -17.07990234 39.45044922 -17.09765625 37.55078125 C-17.01370661 34.49837221 -16.60819409 31.96835026 -16 29 C-15.82567345 26.26888401 -15.68062946 23.54579204 -15.5625 20.8125 C-15.24325933 14.39252187 -14.58210467 8.25161748 -13 2 C-8.47580359 0.77309928 -4.70776045 -0.13191623 0 0 Z " fill="#EFF012" transform="translate(170,186)"/>
<path d="M0 0 C0.33 0 0.66 0 1 0 C3.25733537 8.5778744 -0.05841146 14.15909078 -3.875 21.69580078 C-6.03574832 26.12139597 -7.9426704 30.6587243 -9.875 35.1875 C-10.26800293 36.09661133 -10.66100586 37.00572266 -11.06591797 37.94238281 C-11.43346191 38.80057617 -11.80100586 39.65876953 -12.1796875 40.54296875 C-12.50694824 41.30633545 -12.83420898 42.06970215 -13.17138672 42.85620117 C-14.15484005 45.26934799 -14.15484005 45.26934799 -15 49 C-9.72 49 -4.44 49 1 49 C-2.14285714 63.85714286 -2.14285714 63.85714286 -4 71 C-4.33 71 -4.66 71 -5 71 C-5.2358396 65.22192976 -4.86783046 60.48675196 -3 55 C-2.34 55 -1.68 55 -1 55 C-1 53.68 -1 52.36 -1 51 C-2.60681641 51.01740234 -2.60681641 51.01740234 -4.24609375 51.03515625 C-5.64322743 51.04453299 -7.04036299 51.05363331 -8.4375 51.0625 C-9.14455078 51.07087891 -9.85160156 51.07925781 -10.58007812 51.08789062 C-12.38693559 51.09653588 -14.19387603 51.05220011 -16 51 C-17 50 -17 50 -17.1328125 48.00390625 C-17.13023437 47.19824219 -17.12765625 46.39257812 -17.125 45.5625 C-17.12757813 44.75941406 -17.13015625 43.95632813 -17.1328125 43.12890625 C-17 41 -17 41 -16 39 C-15.01 39 -14.02 39 -13 39 C-13 37.68 -13 36.36 -13 35 C-12.34 35 -11.68 35 -11 35 C-11 33.35 -11 31.7 -11 30 C-10.34 30 -9.68 30 -9 30 C-9 28.68 -9 27.36 -9 26 C-8.34 26 -7.68 26 -7 26 C-7.061875 24.700625 -7.061875 24.700625 -7.125 23.375 C-6.99542279 19.87641532 -6.23980344 17.25448403 -5 14 C-6.65 13.67 -8.3 13.34 -10 13 C-6.53785351 10.94835763 -5.40610765 11 -1 11 C-0.67 7.37 -0.34 3.74 0 0 Z " fill="#EEF019" transform="translate(274,248)"/>
<path d="M0 0 C0.33 1.32 0.66 2.64 1 4 C0.01 4.33 -0.98 4.66 -2 5 C-2.73323796 7.01508358 -2.73323796 7.01508358 -3 9 C-3.66 9 -4.32 9 -5 9 C-5.33 9.66 -5.66 10.32 -6 11 C-6.61875 11.268125 -7.2375 11.53625 -7.875 11.8125 C-10.71069752 13.3971545 -11.61641813 15.09447807 -13 18 C-13 19.32 -13 20.64 -13 22 C-13.61875 22.28875 -14.2375 22.5775 -14.875 22.875 C-17.13325765 23.93720042 -17.13325765 23.93720042 -19 26 C-19.16677282 29.58343976 -19.16677282 29.58343976 -19 33 C-18.34 33 -17.68 33 -17 33 C-17.33 33.99 -17.66 34.98 -18 36 C-20.790071 33.12273928 -21.93351879 31.5318497 -22.4375 27.5 C-21.71120633 21.68965068 -18.62419464 18.37420545 -14.55078125 14.35546875 C-13.27944336 13.09379883 -13.27944336 13.09379883 -11.98242188 11.80664062 C-11.10134766 10.94232422 -10.22027344 10.07800781 -9.3125 9.1875 C-8.41982422 8.30384766 -7.52714844 7.42019531 -6.60742188 6.50976562 C-4.40940071 4.33525271 -2.2068407 2.16555573 0 0 Z " fill="#ECEF1A" transform="translate(44,223)"/>
<path d="M0 0 C0 4.07546013 -1.55304448 5.80536362 -4 9 C-6.25 10.375 -6.25 10.375 -8 11 C-8 11.66 -8 12.32 -8 13 C-8.66 13 -9.32 13 -10 13 C-10.226875 13.53625 -10.45375 14.0725 -10.6875 14.625 C-11.86248478 16.75116293 -13.03384262 18.25498127 -14.625 20.0625 C-17.31436107 22.75923113 -17.31436107 22.75923113 -17 26 C-21.1077065 27.58706842 -22.59232396 28.10191901 -27 27 C-18.09 18.09 -9.18 9.18 0 0 Z " fill="#EDF11D" transform="translate(171,96)"/>
<path d="M0 0 C8.55987018 2.14870211 16.72122313 4.96718075 25 8 C25 17.57 25 27.14 25 37 C24.34 37 23.68 37 23 37 C22.505 23.14 22.505 23.14 22 9 C18.37 8.01 14.74 7.02 11 6 C10.67 5.67 10.34 5.34 10 5 C7.67182036 4.63239269 5.3381615 4.29758419 3 4 C3 3.34 3 2.68 3 2 C1.68 1.67 0.36 1.34 -1 1 C-0.67 0.67 -0.34 0.34 0 0 Z " fill="#DEDF14" transform="translate(239,223)"/>
<path d="M0 0 C0 4.54314721 0 4.54314721 -2 7 C-4.83548379 7.81553615 -7.69141961 8.02140932 -10.625 8.25 C-11.42679688 8.32734375 -12.22859375 8.4046875 -13.0546875 8.484375 C-15.03493711 8.6729702 -17.01734285 8.8386703 -19 9 C-18.34 10.32 -17.68 11.64 -17 13 C-17.53109375 12.68289062 -18.0621875 12.36578125 -18.609375 12.0390625 C-21.54535848 10.7629651 -24.06174329 10.58292979 -27.25 10.375 C-28.32765625 10.30023438 -29.4053125 10.22546875 -30.515625 10.1484375 C-31.74539062 10.07496094 -31.74539062 10.07496094 -33 10 C-32.67 9.34 -32.34 8.68 -32 8 C-29.15649404 7.60406879 -26.3351283 7.49150146 -23.46875 7.34375 C-22.6540625 7.2303125 -21.839375 7.116875 -21 7 C-20.67 6.34 -20.34 5.68 -20 5 C-19.2265625 5.05800781 -18.453125 5.11601562 -17.65625 5.17578125 C-10.26817434 5.49580928 -5.75808621 4.74195335 0 0 Z " fill="#EEED23" transform="translate(230,137)"/>
<path d="M0 0 C0.66 0.33 1.32 0.66 2 1 C1.02688873 1.81975311 1.02688873 1.81975311 0.03411865 2.65606689 C-2.44253525 5.50993732 -2.51170796 6.77616804 -2.54589844 10.50292969 C-2.56561707 11.60376892 -2.58533569 12.70460815 -2.60565186 13.83880615 C-2.60688049 15.02121887 -2.60810913 16.20363159 -2.609375 17.421875 C-2.62591125 18.63699768 -2.64244751 19.85212036 -2.65948486 21.10406494 C-2.70807963 24.98609413 -2.7293624 28.86773123 -2.75 32.75 C-2.7781499 35.38153026 -2.80807593 38.01304217 -2.83984375 40.64453125 C-2.91384196 47.09628272 -2.96541722 53.5479234 -3 60 C-1.68 60.33 -0.36 60.66 1 61 C-0.65 61 -2.3 61 -4 61 C-4.09265712 53.48967858 -4.16374292 45.97941636 -4.20724869 38.46865368 C-4.228129 34.98109444 -4.25645318 31.49392606 -4.30175781 28.0065918 C-4.35351062 23.99784583 -4.37294136 19.98951078 -4.390625 15.98046875 C-4.41127014 14.72727341 -4.43191528 13.47407806 -4.45318604 12.1829071 C-4.45348816 11.02193008 -4.45379028 9.86095306 -4.45410156 8.66479492 C-4.46298401 7.64109299 -4.47186646 6.61739105 -4.48101807 5.56266785 C-4 3 -4 3 -1.97161865 1.14595032 C-1.3209845 0.76778671 -0.67035034 0.38962311 0 0 Z " fill="#161500" transform="translate(145,175)"/>
<path d="M0 0 C-6.27 6.27 -12.54 12.54 -19 19 C-19.33 17.68 -19.66 16.36 -20 15 C-19.34 15 -18.68 15 -18 15 C-18 14.34 -18 13.68 -18 13 C-17.34 13 -16.68 13 -16 13 C-16 12.34 -16 11.68 -16 11 C-15.01 11 -14.02 11 -13 11 C-13.33 10.01 -13.66 9.02 -14 8 C-12.68 7.67 -11.36 7.34 -10 7 C-10 6.34 -10 5.68 -10 5 C-9.34 5 -8.68 5 -8 5 C-8 4.34 -8 3.68 -8 3 C-7.34 3 -6.68 3 -6 3 C-6 2.01 -6 1.02 -6 0 C-4 -1 -4 -1 0 0 Z " fill="#F1F21B" transform="translate(359,374)"/>
<path d="M0 0 C0.33 0.66 0.66 1.32 1 2 C6.28 2 11.56 2 17 2 C13.85714286 16.85714286 13.85714286 16.85714286 12 24 C11.67 24 11.34 24 11 24 C10.7641604 18.22192976 11.13216954 13.48675196 13 8 C13.66 8 14.32 8 15 8 C15 6.68 15 5.36 15 4 C10.05 4 5.1 4 0 4 C0 2.68 0 1.36 0 0 Z " fill="#D5D724" transform="translate(258,295)"/>
<path d="M0 0 C1.32 0.66 2.64 1.32 4 2 C-0.95 6.95 -5.9 11.9 -11 17 C-11.66 15.68 -12.32 14.36 -13 13 C-8.375 8.125 -8.375 8.125 -5 7 C-3.79117904 4.99983534 -3.79117904 4.99983534 -3 3 C-2.01 3 -1.02 3 0 3 C0 2.01 0 1.02 0 0 Z " fill="#F3F416" transform="translate(373,354)"/>
<path d="M0 0 C1.65 1.65 3.3 3.3 5 5 C4.01 5.33 3.02 5.66 2 6 C2 5.34 2 4.68 2 4 C1.34 4 0.68 4 0 4 C0.12375 5.175625 0.12375 5.175625 0.25 6.375 C0.01425536 9.79329732 -0.53837753 11.55571878 -1.875 14.625 C-4.3036151 20.27454434 -5.20746949 25.93088479 -6 32 C-8 29 -8 29 -7.93359375 27.15234375 C-2.38636364 2.38636364 -2.38636364 2.38636364 0 0 Z " fill="#DFDF24" transform="translate(215,207)"/>
<path d="M0 0 C0.33 0.99 0.66 1.98 1 3 C-0.07421875 4.7890625 -0.07421875 4.7890625 -1.6875 6.625 C-2.20699219 7.23601562 -2.72648437 7.84703125 -3.26171875 8.4765625 C-5.181038 10.15866252 -6.50835704 10.59829721 -9 11 C-9.103125 11.639375 -9.20625 12.27875 -9.3125 12.9375 C-9.539375 13.618125 -9.76625 14.29875 -10 15 C-10.99 15.33 -11.98 15.66 -13 16 C-13 16.66 -13 17.32 -13 18 C-14.65 18.33 -16.3 18.66 -18 19 C-12.44964797 12.21623641 -6.23557973 6.14477032 0 0 Z " fill="#E5EB26" transform="translate(126,141)"/>
<path d="M0 0 C0.72445312 0.09796875 1.44890625 0.1959375 2.1953125 0.296875 C3.79881325 0.5175998 5.39980075 0.75649142 7 1 C8 4 8 4 8 7 C8.66 7.33 9.32 7.66 10 8 C9.01 8 8.02 8 7 8 C7 7.34 7 6.68 7 6 C5.67661368 5.31379969 4.34050052 4.65213539 3 4 C2.29875 3.62875 1.5975 3.2575 0.875 2.875 C-6.23194584 0.71201648 -12.51096722 1.61441768 -19 5 C-19 4.34 -19 3.68 -19 3 C-18.34 3 -17.68 3 -17 3 C-17 2.34 -17 1.68 -17 1 C-10.9903044 -1.22097446 -6.28199777 -0.9232329 0 0 Z " fill="#E7E924" transform="translate(223,106)"/>
<path d="M0 0 C0.66 0.33 1.32 0.66 2 1 C-1.63 9.58 -5.26 18.16 -9 27 C-9.33 27 -9.66 27 -10 27 C-10.0270043 25.54176788 -10.04639787 24.08339325 -10.0625 22.625 C-10.07410156 21.81289063 -10.08570313 21.00078125 -10.09765625 20.1640625 C-10 18 -10 18 -9 16 C-8.01 16 -7.02 16 -6 16 C-6 14.68 -6 13.36 -6 12 C-5.34 12 -4.68 12 -4 12 C-4 10.35 -4 8.7 -4 7 C-3.34 7 -2.68 7 -2 7 C-2 5.68 -2 4.36 -2 3 C-1.34 3 -0.68 3 0 3 C0 2.01 0 1.02 0 0 Z " fill="#E5E823" transform="translate(267,271)"/>
<path d="M0 0 C3.3 0 6.6 0 10 0 C9.34 1.65 8.68 3.3 8 5 C7.01 5 6.02 5 5 5 C4.67 5.66 4.34 6.32 4 7 C3.38125 6.505 2.7625 6.01 2.125 5.5 C-2.26029741 3.39505724 -6.21713261 3.74924773 -11 4 C-10.67 3.34 -10.34 2.68 -10 2 C-6.7 2 -3.4 2 0 2 C0 1.34 0 0.68 0 0 Z " fill="#F5F513" transform="translate(318,185)"/>
<path d="M0 0 C1.32 0.33 2.64 0.66 4 1 C-0.29 5.29 -4.58 9.58 -9 14 C-9.33 12.68 -9.66 11.36 -10 10 C-9.34 10 -8.68 10 -8 10 C-8 9.34 -8 8.68 -8 8 C-7.34 8 -6.68 8 -6 8 C-5.938125 7.21625 -5.87625 6.4325 -5.8125 5.625 C-5.544375 4.75875 -5.27625 3.8925 -5 3 C-2.4375 1.6875 -2.4375 1.6875 0 1 C0 0.67 0 0.34 0 0 Z " fill="#F1F21A" transform="translate(271,457)"/>
<path d="M0 0 C4.13621084 3.3810038 7.81316569 6.66590534 11 11 C9.02 11 7.04 11 5 11 C5 10.01 5 9.02 5 8 C3.68 8.33 2.36 8.66 1 9 C1 7.68 1 6.36 1 5 C0.34 5 -0.32 5 -1 5 C-0.67 3.35 -0.34 1.7 0 0 Z " fill="#F5F812" transform="translate(391,159)"/>
<path d="M0 0 C0 3.52707529 -0.05453046 5.9112775 -2.41796875 8.6328125 C-6.12724072 11.76071955 -9.18216297 13.8249178 -14 15 C-9.59156563 9.70987876 -4.92440206 4.81191572 0 0 Z " fill="#EEF21B" transform="translate(190,77)"/>
<path d="M0 0 C-3.02040272 2.01360181 -5.73053111 3.11511439 -9.125 4.375 C-14.50766574 6.40630835 -19.77906669 8.58514971 -25 11 C-25 10.34 -25 9.68 -25 9 C-22.09451118 6.95830515 -20.59857954 6 -17 6 C-17 5.34 -17 4.68 -17 4 C-15.68 4 -14.36 4 -13 4 C-12.67 3.34 -12.34 2.68 -12 2 C-11.34 2.33 -10.68 2.66 -10 3 C-10 2.01 -10 1.02 -10 0 C-6.30581799 -1.231394 -3.7943739 -0.64432764 0 0 Z " fill="#ECEE22" transform="translate(197,147)"/>
<path d="M0 0 C7.48291572 6.15034169 7.48291572 6.15034169 10 10 C8.35 10.33 6.7 10.66 5 11 C5.33 9.68 5.66 8.36 6 7 C5.34 7 4.68 7 4 7 C4 7.66 4 8.32 4 9 C3.01 9 2.02 9 1 9 C1 7.68 1 6.36 1 5 C0.34 5 -0.32 5 -1 5 C-0.67 3.35 -0.34 1.7 0 0 Z " fill="#F6F814" transform="translate(455,223)"/>
<path d="M0 0 C1.65 0.33 3.3 0.66 5 1 C0.88380164 5.91935902 -3.40410362 10.52647956 -8 15 C-8.33 13.68 -8.66 12.36 -9 11 C-7.68 10.34 -6.36 9.68 -5 9 C-5 8.34 -5 7.68 -5 7 C-4.34 7 -3.68 7 -3 7 C-3 6.34 -3 5.68 -3 5 C-2.01 5 -1.02 5 0 5 C0 3.35 0 1.7 0 0 Z " fill="#F0F11C" transform="translate(298,428)"/>
<path d="M0 0 C0.33 0 0.66 0 1 0 C2.13764351 4.26616316 3 7.56486311 3 12 C0.8765984 12.83739781 -1.2487728 13.66980283 -3.375 14.5 C-4.55835938 14.9640625 -5.74171875 15.428125 -6.9609375 15.90625 C-10 17 -10 17 -12 17 C-12 16.34 -12 15.68 -12 15 C-10.5459375 14.814375 -10.5459375 14.814375 -9.0625 14.625 C-8.051875 14.41875 -7.04125 14.2125 -6 14 C-5.67 13.34 -5.34 12.68 -5 12 C-3.68 12 -2.36 12 -1 12 C-0.67 8.04 -0.34 4.08 0 0 Z " fill="#262100" transform="translate(244,333)"/>
<path d="M0 0 C2.0625 0.4375 2.0625 0.4375 4 1 C3.01 1.495 3.01 1.495 2 2 C0.6271604 6.60946805 0.66745093 11.53630614 0.4375 16.3125 C0.39431641 17.14845703 0.35113281 17.98441406 0.30664062 18.84570312 C0.20114693 20.89696935 0.10012685 22.9484648 0 25 C-2 23 -2 23 -2.15112305 20.76928711 C-2.10511963 19.8644458 -2.05911621 18.95960449 -2.01171875 18.02734375 C-1.96466797 17.04572266 -1.91761719 16.06410156 -1.86914062 15.05273438 C-1.80919922 14.02470703 -1.74925781 12.99667969 -1.6875 11.9375 C-1.63916016 10.90560547 -1.59082031 9.87371094 -1.54101562 8.81054688 C-1.1427542 1.1427542 -1.1427542 1.1427542 0 0 Z " fill="#DEE326" transform="translate(277,221)"/>
<path d="M0 0 C-0.99 1.485 -0.99 1.485 -2 3 C-2 3.99 -2 4.98 -2 6 C-5.83887763 7.48320272 -8.06204091 8.22419163 -12 7 C-3.58823529 -1.79411765 -3.58823529 -1.79411765 0 0 Z " fill="#FCFC08" transform="translate(156,116)"/>
<path d="M0 0 C0.66 0 1.32 0 2 0 C2 0.66 2 1.32 2 2 C3.32 2.33 4.64 2.66 6 3 C6 4.98 6 6.96 6 9 C6.66 9 7.32 9 8 9 C8.72482748 10.76414623 9.42939296 12.53662904 10.125 14.3125 C10.51945313 15.29863281 10.91390625 16.28476563 11.3203125 17.30078125 C11.54460937 18.19152344 11.76890625 19.08226562 12 20 C11.34 20.99 10.68 21.98 10 23 C9.67128906 21.89205078 9.67128906 21.89205078 9.3359375 20.76171875 C7.00428241 13.30231813 3.97117924 6.72453017 0 0 Z " fill="#E8EA1E" transform="translate(217,154)"/>
<path d="M0 0 C7.78121942 2.02189166 15.39772708 4.38630407 23 7 C22.67 7.66 22.34 8.32 22 9 C20.18641846 8.52494322 18.37415821 8.04483958 16.5625 7.5625 C15.55316406 7.29566406 14.54382813 7.02882812 13.50390625 6.75390625 C11 6 11 6 10 5 C7.67182036 4.63239269 5.3381615 4.29758419 3 4 C3 3.34 3 2.68 3 2 C1.68 1.67 0.36 1.34 -1 1 C-0.67 0.67 -0.34 0.34 0 0 Z " fill="#E5E523" transform="translate(239,223)"/>
<path d="M0 0 C7.48291572 6.15034169 7.48291572 6.15034169 10 10 C8.35 10.33 6.7 10.66 5 11 C5 10.34 5 9.68 5 9 C3.68 8.34 2.36 7.68 1 7 C1 6.34 1 5.68 1 5 C0.34 5 -0.32 5 -1 5 C-0.67 3.35 -0.34 1.7 0 0 Z " fill="#F1F416" transform="translate(375,143)"/>
<path d="M0 0 C0.69140625 1.7734375 0.69140625 1.7734375 1 4 C-2.14942758 8.76942068 -6.42195649 11.77555142 -12 13 C-8.19524578 8.43969176 -4.25030379 4.14910608 0 0 Z " fill="#EDF11C" transform="translate(203,64)"/>
<path d="M0 0 C0.66 0 1.32 0 2 0 C2 0.99 2 1.98 2 3 C1.01 3.66 0.02 4.32 -1 5 C-0.835 5.66 -0.67 6.32 -0.5 7 C0.12183299 10.73099794 0.06408926 14.21873378 0 18 C-2.77579761 15.22420239 -2.86061387 12.69693063 -3.625 8.875 C-3.88539063 7.59367187 -4.14578125 6.31234375 -4.4140625 4.9921875 C-4.60742188 4.00476563 -4.80078125 3.01734375 -5 2 C-3.35 2 -1.7 2 0 2 C0 1.34 0 0.68 0 0 Z " fill="#ECED20" transform="translate(341,294)"/>
<path d="M0 0 C0 0.99 0 1.98 0 3 C0.99 2.67 1.98 2.34 3 2 C3 3.32 3 4.64 3 6 C3.99 6 4.98 6 6 6 C5.67 7.65 5.34 9.3 5 11 C-2.48291572 4.84965831 -2.48291572 4.84965831 -5 1 C-2 0 -2 0 0 0 Z " fill="#F2F518" transform="translate(52,278)"/>
<path d="M0 0 C0.99 0 1.98 0 3 0 C3 0.99 3 1.98 3 3 C5.64 3 8.28 3 11 3 C10.67 3.66 10.34 4.32 10 5 C8.07421875 5.484375 8.07421875 5.484375 5.6875 5.75 C4.90761719 5.84796875 4.12773437 5.9459375 3.32421875 6.046875 C0.69866432 5.99392264 -0.76473757 5.32990442 -3 4 C-2.01 3.67 -1.02 3.34 0 3 C0 2.01 0 1.02 0 0 Z " fill="#E9EC16" transform="translate(246,472)"/>
<path d="M0 0 C0.33 0 0.66 0 1 0 C0.85950482 1.47968324 0.71245174 2.95874516 0.5625 4.4375 C0.48128906 5.26121094 0.40007812 6.08492188 0.31640625 6.93359375 C0 9 0 9 -1 10 C-1.36760731 12.32817964 -1.70241581 14.6618385 -2 17 C-2.66 17 -3.32 17 -4 17 C-4 17.99 -4 18.98 -4 20 C-4.99 20 -5.98 20 -7 20 C-4.80962826 13.27954125 -2.44234339 6.63275997 0 0 Z " fill="#DDDE1F" transform="translate(173,308)"/>
<path d="M0 0 C1.12894876 0.93274109 2.25300876 1.87140122 3.375 2.8125 C4.00148438 3.33457031 4.62796875 3.85664063 5.2734375 4.39453125 C7 6 7 6 9 9 C6.36 9 3.72 9 1 9 C1 7.68 1 6.36 1 5 C0.34 5 -0.32 5 -1 5 C-0.67 3.35 -0.34 1.7 0 0 Z " fill="#F2F516" transform="translate(423,191)"/>
<path d="M0 0 C0 3 0 3 -1.16162109 4.48632812 C-1.69352051 4.99615234 -2.22541992 5.50597656 -2.7734375 6.03125 C-3.3509375 6.59457031 -3.9284375 7.15789062 -4.5234375 7.73828125 C-5.43996094 8.61033203 -5.43996094 8.61033203 -6.375 9.5 C-7.57249163 10.653993 -8.76788737 11.81016577 -9.9609375 12.96875 C-10.49509277 13.47857422 -11.02924805 13.98839844 -11.57958984 14.51367188 C-13.22510712 16.14934032 -13.22510712 16.14934032 -15 19 C-15.99 18.67 -16.98 18.34 -18 18 C-12.06 12.06 -6.12 6.12 0 0 Z " fill="#292500" transform="translate(335,397)"/>
<path d="M0 0 C4.95 0 9.9 0 15 0 C17.74522883 4.42778844 19.48474397 7.71862571 20 13 C19.34 12.67 18.68 12.34 18 12 C17.855625 11.38125 17.71125 10.7625 17.5625 10.125 C17.17191511 7.90474419 17.17191511 7.90474419 15.4375 6.5 C14 5 14 5 14 1 C9.38 1 4.76 1 0 1 C0 0.67 0 0.34 0 0 Z " fill="#D2D61C" transform="translate(298,296)"/>
<path d="M0 0 C7.48291572 6.15034169 7.48291572 6.15034169 10 10 C8.35 10.33 6.7 10.66 5 11 C5 10.01 5 9.02 5 8 C4.01 7.67 3.02 7.34 2 7 C2.33 6.01 2.66 5.02 3 4 C1.68 4.33 0.36 4.66 -1 5 C-0.67 3.35 -0.34 1.7 0 0 Z " fill="#F0F318" transform="translate(343,111)"/>
<path d="M0 0 C0 4.12527351 -1.49125936 5.76504496 -4 9 C-5.93102068 10.54010673 -7.86430538 11.73799864 -10 13 C-10.66 12.67 -11.32 12.34 -12 12 C-8.04 8.04 -4.08 4.08 0 0 Z " fill="#ECF020" transform="translate(107,160)"/>
<path d="M0 0 C4.62 0 9.24 0 14 0 C13.67 0.66 13.34 1.32 13 2 C10.69 1.67 8.38 1.34 6 1 C6 2.32 6 3.64 6 5 C3.69 4.67 1.38 4.34 -1 4 C-0.67 2.68 -0.34 1.36 0 0 Z " fill="#F7F911" transform="translate(298,297)"/>
<path d="M0 0 C1.10844919 3.32534757 0.84454356 5.62182575 0 9 C-1.65 8.67 -3.3 8.34 -5 8 C-5 7.34 -5 6.68 -5 6 C-7.97 5.505 -7.97 5.505 -11 5 C-10.67 3.68 -10.34 2.36 -10 1 C-7.36 2.65 -4.72 4.3 -2 6 C-1.34 4.02 -0.68 2.04 0 0 Z " fill="#E3E51F" transform="translate(157,350)"/>
<path d="M0 0 C1.65 0 3.3 0 5 0 C-1.15034169 7.48291572 -1.15034169 7.48291572 -5 10 C-4.6875 7.625 -4.6875 7.625 -4 5 C-3.01 4.34 -2.02 3.68 -1 3 C-0.67 2.01 -0.34 1.02 0 0 Z " fill="#F0F21A" transform="translate(462,265)"/>
<path d="M0 0 C1.98 0 3.96 0 6 0 C6.2358396 5.77807024 5.86783046 10.51324804 4 16 C3.67 16 3.34 16 3 16 C2.89748328 10.87416389 2.96409801 6.05002222 4 1 C2.68 0.67 1.36 0.34 0 0 Z " fill="#E4E621" transform="translate(282,220)"/>
<path d="M0 0 C0 3 0 3 -2 7 C-7.28 7 -12.56 7 -18 7 C-18 6.67 -18 6.34 -18 6 C-17.3709375 5.98582031 -16.741875 5.97164062 -16.09375 5.95703125 C-9.47826706 5.58839741 -5.27174436 3.99062213 0 0 Z " fill="#CDCD1A" transform="translate(230,137)"/>
<path d="M0 0 C1 3 1 3 -0.125 6.125 C-2 9 -2 9 -4.5 9.875 C-6.33151879 9.96657594 -8.16619324 10 -10 10 C-6.7 6.7 -3.4 3.4 0 0 Z " fill="#EDF11C" transform="translate(214,53)"/>
<path d="M0 0 C0.33 0.99 0.66 1.98 1 3 C-0.01320313 3.90492188 -0.01320313 3.90492188 -1.046875 4.828125 C-1.93890625 5.62734375 -2.8309375 6.4265625 -3.75 7.25 C-4.63171875 8.03890625 -5.5134375 8.8278125 -6.421875 9.640625 C-8.67866165 11.70592672 -10.85739926 13.81735064 -13 16 C-13.66 15.67 -14.32 15.34 -15 15 C-10.05 10.05 -5.1 5.1 0 0 Z " fill="#2A2500" transform="translate(316,416)"/>
<path d="M0 0 C1.40503535 2.59391142 2.57705808 5.26973914 3.6875 8 C3.95949219 8.66 4.23148437 9.32 4.51171875 10 C5.08433496 12.34543601 4.75352292 13.73437404 4 16 C1.59185923 12.48812804 0.63370592 10.27343092 1 6 C0.01 6.33 -0.98 6.66 -2 7 C-1.34 4.69 -0.68 2.38 0 0 Z " fill="#E1E220" transform="translate(318,309)"/>
<path d="M0 0 C0.66 0 1.32 0 2 0 C2.45496035 5.76283104 0.79099852 10.60568303 -1 16 C-1.33 16 -1.66 16 -2 16 C-2.2358396 10.22192976 -1.86783046 5.48675196 0 0 Z " fill="#ECED24" transform="translate(159,253)"/>
<path d="M0 0 C0.66 0.99 1.32 1.98 2 3 C1.01 4.485 1.01 4.485 0 6 C-0.66 6 -1.32 6 -2 6 C-2.33 6.99 -2.66 7.98 -3 9 C-4.32 8.34 -5.64 7.68 -7 7 C-4.69 4.69 -2.38 2.38 0 0 Z " fill="#F1F418" transform="translate(134,133)"/>
<path d="M0 0 C0.66 0 1.32 0 2 0 C5.00559652 5.00932754 5.29341888 8.32723489 5 14 C4.01 14.33 3.02 14.66 2 15 C2.03480469 14.12988281 2.03480469 14.12988281 2.0703125 13.2421875 C2.18250423 8.38588834 1.87514915 4.57067605 0 0 Z " fill="#EFF21C" transform="translate(232,115)"/>
<path d="M0 0 C0.33 0.99 0.66 1.98 1 3 C1.99 3.66 2.98 4.32 4 5 C3.34 6.32 2.68 7.64 2 9 C-0.31 6.69 -2.62 4.38 -5 2 C-2 0 -2 0 0 0 Z " fill="#F0F419" transform="translate(132,358)"/>
<path d="M0 0 C1.98 0 3.96 0 6 0 C5.505 0.45375 5.01 0.9075 4.5 1.375 C2.77390663 2.87635519 2.77390663 2.87635519 3 5 C2.17242187 4.75443359 2.17242187 4.75443359 1.328125 4.50390625 C-1.26614007 3.94239586 -3.59835411 3.90260992 -6.25 3.9375 C-7.58804687 3.95103516 -7.58804687 3.95103516 -8.953125 3.96484375 C-9.62859375 3.97644531 -10.3040625 3.98804688 -11 4 C-10.67 3.34 -10.34 2.68 -10 2 C-6.7 2 -3.4 2 0 2 C0 1.34 0 0.68 0 0 Z " fill="#E3E429" transform="translate(318,185)"/>
<path d="M0 0 C7.48291572 6.15034169 7.48291572 6.15034169 10 10 C8.02 10 6.04 10 4 10 C4 8.68 4 7.36 4 6 C3.01 5.67 2.02 5.34 1 5 C0.67 3.35 0.34 1.7 0 0 Z " fill="#EDF11D" transform="translate(264,32)"/>
<path d="M0 0 C1.32 0.99 2.64 1.98 4 3 C4.33 2.34 4.66 1.68 5 1 C4.30058404 4.14737182 3.23921302 7.02588876 2 10 C1.34 10 0.68 10 0 10 C0 6.7 0 3.4 0 0 Z " fill="#F5F31F" transform="translate(275,244)"/>
<path d="M0 0 C0.33 0 0.66 0 1 0 C1 2.64 1 5.28 1 8 C0.34 8 -0.32 8 -1 8 C-1 9.65 -1 11.3 -1 13 C-1.99 12.67 -2.98 12.34 -4 12 C-2.68 8.04 -1.36 4.08 0 0 Z " fill="#DBDE1C" transform="translate(180,290)"/>
<path d="M0 0 C0.99 0 1.98 0 3 0 C2.44894091 3.9492568 1.61064629 7.34920174 0 11 C-0.33 11 -0.66 11 -1 11 C-1.0270043 9.54176788 -1.04639787 8.08339325 -1.0625 6.625 C-1.07410156 5.81289063 -1.08570313 5.00078125 -1.09765625 4.1640625 C-1 2 -1 2 0 0 Z " fill="#ECEE19" transform="translate(258,287)"/>
<path d="M0 0 C4.15969818 4.29388199 4.53000573 7.26606989 5 13 C5.33 13.66 5.66 14.32 6 15 C5.01 14.67 4.02 14.34 3 14 C2.05078125 11.85546875 2.05078125 11.85546875 1.3125 9.1875 C1.06113281 8.31480469 0.80976563 7.44210938 0.55078125 6.54296875 C0 4 0 4 0 0 Z " fill="#E5E629" transform="translate(335,214)"/>
<path d="M0 0 C7.48291572 6.15034169 7.48291572 6.15034169 10 10 C7.69 9.34 5.38 8.68 3 8 C3 6.68 3 5.36 3 4 C2.34 4 1.68 4 1 4 C0.67 2.68 0.34 1.36 0 0 Z " fill="#ECF11E" transform="translate(438,206)"/>
<path d="M0 0 C5.98993047 -0.3152595 9.63560356 0.31780178 15 3 C14.67 4.32 14.34 5.64 14 7 C13.360625 6.38125 12.72125 5.7625 12.0625 5.125 C8.18436924 2.43405212 4.59564421 1.76093455 0 1 C0 0.67 0 0.34 0 0 Z " fill="#E8EB22" transform="translate(320,155)"/>
<path d="M0 0 C0.33 0 0.66 0 1 0 C0.40380045 4.86896303 -0.56976822 9.32790951 -2 14 C-2.66 14 -3.32 14 -4 14 C-3.21824485 9.15311808 -1.60155722 4.6233633 0 0 Z " fill="#D1D01E" transform="translate(286,327)"/>
<path d="M0 0 C1.30211046 3.90633137 0.47812346 6.19538173 -0.4375 10.1875 C-0.72496094 11.45980469 -1.01242187 12.73210937 -1.30859375 14.04296875 C-1.53675781 15.01878906 -1.76492188 15.99460937 -2 17 C-2.33 17 -2.66 17 -3 17 C-3.40368295 10.54107286 -2.5915262 5.93891422 0 0 Z " fill="#D7D822" transform="translate(268,320)"/>
<path d="M0 0 C3.67237783 5.50856675 4.21284633 7.50818702 4 14 C0.7354972 10.7354972 0.06763945 6.58952701 -0.125 2.0625 C-0.08375 1.381875 -0.0425 0.70125 0 0 Z " fill="#EEED28" transform="translate(345,327)"/>
<path d="M0 0 C0.33 0 0.66 0 1 0 C2.45295405 8.19256018 2.45295405 8.19256018 0.5625 11.5625 C0.046875 12.036875 -0.46875 12.51125 -1 13 C-2.65 12.67 -4.3 12.34 -6 12 C-6 11.67 -6 11.34 -6 11 C-4.35 11 -2.7 11 -1 11 C-0.67 7.37 -0.34 3.74 0 0 Z " fill="#CDCE2E" transform="translate(274,248)"/>
<path d="M0 0 C2.31 0.66 4.62 1.32 7 2 C7 2.66 7 3.32 7 4 C7.804375 4.28875 8.60875 4.5775 9.4375 4.875 C12 6 12 6 13 8 C8.27626146 6.37621488 4.05818166 3.89006982 0 1 C0 0.67 0 0.34 0 0 Z " fill="#D6D820" transform="translate(349,235)"/>
<path d="M0 0 C1.6026782 -0.10824843 3.20745748 -0.18570645 4.8125 -0.25 C5.70582031 -0.29640625 6.59914062 -0.3428125 7.51953125 -0.390625 C10 0 10 0 11.82421875 2.015625 C12.40623047 2.99789063 12.40623047 2.99789063 13 4 C11.989375 3.67 10.97875 3.34 9.9375 3 C6.24520089 1.92998679 2.84751793 1.84295845 -1 2 C-0.67 1.34 -0.34 0.68 0 0 Z " fill="#C6CB1C" transform="translate(245,22)"/>
<path d="M0 0 C0 0.66 0 1.32 0 2 C-2.31 3.32 -4.62 4.64 -7 6 C-6.625 3.0625 -6.625 3.0625 -6 0 C-3.50907189 -1.24546405 -2.58919267 -0.7767578 0 0 Z " fill="#E4E61A" transform="translate(153,169)"/>
<path d="M0 0 C0.99 0.33 1.98 0.66 3 1 C3 2.65 3 4.3 3 6 C3.66 6.33 4.32 6.66 5 7 C4.01 7 3.02 7 2 7 C2 6.34 2 5.68 2 5 C0.68 4.34 -0.64 3.68 -2 3 C-2 2.34 -2 1.68 -2 1 C-1.34 0.67 -0.68 0.34 0 0 Z " fill="#EAEC18" transform="translate(228,107)"/>
<path d="M0 0 C1.32 0.66 2.64 1.32 4 2 C1.03 4.475 1.03 4.475 -2 7 C-2.125 4.625 -2.125 4.625 -2 2 C-1.34 1.34 -0.68 0.68 0 0 Z " fill="#F2F417" transform="translate(284,443)"/>
<path d="M0 0 C1.67542976 0.28604898 3.34385343 0.61781233 5 1 C3.35830472 3.02054804 1.69088222 5.02043058 0 7 C-0.33 7 -0.66 7 -1 7 C-1.04254356 5.00045254 -1.04080783 2.99958364 -1 1 C-0.67 0.67 -0.34 0.34 0 0 Z " fill="#F2F218" transform="translate(310,416)"/>
<path d="M0 0 C1.23967448 3.58128182 1.02699061 6.36603322 0 10 C-2.05078125 11.1796875 -2.05078125 11.1796875 -4 12 C-2.66666667 8 -1.33333333 4 0 0 Z " fill="#E7E625" transform="translate(185,278)"/>
<path d="M0 0 C4.75 0.875 4.75 0.875 7 2 C7 2.66 7 3.32 7 4 C7.99 4.33 8.98 4.66 10 5 C10 5.66 10 6.32 10 7 C8.68 7 7.36 7 6 7 C6 5.68 6 4.36 6 3 C4.02 2.34 2.04 1.68 0 1 C0 0.67 0 0.34 0 0 Z " fill="#E0DF17" transform="translate(362,244)"/>
<path d="M0 0 C0.33 1.32 0.66 2.64 1 4 C0.01 4 -0.98 4 -2 4 C-2.33 5.32 -2.66 6.64 -3 8 C-4.32 7.67 -5.64 7.34 -7 7 C-4.69 4.69 -2.38 2.38 0 0 Z " fill="#EBEF20" transform="translate(68,199)"/>
<path d="M0 0 C-1.09351553 3.17119503 -2.0126988 4.00783543 -4.9375 5.8125 C-8 7 -8 7 -11 6 C-9.54550599 4.9944239 -8.08627557 3.99569565 -6.625 3 C-5.40683594 2.1646875 -5.40683594 2.1646875 -4.1640625 1.3125 C-2 0 -2 0 0 0 Z " fill="#1E1C00" transform="translate(168,161)"/>
<path d="M0 0 C2.31 0.33 4.62 0.66 7 1 C7 2.98 7 4.96 7 7 C5.83040013 6.02433888 4.66438823 5.044375 3.5 4.0625 C2.8503125 3.51722656 2.200625 2.97195313 1.53125 2.41015625 C1.0259375 1.94480469 0.520625 1.47945313 0 1 C0 0.67 0 0.34 0 0 Z " fill="#EDF11C" transform="translate(163,395)"/>
<path d="M0 0 C1.10844919 3.32534757 0.84454356 5.62182575 0 9 C-0.66 9 -1.32 9 -2 9 C-2 9.66 -2 10.32 -2 11 C-2.99 10.67 -3.98 10.34 -5 10 C-4.34 10 -3.68 10 -3 10 C-2.87625 9.278125 -2.7525 8.55625 -2.625 7.8125 C-2.0095069 5.04278106 -1.11555626 2.6029646 0 0 Z " fill="#C8C91A" transform="translate(279,346)"/>
<path d="M0 0 C0.99 0.33 1.98 0.66 3 1 C3.33 5.29 3.66 9.58 4 14 C3.67 14 3.34 14 3 14 C2.01 9.38 1.02 4.76 0 0 Z " fill="#DFE323" transform="translate(228,272)"/>
<path d="M0 0 C1 2 1 2 0.375 3.9375 C-1.3792518 6.5688777 -3.16320216 7.65252103 -6 9 C-6.66 8.67 -7.32 8.34 -8 8 C-5.36 5.36 -2.72 2.72 0 0 Z " fill="#E8ED22" transform="translate(87,180)"/>
<path d="M0 0 C2.31 1.98 4.62 3.96 7 6 C3 7 3 7 1 7 C0.67 4.69 0.34 2.38 0 0 Z " fill="#EEF21D" transform="translate(395,163)"/>
<path d="M0 0 C0.33 0 0.66 0 1 0 C1.19294408 4.82360189 0.75747614 8.49646738 -1 13 C-1.33 13 -1.66 13 -2 13 C-2.19294408 8.17639811 -1.75747614 4.50353262 0 0 Z " fill="#3C3701" transform="translate(234,121)"/>
<path d="M0 0 C2.31 1.98 4.62 3.96 7 6 C6.34 6.66 5.68 7.32 5 8 C5 7.34 5 6.68 5 6 C3.35 6 1.7 6 0 6 C0 4.02 0 2.04 0 0 Z " fill="#EDF11B" transform="translate(300,68)"/>
<path d="M0 0 C1.98 1.65 3.96 3.3 6 5 C5.67 5.66 5.34 6.32 5 7 C3.68 6.67 2.36 6.34 1 6 C0.67 4.02 0.34 2.04 0 0 Z " fill="#1C1701" transform="translate(183,416)"/>
<path d="M0 0 C0.33 2.31 0.66 4.62 1 7 C-0.98 5.35 -2.96 3.7 -5 2 C-2 0 -2 0 0 0 Z " fill="#EEF11A" transform="translate(116,342)"/>
<path d="M0 0 C2.31 0.33 4.62 0.66 7 1 C7 2.98 7 4.96 7 7 C5.83040013 6.02433888 4.66438823 5.044375 3.5 4.0625 C2.8503125 3.51722656 2.200625 2.97195313 1.53125 2.41015625 C1.0259375 1.94480469 0.520625 1.47945313 0 1 C0 0.67 0 0.34 0 0 Z " fill="#ECF01E" transform="translate(77,309)"/>
<path d="M0 0 C0.33 2.31 0.66 4.62 1 7 C-0.98 5.35 -2.96 3.7 -5 2 C-2 0 -2 0 0 0 Z " fill="#EEF11A" transform="translate(68,294)"/>
<path d="M0 0 C0.33 2.31 0.66 4.62 1 7 C-0.98 5.35 -2.96 3.7 -5 2 C-2 0 -2 0 0 0 Z " fill="#EEF119" transform="translate(36,262)"/>
<path d="M0 0 C1.98 1.65 3.96 3.3 6 5 C3 7 3 7 1 7 C1.33 5.68 1.66 4.36 2 3 C1.34 3 0.68 3 0 3 C0 2.01 0 1.02 0 0 Z " fill="#EFF21B" transform="translate(459,227)"/>
<path d="M0 0 C0.33 0.99 0.66 1.98 1 3 C-0.21484375 4.82421875 -0.21484375 4.82421875 -1.9375 6.6875 C-2.50339844 7.31011719 -3.06929688 7.93273437 -3.65234375 8.57421875 C-4.09707031 9.04472656 -4.54179688 9.51523438 -5 10 C-5 5.88168014 -2.91010261 2.91010261 0 0 Z " fill="#F4F617" transform="translate(126,141)"/>
<path d="M0 0 C1.32 0.33 2.64 0.66 4 1 C0.535 3.97 0.535 3.97 -3 7 C-3 5.68 -3 4.36 -3 3 C-2.01 3 -1.02 3 0 3 C0 2.01 0 1.02 0 0 Z " fill="#F0F123" transform="translate(332,396)"/>
<path d="M0 0 C1.32 0 2.64 0 4 0 C4.33 2.64 4.66 5.28 5 8 C2.74754119 5.31158141 1.11786042 3.35358125 0 0 Z " fill="#ECEF1B" transform="translate(331,279)"/>
<path d="M0 0 C0.66 0 1.32 0 2 0 C3.625 2.5 3.625 2.5 5 5 C3.02 5.33 1.04 5.66 -1 6 C-0.67 4.02 -0.34 2.04 0 0 Z " fill="#DCE229" transform="translate(323,237)"/>
<path d="M0 0 C2.0625 0.4375 2.0625 0.4375 4 1 C3.01 1.495 3.01 1.495 2 2 C1.26924352 4.3140622 0.59861742 6.64828869 0 9 C-0.33 9 -0.66 9 -1 9 C-1.09765625 2.84765625 -1.09765625 2.84765625 -1 1 C-0.67 0.67 -0.34 0.34 0 0 Z " fill="#BDC11C" transform="translate(277,221)"/>
<path d="M0 0 C-0.66 1.98 -1.32 3.96 -2 6 C-2.33 4.68 -2.66 3.36 -3 2 C-4.65 2 -6.3 2 -8 2 C-4.77208445 -0.1519437 -3.71599191 -0.20086443 0 0 Z " fill="#CBD126" transform="translate(170,186)"/>
<path d="M0 0 C1.98 1.65 3.96 3.3 6 5 C3 7 3 7 1 7 C0.67 4.69 0.34 2.38 0 0 Z " fill="#EFF21F" transform="translate(411,179)"/>
<path d="M0 0 C1.32 0.66 2.64 1.32 4 2 C1.03 4.475 1.03 4.475 -2 7 C-1.125 1.125 -1.125 1.125 0 0 Z " fill="#1B1800" transform="translate(83,179)"/>
<path d="M0 0 C2.64 1.98 5.28 3.96 8 6 C5 7 5 7 2 6 C0.8125 2.9375 0.8125 2.9375 0 0 Z " fill="#E1E21F" transform="translate(200,135)"/>
<path d="M0 0 C1.98 1.65 3.96 3.3 6 5 C3 7 3 7 1 7 C0.67 4.69 0.34 2.38 0 0 Z " fill="#F0F41C" transform="translate(315,83)"/>
<path d="M0 0 C1 2 1 2 0.4375 4 C-1.57302108 6.79724672 -3.74418077 7.15065585 -7 8 C-6.02133662 6.85373678 -5.04205413 5.70800212 -4.0625 4.5625 C-3.51722656 3.92441406 -2.97195312 3.28632812 -2.41015625 2.62890625 C-1.63204305 1.73008851 -0.84063472 0.84063472 0 0 Z " fill="#EBEF23" transform="translate(222,45)"/>
<path d="M0 0 C0 3.10551666 -0.5393715 4.35261084 -2 7 C-3.32 6.67 -4.64 6.34 -6 6 C-4.02 4.02 -2.04 2.04 0 0 Z " fill="#EAEF1E" transform="translate(235,32)"/>
<path d="M0 0 C3.36720387 1.39332574 4.9859524 2.9789286 7 6 C5 5 3 4 1 3 C1 3.66 1 4.32 1 5 C0.34 5 -0.32 5 -1 5 C-0.67 3.35 -0.34 1.7 0 0 Z " fill="#EDF11B" transform="translate(257,26)"/>
<path d="M0 0 C1.98 0.66 3.96 1.32 6 2 C6.33 3.65 6.66 5.3 7 7 C5.83040013 6.02433888 4.66438823 5.044375 3.5 4.0625 C2.8503125 3.51722656 2.200625 2.97195313 1.53125 2.41015625 C1.0259375 1.94480469 0.520625 1.47945313 0 1 C0 0.67 0 0.34 0 0 Z " fill="#E9EE1C" transform="translate(200,432)"/>
<path d="M0 0 C1.98 0 3.96 0 6 0 C6 0.66 6 1.32 6 2 C5.34 2 4.68 2 4 2 C3.67 2.99 3.34 3.98 3 5 C2.01 4.67 1.02 4.34 0 4 C0 2.68 0 1.36 0 0 Z " fill="#D4D210" transform="translate(332,351)"/>
<path d="M0 0 C0.33 0 0.66 0 1 0 C1 1.98 1 3.96 1 6 C-0.98 6.66 -2.96 7.32 -5 8 C-5 7.34 -5 6.68 -5 6 C-4.01 6 -3.02 6 -2 6 C-1.34 4.02 -0.68 2.04 0 0 Z " fill="#2B2601" transform="translate(348,341)"/>
<path d="M0 0 C1.98 0.66 3.96 1.32 6 2 C6.33 3.65 6.66 5.3 7 7 C5.83040013 6.02433888 4.66438823 5.044375 3.5 4.0625 C2.8503125 3.51722656 2.200625 2.97195313 1.53125 2.41015625 C1.0259375 1.94480469 0.520625 1.47945313 0 1 C0 0.67 0 0.34 0 0 Z " fill="#E9EF1C" transform="translate(104,336)"/>
<path d="M0 0 C1.37562854 1.28965176 2.70766393 2.62689293 4 4 C4 4.66 4 5.32 4 6 C2.35 6 0.7 6 -1 6 C-0.67 4.02 -0.34 2.04 0 0 Z " fill="#383500" transform="translate(337,290)"/>
<path d="M0 0 C2.5625 2.25 2.5625 2.25 5 5 C4.8125 7.3125 4.8125 7.3125 4 9 C3.67 8.01 3.34 7.02 3 6 C2.01 5.67 1.02 5.34 0 5 C0 3.35 0 1.7 0 0 Z " fill="#DADC19" transform="translate(201,282)"/>
<path d="M0 0 C-0.66 1.32 -1.32 2.64 -2 4 C-3.65 2.68 -5.3 1.36 -7 0 C-3.86650268 -1.04449911 -3.01031744 -0.93423645 0 0 Z " fill="#DDDC1D" transform="translate(265,213)"/>
<path d="M0 0 C1.65 1.65 3.3 3.3 5 5 C4.01 5.33 3.02 5.66 2 6 C2 5.34 2 4.68 2 4 C1.01 4.33 0.02 4.66 -1 5 C-0.67 3.35 -0.34 1.7 0 0 Z " fill="#DCE027" transform="translate(215,207)"/>
<path d="M0 0 C2.31 0 4.62 0 7 0 C3.71536341 2.18975773 0.79303725 2.99806563 -3 4 C-3 3.34 -3 2.68 -3 2 C-2.01 2 -1.02 2 0 2 C0 1.34 0 0.68 0 0 Z " fill="#EBEC23" transform="translate(299,189)"/>
<path d="M0 0 C1.65 0 3.3 0 5 0 C4.01 0.33 3.02 0.66 2 1 C2.99 1.33 3.98 1.66 5 2 C4.67 3.65 4.34 5.3 4 7 C0 2.25 0 2.25 0 0 Z " fill="#2F2B00" transform="translate(293,169)"/>
<path d="M0 0 C0 0.33 0 0.66 0 1 C-1.093125 1.309375 -2.18625 1.61875 -3.3125 1.9375 C-5.55407994 2.58337897 -7.7869351 3.2623117 -10 4 C-10.66 3.34 -11.32 2.68 -12 2 C-7.8794254 0.00214565 -4.54805635 -0.17835515 0 0 Z " fill="#343100" transform="translate(326,156)"/>
<path d="M0 0 C0 0.99 0 1.98 0 3 C-0.99 3.33 -1.98 3.66 -3 4 C-3 4.66 -3 5.32 -3 6 C-4.65 6.33 -6.3 6.66 -8 7 C-5.78972846 3.62642766 -3.53600465 1.91135386 0 0 Z " fill="#F2F418" transform="translate(116,153)"/>
<path d="M0 0 C0 3.10551666 -0.5393715 4.35261084 -2 7 C-3.32 6.67 -4.64 6.34 -6 6 C-4.02 4.02 -2.04 2.04 0 0 Z " fill="#EAEE20" transform="translate(150,117)"/>
<path d="M0 0 C1.98 1.65 3.96 3.3 6 5 C3.13822943 6.43088528 1.06624227 5.59991697 -2 5 C-1.01 4.67 -0.02 4.34 1 4 C0.67 2.68 0.34 1.36 0 0 Z " fill="#EDF21A" transform="translate(282,50)"/>
<path d="M0 0 C1.32 0.33 2.64 0.66 4 1 C1.03 3.475 1.03 3.475 -2 6 C-2 4.68 -2 3.36 -2 2 C-1.34 2 -0.68 2 0 2 C0 1.34 0 0.68 0 0 Z " fill="#EEEE1E" transform="translate(391,337)"/>
<path d="M0 0 C2.97 0.495 2.97 0.495 6 1 C6 2.65 6 4.3 6 6 C3.97945196 4.35830472 1.97956942 2.69088222 0 1 C0 0.67 0 0.34 0 0 Z " fill="#ECF11E" transform="translate(96,328)"/>
<path d="M0 0 C0.99 0.33 1.98 0.66 3 1 C3.73046875 2.84765625 3.73046875 2.84765625 4.1875 5.0625 C4.34605469 5.79597656 4.50460938 6.52945313 4.66796875 7.28515625 C4.83232422 8.13400391 4.83232422 8.13400391 5 9 C1.96130589 7.48065294 1.35589694 5.01995228 0 2 C0 1.34 0 0.68 0 0 Z " fill="#DBDD21" transform="translate(215,249)"/>
<path d="M0 0 C0 3.10551666 -0.5393715 4.35261084 -2 7 C-3.32 6.67 -4.64 6.34 -6 6 C-4.02 4.02 -2.04 2.04 0 0 Z " fill="#EAEE24" transform="translate(94,173)"/>
<path d="M0 0 C1.98 1.65 3.96 3.3 6 5 C3.92446352 5.5534764 2.15634036 6 0 6 C0 4.02 0 2.04 0 0 Z " fill="#EDF01E" transform="translate(294,62)"/>
<path d="M0 0 C-3.69969252 3.03903314 -6.23004695 4 -11 4 C-7.64191281 0.32209498 -4.88401581 -0.13200043 0 0 Z " fill="#EEF21E" transform="translate(251,23)"/>
</svg>
