<?xml version="1.0" encoding="UTF-8"?>
<svg version="1.1" xmlns="http://www.w3.org/2000/svg" width="500" height="516">
<path d="M0 0 C4.60952172 3.10437177 8.2372647 7.05764495 12.0625 11.0625 C13.72505315 12.73327005 15.39211449 14.39956049 17.0625 16.0625 C18.11483462 17.11433199 19.16690406 18.16642933 20.21875 19.21875 C20.76660156 19.76660156 21.31445312 20.31445312 21.87890625 20.87890625 C24.39257812 23.39257813 24.39257812 23.39257813 26.90625 25.90625 C27.70760376 26.70651611 27.70760376 26.70651611 28.52514648 27.52294922 C29.93996092 28.93978578 31.34729705 30.36407959 32.75390625 31.7890625 C34.61342244 33.62026119 36.4762325 35.2971321 38.5 36.9375 C41.58526247 39.53420681 44.09936161 42.36845691 46.66015625 45.47265625 C48.56479623 47.63195562 50.81224285 49.27383406 53.0625 51.0625 C54.2690625 52.5165625 54.2690625 52.5165625 55.5 54 C57.96889631 57.1356044 57.96889631 57.1356044 61.0625 59.5625 C64.16955716 62.1517143 66.47863738 64.96186486 69.0625 68.0625 C71.05915598 69.73317133 73.05901034 71.40002986 75.0625 73.0625 C76.39583333 74.72916667 77.72916667 76.39583333 79.0625 78.0625 C80.031875 78.866875 81.00125 79.67125 82 80.5 C85.12736774 83.11677709 87.45780806 85.93686967 90.0625 89.0625 C92.05915598 90.73317133 94.05901034 92.40002986 96.0625 94.0625 C96.701875 94.866875 97.34125 95.67125 98 96.5 C100.29292438 99.34878484 102.82124317 101.46074299 105.671875 103.73046875 C106.13078125 104.17003906 106.5896875 104.60960938 107.0625 105.0625 C107.0625 105.7225 107.0625 106.3825 107.0625 107.0625 C108.0525 107.3925 109.0425 107.7225 110.0625 108.0625 C112.25 110 112.25 110 114.0625 112.0625 C114.0625 112.7225 114.0625 113.3825 114.0625 114.0625 C115.0525 114.3925 116.0425 114.7225 117.0625 115.0625 C119.25 117 119.25 117 121.0625 119.0625 C121.0625 119.7225 121.0625 120.3825 121.0625 121.0625 C122.0525 121.3925 123.0425 121.7225 124.0625 122.0625 C126.25 124 126.25 124 128.0625 126.0625 C128.0625 126.7225 128.0625 127.3825 128.0625 128.0625 C129.0525 128.3925 130.0425 128.7225 131.0625 129.0625 C133.25 131 133.25 131 135.0625 133.0625 C135.0625 133.7225 135.0625 134.3825 135.0625 135.0625 C136.3825 135.7225 137.7025 136.3825 139.0625 137.0625 C139.0625 137.7225 139.0625 138.3825 139.0625 139.0625 C140.0525 139.3925 141.0425 139.7225 142.0625 140.0625 C142.0625 140.7225 142.0625 141.3825 142.0625 142.0625 C143.3825 142.7225 144.7025 143.3825 146.0625 144.0625 C146.0625 144.7225 146.0625 145.3825 146.0625 146.0625 C147.0525 146.3925 148.0425 146.7225 149.0625 147.0625 C149.0625 147.7225 149.0625 148.3825 149.0625 149.0625 C150.3825 149.7225 151.7025 150.3825 153.0625 151.0625 C153.0625 151.7225 153.0625 152.3825 153.0625 153.0625 C154.0525 153.3925 155.0425 153.7225 156.0625 154.0625 C156.0625 154.7225 156.0625 155.3825 156.0625 156.0625 C157.3825 156.7225 158.7025 157.3825 160.0625 158.0625 C160.0625 158.7225 160.0625 159.3825 160.0625 160.0625 C161.3825 160.7225 162.7025 161.3825 164.0625 162.0625 C164.0625 162.7225 164.0625 163.3825 164.0625 164.0625 C165.0525 164.3925 166.0425 164.7225 167.0625 165.0625 C167.0625 165.7225 167.0625 166.3825 167.0625 167.0625 C168.3825 167.7225 169.7025 168.3825 171.0625 169.0625 C171.0625 169.7225 171.0625 170.3825 171.0625 171.0625 C172.0525 171.3925 173.0425 171.7225 174.0625 172.0625 C174.0625 172.7225 174.0625 173.3825 174.0625 174.0625 C175.3825 174.7225 176.7025 175.3825 178.0625 176.0625 C178.0625 176.7225 178.0625 177.3825 178.0625 178.0625 C178.660625 178.330625 179.25875 178.59875 179.875 178.875 C182.06097854 180.06167406 183.47582594 181.15849113 185.0625 183.0625 C185.0625 183.7225 185.0625 184.3825 185.0625 185.0625 C185.660625 185.330625 186.25875 185.59875 186.875 185.875 C189.06097854 187.06167406 190.47582594 188.15849113 192.0625 190.0625 C192.0625 190.7225 192.0625 191.3825 192.0625 192.0625 C192.660625 192.330625 193.25875 192.59875 193.875 192.875 C196.06097854 194.06167406 197.47582594 195.15849113 199.0625 197.0625 C199.0625 197.7225 199.0625 198.3825 199.0625 199.0625 C199.660625 199.330625 200.25875 199.59875 200.875 199.875 C203.06097854 201.06167406 204.47582594 202.15849113 206.0625 204.0625 C206.0625 204.7225 206.0625 205.3825 206.0625 206.0625 C206.95472511 206.4677314 206.95472511 206.4677314 207.86497498 206.88114929 C210.04819634 208.05481061 211.47594466 209.22255297 213.22290039 210.96411133 C213.81353775 211.54844437 214.40417511 212.1327774 215.01271057 212.7348175 C215.63886765 213.36502304 216.26502472 213.99522858 216.91015625 214.64453125 C217.56326279 215.29572433 218.21636932 215.94691742 218.88926697 216.61784363 C220.26758736 217.99480474 221.64339211 219.37428795 223.0168457 220.75610352 C225.11387161 222.8638149 227.2213163 224.96067857 229.33007812 227.05664062 C230.6699124 228.39779687 232.00912593 229.73957359 233.34765625 231.08203125 C233.97583755 231.70616409 234.60401886 232.33029694 235.25123596 232.9733429 C240.28899755 238.06516485 243.49135408 241.93537724 243.625 249.375 C243.68880859 250.97794922 243.68880859 250.97794922 243.75390625 252.61328125 C241.75463402 262.58705175 231.04753686 270.3692593 224.078125 277.3125 C222.81324553 278.57872849 221.54866292 279.8452536 220.28436279 281.11206055 C217.64837593 283.75098106 215.00884258 286.38628692 212.36669922 289.01904297 C208.97468989 292.39958831 205.59183307 295.78912883 202.21152115 299.18136597 C199.60898635 301.79110712 197.00173283 304.39609183 194.39299774 306.99963379 C193.14274913 308.24854614 191.89399029 309.49895164 190.64673615 310.75085449 C188.91152321 312.49112008 187.17007603 314.22489051 185.42675781 315.95703125 C184.91038254 316.47745499 184.39400726 316.99787872 183.86198425 317.53407288 C180.29104184 321.0625 180.29104184 321.0625 178.0625 321.0625 C177.794375 321.660625 177.52625 322.25875 177.25 322.875 C176.06332594 325.06097854 174.96650887 326.47582594 173.0625 328.0625 C172.4025 328.0625 171.7425 328.0625 171.0625 328.0625 C170.4025 329.3825 169.7425 330.7025 169.0625 332.0625 C168.4025 332.0625 167.7425 332.0625 167.0625 332.0625 C166.7325 333.0525 166.4025 334.0425 166.0625 335.0625 C165.4025 335.0625 164.7425 335.0625 164.0625 335.0625 C163.4025 336.3825 162.7425 337.7025 162.0625 339.0625 C161.4025 339.0625 160.7425 339.0625 160.0625 339.0625 C159.7325 340.0525 159.4025 341.0425 159.0625 342.0625 C158.4025 342.0625 157.7425 342.0625 157.0625 342.0625 C156.4025 343.3825 155.7425 344.7025 155.0625 346.0625 C154.4025 346.0625 153.7425 346.0625 153.0625 346.0625 C152.4025 347.3825 151.7425 348.7025 151.0625 350.0625 C150.4025 350.0625 149.7425 350.0625 149.0625 350.0625 C148.7325 351.0525 148.4025 352.0425 148.0625 353.0625 C147.4025 353.0625 146.7425 353.0625 146.0625 353.0625 C145.4025 354.3825 144.7425 355.7025 144.0625 357.0625 C143.4025 357.0625 142.7425 357.0625 142.0625 357.0625 C141.7325 358.0525 141.4025 359.0425 141.0625 360.0625 C140.4025 360.0625 139.7425 360.0625 139.0625 360.0625 C138.4025 361.3825 137.7425 362.7025 137.0625 364.0625 C136.4025 364.0625 135.7425 364.0625 135.0625 364.0625 C134.7325 365.0525 134.4025 366.0425 134.0625 367.0625 C133.4025 367.0625 132.7425 367.0625 132.0625 367.0625 C131.4025 368.3825 130.7425 369.7025 130.0625 371.0625 C129.4025 371.0625 128.7425 371.0625 128.0625 371.0625 C127.7325 372.0525 127.4025 373.0425 127.0625 374.0625 C125.125 376.25 125.125 376.25 123.0625 378.0625 C122.4025 378.0625 121.7425 378.0625 121.0625 378.0625 C120.7325 379.0525 120.4025 380.0425 120.0625 381.0625 C118.61322381 382.28120952 117.15993372 383.49588784 115.67578125 384.671875 C113.15062485 386.84852313 111.18743347 389.50168274 109.0625 392.0625 C107.39583333 393.39583333 105.72916667 394.72916667 104.0625 396.0625 C103.258125 397.031875 102.45375 398.00125 101.625 399 C99.00822291 402.12736774 96.18813033 404.45780806 93.0625 407.0625 C91.85838316 408.52011512 90.6548559 409.97846308 89.4765625 411.45703125 C87.25262068 413.98200387 84.69642079 416.09204644 82.125 418.25390625 C79.65897437 420.41634918 77.37105851 422.73547247 75.0625 425.0625 C74.53281113 425.59534292 74.00312225 426.12818584 73.4573822 426.67717552 C71.59530073 428.55067266 69.73415511 430.42509662 67.87304688 432.29956055 C60.70751824 439.51408784 53.53436398 446.72098424 46.35684967 453.92358685 C42.01858146 458.27755559 37.68317891 462.63430269 33.35400391 466.99731445 C29.15972095 471.22416057 24.95817989 475.44366425 20.7514801 479.65815163 C19.1508668 481.26430722 17.55289599 482.87310068 15.95762634 484.48456383 C13.72932183 486.73460598 11.49184475 488.97512384 9.25195312 491.21362305 C8.26679466 492.21496025 8.26679466 492.21496025 7.26173401 493.23652649 C2.74507812 497.72283991 -0.36355408 499.85821858 -6.875 500.375 C-13.0090016 500.20204883 -17.4912421 497.11644102 -21.9375 493.0625 C-21.9375 492.4025 -21.9375 491.7425 -21.9375 491.0625 C-22.9275 490.7325 -23.9175 490.4025 -24.9375 490.0625 C-27.125 488.125 -27.125 488.125 -28.9375 486.0625 C-28.9375 485.4025 -28.9375 484.7425 -28.9375 484.0625 C-29.9275 483.7325 -30.9175 483.4025 -31.9375 483.0625 C-34.125 481.125 -34.125 481.125 -35.9375 479.0625 C-35.9375 478.4025 -35.9375 477.7425 -35.9375 477.0625 C-36.9275 476.7325 -37.9175 476.4025 -38.9375 476.0625 C-41.125 474.125 -41.125 474.125 -42.9375 472.0625 C-42.9375 471.4025 -42.9375 470.7425 -42.9375 470.0625 C-44.2575 469.4025 -45.5775 468.7425 -46.9375 468.0625 C-46.9375 467.4025 -46.9375 466.7425 -46.9375 466.0625 C-47.9275 465.7325 -48.9175 465.4025 -49.9375 465.0625 C-49.9375 464.4025 -49.9375 463.7425 -49.9375 463.0625 C-51.2575 462.4025 -52.5775 461.7425 -53.9375 461.0625 C-53.9375 460.4025 -53.9375 459.7425 -53.9375 459.0625 C-54.9275 458.7325 -55.9175 458.4025 -56.9375 458.0625 C-56.9375 457.4025 -56.9375 456.7425 -56.9375 456.0625 C-58.2575 455.4025 -59.5775 454.7425 -60.9375 454.0625 C-60.9375 453.4025 -60.9375 452.7425 -60.9375 452.0625 C-62.2575 451.4025 -63.5775 450.7425 -64.9375 450.0625 C-64.9375 449.4025 -64.9375 448.7425 -64.9375 448.0625 C-65.9275 447.7325 -66.9175 447.4025 -67.9375 447.0625 C-67.9375 446.4025 -67.9375 445.7425 -67.9375 445.0625 C-69.2575 444.4025 -70.5775 443.7425 -71.9375 443.0625 C-71.9375 442.4025 -71.9375 441.7425 -71.9375 441.0625 C-72.9275 440.7325 -73.9175 440.4025 -74.9375 440.0625 C-74.9375 439.4025 -74.9375 438.7425 -74.9375 438.0625 C-76.2575 437.4025 -77.5775 436.7425 -78.9375 436.0625 C-78.9375 435.4025 -78.9375 434.7425 -78.9375 434.0625 C-79.9275 433.7325 -80.9175 433.4025 -81.9375 433.0625 C-81.9375 432.4025 -81.9375 431.7425 -81.9375 431.0625 C-83.2575 430.4025 -84.5775 429.7425 -85.9375 429.0625 C-85.9375 428.4025 -85.9375 427.7425 -85.9375 427.0625 C-86.9275 426.7325 -87.9175 426.4025 -88.9375 426.0625 C-88.9375 425.4025 -88.9375 424.7425 -88.9375 424.0625 C-90.2575 423.4025 -91.5775 422.7425 -92.9375 422.0625 C-92.9375 421.4025 -92.9375 420.7425 -92.9375 420.0625 C-93.535625 419.794375 -94.13375 419.52625 -94.75 419.25 C-96.93597854 418.06332594 -98.35082594 416.96650887 -99.9375 415.0625 C-99.9375 414.4025 -99.9375 413.7425 -99.9375 413.0625 C-100.47054465 412.85421727 -101.00358931 412.64593454 -101.55278683 412.43134022 C-104.8917922 410.51473033 -107.40195058 407.87308115 -110.09291077 405.16105652 C-111.01366155 404.24498571 -111.01366155 404.24498571 -111.95301336 403.31040841 C-114.01130664 401.26010066 -116.06236767 399.20270812 -118.11352539 397.14526367 C-119.5866468 395.6748519 -121.06019345 394.20486603 -122.53413391 392.73527527 C-126.53867084 388.73986861 -130.53684018 384.73814586 -134.53364491 380.73500609 C-138.71462514 376.54896825 -142.90047619 372.3678057 -147.08555603 368.18586731 C-154.11443426 361.16062981 -161.13908032 354.13118115 -168.16137695 347.09936523 C-176.28170088 338.96816081 -184.40919906 330.84418082 -192.54047018 322.72392482 C-199.51832348 315.75514636 -206.4922729 308.78247915 -213.46297258 301.80654508 C-217.62764165 297.63875686 -221.79365278 293.47233429 -225.96318245 289.30940819 C-229.8836974 285.39466873 -233.79929084 281.47507247 -237.71113396 277.55166817 C-239.14814664 276.11200983 -240.58686613 274.67405287 -242.02740479 273.23792267 C-243.99262128 271.27816672 -245.95158071 269.31236143 -247.90907288 267.34489441 C-248.76733574 266.49332371 -248.76733574 266.49332371 -249.64293724 265.62454957 C-253.42972329 261.80021718 -256.63777148 258.43682001 -257.3359375 252.90625 C-257.32820313 251.8028125 -257.32046875 250.699375 -257.3125 249.5625 C-257.32023437 248.4590625 -257.32796875 247.355625 -257.3359375 246.21875 C-256.89884414 242.75628492 -256.0480509 240.82165923 -253.9375 238.0625 C-253.2775 238.0625 -252.6175 238.0625 -251.9375 238.0625 C-251.669375 237.464375 -251.40125 236.86625 -251.125 236.25 C-249.93832594 234.06402146 -248.84150887 232.64917406 -246.9375 231.0625 C-246.2775 231.0625 -245.6175 231.0625 -244.9375 231.0625 C-243.9475 229.0825 -243.9475 229.0825 -242.9375 227.0625 C-242.2775 227.0625 -241.6175 227.0625 -240.9375 227.0625 C-240.6075 226.0725 -240.2775 225.0825 -239.9375 224.0625 C-239.2775 224.0625 -238.6175 224.0625 -237.9375 224.0625 C-236.9475 222.0825 -236.9475 222.0825 -235.9375 220.0625 C-235.2775 220.0625 -234.6175 220.0625 -233.9375 220.0625 C-233.6075 219.0725 -233.2775 218.0825 -232.9375 217.0625 C-232.2775 217.0625 -231.6175 217.0625 -230.9375 217.0625 C-229.9475 215.0825 -229.9475 215.0825 -228.9375 213.0625 C-228.2775 213.0625 -227.6175 213.0625 -226.9375 213.0625 C-226.6075 212.0725 -226.2775 211.0825 -225.9375 210.0625 C-224 207.875 -224 207.875 -221.9375 206.0625 C-221.2775 206.0625 -220.6175 206.0625 -219.9375 206.0625 C-219.6075 205.0725 -219.2775 204.0825 -218.9375 203.0625 C-217 200.875 -217 200.875 -214.9375 199.0625 C-214.2775 199.0625 -213.6175 199.0625 -212.9375 199.0625 C-212.2775 197.7425 -211.6175 196.4225 -210.9375 195.0625 C-210.2775 195.0625 -209.6175 195.0625 -208.9375 195.0625 C-208.6075 194.0725 -208.2775 193.0825 -207.9375 192.0625 C-207.2775 192.0625 -206.6175 192.0625 -205.9375 192.0625 C-205.2775 190.7425 -204.6175 189.4225 -203.9375 188.0625 C-203.2775 188.0625 -202.6175 188.0625 -201.9375 188.0625 C-201.6075 187.0725 -201.2775 186.0825 -200.9375 185.0625 C-199 182.875 -199 182.875 -196.9375 181.0625 C-196.2775 181.0625 -195.6175 181.0625 -194.9375 181.0625 C-194.6075 180.0725 -194.2775 179.0825 -193.9375 178.0625 C-192 175.875 -192 175.875 -189.9375 174.0625 C-189.2775 174.0625 -188.6175 174.0625 -187.9375 174.0625 C-187.6075 173.0725 -187.2775 172.0825 -186.9375 171.0625 C-185.46553892 169.81951064 -183.98975536 168.58020378 -182.48046875 167.3828125 C-180.74350987 165.97987264 -180.74350987 165.97987264 -178.9375 163.5625 C-176.9375 161.0625 -176.9375 161.0625 -174 158.625 C-170.8643956 156.15610369 -170.8643956 156.15610369 -168.4375 153.0625 C-165.84451956 149.95092347 -163.07517128 147.61185791 -159.9375 145.0625 C-158.25038577 143.4165349 -156.5829378 141.75012851 -154.9375 140.0625 C-153.27179167 138.39487554 -151.60498276 136.72835018 -149.9375 135.0625 C-148.0521373 133.17127271 -146.16717777 131.27965069 -144.28271484 129.38752747 C-143.14419482 128.24460933 -142.00566485 127.10170111 -140.86712646 125.95880127 C-139.96292591 125.05111118 -139.96292591 125.05111118 -139.04045868 124.12508392 C-125.15820675 110.18976404 -111.26736372 96.26303447 -97.37161255 82.34117603 C-89.34066884 74.29473723 -81.31258132 66.24548602 -73.29101562 58.18969727 C-66.28462615 51.15343153 -59.27300081 44.12243339 -52.25500679 37.09774131 C-48.54264563 33.38146803 -44.83297466 29.66259569 -41.12957764 25.93738747 C-37.64930204 22.43677629 -34.16208004 18.94324036 -30.66936493 15.45504189 C-29.38845104 14.17330179 -28.11011137 12.88898321 -26.83454132 11.6019249 C-25.09397196 9.84644883 -23.34441165 8.10045163 -21.59228516 6.35652161 C-21.08887289 5.84437082 -20.58546062 5.33222003 -20.06679344 4.80454952 C-14.20964833 -0.97873131 -7.84732738 -2.50446618 0 0 Z " fill="#FEFE00" transform="translate(256.9375,4.9375)"/>
<path d="M0 0 C19.14 0 38.28 0 58 0 C58 96.69 58 193.38 58 293 C38.86 293 19.72 293 0 293 C0 254.72 0 216.44 0 177 C-38.61 177 -77.22 177 -117 177 C-117 157.53 -117 138.06 -117 118 C-78.39 118 -39.78 118 0 118 C0 79.06 0 40.12 0 0 Z " fill="#010100" transform="translate(230,107)"/>
<path d="M0 0 C4.60952172 3.10437177 8.2372647 7.05764495 12.0625 11.0625 C13.72505315 12.73327005 15.39211449 14.39956049 17.0625 16.0625 C18.11483462 17.11433199 19.16690406 18.16642933 20.21875 19.21875 C20.76660156 19.76660156 21.31445312 20.31445312 21.87890625 20.87890625 C24.39257812 23.39257813 24.39257812 23.39257813 26.90625 25.90625 C27.70760376 26.70651611 27.70760376 26.70651611 28.52514648 27.52294922 C29.93996092 28.93978578 31.34729705 30.36407959 32.75390625 31.7890625 C34.61342244 33.62026119 36.4762325 35.2971321 38.5 36.9375 C41.58526247 39.53420681 44.09936161 42.36845691 46.66015625 45.47265625 C48.56479623 47.63195562 50.81224285 49.27383406 53.0625 51.0625 C54.2690625 52.5165625 54.2690625 52.5165625 55.5 54 C57.96889631 57.1356044 57.96889631 57.1356044 61.0625 59.5625 C64.16955716 62.1517143 66.47863738 64.96186486 69.0625 68.0625 C71.05915598 69.73317133 73.05901034 71.40002986 75.0625 73.0625 C76.39583333 74.72916667 77.72916667 76.39583333 79.0625 78.0625 C80.031875 78.866875 81.00125 79.67125 82 80.5 C85.12736774 83.11677709 87.45780806 85.93686967 90.0625 89.0625 C92.05915598 90.73317133 94.05901034 92.40002986 96.0625 94.0625 C96.701875 94.866875 97.34125 95.67125 98 96.5 C100.29292438 99.34878484 102.82124317 101.46074299 105.671875 103.73046875 C106.13078125 104.17003906 106.5896875 104.60960938 107.0625 105.0625 C107.0625 105.7225 107.0625 106.3825 107.0625 107.0625 C108.0525 107.3925 109.0425 107.7225 110.0625 108.0625 C112.25 110 112.25 110 114.0625 112.0625 C114.0625 112.7225 114.0625 113.3825 114.0625 114.0625 C115.0525 114.3925 116.0425 114.7225 117.0625 115.0625 C119.25 117 119.25 117 121.0625 119.0625 C121.0625 119.7225 121.0625 120.3825 121.0625 121.0625 C122.0525 121.3925 123.0425 121.7225 124.0625 122.0625 C126.25 124 126.25 124 128.0625 126.0625 C128.0625 126.7225 128.0625 127.3825 128.0625 128.0625 C129.0525 128.3925 130.0425 128.7225 131.0625 129.0625 C133.25 131 133.25 131 135.0625 133.0625 C135.0625 133.7225 135.0625 134.3825 135.0625 135.0625 C136.3825 135.7225 137.7025 136.3825 139.0625 137.0625 C139.0625 137.7225 139.0625 138.3825 139.0625 139.0625 C140.0525 139.3925 141.0425 139.7225 142.0625 140.0625 C142.0625 140.7225 142.0625 141.3825 142.0625 142.0625 C143.3825 142.7225 144.7025 143.3825 146.0625 144.0625 C146.0625 144.7225 146.0625 145.3825 146.0625 146.0625 C147.0525 146.3925 148.0425 146.7225 149.0625 147.0625 C149.0625 147.7225 149.0625 148.3825 149.0625 149.0625 C150.3825 149.7225 151.7025 150.3825 153.0625 151.0625 C153.0625 151.7225 153.0625 152.3825 153.0625 153.0625 C154.0525 153.3925 155.0425 153.7225 156.0625 154.0625 C156.0625 154.7225 156.0625 155.3825 156.0625 156.0625 C157.3825 156.7225 158.7025 157.3825 160.0625 158.0625 C160.0625 158.7225 160.0625 159.3825 160.0625 160.0625 C161.3825 160.7225 162.7025 161.3825 164.0625 162.0625 C164.0625 162.7225 164.0625 163.3825 164.0625 164.0625 C165.0525 164.3925 166.0425 164.7225 167.0625 165.0625 C167.0625 165.7225 167.0625 166.3825 167.0625 167.0625 C168.3825 167.7225 169.7025 168.3825 171.0625 169.0625 C171.0625 169.7225 171.0625 170.3825 171.0625 171.0625 C172.0525 171.3925 173.0425 171.7225 174.0625 172.0625 C174.0625 172.7225 174.0625 173.3825 174.0625 174.0625 C175.3825 174.7225 176.7025 175.3825 178.0625 176.0625 C178.0625 176.7225 178.0625 177.3825 178.0625 178.0625 C178.660625 178.330625 179.25875 178.59875 179.875 178.875 C182.06097854 180.06167406 183.47582594 181.15849113 185.0625 183.0625 C185.0625 183.7225 185.0625 184.3825 185.0625 185.0625 C185.660625 185.330625 186.25875 185.59875 186.875 185.875 C189.06097854 187.06167406 190.47582594 188.15849113 192.0625 190.0625 C192.0625 190.7225 192.0625 191.3825 192.0625 192.0625 C192.660625 192.330625 193.25875 192.59875 193.875 192.875 C196.06097854 194.06167406 197.47582594 195.15849113 199.0625 197.0625 C199.0625 197.7225 199.0625 198.3825 199.0625 199.0625 C199.660625 199.330625 200.25875 199.59875 200.875 199.875 C203.06097854 201.06167406 204.47582594 202.15849113 206.0625 204.0625 C206.0625 204.7225 206.0625 205.3825 206.0625 206.0625 C206.95472511 206.4677314 206.95472511 206.4677314 207.86497498 206.88114929 C210.04819634 208.05481061 211.47594466 209.22255297 213.22290039 210.96411133 C213.81353775 211.54844437 214.40417511 212.1327774 215.01271057 212.7348175 C215.63886765 213.36502304 216.26502472 213.99522858 216.91015625 214.64453125 C217.56326279 215.29572433 218.21636932 215.94691742 218.88926697 216.61784363 C220.26758736 217.99480474 221.64339211 219.37428795 223.0168457 220.75610352 C225.11387161 222.8638149 227.2213163 224.96067857 229.33007812 227.05664062 C230.6699124 228.39779687 232.00912593 229.73957359 233.34765625 231.08203125 C233.97583755 231.70616409 234.60401886 232.33029694 235.25123596 232.9733429 C240.28899755 238.06516485 243.49135408 241.93537724 243.625 249.375 C243.68880859 250.97794922 243.68880859 250.97794922 243.75390625 252.61328125 C241.75463402 262.58705175 231.04753686 270.3692593 224.078125 277.3125 C222.81324553 278.57872849 221.54866292 279.8452536 220.28436279 281.11206055 C217.64837593 283.75098106 215.00884258 286.38628692 212.36669922 289.01904297 C208.97468989 292.39958831 205.59183307 295.78912883 202.21152115 299.18136597 C199.60898635 301.79110712 197.00173283 304.39609183 194.39299774 306.99963379 C193.14274913 308.24854614 191.89399029 309.49895164 190.64673615 310.75085449 C188.91152321 312.49112008 187.17007603 314.22489051 185.42675781 315.95703125 C184.91038254 316.47745499 184.39400726 316.99787872 183.86198425 317.53407288 C180.29104184 321.0625 180.29104184 321.0625 178.0625 321.0625 C177.794375 321.660625 177.52625 322.25875 177.25 322.875 C176.06332594 325.06097854 174.96650887 326.47582594 173.0625 328.0625 C172.4025 328.0625 171.7425 328.0625 171.0625 328.0625 C170.4025 329.3825 169.7425 330.7025 169.0625 332.0625 C168.4025 332.0625 167.7425 332.0625 167.0625 332.0625 C166.7325 333.0525 166.4025 334.0425 166.0625 335.0625 C165.4025 335.0625 164.7425 335.0625 164.0625 335.0625 C163.4025 336.3825 162.7425 337.7025 162.0625 339.0625 C161.4025 339.0625 160.7425 339.0625 160.0625 339.0625 C159.7325 340.0525 159.4025 341.0425 159.0625 342.0625 C158.4025 342.0625 157.7425 342.0625 157.0625 342.0625 C156.4025 343.3825 155.7425 344.7025 155.0625 346.0625 C154.4025 346.0625 153.7425 346.0625 153.0625 346.0625 C152.4025 347.3825 151.7425 348.7025 151.0625 350.0625 C150.4025 350.0625 149.7425 350.0625 149.0625 350.0625 C148.7325 351.0525 148.4025 352.0425 148.0625 353.0625 C147.4025 353.0625 146.7425 353.0625 146.0625 353.0625 C145.4025 354.3825 144.7425 355.7025 144.0625 357.0625 C143.4025 357.0625 142.7425 357.0625 142.0625 357.0625 C141.7325 358.0525 141.4025 359.0425 141.0625 360.0625 C140.4025 360.0625 139.7425 360.0625 139.0625 360.0625 C138.4025 361.3825 137.7425 362.7025 137.0625 364.0625 C136.4025 364.0625 135.7425 364.0625 135.0625 364.0625 C134.7325 365.0525 134.4025 366.0425 134.0625 367.0625 C133.4025 367.0625 132.7425 367.0625 132.0625 367.0625 C131.4025 368.3825 130.7425 369.7025 130.0625 371.0625 C129.4025 371.0625 128.7425 371.0625 128.0625 371.0625 C127.7325 372.0525 127.4025 373.0425 127.0625 374.0625 C125.125 376.25 125.125 376.25 123.0625 378.0625 C122.4025 378.0625 121.7425 378.0625 121.0625 378.0625 C120.7325 379.0525 120.4025 380.0425 120.0625 381.0625 C118.61322381 382.28120952 117.15993372 383.49588784 115.67578125 384.671875 C113.15062485 386.84852313 111.18743347 389.50168274 109.0625 392.0625 C107.39583333 393.39583333 105.72916667 394.72916667 104.0625 396.0625 C103.258125 397.031875 102.45375 398.00125 101.625 399 C99.00822291 402.12736774 96.18813033 404.45780806 93.0625 407.0625 C91.85838316 408.52011512 90.6548559 409.97846308 89.4765625 411.45703125 C87.25262068 413.98200387 84.69642079 416.09204644 82.125 418.25390625 C79.65897437 420.41634918 77.37105851 422.73547247 75.0625 425.0625 C74.53281113 425.59534292 74.00312225 426.12818584 73.4573822 426.67717552 C71.59530073 428.55067266 69.73415511 430.42509662 67.87304688 432.29956055 C60.70751824 439.51408784 53.53436398 446.72098424 46.35684967 453.92358685 C42.01858146 458.27755559 37.68317891 462.63430269 33.35400391 466.99731445 C29.15972095 471.22416057 24.95817989 475.44366425 20.7514801 479.65815163 C19.1508668 481.26430722 17.55289599 482.87310068 15.95762634 484.48456383 C13.72932183 486.73460598 11.49184475 488.97512384 9.25195312 491.21362305 C8.26679466 492.21496025 8.26679466 492.21496025 7.26173401 493.23652649 C2.74507812 497.72283991 -0.36355408 499.85821858 -6.875 500.375 C-13.0090016 500.20204883 -17.4912421 497.11644102 -21.9375 493.0625 C-21.9375 492.4025 -21.9375 491.7425 -21.9375 491.0625 C-22.9275 490.7325 -23.9175 490.4025 -24.9375 490.0625 C-27.125 488.125 -27.125 488.125 -28.9375 486.0625 C-28.9375 485.4025 -28.9375 484.7425 -28.9375 484.0625 C-29.9275 483.7325 -30.9175 483.4025 -31.9375 483.0625 C-34.125 481.125 -34.125 481.125 -35.9375 479.0625 C-35.9375 478.4025 -35.9375 477.7425 -35.9375 477.0625 C-36.9275 476.7325 -37.9175 476.4025 -38.9375 476.0625 C-41.125 474.125 -41.125 474.125 -42.9375 472.0625 C-42.9375 471.4025 -42.9375 470.7425 -42.9375 470.0625 C-44.2575 469.4025 -45.5775 468.7425 -46.9375 468.0625 C-46.9375 467.4025 -46.9375 466.7425 -46.9375 466.0625 C-47.9275 465.7325 -48.9175 465.4025 -49.9375 465.0625 C-49.9375 464.4025 -49.9375 463.7425 -49.9375 463.0625 C-51.2575 462.4025 -52.5775 461.7425 -53.9375 461.0625 C-53.9375 460.4025 -53.9375 459.7425 -53.9375 459.0625 C-54.9275 458.7325 -55.9175 458.4025 -56.9375 458.0625 C-56.9375 457.4025 -56.9375 456.7425 -56.9375 456.0625 C-58.2575 455.4025 -59.5775 454.7425 -60.9375 454.0625 C-60.9375 453.4025 -60.9375 452.7425 -60.9375 452.0625 C-62.2575 451.4025 -63.5775 450.7425 -64.9375 450.0625 C-64.9375 449.4025 -64.9375 448.7425 -64.9375 448.0625 C-65.9275 447.7325 -66.9175 447.4025 -67.9375 447.0625 C-67.9375 446.4025 -67.9375 445.7425 -67.9375 445.0625 C-69.2575 444.4025 -70.5775 443.7425 -71.9375 443.0625 C-71.9375 442.4025 -71.9375 441.7425 -71.9375 441.0625 C-72.9275 440.7325 -73.9175 440.4025 -74.9375 440.0625 C-74.9375 439.4025 -74.9375 438.7425 -74.9375 438.0625 C-76.2575 437.4025 -77.5775 436.7425 -78.9375 436.0625 C-78.9375 435.4025 -78.9375 434.7425 -78.9375 434.0625 C-79.9275 433.7325 -80.9175 433.4025 -81.9375 433.0625 C-81.9375 432.4025 -81.9375 431.7425 -81.9375 431.0625 C-83.2575 430.4025 -84.5775 429.7425 -85.9375 429.0625 C-85.9375 428.4025 -85.9375 427.7425 -85.9375 427.0625 C-86.9275 426.7325 -87.9175 426.4025 -88.9375 426.0625 C-88.9375 425.4025 -88.9375 424.7425 -88.9375 424.0625 C-90.2575 423.4025 -91.5775 422.7425 -92.9375 422.0625 C-92.9375 421.4025 -92.9375 420.7425 -92.9375 420.0625 C-93.535625 419.794375 -94.13375 419.52625 -94.75 419.25 C-96.93597854 418.06332594 -98.35082594 416.96650887 -99.9375 415.0625 C-99.9375 414.4025 -99.9375 413.7425 -99.9375 413.0625 C-100.47054465 412.85421727 -101.00358931 412.64593454 -101.55278683 412.43134022 C-104.8917922 410.51473033 -107.40195058 407.87308115 -110.09291077 405.16105652 C-111.01366155 404.24498571 -111.01366155 404.24498571 -111.95301336 403.31040841 C-114.01130664 401.26010066 -116.06236767 399.20270812 -118.11352539 397.14526367 C-119.5866468 395.6748519 -121.06019345 394.20486603 -122.53413391 392.73527527 C-126.53867084 388.73986861 -130.53684018 384.73814586 -134.53364491 380.73500609 C-138.71462514 376.54896825 -142.90047619 372.3678057 -147.08555603 368.18586731 C-154.11443426 361.16062981 -161.13908032 354.13118115 -168.16137695 347.09936523 C-176.28170088 338.96816081 -184.40919906 330.84418082 -192.54047018 322.72392482 C-199.51832348 315.75514636 -206.4922729 308.78247915 -213.46297258 301.80654508 C-217.62764165 297.63875686 -221.79365278 293.47233429 -225.96318245 289.30940819 C-229.8836974 285.39466873 -233.79929084 281.47507247 -237.71113396 277.55166817 C-239.14814664 276.11200983 -240.58686613 274.67405287 -242.02740479 273.23792267 C-243.99262128 271.27816672 -245.95158071 269.31236143 -247.90907288 267.34489441 C-248.76733574 266.49332371 -248.76733574 266.49332371 -249.64293724 265.62454957 C-253.42972329 261.80021718 -256.63777148 258.43682001 -257.3359375 252.90625 C-257.32820313 251.8028125 -257.32046875 250.699375 -257.3125 249.5625 C-257.32023437 248.4590625 -257.32796875 247.355625 -257.3359375 246.21875 C-256.89884414 242.75628492 -256.0480509 240.82165923 -253.9375 238.0625 C-253.2775 238.0625 -252.6175 238.0625 -251.9375 238.0625 C-251.669375 237.464375 -251.40125 236.86625 -251.125 236.25 C-249.93832594 234.06402146 -248.84150887 232.64917406 -246.9375 231.0625 C-246.2775 231.0625 -245.6175 231.0625 -244.9375 231.0625 C-243.9475 229.0825 -243.9475 229.0825 -242.9375 227.0625 C-242.2775 227.0625 -241.6175 227.0625 -240.9375 227.0625 C-240.6075 226.0725 -240.2775 225.0825 -239.9375 224.0625 C-239.2775 224.0625 -238.6175 224.0625 -237.9375 224.0625 C-236.9475 222.0825 -236.9475 222.0825 -235.9375 220.0625 C-235.2775 220.0625 -234.6175 220.0625 -233.9375 220.0625 C-233.6075 219.0725 -233.2775 218.0825 -232.9375 217.0625 C-232.2775 217.0625 -231.6175 217.0625 -230.9375 217.0625 C-229.9475 215.0825 -229.9475 215.0825 -228.9375 213.0625 C-228.2775 213.0625 -227.6175 213.0625 -226.9375 213.0625 C-226.6075 212.0725 -226.2775 211.0825 -225.9375 210.0625 C-224 207.875 -224 207.875 -221.9375 206.0625 C-221.2775 206.0625 -220.6175 206.0625 -219.9375 206.0625 C-219.6075 205.0725 -219.2775 204.0825 -218.9375 203.0625 C-217 200.875 -217 200.875 -214.9375 199.0625 C-214.2775 199.0625 -213.6175 199.0625 -212.9375 199.0625 C-212.2775 197.7425 -211.6175 196.4225 -210.9375 195.0625 C-210.2775 195.0625 -209.6175 195.0625 -208.9375 195.0625 C-208.6075 194.0725 -208.2775 193.0825 -207.9375 192.0625 C-207.2775 192.0625 -206.6175 192.0625 -205.9375 192.0625 C-205.2775 190.7425 -204.6175 189.4225 -203.9375 188.0625 C-203.2775 188.0625 -202.6175 188.0625 -201.9375 188.0625 C-201.6075 187.0725 -201.2775 186.0825 -200.9375 185.0625 C-199 182.875 -199 182.875 -196.9375 181.0625 C-196.2775 181.0625 -195.6175 181.0625 -194.9375 181.0625 C-194.6075 180.0725 -194.2775 179.0825 -193.9375 178.0625 C-192 175.875 -192 175.875 -189.9375 174.0625 C-189.2775 174.0625 -188.6175 174.0625 -187.9375 174.0625 C-187.6075 173.0725 -187.2775 172.0825 -186.9375 171.0625 C-185.46553892 169.81951064 -183.98975536 168.58020378 -182.48046875 167.3828125 C-180.74350987 165.97987264 -180.74350987 165.97987264 -178.9375 163.5625 C-176.9375 161.0625 -176.9375 161.0625 -174 158.625 C-170.8643956 156.15610369 -170.8643956 156.15610369 -168.4375 153.0625 C-165.84451956 149.95092347 -163.07517128 147.61185791 -159.9375 145.0625 C-158.25038577 143.4165349 -156.5829378 141.75012851 -154.9375 140.0625 C-153.27179167 138.39487554 -151.60498276 136.72835018 -149.9375 135.0625 C-148.0521373 133.17127271 -146.16717777 131.27965069 -144.28271484 129.38752747 C-143.14419482 128.24460933 -142.00566485 127.10170111 -140.86712646 125.95880127 C-139.96292591 125.05111118 -139.96292591 125.05111118 -139.04045868 124.12508392 C-125.15820675 110.18976404 -111.26736372 96.26303447 -97.37161255 82.34117603 C-89.34066884 74.29473723 -81.31258132 66.24548602 -73.29101562 58.18969727 C-66.28462615 51.15343153 -59.27300081 44.12243339 -52.25500679 37.09774131 C-48.54264563 33.38146803 -44.83297466 29.66259569 -41.12957764 25.93738747 C-37.64930204 22.43677629 -34.16208004 18.94324036 -30.66936493 15.45504189 C-29.38845104 14.17330179 -28.11011137 12.88898321 -26.83454132 11.6019249 C-25.09397196 9.84644883 -23.34441165 8.10045163 -21.59228516 6.35652161 C-21.08887289 5.84437082 -20.58546062 5.33222003 -20.06679344 4.80454952 C-14.20964833 -0.97873131 -7.84732738 -2.50446618 0 0 Z M-13.10256672 16.72140884 C-13.92974557 17.53754001 -14.75692443 18.35367117 -15.6091693 19.19453359 C-16.51257291 20.10617796 -17.41597651 21.01782233 -18.34675598 21.95709229 C-19.31940473 22.92441923 -20.29292231 23.89087324 -21.26723498 24.85652423 C-23.94858539 27.51917222 -26.61724367 30.19423665 -29.28402412 32.8714664 C-32.15957656 35.75398926 -35.04656518 38.62501807 -37.93209839 41.49754333 C-43.58539722 47.12916145 -49.2277164 52.77165854 -54.86611769 58.41818818 C-59.44696587 63.00532684 -64.03150394 67.58874616 -68.6187191 72.16951752 C-69.27067576 72.82057252 -69.92263241 73.47162752 -70.59434533 74.14241146 C-71.91863423 75.46484923 -73.24292885 76.78728129 -74.56722911 78.10970768 C-86.99483721 90.52072343 -99.40974794 102.9443798 -111.82064202 115.37210616 C-123.18679558 126.75296136 -134.5675525 138.11908116 -145.95546571 149.4781597 C-157.63703613 161.1303709 -169.30940515 172.79172248 -180.97152537 184.46340156 C-182.2894561 185.78235489 -183.60740084 187.10129423 -184.92535973 188.42021942 C-185.5738864 189.06922249 -186.22241307 189.71822555 -186.89059207 190.38689537 C-191.47043612 194.96890797 -196.05625157 199.54489168 -200.64444923 204.1185379 C-206.23227618 209.6888905 -211.81128277 215.26789499 -217.3789551 220.85839543 C-220.22215069 223.71277724 -223.06928087 226.5629271 -225.92731667 229.40245628 C-228.54023641 231.998673 -231.14147007 234.60601679 -233.733615 237.22297141 C-235.12556478 238.62217963 -236.52990452 240.00902776 -237.93454772 241.39549279 C-238.74868784 242.22205495 -239.56282796 243.0486171 -240.40163898 243.90022659 C-241.11372464 244.61258193 -241.82581029 245.32493727 -242.55947429 246.05887914 C-244.13538143 247.93212604 -244.13538143 247.93212604 -243.89371294 250.0633015 C-242.67622532 252.60875902 -241.16899813 254.21094818 -239.17395401 256.21194935 C-238.35993189 257.03564481 -237.54590977 257.85934026 -236.70722032 258.70799619 C-235.80306185 259.60750884 -234.89890339 260.5070215 -233.96734619 261.43379211 C-233.00421008 262.40253116 -232.04172498 263.37191781 -231.07983756 264.34189671 C-228.4305545 267.00956987 -225.77192649 269.66775682 -223.11167002 272.32448113 C-220.24596072 275.18957933 -217.38885299 278.06323333 -214.53057861 280.93574524 C-208.92824127 286.56302207 -203.31757073 292.18191848 -197.70358685 297.79757414 C-193.14249153 302.36009369 -188.58377091 306.92497231 -184.02672577 311.49153709 C-171.11585322 324.42883237 -158.19870528 337.35981486 -145.27349022 350.28278122 C-144.57641228 350.9797393 -143.87933433 351.67669737 -143.16113281 352.39477539 C-142.46320601 353.09257955 -141.76527921 353.79038371 -141.04620311 354.50933345 C-129.72741638 365.82689997 -118.42367873 377.15936605 -107.126663 388.4986603 C-95.53607922 400.13227969 -83.93440322 411.75473382 -72.32098365 423.36555833 C-65.79734611 429.88819817 -59.27844542 436.41541804 -52.77143097 442.95464516 C-47.23288219 448.5204356 -41.68415643 454.07582113 -36.12176254 459.61778531 C-33.28214095 462.44757462 -30.44765291 465.28205954 -27.62591553 468.12969208 C-25.04536068 470.73368501 -22.45149482 473.32357793 -19.84607241 475.9026828 C-18.45491106 477.28699696 -17.07858737 478.68617226 -15.70275331 480.08572084 C-14.8783002 480.89637756 -14.05384709 481.70703428 -13.20441055 482.54225636 C-12.49601477 483.25130424 -11.78761899 483.96035213 -11.05775666 484.69088632 C-9.00845403 486.2963285 -9.00845403 486.2963285 -6.43784916 486.01791143 C-3.46920179 484.88355801 -1.9131189 483.54050134 0.33499718 481.2961607 C1.16068368 480.48152188 1.98637019 479.66688306 2.8370775 478.82755822 C3.73367731 477.92271764 4.63027713 477.01787706 5.55404663 476.08561707 C6.52343483 475.12155304 7.49369134 474.15836147 8.4647404 473.19597036 C11.13241428 470.546967 13.78743236 467.88558556 16.44054675 465.22201097 C19.30312546 462.35245298 22.17715259 459.49440119 25.04971313 456.63484192 C30.67546144 451.03075849 36.29024775 445.41581429 41.90110438 439.79682513 C46.45952063 435.23211547 51.02163098 430.67112949 55.58641434 426.11278725 C56.23546014 425.4646431 56.88450594 424.81649895 57.5532198 424.14871407 C58.87163018 422.83215483 60.19004626 421.51560131 61.50846799 420.19905344 C73.87646599 407.84764191 86.23177465 395.48359808 98.58305927 383.11547659 C109.8941822 371.78964864 121.21991447 360.47856266 132.55279581 349.1745102 C144.18015715 337.57650773 155.79831748 325.96936554 167.40622866 314.35189515 C168.71796514 313.03913608 170.02971562 311.72639099 171.34148026 310.41366005 C171.98694783 309.76771608 172.63241541 309.12177212 173.29744261 308.45625409 C177.85525702 303.89627131 182.41904199 299.34231686 186.98521042 294.79070091 C192.54556463 289.24782048 198.09709896 283.69628946 203.63729851 278.13326117 C206.46632452 275.29304909 209.29928408 272.4570694 212.14315033 269.63171005 C214.74307775 267.04848574 217.33131757 264.45413564 219.91047008 261.85017351 C221.29541334 260.45797198 222.69274635 259.07813019 224.09038293 257.698672 C224.90042296 256.87620994 225.71046298 256.05374788 226.54504967 255.20636272 C227.25355548 254.49758722 227.9620613 253.78881172 228.69203699 253.05855817 C230.26023329 251.19109658 230.26023329 251.19109658 230.01773685 249.06267458 C228.80110075 246.51515498 227.29377488 244.91636064 225.2961607 242.91584396 C224.07420247 241.68122583 224.07420247 241.68122583 222.82755822 240.42166591 C221.47029735 239.0734201 221.47029735 239.0734201 220.08561707 237.69793701 C219.12176556 236.72991429 218.15856784 235.76124022 217.19597036 234.79197049 C214.54473782 232.12623711 211.88417936 229.46998406 209.22201097 226.81517792 C206.35425198 223.95213677 203.49511077 221.08051192 200.63484192 218.20999146 C195.02864068 212.58657044 189.41425837 206.97138637 183.79682513 201.35918757 C179.23299997 196.79939895 174.67191747 192.23688421 170.11278725 187.67240143 C169.4646431 187.02350886 168.81649895 186.37461629 168.14871407 185.70606031 C166.83215708 184.38797189 165.51560355 183.06988001 164.19905344 181.75178471 C151.84525474 169.3842498 139.48187523 157.02632732 127.11547659 144.67139307 C115.79234809 133.35820115 104.48070386 122.03360665 93.1745102 110.70349249 C81.57458849 99.07921322 69.96733192 87.46230691 58.35189515 75.85353017 C51.82702685 69.33216114 45.30508256 62.80793096 38.79070091 56.2760849 C33.24588797 50.71659187 27.6941547 45.16412632 22.13326117 39.62071607 C19.29432872 36.79033009 16.45875316 33.956779 13.63171005 31.1145134 C11.04638222 28.51543693 8.45209047 25.92568221 5.85017351 23.34321609 C4.45964777 21.95828417 3.07900323 20.56345328 1.698672 19.16836047 C0.87620994 18.3557127 0.05374788 17.54306493 -0.79363728 16.70579147 C-1.50241278 15.99712331 -2.21118828 15.28845514 -2.94144183 14.55831218 C-7.27326864 11.31211455 -9.83081008 13.45512037 -13.10256672 16.72140884 Z " fill="#030300" transform="translate(256.9375,4.9375)"/>
</svg>
