<svg version="1.1" id="Layer_1" xmlns="http://www.w3.org/2000/svg" xmlns:xlink="http://www.w3.org/1999/xlink" x="0px" y="0px"
	 width="100%" viewBox="0 0 770 1023" enable-background="new 0 0 770 1023" xml:space="preserve">
<path fill="#000090" opacity="1.000000" stroke="none" 
	d="
M0.999995,1012.000000 
	C1.000000,679.637329 1.000000,347.274597 1.354762,14.523932 
	C5.366766,9.628193 8.246493,4.337053 14.001839,1.927798 
	C14.111476,1.881902 14.005420,1.320749 14.000000,1.000000 
	C262.029388,1.000000 510.058746,1.000000 758.479980,1.359708 
	C762.063904,4.790037 765.220398,7.899380 768.478821,10.898047 
	C769.116882,11.485235 770.149414,11.643752 771.000000,11.999999 
	C771.000000,345.362701 771.000000,678.725403 770.644287,1012.466309 
	C767.394653,1015.536133 764.473206,1018.199158 761.621948,1020.935303 
	C760.656677,1021.861755 759.868896,1022.973145 759.000000,1024.000000 
	C510.970642,1024.000000 262.941254,1024.000000 14.521011,1023.640991 
	C10.355960,1019.670105 6.600281,1016.038330 2.779925,1012.476013 
	C2.383384,1012.106323 1.602529,1012.148804 0.999995,1012.000000 
M643.189087,714.163879 
	C629.504822,687.169800 615.789185,660.191589 602.143738,633.177917 
	C582.491455,594.272705 562.880310,555.346741 543.270020,516.420349 
	C523.440735,477.059082 503.627991,437.689423 483.819824,398.317474 
	C475.367981,381.518005 466.985809,364.683319 458.501678,347.900208 
	C444.846252,320.887329 431.101746,293.919495 417.454895,266.902283 
	C409.275482,250.709213 401.375244,234.371567 392.922760,218.323685 
	C391.595520,215.803787 387.963043,212.979385 385.456146,213.034012 
	C383.032867,213.086838 380.308105,216.378738 378.412506,218.794571 
	C376.497101,221.235672 375.429810,224.344269 374.003082,227.166580 
	C360.039490,254.788559 346.088165,282.416748 332.113892,310.033356 
	C318.367706,337.199310 304.571075,364.339783 290.850037,391.518402 
	C281.852173,409.341370 272.980804,427.228180 263.996948,445.058289 
	C248.583542,475.648834 233.115280,506.211731 217.691940,536.797302 
	C208.552078,554.922241 199.482239,573.082520 190.329788,591.201111 
	C180.134521,611.384155 169.834656,631.514526 159.665909,651.710876 
	C148.811310,673.269348 138.095642,694.897827 127.246231,716.458862 
	C118.206024,734.424561 108.928864,752.272217 100.015877,770.300293 
	C95.502861,779.428589 98.982124,784.671448 109.035164,784.671509 
	C293.158691,784.672546 477.282227,784.672302 661.405762,784.671692 
	C662.738770,784.671692 664.076721,784.735352 665.403870,784.644653 
	C672.020935,784.192688 675.755737,778.017029 672.789856,772.161072 
	C663.095276,753.020386 653.302185,733.929443 643.189087,714.163879 
z"/>
<path fill="#000000" opacity="1.000000" stroke="none" 
	d="
M13.523338,1.000000 
	C14.005420,1.320749 14.111476,1.881902 14.001839,1.927798 
	C8.246493,4.337053 5.366766,9.628193 1.354762,14.067982 
	C1.000000,9.743702 1.000000,5.487404 1.000000,1.000000 
	C5.013751,1.000000 9.030214,1.000000 13.523338,1.000000 
z"/>
<path fill="#000000" opacity="1.000000" stroke="none" 
	d="
M0.999995,1012.479248 
	C1.602529,1012.148804 2.383384,1012.106323 2.779925,1012.476013 
	C6.600281,1016.038330 10.355960,1019.670105 14.065061,1023.640991 
	C9.747740,1024.000000 5.495479,1024.000000 1.000000,1024.000000 
	C1.000000,1020.321594 1.000000,1016.639954 0.999995,1012.479248 
z"/>
<path fill="#000000" opacity="1.000000" stroke="none" 
	d="
M771.000000,11.517043 
	C770.149414,11.643752 769.116882,11.485235 768.478821,10.898047 
	C765.220398,7.899380 762.063904,4.790037 758.935913,1.359708 
	C762.917175,1.000000 766.834351,1.000000 771.000000,1.000000 
	C771.000000,4.342352 771.000000,7.688220 771.000000,11.517043 
z"/>
<path fill="#000000" opacity="1.000000" stroke="none" 
	d="
M759.479187,1024.000000 
	C759.868896,1022.973145 760.656677,1021.861755 761.621948,1020.935303 
	C764.473206,1018.199158 767.394653,1015.536133 770.644287,1012.922241 
	C771.000000,1016.591980 771.000000,1020.183899 771.000000,1024.000000 
	C767.321228,1024.000000 763.639832,1024.000000 759.479187,1024.000000 
z"/>
<path fill="#FBFBFC" opacity="1.000000" stroke="none" 
	d="
M643.368042,714.491638 
	C653.302185,733.929443 663.095276,753.020386 672.789856,772.161072 
	C675.755737,778.017029 672.020935,784.192688 665.403870,784.644653 
	C664.076721,784.735352 662.738770,784.671692 661.405762,784.671692 
	C477.282227,784.672302 293.158691,784.672546 109.035164,784.671509 
	C98.982124,784.671448 95.502861,779.428589 100.015877,770.300293 
	C108.928864,752.272217 118.206024,734.424561 127.246231,716.458862 
	C138.095642,694.897827 148.811310,673.269348 159.665909,651.710876 
	C169.834656,631.514526 180.134521,611.384155 190.329788,591.201111 
	C199.482239,573.082520 208.552078,554.922241 217.691940,536.797302 
	C233.115280,506.211731 248.583542,475.648834 263.996948,445.058289 
	C272.980804,427.228180 281.852173,409.341370 290.850037,391.518402 
	C304.571075,364.339783 318.367706,337.199310 332.113892,310.033356 
	C346.088165,282.416748 360.039490,254.788559 374.003082,227.166580 
	C375.429810,224.344269 376.497101,221.235672 378.412506,218.794571 
	C380.308105,216.378738 383.032867,213.086838 385.456146,213.034012 
	C387.963043,212.979385 391.595520,215.803787 392.922760,218.323685 
	C401.375244,234.371567 409.275482,250.709213 417.454895,266.902283 
	C431.101746,293.919495 444.846252,320.887329 458.501678,347.900208 
	C466.985809,364.683319 475.367981,381.518005 483.819824,398.317474 
	C503.627991,437.689423 523.440735,477.059082 543.270020,516.420349 
	C562.880310,555.346741 582.491455,594.272705 602.143738,633.177917 
	C615.789185,660.191589 629.504822,687.169800 643.368042,714.491638 
M439.066345,608.443726 
	C438.093964,604.740356 437.153564,601.028198 436.142761,597.335327 
	C433.905457,589.161377 432.816406,580.411499 429.126099,572.951721 
	C421.620728,557.779907 412.748474,543.280823 404.338837,528.562012 
	C401.894470,524.283752 400.291687,520.337219 402.110199,515.070068 
	C405.589539,504.992676 408.259521,494.635834 411.486877,483.640259 
	C412.775635,485.175049 413.486816,485.847290 413.991180,486.649536 
	C419.526581,495.454407 427.014862,501.336975 437.520233,503.189240 
	C440.920471,503.788727 444.140503,505.381287 447.462219,506.460358 
	C458.015656,509.888580 468.578125,513.288879 479.310883,516.756104 
	C482.053284,512.604248 484.662567,508.653931 487.466766,504.408508 
	C471.613068,493.848816 456.307129,483.573944 440.897156,473.457611 
	C437.831238,471.444855 435.869141,469.253265 434.942108,465.459290 
	C430.949677,449.119568 426.365448,432.918182 417.048798,418.625946 
	C411.106689,409.510406 403.984375,401.761566 391.575989,404.060730 
	C386.044830,405.085602 380.467957,406.529358 375.292725,408.693695 
	C353.702362,417.722992 334.090393,430.232574 314.993774,443.627960 
	C312.322296,445.501801 311.553894,447.514709 311.570709,450.627472 
	C311.692902,473.286285 311.631378,495.946106 311.647797,518.605591 
	C311.648926,520.161682 311.810516,521.717651 311.905945,523.425232 
	C313.872345,523.197083 315.192810,523.073669 316.504242,522.887085 
	C328.044586,521.245117 327.893738,521.228455 328.916382,509.743866 
	C330.289917,494.318665 331.891174,478.913300 333.499420,463.510315 
	C333.655396,462.016449 334.245728,459.584229 335.148041,459.316162 
	C339.975006,457.881989 344.965088,456.996765 350.354279,455.822540 
	C347.375275,465.931030 344.349701,475.082367 342.001373,484.404297 
	C337.490601,502.310272 335.492249,520.382812 339.862366,538.691528 
	C340.307495,540.556335 340.451050,542.693909 340.017639,544.536255 
	C336.170166,560.891785 332.197144,577.218201 328.190979,593.535950 
	C322.279999,617.612488 316.290680,641.669739 310.425385,665.757324 
	C310.114807,667.032715 310.114075,669.219116 310.868347,669.786926 
	C317.285370,674.618103 323.910950,679.172180 330.924927,684.127930 
	C346.245087,644.533997 361.246826,605.762939 376.475739,566.404846 
	C382.532593,572.853760 388.016449,578.562683 393.332520,584.423828 
	C395.174194,586.454407 397.264008,588.637512 398.110046,591.133972 
	C404.938690,611.284241 411.474426,631.533508 418.149963,651.735901 
	C420.946869,660.200378 423.865601,668.624573 426.775208,677.203491 
	C436.501801,673.658203 445.642822,670.326355 454.941040,666.937195 
	C449.625610,647.381104 444.440735,628.305237 439.066345,608.443726 
M569.506775,649.503967 
	C553.950928,649.503967 538.395142,649.503967 522.071533,649.503967 
	C525.417236,657.219116 528.333557,664.063477 531.344421,670.866028 
	C543.641724,698.649658 556.022705,726.396606 568.206177,754.229980 
	C569.551697,757.303772 571.116882,758.368286 574.477844,758.337708 
	C593.451843,758.164978 612.428162,758.260193 631.403687,758.239807 
	C632.635132,758.238464 633.866272,758.034485 635.737183,757.867798 
	C633.487793,754.049438 631.600281,750.789978 629.660583,747.561890 
	C615.463379,723.934082 601.290344,700.291687 587.033875,676.699707 
	C581.557434,667.637146 575.883362,658.693970 569.506775,649.503967 
M204.800766,649.456055 
	C202.478119,650.178894 199.256165,650.187683 198.006073,651.762146 
	C194.626205,656.018860 192.032532,660.910095 189.219604,665.605103 
	C174.966522,689.394775 160.734711,713.197327 146.514084,737.006409 
	C142.466492,743.783081 138.481339,750.596985 133.958847,758.255310 
	C136.600311,758.255310 138.194702,758.255310 139.789093,758.255310 
	C155.767151,758.255310 171.768585,757.738281 187.713989,758.459900 
	C196.504654,758.857727 202.394684,757.147278 204.199448,747.682495 
	C204.620956,745.471924 206.157852,743.486023 207.101074,741.361023 
	C218.078812,716.630005 229.059052,691.900085 239.994049,667.150208 
	C242.502991,661.471497 244.842651,655.718018 247.489731,649.456116 
	C232.976349,649.456116 219.353149,649.456116 204.800766,649.456055 
M357.611206,688.038574 
	C355.777008,711.217957 353.942810,734.397339 352.080566,757.930908 
	C374.054749,757.930908 395.586273,757.930908 417.623199,757.930908 
	C414.792175,721.734497 411.983704,685.826355 409.172760,649.886719 
	C392.544891,649.886719 376.511017,649.886719 360.299530,649.886719 
	C359.412170,662.572693 358.553833,674.843994 357.611206,688.038574 
M445.323761,683.127441 
	C445.252899,683.775330 445.025146,684.450867 445.133820,685.067139 
	C449.206268,708.161011 453.349945,731.242554 457.365387,754.346252 
	C457.961395,757.775391 459.824524,758.333740 462.908386,758.314270 
	C481.888519,758.194275 500.869781,758.260315 519.850647,758.240479 
	C521.116211,758.239136 522.381531,758.041199 523.981201,757.906616 
	C523.337219,755.825562 522.845581,754.087891 522.264099,752.380859 
	C516.639648,735.869629 510.970367,719.373657 505.373291,702.853149 
	C499.880798,686.641602 494.499603,670.392090 488.941132,654.203369 
	C488.354034,652.493530 486.963135,649.788513 485.842651,649.736084 
	C477.650696,649.352905 469.432495,649.529541 460.812103,649.529541 
	C463.195648,658.376160 465.336548,666.322205 467.546021,674.522766 
	C459.906677,677.388367 452.929382,680.005676 445.323761,683.127441 
M260.333466,706.776306 
	C254.548111,723.719849 248.762772,740.663391 243.008041,757.517273 
	C243.458969,757.809692 243.589951,757.968872 243.721725,757.969543 
	C264.522583,758.070374 285.323669,758.202271 306.123962,758.124939 
	C307.172485,758.121033 308.937683,756.441406 309.151642,755.311462 
	C312.865173,735.698792 316.451447,716.060974 319.823578,696.387085 
	C320.076416,694.912109 318.949738,692.536804 317.699280,691.581482 
	C311.900726,687.151245 305.904205,682.965942 299.822845,678.927429 
	C297.550903,677.418640 296.793457,676.116211 297.592346,673.276978 
	C299.737885,665.651550 301.429260,657.898376 303.480713,649.456360 
	C296.942963,649.456360 290.832733,649.747437 284.767426,649.351379 
	C280.892395,649.098389 279.143402,650.546448 277.999634,654.028320 
	C272.294922,671.394104 266.440216,688.710632 260.333466,706.776306 
M392.308289,388.075806 
	C399.279358,398.878510 411.105804,402.510193 423.104950,397.533051 
	C435.788086,392.272064 441.451355,377.312561 435.584381,364.568481 
	C429.906250,352.234589 413.905945,347.082672 401.570892,353.616486 
	C389.267639,360.133423 384.879333,375.577606 392.308289,388.075806 
z"/>
<path fill="#070707" opacity="1.000000" stroke="none" 
	d="
M439.161072,608.836548 
	C444.440735,628.305237 449.625610,647.381104 454.941040,666.937195 
	C445.642822,670.326355 436.501801,673.658203 426.775208,677.203491 
	C423.865601,668.624573 420.946869,660.200378 418.149963,651.735901 
	C411.474426,631.533508 404.938690,611.284241 398.110046,591.133972 
	C397.264008,588.637512 395.174194,586.454407 393.332520,584.423828 
	C388.016449,578.562683 382.532593,572.853760 376.475739,566.404846 
	C361.246826,605.762939 346.245087,644.533997 330.924927,684.127930 
	C323.910950,679.172180 317.285370,674.618103 310.868347,669.786926 
	C310.114075,669.219116 310.114807,667.032715 310.425385,665.757324 
	C316.290680,641.669739 322.279999,617.612488 328.190979,593.535950 
	C332.197144,577.218201 336.170166,560.891785 340.017639,544.536255 
	C340.451050,542.693909 340.307495,540.556335 339.862366,538.691528 
	C335.492249,520.382812 337.490601,502.310272 342.001373,484.404297 
	C344.349701,475.082367 347.375275,465.931030 350.354279,455.822540 
	C344.965088,456.996765 339.975006,457.881989 335.148041,459.316162 
	C334.245728,459.584229 333.655396,462.016449 333.499420,463.510315 
	C331.891174,478.913300 330.289917,494.318665 328.916382,509.743866 
	C327.893738,521.228455 328.044586,521.245117 316.504242,522.887085 
	C315.192810,523.073669 313.872345,523.197083 311.905945,523.425232 
	C311.810516,521.717651 311.648926,520.161682 311.647797,518.605591 
	C311.631378,495.946106 311.692902,473.286285 311.570709,450.627472 
	C311.553894,447.514709 312.322296,445.501801 314.993774,443.627960 
	C334.090393,430.232574 353.702362,417.722992 375.292725,408.693695 
	C380.467957,406.529358 386.044830,405.085602 391.575989,404.060730 
	C403.984375,401.761566 411.106689,409.510406 417.048798,418.625946 
	C426.365448,432.918182 430.949677,449.119568 434.942108,465.459290 
	C435.869141,469.253265 437.831238,471.444855 440.897156,473.457611 
	C456.307129,483.573944 471.613068,493.848816 487.466766,504.408508 
	C484.662567,508.653931 482.053284,512.604248 479.310883,516.756104 
	C468.578125,513.288879 458.015656,509.888580 447.462219,506.460358 
	C444.140503,505.381287 440.920471,503.788727 437.520233,503.189240 
	C427.014862,501.336975 419.526581,495.454407 413.991180,486.649536 
	C413.486816,485.847290 412.775635,485.175049 411.486877,483.640259 
	C408.259521,494.635834 405.589539,504.992676 402.110199,515.070068 
	C400.291687,520.337219 401.894470,524.283752 404.338837,528.562012 
	C412.748474,543.280823 421.620728,557.779907 429.126099,572.951721 
	C432.816406,580.411499 433.905457,589.161377 436.142761,597.335327 
	C437.153564,601.028198 438.093964,604.740356 439.161072,608.836548 
z"/>
<path fill="#070707" opacity="1.000000" stroke="none" 
	d="
M569.903076,649.600220 
	C575.883362,658.693970 581.557434,667.637146 587.033875,676.699707 
	C601.290344,700.291687 615.463379,723.934082 629.660583,747.561890 
	C631.600281,750.789978 633.487793,754.049438 635.737183,757.867798 
	C633.866272,758.034485 632.635132,758.238464 631.403687,758.239807 
	C612.428162,758.260193 593.451843,758.164978 574.477844,758.337708 
	C571.116882,758.368286 569.551697,757.303772 568.206177,754.229980 
	C556.022705,726.396606 543.641724,698.649658 531.344421,670.866028 
	C528.333557,664.063477 525.417236,657.219116 522.071533,649.503967 
	C538.395142,649.503967 553.950928,649.503967 569.903076,649.600220 
z"/>
<path fill="#070707" opacity="1.000000" stroke="none" 
	d="
M205.265350,649.456055 
	C219.353149,649.456116 232.976349,649.456116 247.489731,649.456116 
	C244.842651,655.718018 242.502991,661.471497 239.994049,667.150208 
	C229.059052,691.900085 218.078812,716.630005 207.101074,741.361023 
	C206.157852,743.486023 204.620956,745.471924 204.199448,747.682495 
	C202.394684,757.147278 196.504654,758.857727 187.713989,758.459900 
	C171.768585,757.738281 155.767151,758.255310 139.789093,758.255310 
	C138.194702,758.255310 136.600311,758.255310 133.958847,758.255310 
	C138.481339,750.596985 142.466492,743.783081 146.514084,737.006409 
	C160.734711,713.197327 174.966522,689.394775 189.219604,665.605103 
	C192.032532,660.910095 194.626205,656.018860 198.006073,651.762146 
	C199.256165,650.187683 202.478119,650.178894 205.265350,649.456055 
z"/>
<path fill="#070707" opacity="1.000000" stroke="none" 
	d="
M357.653351,687.576904 
	C358.553833,674.843994 359.412170,662.572693 360.299530,649.886719 
	C376.511017,649.886719 392.544891,649.886719 409.172760,649.886719 
	C411.983704,685.826355 414.792175,721.734497 417.623199,757.930908 
	C395.586273,757.930908 374.054749,757.930908 352.080566,757.930908 
	C353.942810,734.397339 355.777008,711.217957 357.653351,687.576904 
z"/>
<path fill="#070707" opacity="1.000000" stroke="none" 
	d="
M445.637939,682.875183 
	C452.929382,680.005676 459.906677,677.388367 467.546021,674.522766 
	C465.336548,666.322205 463.195648,658.376160 460.812103,649.529541 
	C469.432495,649.529541 477.650696,649.352905 485.842651,649.736084 
	C486.963135,649.788513 488.354034,652.493530 488.941132,654.203369 
	C494.499603,670.392090 499.880798,686.641602 505.373291,702.853149 
	C510.970367,719.373657 516.639648,735.869629 522.264099,752.380859 
	C522.845581,754.087891 523.337219,755.825562 523.981201,757.906616 
	C522.381531,758.041199 521.116211,758.239136 519.850647,758.240479 
	C500.869781,758.260315 481.888519,758.194275 462.908386,758.314270 
	C459.824524,758.333740 457.961395,757.775391 457.365387,754.346252 
	C453.349945,731.242554 449.206268,708.161011 445.133820,685.067139 
	C445.025146,684.450867 445.252899,683.775330 445.637939,682.875183 
z"/>
<path fill="#070707" opacity="1.000000" stroke="none" 
	d="
M260.485901,706.410400 
	C266.440216,688.710632 272.294922,671.394104 277.999634,654.028320 
	C279.143402,650.546448 280.892395,649.098389 284.767426,649.351379 
	C290.832733,649.747437 296.942963,649.456360 303.480713,649.456360 
	C301.429260,657.898376 299.737885,665.651550 297.592346,673.276978 
	C296.793457,676.116211 297.550903,677.418640 299.822845,678.927429 
	C305.904205,682.965942 311.900726,687.151245 317.699280,691.581482 
	C318.949738,692.536804 320.076416,694.912109 319.823578,696.387085 
	C316.451447,716.060974 312.865173,735.698792 309.151642,755.311462 
	C308.937683,756.441406 307.172485,758.121033 306.123962,758.124939 
	C285.323669,758.202271 264.522583,758.070374 243.721725,757.969543 
	C243.589951,757.968872 243.458969,757.809692 243.008041,757.517273 
	C248.762772,740.663391 254.548111,723.719849 260.485901,706.410400 
z"/>
<path fill="#090909" opacity="1.000000" stroke="none" 
	d="
M392.139282,387.740417 
	C384.879333,375.577606 389.267639,360.133423 401.570892,353.616486 
	C413.905945,347.082672 429.906250,352.234589 435.584381,364.568481 
	C441.451355,377.312561 435.788086,392.272064 423.104950,397.533051 
	C411.105804,402.510193 399.279358,398.878510 392.139282,387.740417 
z"/>
</svg>