<?xml version="1.0" encoding="UTF-8"?>
<svg version="1.1" xmlns="http://www.w3.org/2000/svg" width="500" height="500">
<path d="M0 0 C4.3048672 3.2330942 8.03133592 7.00850833 11.81987321 10.8214916 C13.17263014 12.16511187 13.17263014 12.16511187 14.55271548 13.53587598 C17.03587696 16.00274391 19.50971638 18.47877353 21.98200059 20.95653605 C24.6576161 23.63483486 27.34183702 26.30448674 30.0248903 28.97533071 C35.27202791 34.20146789 40.51093637 39.43577879 45.74669012 44.67331841 C50.00422492 48.93216338 54.26431603 53.18843484 58.5262121 57.44291532 C59.75611928 58.67072321 60.98602562 59.89853194 62.21593112 61.12634152 C63.13430092 62.04314604 63.13430092 62.04314604 64.07122365 62.97847185 C75.63607643 74.52444452 87.19096262 86.08035201 98.74296353 97.63918106 C109.30028572 108.20207897 119.87075061 118.75171289 130.4473991 129.29525616 C141.32116201 140.13524893 152.18557641 150.98453215 163.04015845 161.84373254 C169.12886228 167.93467744 175.221224 174.02185232 181.32351053 180.09919202 C186.51790299 185.27252863 191.70343396 190.45455306 196.87787112 195.6478522 C199.51541672 198.29452853 202.15674005 200.93710369 204.80920732 203.56883276 C207.69085746 206.4282019 210.55256206 209.30676076 213.41289079 212.1874584 C214.24528329 213.00733305 215.07767579 213.8272077 215.9352923 214.67192703 C223.77494483 222.63134739 229.45190248 231.14772722 229.67590654 242.5719341 C229.47045559 256.43987318 220.80362234 265.89874748 211.42634904 275.21590078 C210.5306022 276.11773873 209.63485536 277.01957667 208.71196467 277.94874305 C206.24509674 280.43190452 203.76906711 282.90574394 201.29130459 285.37802815 C198.61300579 288.05364366 195.9433539 290.73786459 193.27250993 293.42091787 C188.04637276 298.66805548 182.81206185 303.90696394 177.57452223 309.14271768 C173.31567726 313.40025249 169.0594058 317.6603436 164.80492532 321.92223966 C163.57711744 323.15214685 162.3493087 324.38205318 161.12149912 325.61195868 C160.20469461 326.53032849 160.20469461 326.53032849 159.26936879 327.46725122 C147.72339612 339.032104 136.16748864 350.58699018 124.60865959 362.1389911 C114.04576168 372.69631329 103.49612775 383.26677817 92.95258448 393.84342667 C82.11259172 404.71718958 71.26330849 415.58160398 60.40410811 426.43618602 C54.3131632 432.52488985 48.22598832 438.61725156 42.14864862 444.71953809 C36.97531202 449.91393055 31.79328758 455.09946152 26.59998844 460.27389868 C23.95331212 462.91144429 21.31073696 465.55276761 18.67900789 468.20523489 C15.81963874 471.08688502 12.94107989 473.94858963 10.06038225 476.80891836 C9.2405076 477.64131086 8.42063295 478.47370335 7.57591361 479.33131987 C-0.38350675 487.1709724 -8.89988658 492.84793005 -20.32409346 493.0719341 C-34.19203254 492.86648315 -43.65090684 484.1996499 -52.96806014 474.82237661 C-53.86989808 473.92662976 -54.77173603 473.03088292 -55.7009024 472.10799223 C-58.18406388 469.6411243 -60.6579033 467.16509468 -63.13018751 464.68733215 C-65.80580302 462.00903335 -68.49002395 459.33938147 -71.17307723 456.6685375 C-76.42021484 451.44240032 -81.6591233 446.20808942 -86.89487704 440.9705498 C-91.15241185 436.71170482 -95.41250295 432.45543337 -99.67439902 428.20095289 C-100.9043062 426.973145 -102.13421254 425.74533626 -103.36411804 424.51752669 C-103.97636458 423.90632368 -104.58861111 423.29512067 -105.21941058 422.66539636 C-116.78426336 411.11942369 -128.33914954 399.5635162 -139.89115045 388.00468715 C-150.44847264 377.44178924 -161.01893753 366.89215532 -171.59558602 356.34861205 C-182.46934894 345.50861928 -193.33376333 334.65933605 -204.18834537 323.80013567 C-210.27704921 317.70919077 -216.36941092 311.62201588 -222.47169745 305.54467618 C-227.66608991 300.37133958 -232.85162088 295.18931515 -238.02605804 289.996016 C-240.66360364 287.34933968 -243.30492697 284.70676452 -245.95739424 282.07503545 C-248.83904438 279.2156663 -251.70074898 276.33710745 -254.56107771 273.45640981 C-255.39347021 272.63653516 -256.22586271 271.81666051 -257.08347923 270.97194117 C-264.92313175 263.01252082 -270.6000894 254.49614099 -270.82409346 243.0719341 C-270.61864251 229.20399502 -261.95180926 219.74512073 -252.57453597 210.42796743 C-251.67878912 209.52612948 -250.78304228 208.62429153 -249.86015159 207.69512516 C-247.39328366 205.21196368 -244.91725404 202.73812426 -242.43949151 200.26584005 C-239.76119271 197.59022454 -237.09154082 194.90600362 -234.42069685 192.22295034 C-229.19455968 186.97581273 -223.96024877 181.73690427 -218.72270916 176.50115053 C-214.46386418 172.24361572 -210.20759272 167.98352461 -205.95311224 163.72162855 C-204.72530436 162.49172136 -203.49749562 161.26181502 -202.26968604 160.03190953 C-201.65848303 159.41966299 -201.04728002 158.80741645 -200.41755571 158.17661699 C-188.87158304 146.61176421 -177.31567556 135.05687803 -165.75684651 123.50487711 C-155.1939486 112.94755492 -144.64431467 102.37709003 -134.1007714 91.80044154 C-123.26077864 80.92667863 -112.41149541 70.06226423 -101.55229503 59.20768219 C-95.46135013 53.11897836 -89.37417524 47.02661665 -83.29683554 40.92433012 C-78.12349894 35.72993765 -72.9414745 30.54440668 -67.74817536 25.36996952 C-65.10149904 22.73242392 -62.45892388 20.0911006 -59.82719481 17.43863332 C-56.96782566 14.55698319 -54.08926681 11.69527858 -51.20856917 8.83494985 C-50.38869452 8.00255735 -49.56881987 7.17016485 -48.72410053 6.31254834 C-34.13271958 -8.05927164 -17.31275347 -11.78950201 0 0 Z " fill="#FEFE02" transform="translate(270.5740934610367,7.178065896034241)"/>
<path d="M0 0 C0.99 0.33 1.98 0.66 3 1 C3.6875 3.0625 3.6875 3.0625 4 5 C4.66 5 5.32 5 6 5 C7.6730957 7.17700195 7.6730957 7.17700195 9.67578125 10.23828125 C10.21805611 11.06017944 10.21805611 11.06017944 10.77128601 11.89868164 C11.550811 13.08173168 12.32720654 14.26684834 13.10083008 15.45376587 C14.72507203 17.94539656 16.36434858 20.42699073 18.00289917 22.90922546 C18.8281619 24.15977953 19.6526423 25.41085021 20.47634888 26.66242981 C23.93369387 31.91387644 27.44487836 37.12667843 31 42.3125 C31.52013672 43.07159668 32.04027344 43.83069336 32.57617188 44.61279297 C36.16765782 49.83374939 39.83409233 54.99754321 43.53833008 60.13891602 C46.85409617 64.75455507 50.00882261 69.46548243 53.140625 74.20703125 C55.43575229 77.65454389 57.80793527 81.04292918 60.19140625 84.4296875 C66.78711792 93.80329069 73.24144073 103.27323785 79.6875 112.75 C80.41243652 113.81549072 81.13737305 114.88098145 81.88427734 115.97875977 C83.27920949 118.03145829 84.67084994 120.08639844 86.05883789 122.14379883 C87.29860066 123.96796995 88.55414987 125.78157681 89.82983398 127.58081055 C90.37325439 128.357229 90.9166748 129.13364746 91.4765625 129.93359375 C91.9504541 130.59673584 92.4243457 131.25987793 92.91259766 131.94311523 C94.96327246 135.82208587 94.96055841 139.78715722 94 144 C92.25 146.625 92.25 146.625 89 148 C79.65653058 149.08181661 71.75020639 146.79728803 63 143.75 C61.81921875 143.35425781 60.6384375 142.95851562 59.421875 142.55078125 C57.19260357 141.8019621 54.96565636 141.04615034 52.7421875 140.28027344 C47.50546035 138.48868959 42.25069286 136.75023095 37 135 C37 154.14 37 173.28 37 193 C65.71 193 94.42 193 124 193 C124 210.49 124 227.98 124 246 C95.29 246 66.58 246 37 246 C37 277.02 37 308.04 37 340 C13.24 340 -10.52 340 -35 340 C-35 308.98 -35 277.96 -35 246 C-63.71 246 -92.42 246 -122 246 C-122 228.51 -122 211.02 -122 193 C-93.29 193 -64.58 193 -35 193 C-35.33 174.19 -35.66 155.38 -36 136 C-54.32972161 140.8300947 -54.32972161 140.8300947 -71.75 147.1875 C-78.06626382 148.76656595 -84.5331161 149.47064232 -90.25 146.0625 C-92.60504857 141.94116499 -92.91319477 138.57571575 -92 134 C-89.91016834 129.74813307 -87.24623314 125.97654328 -84.5 122.125 C-83.80390625 121.11308594 -83.1078125 120.10117188 -82.390625 119.05859375 C-78.26509451 113.09185428 -74.00197923 107.22572876 -69.72412109 101.36767578 C-62.68586433 91.70228154 -56.08086039 81.71709543 -49.36398315 71.82736206 C-43.9498997 63.85590909 -38.49895353 55.91312825 -33 48 C-31.26733354 45.50240586 -29.53865085 43.00210146 -27.8125 40.5 C-27.36479248 39.85216553 -26.91708496 39.20433105 -26.45581055 38.53686523 C-23.6742687 34.49323331 -20.94953913 30.41652696 -18.2578125 26.3125 C-17.62383545 25.34892578 -16.9898584 24.38535156 -16.33666992 23.39257812 C-15.08340623 21.4837636 -13.83603547 19.57106525 -12.5949707 17.65429688 C-11.74165161 16.35588867 -11.74165161 16.35588867 -10.87109375 15.03125 C-10.36505615 14.25330078 -9.85901855 13.47535156 -9.33764648 12.67382812 C-8.67551147 11.8452832 -8.67551147 11.8452832 -8 11 C-7.34 11 -6.68 11 -6 11 C-5.62875 9.948125 -5.62875 9.948125 -5.25 8.875 C-3.83911974 5.62997541 -2.02104602 2.89683263 0 0 Z " fill="#020200" transform="translate(249,66)"/>
<path d="M0 0 C4.3048672 3.2330942 8.03133592 7.00850833 11.81987321 10.8214916 C13.17263014 12.16511187 13.17263014 12.16511187 14.55271548 13.53587598 C17.03587696 16.00274391 19.50971638 18.47877353 21.98200059 20.95653605 C24.6576161 23.63483486 27.34183702 26.30448674 30.0248903 28.97533071 C35.27202791 34.20146789 40.51093637 39.43577879 45.74669012 44.67331841 C50.00422492 48.93216338 54.26431603 53.18843484 58.5262121 57.44291532 C59.75611928 58.67072321 60.98602562 59.89853194 62.21593112 61.12634152 C63.13430092 62.04314604 63.13430092 62.04314604 64.07122365 62.97847185 C75.63607643 74.52444452 87.19096262 86.08035201 98.74296353 97.63918106 C109.30028572 108.20207897 119.87075061 118.75171289 130.4473991 129.29525616 C141.32116201 140.13524893 152.18557641 150.98453215 163.04015845 161.84373254 C169.12886228 167.93467744 175.221224 174.02185232 181.32351053 180.09919202 C186.51790299 185.27252863 191.70343396 190.45455306 196.87787112 195.6478522 C199.51541672 198.29452853 202.15674005 200.93710369 204.80920732 203.56883276 C207.69085746 206.4282019 210.55256206 209.30676076 213.41289079 212.1874584 C214.24528329 213.00733305 215.07767579 213.8272077 215.9352923 214.67192703 C223.77494483 222.63134739 229.45190248 231.14772722 229.67590654 242.5719341 C229.47045559 256.43987318 220.80362234 265.89874748 211.42634904 275.21590078 C210.5306022 276.11773873 209.63485536 277.01957667 208.71196467 277.94874305 C206.24509674 280.43190452 203.76906711 282.90574394 201.29130459 285.37802815 C198.61300579 288.05364366 195.9433539 290.73786459 193.27250993 293.42091787 C188.04637276 298.66805548 182.81206185 303.90696394 177.57452223 309.14271768 C173.31567726 313.40025249 169.0594058 317.6603436 164.80492532 321.92223966 C163.57711744 323.15214685 162.3493087 324.38205318 161.12149912 325.61195868 C160.20469461 326.53032849 160.20469461 326.53032849 159.26936879 327.46725122 C147.72339612 339.032104 136.16748864 350.58699018 124.60865959 362.1389911 C114.04576168 372.69631329 103.49612775 383.26677817 92.95258448 393.84342667 C82.11259172 404.71718958 71.26330849 415.58160398 60.40410811 426.43618602 C54.3131632 432.52488985 48.22598832 438.61725156 42.14864862 444.71953809 C36.97531202 449.91393055 31.79328758 455.09946152 26.59998844 460.27389868 C23.95331212 462.91144429 21.31073696 465.55276761 18.67900789 468.20523489 C15.81963874 471.08688502 12.94107989 473.94858963 10.06038225 476.80891836 C9.2405076 477.64131086 8.42063295 478.47370335 7.57591361 479.33131987 C-0.38350675 487.1709724 -8.89988658 492.84793005 -20.32409346 493.0719341 C-34.19203254 492.86648315 -43.65090684 484.1996499 -52.96806014 474.82237661 C-53.86989808 473.92662976 -54.77173603 473.03088292 -55.7009024 472.10799223 C-58.18406388 469.6411243 -60.6579033 467.16509468 -63.13018751 464.68733215 C-65.80580302 462.00903335 -68.49002395 459.33938147 -71.17307723 456.6685375 C-76.42021484 451.44240032 -81.6591233 446.20808942 -86.89487704 440.9705498 C-91.15241185 436.71170482 -95.41250295 432.45543337 -99.67439902 428.20095289 C-100.9043062 426.973145 -102.13421254 425.74533626 -103.36411804 424.51752669 C-103.97636458 423.90632368 -104.58861111 423.29512067 -105.21941058 422.66539636 C-116.78426336 411.11942369 -128.33914954 399.5635162 -139.89115045 388.00468715 C-150.44847264 377.44178924 -161.01893753 366.89215532 -171.59558602 356.34861205 C-182.46934894 345.50861928 -193.33376333 334.65933605 -204.18834537 323.80013567 C-210.27704921 317.70919077 -216.36941092 311.62201588 -222.47169745 305.54467618 C-227.66608991 300.37133958 -232.85162088 295.18931515 -238.02605804 289.996016 C-240.66360364 287.34933968 -243.30492697 284.70676452 -245.95739424 282.07503545 C-248.83904438 279.2156663 -251.70074898 276.33710745 -254.56107771 273.45640981 C-255.39347021 272.63653516 -256.22586271 271.81666051 -257.08347923 270.97194117 C-264.92313175 263.01252082 -270.6000894 254.49614099 -270.82409346 243.0719341 C-270.61864251 229.20399502 -261.95180926 219.74512073 -252.57453597 210.42796743 C-251.67878912 209.52612948 -250.78304228 208.62429153 -249.86015159 207.69512516 C-247.39328366 205.21196368 -244.91725404 202.73812426 -242.43949151 200.26584005 C-239.76119271 197.59022454 -237.09154082 194.90600362 -234.42069685 192.22295034 C-229.19455968 186.97581273 -223.96024877 181.73690427 -218.72270916 176.50115053 C-214.46386418 172.24361572 -210.20759272 167.98352461 -205.95311224 163.72162855 C-204.72530436 162.49172136 -203.49749562 161.26181502 -202.26968604 160.03190953 C-201.65848303 159.41966299 -201.04728002 158.80741645 -200.41755571 158.17661699 C-188.87158304 146.61176421 -177.31567556 135.05687803 -165.75684651 123.50487711 C-155.1939486 112.94755492 -144.64431467 102.37709003 -134.1007714 91.80044154 C-123.26077864 80.92667863 -112.41149541 70.06226423 -101.55229503 59.20768219 C-95.46135013 53.11897836 -89.37417524 47.02661665 -83.29683554 40.92433012 C-78.12349894 35.72993765 -72.9414745 30.54440668 -67.74817536 25.36996952 C-65.10149904 22.73242392 -62.45892388 20.0911006 -59.82719481 17.43863332 C-56.96782566 14.55698319 -54.08926681 11.69527858 -51.20856917 8.83494985 C-50.38869452 8.00255735 -49.56881987 7.17016485 -48.72410053 6.31254834 C-34.13271958 -8.05927164 -17.31275347 -11.78950201 0 0 Z M-35.19788802 23.22972524 C-36.11227532 24.13415717 -37.02666263 25.03858909 -37.96875864 25.97042805 C-40.49822339 28.47371518 -42.99555794 31.00704197 -45.48863435 33.54650068 C-48.18548307 36.28248393 -50.91119158 38.98944885 -53.63343489 41.70012319 C-58.95775704 47.01081827 -64.25521048 52.34756115 -69.54430295 57.69331781 C-75.70265297 63.91537002 -81.88838228 70.10989837 -88.0757122 76.30311092 C-99.11126216 87.35078721 -110.1235778 98.4213304 -121.12218916 109.50577199 C-131.80029102 120.2671306 -142.49162263 131.01508706 -153.1993376 141.74698293 C-154.18921817 142.73910815 -154.18921817 142.73910815 -155.19909633 143.75127629 C-157.85154054 146.40966885 -160.50402166 149.06802456 -163.15656534 151.72631787 C-174.58616545 163.18137026 -186.00471385 174.64743576 -197.42186496 186.114894 C-199.27229693 187.97329183 -201.12299398 189.83142531 -202.97375667 191.68949378 C-209.44964902 198.19141206 -215.92220948 204.69659397 -222.38541771 211.21112362 C-225.05857909 213.90548501 -227.73321889 216.59832943 -230.41212904 219.28697622 C-233.31133771 222.19692614 -236.20267032 225.11457304 -239.09315169 228.03319204 C-239.94720817 228.88824404 -240.80126465 229.74329603 -241.68120164 230.6242587 C-242.45033951 231.40354566 -243.21947739 232.18283262 -244.01192248 232.98573434 C-244.68050534 233.65897849 -245.3490882 234.33222263 -246.03793114 235.02586812 C-248.13282892 237.47520215 -248.5603671 239.75467492 -249.19909346 242.8844341 C-248.4929953 247.33285251 -247.6000573 248.28000635 -244.60428298 251.48789537 C-243.78335567 252.37031715 -242.96242836 253.25273893 -242.11662447 254.16190076 C-238.2726926 258.18347882 -234.39354992 262.164019 -230.46606123 266.10405385 C-229.59492485 266.98168919 -228.72378847 267.85932453 -227.82625401 268.76355487 C-225.43718769 271.16932878 -223.04600593 273.57296096 -220.65377748 275.97558808 C-218.59545368 278.04363679 -216.53891801 280.11345935 -214.48236537 282.18326915 C-207.13293599 289.57993213 -199.77635224 296.96946119 -192.41784346 304.35709035 C-191.83675629 304.94048511 -191.25566912 305.52387986 -190.65697324 306.12495324 C-179.10423916 317.72312069 -167.54800374 329.31779668 -155.98596632 340.90669 C-153.4526293 343.44601514 -150.91934122 345.98538909 -148.38610518 348.52481496 C-147.44177922 349.47144039 -147.44177922 349.47144039 -146.47837597 350.43718957 C-136.25867844 360.68265448 -126.05467566 370.94360974 -115.85669714 381.2106883 C-105.37231369 391.76552218 -94.87288254 402.30520231 -84.35887635 412.83052951 C-78.46134855 418.73521477 -72.57079107 424.64651276 -66.69730818 430.5751251 C-61.70167246 435.61762201 -56.69274712 440.64641763 -51.66582155 445.65773023 C-49.1024858 448.21395426 -46.54607836 450.77622453 -44.00678122 453.3563484 C-41.25340346 456.15364223 -38.46959808 458.91932441 -35.68212569 461.68266714 C-34.88570835 462.50170508 -34.08929101 463.32074303 -33.26873982 464.16460031 C-28.95586753 468.38287658 -25.80927511 470.7070331 -19.71092045 471.18229896 C-15.04398128 470.39524373 -11.79757468 467.29628487 -8.54144347 464.05772626 C-7.76924129 463.29443978 -6.99703912 462.53115329 -6.20143688 461.74473691 C-4.94612985 460.4888768 -4.94612985 460.4888768 -3.66546309 459.20764577 C-2.76759856 458.31713462 -1.86973404 457.42662348 -0.9446615 456.50912714 C1.5435843 454.04085995 4.02555906 451.56637015 6.50649035 449.09075391 C9.18462797 446.42044018 11.86841202 443.75581091 14.55134904 441.09032094 C21.02555025 434.65558879 27.49010858 428.21121076 33.95350099 421.76562458 C36.99812928 418.72976822 40.0437357 415.69489347 43.08921373 412.65988958 C53.212533 402.5705818 63.33334113 392.47876503 73.44691408 382.37968671 C76.06961282 379.76080765 78.69232207 377.1419391 81.3150667 374.52310598 C81.96692151 373.87221864 82.61877633 373.22133131 83.29038432 372.55072011 C93.85818353 361.99953333 104.44291319 351.46550312 115.03481564 340.93851839 C125.91049537 330.12895403 136.77108298 319.3044126 147.61695254 308.46493673 C153.70641707 302.37980381 159.80230992 296.3014294 165.91509569 290.23971593 C171.11884862 285.07934118 176.30878437 279.90555975 181.48115543 274.71372263 C184.12038654 272.06539254 186.7656708 269.42396292 189.4287771 266.79962385 C192.31623496 263.95383909 195.17174008 261.07798637 198.02521074 258.19812429 C198.87100497 257.37426854 199.71679921 256.5504128 200.58822358 255.70159173 C204.86359371 251.32990267 207.33212781 248.14362851 207.79546225 241.94933367 C206.98494296 237.28346509 203.88833757 234.03315481 200.64887464 230.77087343 C199.49964487 229.60642002 199.49964487 229.60642002 198.32719833 228.41844231 C197.06652497 227.15627568 197.06652497 227.15627568 195.78038347 225.86861074 C194.88649433 224.9659571 193.9926052 224.06330345 193.07162851 223.13329667 C190.59390246 220.63171362 188.10994394 218.13640172 185.62484241 215.64214826 C182.9443141 212.94968024 180.26944483 210.2515991 177.59367692 207.55440176 C171.13403842 201.04579148 164.66456276 194.54700323 158.1933243 188.04992899 C156.36561458 186.21479199 154.53816504 184.37939633 152.7108084 182.54390776 C141.36064033 171.14328008 130.00729185 159.74583033 118.64431989 148.35796297 C116.01442901 145.72221286 113.38457025 143.08643072 110.75476396 140.45059621 C110.10114832 139.79548847 109.44753268 139.14038073 108.7741105 138.46542124 C98.17875353 127.84473896 87.60413948 117.20364828 77.03783821 106.5540668 C66.1879029 95.61931924 55.31922698 84.70348375 44.43203062 73.80583256 C38.32015806 67.6871304 32.21689605 61.56034133 26.13461435 55.41221082 C20.95671809 50.17834816 15.7621785 44.96175988 10.54502665 39.76701405 C7.88381202 37.11618081 5.23136372 34.45790317 2.60017717 31.77723348 C-0.25313752 28.87070981 -3.14375579 26.0044052 -6.03968489 23.14033926 C-6.86451874 22.28774123 -7.68935259 21.4351432 -8.53918141 20.55670887 C-12.27938993 16.91731854 -15.24543734 14.29109725 -20.56850684 13.77654684 C-27.11659304 14.40288686 -30.81688145 18.70286981 -35.19788802 23.22972524 Z " fill="#070705" transform="translate(270.5740934610367,7.178065896034241)"/>
<path d="M0 0 C0.33 1.32 0.66 2.64 1 4 C0.01 4.33 -0.98 4.66 -2 5 C-2.73323796 7.01508358 -2.73323796 7.01508358 -3 9 C-3.66 9 -4.32 9 -5 9 C-5.33 9.66 -5.66 10.32 -6 11 C-6.61875 11.268125 -7.2375 11.53625 -7.875 11.8125 C-10.71069752 13.3971545 -11.61641813 15.09447807 -13 18 C-13 19.32 -13 20.64 -13 22 C-13.61875 22.28875 -14.2375 22.5775 -14.875 22.875 C-17.13325765 23.93720042 -17.13325765 23.93720042 -19 26 C-19.16677282 29.58343976 -19.16677282 29.58343976 -19 33 C-18.34 33 -17.68 33 -17 33 C-17.33 33.99 -17.66 34.98 -18 36 C-20.790071 33.12273928 -21.93351879 31.5318497 -22.4375 27.5 C-21.71120633 21.68965068 -18.62419464 18.37420545 -14.55078125 14.35546875 C-13.27944336 13.09379883 -13.27944336 13.09379883 -11.98242188 11.80664062 C-11.10134766 10.94232422 -10.22027344 10.07800781 -9.3125 9.1875 C-8.41982422 8.30384766 -7.52714844 7.42019531 -6.60742188 6.50976562 C-4.40940071 4.33525271 -2.2068407 2.16555573 0 0 Z " fill="#ECEF1A" transform="translate(44,223)"/>
<path d="M0 0 C0 4.07546013 -1.55304448 5.80536362 -4 9 C-6.25 10.375 -6.25 10.375 -8 11 C-8 11.66 -8 12.32 -8 13 C-8.66 13 -9.32 13 -10 13 C-10.226875 13.53625 -10.45375 14.0725 -10.6875 14.625 C-11.86248478 16.75116293 -13.03384262 18.25498127 -14.625 20.0625 C-17.31436107 22.75923113 -17.31436107 22.75923113 -17 26 C-21.1077065 27.58706842 -22.59232396 28.10191901 -27 27 C-18.09 18.09 -9.18 9.18 0 0 Z " fill="#EDF11D" transform="translate(171,96)"/>
<path d="M0 0 C-6.27 6.27 -12.54 12.54 -19 19 C-19.33 17.68 -19.66 16.36 -20 15 C-19.34 15 -18.68 15 -18 15 C-18 14.34 -18 13.68 -18 13 C-17.34 13 -16.68 13 -16 13 C-16 12.34 -16 11.68 -16 11 C-15.01 11 -14.02 11 -13 11 C-13.33 10.01 -13.66 9.02 -14 8 C-12.68 7.67 -11.36 7.34 -10 7 C-10 6.34 -10 5.68 -10 5 C-9.34 5 -8.68 5 -8 5 C-8 4.34 -8 3.68 -8 3 C-7.34 3 -6.68 3 -6 3 C-6 2.01 -6 1.02 -6 0 C-4 -1 -4 -1 0 0 Z " fill="#F1F21B" transform="translate(359,374)"/>
<path d="M0 0 C1.32 0.66 2.64 1.32 4 2 C-0.95 6.95 -5.9 11.9 -11 17 C-11.66 15.68 -12.32 14.36 -13 13 C-8.375 8.125 -8.375 8.125 -5 7 C-3.79117904 4.99983534 -3.79117904 4.99983534 -3 3 C-2.01 3 -1.02 3 0 3 C0 2.01 0 1.02 0 0 Z " fill="#F3F416" transform="translate(373,354)"/>
<path d="M0 0 C0.33 0.99 0.66 1.98 1 3 C-0.07421875 4.7890625 -0.07421875 4.7890625 -1.6875 6.625 C-2.20699219 7.23601562 -2.72648437 7.84703125 -3.26171875 8.4765625 C-5.181038 10.15866252 -6.50835704 10.59829721 -9 11 C-9.103125 11.639375 -9.20625 12.27875 -9.3125 12.9375 C-9.539375 13.618125 -9.76625 14.29875 -10 15 C-10.99 15.33 -11.98 15.66 -13 16 C-13 16.66 -13 17.32 -13 18 C-14.65 18.33 -16.3 18.66 -18 19 C-12.44964797 12.21623641 -6.23557973 6.14477032 0 0 Z " fill="#E5EB26" transform="translate(126,141)"/>
<path d="M0 0 C1.32 0.33 2.64 0.66 4 1 C-0.29 5.29 -4.58 9.58 -9 14 C-9.33 12.68 -9.66 11.36 -10 10 C-9.34 10 -8.68 10 -8 10 C-8 9.34 -8 8.68 -8 8 C-7.34 8 -6.68 8 -6 8 C-5.938125 7.21625 -5.87625 6.4325 -5.8125 5.625 C-5.544375 4.75875 -5.27625 3.8925 -5 3 C-2.4375 1.6875 -2.4375 1.6875 0 1 C0 0.67 0 0.34 0 0 Z " fill="#F1F21A" transform="translate(271,457)"/>
<path d="M0 0 C4.13621084 3.3810038 7.81316569 6.66590534 11 11 C9.02 11 7.04 11 5 11 C5 10.01 5 9.02 5 8 C3.68 8.33 2.36 8.66 1 9 C1 7.68 1 6.36 1 5 C0.34 5 -0.32 5 -1 5 C-0.67 3.35 -0.34 1.7 0 0 Z " fill="#F5F812" transform="translate(391,159)"/>
<path d="M0 0 C0 3.52707529 -0.05453046 5.9112775 -2.41796875 8.6328125 C-6.12724072 11.76071955 -9.18216297 13.8249178 -14 15 C-9.59156563 9.70987876 -4.92440206 4.81191572 0 0 Z " fill="#EEF21B" transform="translate(190,77)"/>
<path d="M0 0 C7.48291572 6.15034169 7.48291572 6.15034169 10 10 C8.35 10.33 6.7 10.66 5 11 C5.33 9.68 5.66 8.36 6 7 C5.34 7 4.68 7 4 7 C4 7.66 4 8.32 4 9 C3.01 9 2.02 9 1 9 C1 7.68 1 6.36 1 5 C0.34 5 -0.32 5 -1 5 C-0.67 3.35 -0.34 1.7 0 0 Z " fill="#F6F814" transform="translate(455,223)"/>
<path d="M0 0 C1.65 0.33 3.3 0.66 5 1 C0.88380164 5.91935902 -3.40410362 10.52647956 -8 15 C-8.33 13.68 -8.66 12.36 -9 11 C-7.68 10.34 -6.36 9.68 -5 9 C-5 8.34 -5 7.68 -5 7 C-4.34 7 -3.68 7 -3 7 C-3 6.34 -3 5.68 -3 5 C-2.01 5 -1.02 5 0 5 C0 3.35 0 1.7 0 0 Z " fill="#F0F11C" transform="translate(298,428)"/>
<path d="M0 0 C-0.99 1.485 -0.99 1.485 -2 3 C-2 3.99 -2 4.98 -2 6 C-5.83887763 7.48320272 -8.06204091 8.22419163 -12 7 C-3.58823529 -1.79411765 -3.58823529 -1.79411765 0 0 Z " fill="#FCFC08" transform="translate(156,116)"/>
<path d="M0 0 C7.48291572 6.15034169 7.48291572 6.15034169 10 10 C8.35 10.33 6.7 10.66 5 11 C5 10.34 5 9.68 5 9 C3.68 8.34 2.36 7.68 1 7 C1 6.34 1 5.68 1 5 C0.34 5 -0.32 5 -1 5 C-0.67 3.35 -0.34 1.7 0 0 Z " fill="#F1F416" transform="translate(375,143)"/>
<path d="M0 0 C0.69140625 1.7734375 0.69140625 1.7734375 1 4 C-2.14942758 8.76942068 -6.42195649 11.77555142 -12 13 C-8.19524578 8.43969176 -4.25030379 4.14910608 0 0 Z " fill="#EDF11C" transform="translate(203,64)"/>
<path d="M0 0 C0 0.99 0 1.98 0 3 C0.99 2.67 1.98 2.34 3 2 C3 3.32 3 4.64 3 6 C3.99 6 4.98 6 6 6 C5.67 7.65 5.34 9.3 5 11 C-2.48291572 4.84965831 -2.48291572 4.84965831 -5 1 C-2 0 -2 0 0 0 Z " fill="#F2F518" transform="translate(52,278)"/>
<path d="M0 0 C4.57833813 0.91999702 8.98880087 1.94444462 13.375 3.5625 C18.48976256 5.35493007 23.61744376 5.70823527 29 6 C29 6.33 29 6.66 29 7 C24.05 7 19.1 7 14 7 C14 6.34 14 5.68 14 5 C12.02 5 10.04 5 8 5 C8 4.34 8 3.68 8 3 C7.05125 3.061875 6.1025 3.12375 5.125 3.1875 C4.09375 3.125625 3.0625 3.06375 2 3 C1.34 2.01 0.68 1.02 0 0 Z " fill="#E2E522" transform="translate(308,208)"/>
<path d="M0 0 C0.99 0 1.98 0 3 0 C3 0.99 3 1.98 3 3 C5.64 3 8.28 3 11 3 C10.67 3.66 10.34 4.32 10 5 C8.07421875 5.484375 8.07421875 5.484375 5.6875 5.75 C4.90761719 5.84796875 4.12773437 5.9459375 3.32421875 6.046875 C0.69866432 5.99392264 -0.76473757 5.32990442 -3 4 C-2.01 3.67 -1.02 3.34 0 3 C0 2.01 0 1.02 0 0 Z " fill="#E9EC16" transform="translate(246,472)"/>
<path d="M0 0 C1.12894876 0.93274109 2.25300876 1.87140122 3.375 2.8125 C4.00148438 3.33457031 4.62796875 3.85664063 5.2734375 4.39453125 C7 6 7 6 9 9 C6.36 9 3.72 9 1 9 C1 7.68 1 6.36 1 5 C0.34 5 -0.32 5 -1 5 C-0.67 3.35 -0.34 1.7 0 0 Z " fill="#F2F516" transform="translate(423,191)"/>
<path d="M0 0 C0 3 0 3 -1.16162109 4.48632812 C-1.69352051 4.99615234 -2.22541992 5.50597656 -2.7734375 6.03125 C-3.3509375 6.59457031 -3.9284375 7.15789062 -4.5234375 7.73828125 C-5.43996094 8.61033203 -5.43996094 8.61033203 -6.375 9.5 C-7.57249163 10.653993 -8.76788737 11.81016577 -9.9609375 12.96875 C-10.49509277 13.47857422 -11.02924805 13.98839844 -11.57958984 14.51367188 C-13.22510712 16.14934032 -13.22510712 16.14934032 -15 19 C-15.99 18.67 -16.98 18.34 -18 18 C-12.06 12.06 -6.12 6.12 0 0 Z " fill="#292500" transform="translate(335,397)"/>
<path d="M0 0 C7.48291572 6.15034169 7.48291572 6.15034169 10 10 C8.35 10.33 6.7 10.66 5 11 C5 10.01 5 9.02 5 8 C4.01 7.67 3.02 7.34 2 7 C2.33 6.01 2.66 5.02 3 4 C1.68 4.33 0.36 4.66 -1 5 C-0.67 3.35 -0.34 1.7 0 0 Z " fill="#F0F318" transform="translate(343,111)"/>
<path d="M0 0 C0 4.12527351 -1.49125936 5.76504496 -4 9 C-5.93102068 10.54010673 -7.86430538 11.73799864 -10 13 C-10.66 12.67 -11.32 12.34 -12 12 C-8.04 8.04 -4.08 4.08 0 0 Z " fill="#ECF020" transform="translate(107,160)"/>
<path d="M0 0 C1.65 0 3.3 0 5 0 C-1.15034169 7.48291572 -1.15034169 7.48291572 -5 10 C-4.6875 7.625 -4.6875 7.625 -4 5 C-3.01 4.34 -2.02 3.68 -1 3 C-0.67 2.01 -0.34 1.02 0 0 Z " fill="#F0F21A" transform="translate(462,265)"/>
<path d="M0 0 C0.99 0.33 1.98 0.66 3 1 C0.69 4.3 -1.62 7.6 -4 11 C-4.66 10.01 -5.32 9.02 -6 8 C-5 6 -4 4 -3 2 C-2.01 2 -1.02 2 0 2 C0 1.34 0 0.68 0 0 Z " fill="#F3F315" transform="translate(197,138)"/>
<path d="M0 0 C1 3 1 3 -0.125 6.125 C-2 9 -2 9 -4.5 9.875 C-6.33151879 9.96657594 -8.16619324 10 -10 10 C-6.7 6.7 -3.4 3.4 0 0 Z " fill="#EDF11C" transform="translate(214,53)"/>
<path d="M0 0 C0.33 0.99 0.66 1.98 1 3 C-0.01320313 3.90492188 -0.01320313 3.90492188 -1.046875 4.828125 C-1.93890625 5.62734375 -2.8309375 6.4265625 -3.75 7.25 C-4.63171875 8.03890625 -5.5134375 8.8278125 -6.421875 9.640625 C-8.67866165 11.70592672 -10.85739926 13.81735064 -13 16 C-13.66 15.67 -14.32 15.34 -15 15 C-10.05 10.05 -5.1 5.1 0 0 Z " fill="#2A2500" transform="translate(316,416)"/>
<path d="M0 0 C0.66 0.99 1.32 1.98 2 3 C1.01 4.485 1.01 4.485 0 6 C-0.66 6 -1.32 6 -2 6 C-2.33 6.99 -2.66 7.98 -3 9 C-4.32 8.34 -5.64 7.68 -7 7 C-4.69 4.69 -2.38 2.38 0 0 Z " fill="#F1F418" transform="translate(134,133)"/>
<path d="M0 0 C0.99 0.99 1.98 1.98 3 3 C1.63875 4.051875 1.63875 4.051875 0.25 5.125 C-2.91969526 7.74638305 -4.87920111 10.49252491 -7 14 C-7.66 13.67 -8.32 13.34 -9 13 C-6.03 8.71 -3.06 4.42 0 0 Z " fill="#282400" transform="translate(227,98)"/>
<path d="M0 0 C0.33 0.99 0.66 1.98 1 3 C1.99 3.66 2.98 4.32 4 5 C3.34 6.32 2.68 7.64 2 9 C-0.31 6.69 -2.62 4.38 -5 2 C-2 0 -2 0 0 0 Z " fill="#F0F419" transform="translate(132,358)"/>
<path d="M0 0 C7.48291572 6.15034169 7.48291572 6.15034169 10 10 C8.02 10 6.04 10 4 10 C4 8.68 4 7.36 4 6 C3.01 5.67 2.02 5.34 1 5 C0.67 3.35 0.34 1.7 0 0 Z " fill="#EDF11D" transform="translate(264,32)"/>
<path d="M0 0 C0.99 0.33 1.98 0.66 3 1 C1.02 3.97 -0.96 6.94 -3 10 C-3.66 9.34 -4.32 8.68 -5 8 C-4.67 7.01 -4.34 6.02 -4 5 C-3.01 4.67 -2.02 4.34 -1 4 C-0.26676204 1.98491642 -0.26676204 1.98491642 0 0 Z " fill="#EDF01A" transform="translate(222,101)"/>
<path d="M0 0 C0.99 0.495 0.99 0.495 2 1 C2 1.66 2 2.32 2 3 C5.56045177 4.18681726 8.43808337 4.09689832 12.1875 4.0625 C13.45980469 4.05347656 14.73210937 4.04445312 16.04296875 4.03515625 C17.01878906 4.02355469 17.99460938 4.01195312 19 4 C18.67 4.66 18.34 5.32 18 6 C15.56131832 6.1079859 13.12740867 6.18726589 10.6875 6.25 C9.99720703 6.28351563 9.30691406 6.31703125 8.59570312 6.3515625 C3.47198304 6.45057158 3.47198304 6.45057158 1.01953125 4.109375 C0 2 0 2 0 0 Z " fill="#D9DB20" transform="translate(157,209)"/>
<path d="M0 0 C7.48291572 6.15034169 7.48291572 6.15034169 10 10 C7.69 9.34 5.38 8.68 3 8 C3 6.68 3 5.36 3 4 C2.34 4 1.68 4 1 4 C0.67 2.68 0.34 1.36 0 0 Z " fill="#ECF11E" transform="translate(438,206)"/>
<path d="M0 0 C-3.58375776 3.58375776 -9.13500141 3.92387761 -14.0625 4.125 C-14.701875 4.08375 -15.34125 4.0425 -16 4 C-13.40608858 2.59496465 -10.73026086 1.42294192 -8 0.3125 C-7.34 0.04050781 -6.68 -0.23148438 -6 -0.51171875 C-3.65456399 -1.08433496 -2.26562596 -0.75352292 0 0 Z " fill="#D8DB1C" transform="translate(192,209)"/>
<path d="M0 0 C0.33 0.99 0.66 1.98 1 3 C0.3503125 3.5878125 0.3503125 3.5878125 -0.3125 4.1875 C-2.1287076 6.00599296 -2.1287076 6.00599296 -3.5 8.5625 C-5 11 -5 11 -8 13 C-6.54997977 8.89160936 -4.6020866 5.49655387 -2 2 C-1.34 2 -0.68 2 0 2 C0 1.34 0 0.68 0 0 Z " fill="#333000" transform="translate(243,75)"/>
<path d="M0 0 C-1.33333333 2.66666667 -2.66666667 5.33333333 -4 8 C-4.66 8 -5.32 8 -6 8 C-6.33 6.35 -6.66 4.7 -7 3 C-2.25 0 -2.25 0 0 0 Z " fill="#E8E919" transform="translate(247,69)"/>
<path d="M0 0 C1.6026782 -0.10824843 3.20745748 -0.18570645 4.8125 -0.25 C5.70582031 -0.29640625 6.59914062 -0.3428125 7.51953125 -0.390625 C10 0 10 0 11.82421875 2.015625 C12.40623047 2.99789063 12.40623047 2.99789063 13 4 C11.989375 3.67 10.97875 3.34 9.9375 3 C6.24520089 1.92998679 2.84751793 1.84295845 -1 2 C-0.67 1.34 -0.34 0.68 0 0 Z " fill="#C6CB1C" transform="translate(245,22)"/>
<path d="M0 0 C1.98 0.495 1.98 0.495 4 1 C3.01 2.485 3.01 2.485 2 4 C1.54605448 6.27912938 1.54605448 6.27912938 1.375 8.6875 C1.30023438 9.49574219 1.22546875 10.30398437 1.1484375 11.13671875 C1.09945312 11.75160156 1.05046875 12.36648437 1 13 C0.67 13 0.34 13 0 13 C-0.19658808 11.58456585 -0.38187546 10.16755969 -0.5625 8.75 C-0.66691406 7.96109375 -0.77132812 7.1721875 -0.87890625 6.359375 C-1.00027349 3.99467126 -0.69633257 2.2488963 0 0 Z " fill="#E6E824" transform="translate(156,196)"/>
<path d="M0 0 C0.33 0.66 0.66 1.32 1 2 C0.06553465 4.03144641 -0.93224776 6.03533587 -2 8 C-2.66 8 -3.32 8 -4 8 C-4.66 9.32 -5.32 10.64 -6 12 C-6 8.36804504 -5.04546845 7.25286089 -3 4.3125 C-2.443125 3.50425781 -1.88625 2.69601563 -1.3125 1.86328125 C-0.879375 1.24839844 -0.44625 0.63351563 0 0 Z " fill="#353401" transform="translate(178,169)"/>
<path d="M0 0 C0.66 0 1.32 0 2 0 C2 0.66 2 1.32 2 2 C3.65 2 5.3 2 7 2 C6.67 4.31 6.34 6.62 6 9 C2.91910327 6.22719294 1.31224548 3.93673644 0 0 Z " fill="#F1F41F" transform="translate(257,74)"/>
<path d="M0 0 C1.32 0.66 2.64 1.32 4 2 C1.03 4.475 1.03 4.475 -2 7 C-2.125 4.625 -2.125 4.625 -2 2 C-1.34 1.34 -0.68 0.68 0 0 Z " fill="#F2F417" transform="translate(284,443)"/>
<path d="M0 0 C1.67542976 0.28604898 3.34385343 0.61781233 5 1 C3.35830472 3.02054804 1.69088222 5.02043058 0 7 C-0.33 7 -0.66 7 -1 7 C-1.04254356 5.00045254 -1.04080783 2.99958364 -1 1 C-0.67 0.67 -0.34 0.34 0 0 Z " fill="#F2F218" transform="translate(310,416)"/>
<path d="M0 0 C0.33 0 0.66 0 1 0 C1.62674095 9.12256267 1.62674095 9.12256267 -0.875 12.625 C-3 14 -3 14 -5 14 C-4 11 -4 11 -1 9 C-0.42006301 6.80545319 -0.42006301 6.80545319 -0.3125 4.375 C-0.24675781 3.55773437 -0.18101562 2.74046875 -0.11328125 1.8984375 C-0.07589844 1.27195313 -0.03851563 0.64546875 0 0 Z " fill="#DFE326" transform="translate(343,201)"/>
<path d="M0 0 C0.33 1.32 0.66 2.64 1 4 C0.01 4 -0.98 4 -2 4 C-2.33 5.32 -2.66 6.64 -3 8 C-4.32 7.67 -5.64 7.34 -7 7 C-4.69 4.69 -2.38 2.38 0 0 Z " fill="#EBEF20" transform="translate(68,199)"/>
<path d="M0 0 C2.31 0.33 4.62 0.66 7 1 C7 2.98 7 4.96 7 7 C5.83040013 6.02433888 4.66438823 5.044375 3.5 4.0625 C2.8503125 3.51722656 2.200625 2.97195313 1.53125 2.41015625 C1.0259375 1.94480469 0.520625 1.47945313 0 1 C0 0.67 0 0.34 0 0 Z " fill="#EDF11C" transform="translate(163,395)"/>
<path d="M0 0 C1 2 1 2 0.375 3.9375 C-1.3792518 6.5688777 -3.16320216 7.65252103 -6 9 C-6.66 8.67 -7.32 8.34 -8 8 C-5.36 5.36 -2.72 2.72 0 0 Z " fill="#E8ED22" transform="translate(87,180)"/>
<path d="M0 0 C2.31 1.98 4.62 3.96 7 6 C3 7 3 7 1 7 C0.67 4.69 0.34 2.38 0 0 Z " fill="#EEF21D" transform="translate(395,163)"/>
<path d="M0 0 C2.31 1.98 4.62 3.96 7 6 C6.34 6.66 5.68 7.32 5 8 C5 7.34 5 6.68 5 6 C3.35 6 1.7 6 0 6 C0 4.02 0 2.04 0 0 Z " fill="#EDF11B" transform="translate(300,68)"/>
<path d="M0 0 C1.98 1.65 3.96 3.3 6 5 C5.67 5.66 5.34 6.32 5 7 C3.68 6.67 2.36 6.34 1 6 C0.67 4.02 0.34 2.04 0 0 Z " fill="#1C1701" transform="translate(183,416)"/>
<path d="M0 0 C0.33 2.31 0.66 4.62 1 7 C-0.98 5.35 -2.96 3.7 -5 2 C-2 0 -2 0 0 0 Z " fill="#EEF11A" transform="translate(116,342)"/>
<path d="M0 0 C2.31 0.33 4.62 0.66 7 1 C7 2.98 7 4.96 7 7 C5.83040013 6.02433888 4.66438823 5.044375 3.5 4.0625 C2.8503125 3.51722656 2.200625 2.97195313 1.53125 2.41015625 C1.0259375 1.94480469 0.520625 1.47945313 0 1 C0 0.67 0 0.34 0 0 Z " fill="#ECF01E" transform="translate(77,309)"/>
<path d="M0 0 C0.33 2.31 0.66 4.62 1 7 C-0.98 5.35 -2.96 3.7 -5 2 C-2 0 -2 0 0 0 Z " fill="#EEF11A" transform="translate(68,294)"/>
<path d="M0 0 C0.33 2.31 0.66 4.62 1 7 C-0.98 5.35 -2.96 3.7 -5 2 C-2 0 -2 0 0 0 Z " fill="#EEF119" transform="translate(36,262)"/>
<path d="M0 0 C1.98 1.65 3.96 3.3 6 5 C3 7 3 7 1 7 C1.33 5.68 1.66 4.36 2 3 C1.34 3 0.68 3 0 3 C0 2.01 0 1.02 0 0 Z " fill="#EFF21B" transform="translate(459,227)"/>
<path d="M0 0 C1.32 0 2.64 0 4 0 C6.125 4.625 6.125 4.625 5 8 C0 2.25 0 2.25 0 0 Z " fill="#E9E922" transform="translate(335,188)"/>
<path d="M0 0 C0.99 0.33 1.98 0.66 3 1 C3 1.66 3 2.32 3 3 C4.32 2.67 5.64 2.34 7 2 C6.67 3.98 6.34 5.96 6 8 C1.125 3.375 1.125 3.375 0 0 Z " fill="#F0F01E" transform="translate(317,162)"/>
<path d="M0 0 C0.33 0.99 0.66 1.98 1 3 C-0.21484375 4.82421875 -0.21484375 4.82421875 -1.9375 6.6875 C-2.50339844 7.31011719 -3.06929688 7.93273437 -3.65234375 8.57421875 C-4.09707031 9.04472656 -4.54179688 9.51523438 -5 10 C-5 5.88168014 -2.91010261 2.91010261 0 0 Z " fill="#F4F617" transform="translate(126,141)"/>
<path d="M0 0 C1.32 0.33 2.64 0.66 4 1 C0.535 3.97 0.535 3.97 -3 7 C-3 5.68 -3 4.36 -3 3 C-2.01 3 -1.02 3 0 3 C0 2.01 0 1.02 0 0 Z " fill="#F0F123" transform="translate(332,396)"/>
<path d="M0 0 C1.98 1.65 3.96 3.3 6 5 C3 7 3 7 1 7 C0.67 4.69 0.34 2.38 0 0 Z " fill="#EFF21F" transform="translate(411,179)"/>
<path d="M0 0 C1.32 0.66 2.64 1.32 4 2 C1.03 4.475 1.03 4.475 -2 7 C-1.125 1.125 -1.125 1.125 0 0 Z " fill="#1B1800" transform="translate(83,179)"/>
<path d="M0 0 C1.98 1.65 3.96 3.3 6 5 C3 7 3 7 1 7 C0.67 4.69 0.34 2.38 0 0 Z " fill="#F0F41C" transform="translate(315,83)"/>
<path d="M0 0 C1 2 1 2 0.4375 4 C-1.57302108 6.79724672 -3.74418077 7.15065585 -7 8 C-6.02133662 6.85373678 -5.04205413 5.70800212 -4.0625 4.5625 C-3.51722656 3.92441406 -2.97195312 3.28632812 -2.41015625 2.62890625 C-1.63204305 1.73008851 -0.84063472 0.84063472 0 0 Z " fill="#EBEF23" transform="translate(222,45)"/>
<path d="M0 0 C0 3.10551666 -0.5393715 4.35261084 -2 7 C-3.32 6.67 -4.64 6.34 -6 6 C-4.02 4.02 -2.04 2.04 0 0 Z " fill="#EAEF1E" transform="translate(235,32)"/>
<path d="M0 0 C3.36720387 1.39332574 4.9859524 2.9789286 7 6 C5 5 3 4 1 3 C1 3.66 1 4.32 1 5 C0.34 5 -0.32 5 -1 5 C-0.67 3.35 -0.34 1.7 0 0 Z " fill="#EDF11B" transform="translate(257,26)"/>
<path d="M0 0 C1.98 0.66 3.96 1.32 6 2 C6.33 3.65 6.66 5.3 7 7 C5.83040013 6.02433888 4.66438823 5.044375 3.5 4.0625 C2.8503125 3.51722656 2.200625 2.97195313 1.53125 2.41015625 C1.0259375 1.94480469 0.520625 1.47945313 0 1 C0 0.67 0 0.34 0 0 Z " fill="#E9EE1C" transform="translate(200,432)"/>
<path d="M0 0 C1.98 0.66 3.96 1.32 6 2 C6.33 3.65 6.66 5.3 7 7 C5.83040013 6.02433888 4.66438823 5.044375 3.5 4.0625 C2.8503125 3.51722656 2.200625 2.97195313 1.53125 2.41015625 C1.0259375 1.94480469 0.520625 1.47945313 0 1 C0 0.67 0 0.34 0 0 Z " fill="#E9EF1C" transform="translate(104,336)"/>
<path d="M0 0 C0 0.99 0 1.98 0 3 C-0.99 3.33 -1.98 3.66 -3 4 C-3 4.66 -3 5.32 -3 6 C-4.65 6.33 -6.3 6.66 -8 7 C-5.78972846 3.62642766 -3.53600465 1.91135386 0 0 Z " fill="#F2F418" transform="translate(116,153)"/>
<path d="M0 0 C0 3.10551666 -0.5393715 4.35261084 -2 7 C-3.32 6.67 -4.64 6.34 -6 6 C-4.02 4.02 -2.04 2.04 0 0 Z " fill="#EAEE20" transform="translate(150,117)"/>
<path d="M0 0 C1.98 1.65 3.96 3.3 6 5 C3.13822943 6.43088528 1.06624227 5.59991697 -2 5 C-1.01 4.67 -0.02 4.34 1 4 C0.67 2.68 0.34 1.36 0 0 Z " fill="#EDF21A" transform="translate(282,50)"/>
<path d="M0 0 C1.32 0.33 2.64 0.66 4 1 C1.03 3.475 1.03 3.475 -2 6 C-2 4.68 -2 3.36 -2 2 C-1.34 2 -0.68 2 0 2 C0 1.34 0 0.68 0 0 Z " fill="#EEEE1E" transform="translate(391,337)"/>
<path d="M0 0 C2.97 0.495 2.97 0.495 6 1 C6 2.65 6 4.3 6 6 C3.97945196 4.35830472 1.97956942 2.69088222 0 1 C0 0.67 0 0.34 0 0 Z " fill="#ECF11E" transform="translate(96,328)"/>
<path d="M0 0 C0 3.10551666 -0.5393715 4.35261084 -2 7 C-3.32 6.67 -4.64 6.34 -6 6 C-4.02 4.02 -2.04 2.04 0 0 Z " fill="#EAEE24" transform="translate(94,173)"/>
<path d="M0 0 C1.65 0 3.3 0 5 0 C5 1.65 5 3.3 5 5 C4.01 5 3.02 5 2 5 C1.34 3.35 0.68 1.7 0 0 Z " fill="#E9EA1B" transform="translate(313,156)"/>
<path d="M0 0 C0.99 0.33 1.98 0.66 3 1 C1.02 3.97 1.02 3.97 -1 7 C-3 4 -3 4 -3 2 C-2.01 2 -1.02 2 0 2 C0 1.34 0 0.68 0 0 Z " fill="#E5E71D" transform="translate(197,138)"/>
<path d="M0 0 C1.98 1.65 3.96 3.3 6 5 C3.92446352 5.5534764 2.15634036 6 0 6 C0 4.02 0 2.04 0 0 Z " fill="#EDF01E" transform="translate(294,62)"/>
<path d="M0 0 C-3.69969252 3.03903314 -6.23004695 4 -11 4 C-7.64191281 0.32209498 -4.88401581 -0.13200043 0 0 Z " fill="#EEF21E" transform="translate(251,23)"/>
</svg>
