<?xml version="1.0" encoding="UTF-8"?>
<svg version="1.1" xmlns="http://www.w3.org/2000/svg" width="500" height="664">
<path d="M0 0 C165 0 330 0 500 0 C500 219.12 500 438.24 500 664 C335 664 170 664 0 664 C0 444.88 0 225.76 0 0 Z " fill="#FDFDFE" transform="translate(0,0)"/>
<path d="M0 0 C165 0 330 0 500 0 C500 219.12 500 438.24 500 664 C335 664 170 664 0 664 C0 444.88 0 225.76 0 0 Z M43 49 C43 209.05 43 369.1 43 534 C179.62 534 316.24 534 457 534 C457 373.95 457 213.9 457 49 C320.38 49 183.76 49 43 49 Z " fill="#000090" transform="translate(0,0)"/>
<path d="M0 0 C1.1735051 -0.00860046 2.34701019 -0.01720093 3.55607605 -0.02606201 C5.49716248 -0.03245193 5.49716248 -0.03245193 7.47746277 -0.03897095 C8.84894011 -0.04687133 10.22041537 -0.05514024 11.59188843 -0.06375122 C16.10214755 -0.08997793 20.61241599 -0.10527911 25.12272644 -0.11953735 C26.67473036 -0.1248967 28.22673422 -0.1302742 29.77873802 -0.13566971 C36.23401618 -0.15729905 42.68929182 -0.17603627 49.14459705 -0.1872921 C58.39937805 -0.20353481 67.65373942 -0.23671929 76.90836221 -0.29369295 C83.41373479 -0.33237777 89.91899507 -0.35192301 96.42447966 -0.35721266 C100.31092581 -0.36086808 104.19692448 -0.37290863 108.08324623 -0.4053154 C111.74005186 -0.43537113 115.3961387 -0.44171742 119.05304146 -0.42993164 C121.03333889 -0.4296054 123.0135918 -0.45408766 124.99372864 -0.47930908 C134.67460035 -0.41117662 134.67460035 -0.41117662 137.7736969 2.4540863 C140.03890299 6.04202464 140.20713737 9.17673651 140.18522644 13.2984314 C140.20034775 14.06821823 140.21546906 14.83800507 140.23104858 15.63111877 C140.27384782 18.07651233 140.28275529 20.52066975 140.29069519 22.96640015 C140.3138458 24.62984429 140.33921233 26.29325916 140.36686707 27.95663452 C140.42964166 32.02249861 140.46203768 36.08759439 140.47819519 40.15390015 C141.4662616 40.57163696 142.454328 40.98937378 143.47233582 41.41976929 C147.17655785 42.99062306 150.87193368 44.58143894 154.56510925 46.17807007 C156.15720679 46.86313591 157.75157799 47.54294486 159.34831238 48.21713257 C171.37728743 53.30197152 181.31164042 57.979586 187.47819519 70.15390015 C188.65772974 73.69250379 188.60890581 76.87429287 188.58930969 80.55474854 C188.58930871 81.31524793 188.58930773 82.07574732 188.58930671 82.85929215 C188.58827078 85.41699398 188.58024756 87.9746287 188.57243347 90.53231812 C188.5705544 92.36432856 188.56920943 94.19633962 188.56835938 96.02835083 C188.56607145 99.98483712 188.56134128 103.94131077 188.55516434 107.89779282 C188.54673627 114.19234062 188.5522139 120.48682768 188.56117249 126.78137207 C188.56264349 127.8465814 188.5641145 128.91179073 188.56563008 130.00927913 C188.56870153 132.18902976 188.57182158 134.36878032 188.57498908 136.54853082 C188.59607854 151.19781658 188.61022882 165.84690809 188.57780457 180.4961853 C188.55603478 190.37768368 188.55979019 200.25883291 188.59121311 210.14030945 C188.60684114 215.3524285 188.610815 220.56388146 188.58345413 225.77596664 C188.46088342 250.7642158 190.14561988 274.12403455 195.67219162 298.52577591 C201.39248098 324.27494283 201.39248098 324.27494283 195.66960144 333.60702515 C191.81649951 338.60974109 187.51031726 340.04106407 181.47819519 341.15390015 C178.47166887 341.45774414 175.49857841 341.52374591 172.47819519 341.52890015 C171.72280457 341.55339233 170.96741394 341.57788452 170.18913269 341.6031189 C163.08491138 341.63973859 157.91755083 339.42693608 152.72819519 334.59140015 C146.0178187 325.46454557 145.91499753 314.97464893 146.02409363 304.12582397 C146.02522412 302.53801502 146.02458431 300.95020399 146.02232361 299.36239624 C146.02118339 295.08407166 146.04457943 290.8062024 146.07261944 286.52798295 C146.09774951 282.04505152 146.09998419 277.56210782 146.10472107 273.07911682 C146.11711692 264.60434232 146.14989228 256.12977602 146.19011903 247.6550929 C146.23494271 238.00087926 146.25685035 228.34665529 146.27690077 218.69236338 C146.31862819 198.84609309 146.38891381 179.00000978 146.47819519 159.15390015 C144.49819519 159.15390015 142.51819519 159.15390015 140.47819519 159.15390015 C140.47819519 223.83390015 140.47819519 288.51390015 140.47819519 355.15390015 C162.58819519 355.15390015 184.69819519 355.15390015 207.47819519 355.15390015 C207.47819519 363.40390015 207.47819519 371.65390015 207.47819519 380.15390015 C110.78819519 380.15390015 14.09819519 380.15390015 -85.52180481 380.15390015 C-85.52180481 371.90390015 -85.52180481 363.65390015 -85.52180481 355.15390015 C-60.77180481 355.15390015 -36.02180481 355.15390015 -10.52180481 355.15390015 C-10.53751526 344.60783813 -10.55322571 334.06177612 -10.56941223 323.19613647 C-10.61753689 289.47330431 -10.65092134 255.75047203 -10.6750008 222.02761446 C-10.67875303 216.79163343 -10.68263599 211.55565251 -10.68659973 206.31967163 C-10.68738666 205.27725863 -10.68817359 204.23484562 -10.68898437 203.16084435 C-10.70204711 186.27040558 -10.72570573 169.37999736 -10.7532632 152.48957673 C-10.78129325 135.16533439 -10.79797598 117.84110807 -10.80407029 100.51684397 C-10.80819172 89.82224955 -10.82122049 79.12774147 -10.84555421 68.43317362 C-10.86138178 61.10482273 -10.86621194 53.77651665 -10.86230894 46.4481499 C-10.86038274 42.21668941 -10.86338677 37.98538008 -10.87942123 33.7539463 C-10.89398705 29.88190256 -10.89477892 26.01011208 -10.88450149 22.13805684 C-10.8832307 20.73554946 -10.88706445 19.33302648 -10.89645436 17.93054996 C-10.90846082 16.02693749 -10.90022545 14.12322935 -10.8909483 12.21960163 C-10.89208746 11.16132107 -10.89322662 10.10304051 -10.8944003 9.01269084 C-10.46399374 5.71033666 -9.48108557 3.8243571 -7.52180481 1.15390015 C-4.89665483 -0.15867484 -2.94104895 0.0160032 0 0 Z " fill="#020202" transform="translate(189.5218048095703,99.84609985351563)"/>
<path d="M0 0 C1.45186455 -0.0131424 1.45186455 -0.0131424 2.93305969 -0.02655029 C6.13429527 -0.04856617 9.33415063 -0.03398203 12.53540039 -0.01708984 C14.75973272 -0.02045761 16.98406326 -0.02530989 19.20838928 -0.03158569 C23.87152619 -0.03896025 28.53418435 -0.02823327 33.19726562 -0.00488281 C39.17423383 0.02358814 45.15007871 0.00721443 51.12700558 -0.02274513 C55.72099769 -0.04081612 60.31472368 -0.03506056 64.90872383 -0.02210617 C67.11234228 -0.01877078 69.31598489 -0.02286387 71.51957512 -0.03450394 C74.60094006 -0.04720696 77.68048903 -0.02784114 80.76171875 0 C81.67253204 -0.01012115 82.58334534 -0.02024231 83.52175903 -0.03067017 C87.77922392 0.04057724 89.9009588 0.28151417 93.51036072 2.7036438 C95.89588051 6.33189103 96.15227232 9.17924747 96.0925293 13.38720703 C96.10129089 14.15043777 96.11005249 14.91366852 96.11907959 15.70002747 C96.14102399 18.21417681 96.12654003 20.72655654 96.10961914 23.24072266 C96.11298874 24.99280127 96.11784256 26.74487761 96.12411499 28.49694824 C96.13147955 32.16551003 96.12079466 35.8334623 96.09741211 39.50195312 C96.06892409 44.19993352 96.08533036 48.89648575 96.11527443 53.59441376 C96.13335897 57.21135176 96.12758418 60.82795223 96.11463547 64.44490051 C96.11130463 66.17682566 96.11537724 67.90878165 96.12703323 69.64067078 C96.13976173 72.06351656 96.12034068 74.4840634 96.0925293 76.90673828 C96.10771103 77.97605339 96.10771103 77.97605339 96.12319946 79.06697083 C96.04732701 82.64216187 95.47942552 84.59596586 93.49116516 87.59030151 C89.27991235 90.43412142 86.04693195 90.35122461 81.06884766 90.29394531 C79.66306458 90.30708771 79.66306458 90.30708771 78.22888184 90.32049561 C75.13526921 90.34247638 72.04308971 90.32793995 68.94946289 90.31103516 C66.79621609 90.31440394 64.64297113 90.31925708 62.48973083 90.32553101 C57.97799568 90.33290081 53.46675569 90.322194 48.95507812 90.29882812 C43.17664137 90.27035791 37.39936664 90.28673325 31.62097263 90.31669044 C27.17448706 90.33477482 22.72827608 90.32899975 18.28178215 90.31605148 C16.15155843 90.31271976 14.02130964 90.3167963 11.89111519 90.32844925 C8.91062728 90.34117438 5.9320091 90.32175602 2.95166016 90.29394531 C1.63526802 90.30912704 1.63526802 90.30912704 0.2922821 90.32461548 C-3.96041915 90.25124335 -6.71439207 89.95348801 -10.08607483 87.23153687 C-13.83377959 83.30741311 -13.71164363 80.62239655 -13.73144531 75.4309082 C-13.73801651 74.68762268 -13.74458771 73.94433716 -13.75135803 73.17852783 C-13.77110236 70.71358137 -13.78275619 68.24869587 -13.79272461 65.78369141 C-13.79680014 64.94225901 -13.80087566 64.10082661 -13.80507469 63.23389626 C-13.82594043 58.7802009 -13.84023986 54.32653641 -13.84960938 49.87280273 C-13.86067405 45.27253867 -13.89507288 40.67275828 -13.93478107 36.07266521 C-13.9609269 32.53559978 -13.96929939 28.99864993 -13.97289085 25.46149635 C-13.97776222 23.76582384 -13.98939191 22.07015667 -14.00792885 20.37457848 C-14.03227759 17.99973617 -14.03136362 15.62614962 -14.02441406 13.2512207 C-14.03722412 12.55233231 -14.05003418 11.85344391 -14.06323242 11.13337708 C-14.02861606 7.88365672 -13.55101281 5.63994296 -12.1222229 2.71214294 C-8.25716119 -0.3963835 -4.82932406 -0.05354549 0 0 Z " fill="#FCFCFC" transform="translate(213.554443359375,118.35302734375)"/>
<path d="M0 0 C6 4 6 4 6.7215271 5.92364502 C6.70820343 6.58982849 6.69487976 7.25601196 6.68115234 7.94238281 C6.68047256 9.08311249 6.68047256 9.08311249 6.67977905 10.24688721 C6.64881134 11.05744568 6.61784363 11.86800415 6.5859375 12.703125 C6.57744781 13.54091492 6.56895813 14.37870483 6.56021118 15.24188232 C6.52667573 17.91257431 6.45140287 20.58022411 6.375 23.25 C6.34490028 25.06245633 6.31752448 26.87496008 6.29296875 28.6875 C6.22688474 33.1261686 6.12336742 37.56256895 6 42 C7.44620728 41.99214478 7.44620728 41.99214478 8.92163086 41.98413086 C12.48672564 41.96607882 16.05181636 41.95456726 19.61694336 41.94506836 C21.16219766 41.9400286 22.70744716 41.9331968 24.25268555 41.92456055 C26.46925029 41.91247924 28.68575218 41.90676827 30.90234375 41.90234375 C31.5971434 41.89718246 32.29194305 41.89202118 33.00779724 41.88670349 C34.6722933 41.88650723 36.33665499 41.93810871 38 42 C39.87994009 43.87994009 39.13295973 47.11246813 39.13803101 49.61347961 C39.14085229 50.31328341 39.14367357 51.01308721 39.14658034 51.73409718 C39.15496532 54.09788891 39.15626806 56.46163403 39.15771484 58.82543945 C39.16238123 60.5141259 39.16752451 62.20281109 39.17311096 63.89149475 C39.18442194 67.54245703 39.19284256 71.19341099 39.19923019 74.84438515 C39.20992151 80.64483788 39.23017928 86.44523245 39.25234985 92.24565125 C39.31420399 108.74617785 39.36796202 125.24670404 39.40136719 141.74731445 C39.41987726 150.85039534 39.44903155 159.95338143 39.4893719 169.05639237 C39.51020706 173.8628323 39.52586472 178.66915384 39.52817917 183.47564125 C39.54001931 202.81701849 39.80502251 221.80188332 42.32388306 241.00505066 C45.57142825 266.71522507 45.57142825 266.71522507 41.66259766 273.22851562 C38.9294585 276.14065332 35.93429525 276.22448073 32.125 276.375 C31.28195312 276.42398437 30.43890625 276.47296875 29.5703125 276.5234375 C25.64895818 275.72486382 24.41681107 274.18000156 22 271 C21.20416039 267.41322513 21.23217605 263.86263897 21.21875 260.19921875 C21.19526489 259.07239182 21.17177979 257.94556488 21.14758301 256.78459167 C21.08669549 253.56414765 21.04912481 250.34433792 21.02124023 247.12346649 C20.99163262 244.16348103 20.94396762 241.20387034 20.89684391 238.24411964 C20.74873251 228.91972511 20.64668755 219.59511157 20.55471802 210.27001953 C20.49991781 204.72422271 20.43821215 199.17851632 20.37475586 193.6328125 C20.36415225 192.70607916 20.35354864 191.77934582 20.34262371 190.82452965 C20.32118889 188.95592962 20.29971445 187.08733004 20.27820015 185.21873093 C20.24620741 182.43566874 20.21449129 179.65260352 20.18284607 176.86953735 C19.9301307 154.45027787 19.9301307 154.45027787 19.61523438 132.03182983 C19.58028423 129.69108001 19.54882943 127.3502752 19.52099609 125.00942993 C19.48269872 121.82898873 19.43250893 118.64896455 19.37890625 115.46875 C19.37053238 114.55308762 19.36215851 113.63742523 19.35353088 112.6940155 C19.3368486 111.86106461 19.32016632 111.02811371 19.30297852 110.16992188 C19.29267105 109.45509644 19.28236359 108.740271 19.27174377 108.00378418 C19.05055564 105.56284583 19.05055564 105.56284583 17 102 C11.39 100.68 5.78 99.36 0 98 C0 65.66 0 33.32 0 0 Z " fill="#FAFAFA" transform="translate(330,151)"/>
<path d="M0 0 C2.64 0 5.28 0 8 0 C7.04578192 1.14926266 6.08647955 2.29430541 5.125 3.4375 C4.59132813 4.07558594 4.05765625 4.71367188 3.5078125 5.37109375 C2 7 2 7 0 8 C0 5.36 0 2.72 0 0 Z " fill="#000000" transform="translate(0,0)"/>
<path d="M0 0 C2.64 0 5.28 0 8 0 C8 2.64 8 5.28 8 8 C6.85073734 7.04578192 5.70569459 6.08647955 4.5625 5.125 C3.92441406 4.59132813 3.28632813 4.05765625 2.62890625 3.5078125 C1 2 1 2 0 0 Z " fill="#000000" transform="translate(492,0)"/>
<path d="M0 0 C0.33 0 0.66 0 1 0 C1 2.64 1 5.28 1 8 C-1.64 8 -4.28 8 -7 8 C-6.21625 7.236875 -5.4325 6.47375 -4.625 5.6875 C-1.92742283 3.09108195 -1.92742283 3.09108195 0 0 Z " fill="#000000" transform="translate(499,656)"/>
<path d="M0 0 C2.66666667 2.66666667 5.33333333 5.33333333 8 8 C5.36 8 2.72 8 0 8 C0 5.36 0 2.72 0 0 Z " fill="#000000" transform="translate(0,656)"/>
</svg>
