<?xml version="1.0" encoding="UTF-8"?>
<svg version="1.1" xmlns="http://www.w3.org/2000/svg" width="1141" height="1142">
<path d="M0 0 C10.15395906 9.26309512 19.82364191 19.01813023 29.53694685 28.73806299 C32.23634103 31.43819552 34.93862551 34.13543307 37.64052105 36.83306217 C42.98620615 42.17120829 48.32923525 47.51200542 53.6714311 52.85364317 C60.07519743 59.25649185 66.48184221 65.65645753 72.88852376 72.056389 C88.36340125 87.51524995 103.8332405 102.97914861 119.30250722 118.44362372 C126.62215346 125.7609309 133.94243141 133.07760598 141.26278469 140.39420581 C166.33040117 165.44899421 191.39696482 190.50483522 216.459894 215.56431252 C218.0313573 217.13555419 219.60282068 218.70679579 221.17428414 220.27803731 C222.74946823 221.85300076 224.32465225 223.42796429 225.89983618 225.0029279 C229.05976987 228.16241904 232.21970584 231.3219079 235.37964326 234.4813953 C236.55485149 235.65643944 236.55485149 235.65643944 237.75380129 236.85522185 C263.17980682 262.27759365 288.61195627 287.6938073 314.04778688 313.10634856 C340.95398746 339.98795854 367.85475113 366.8749973 394.74925709 393.76830769 C397.70061934 396.71949848 400.65200357 399.67066729 403.60340387 402.62182003 C404.3300942 403.3484546 405.05678454 404.07508917 405.8054958 404.82374297 C417.50059955 416.51769602 429.20063211 428.20670564 440.90243025 439.89395936 C452.65765165 451.63482205 464.40730765 463.38123138 476.1513286 475.13329769 C483.1282309 482.11465815 490.10926711 489.09182417 497.09630776 496.06303834 C501.76371446 500.72069966 506.42564254 505.38379718 511.08317027 510.05133708 C513.73634236 512.70990404 516.39180478 515.36606437 519.05397025 518.01562835 C521.92483837 520.87302028 524.78390938 523.74193808 527.64203054 526.61208016 C528.46570132 527.42815575 529.2893721 528.24423133 530.1380026 529.08503649 C539.77695751 538.81181498 546.65062527 547.94423277 547.1376999 561.91718632 C546.69112217 578.52987779 536.63769269 588.41849616 525.41689855 599.57996327 C524.05724221 600.94442932 524.05724221 600.94442932 522.67011806 602.33646035 C520.16961717 604.84552099 517.66300376 607.34839348 515.15528521 609.85023749 C512.42221931 612.57911257 509.69497247 615.31379341 506.96695828 618.04771692 C502.19012073 622.83329941 497.40958904 627.61516635 492.62658578 632.39458615 C485.51409555 639.50176174 478.40732824 646.61463957 471.30163998 653.72861489 C457.87266159 667.17282448 444.43692974 680.61027118 430.9990995 694.04563233 C420.62398478 704.41891391 410.25066844 714.79399077 399.87861902 725.17033726 C398.3881296 726.66142908 396.89763958 728.15252029 395.40714897 729.64361091 C393.16111407 731.89055306 390.91507988 734.13749592 388.66904957 736.38444266 C367.79073042 757.27118971 346.91036707 778.1558914 326.02574712 799.03633839 C325.2386377 799.82329144 324.45152827 800.61024449 323.64056705 801.4210446 C319.65122055 805.40958532 315.66185406 809.39810604 311.67247958 813.38661876 C310.88018223 814.17874502 310.08788488 814.97087128 309.27157853 815.78700137 C307.6693625 817.38887074 306.06714554 818.99073917 304.46492764 820.59260667 C279.52438627 845.52778868 254.59050308 870.46961121 229.66186982 895.41669804 C201.65242918 923.44684856 173.63800655 951.47200616 145.61619878 979.4897936 C142.62931659 982.47628043 139.64245131 985.46278417 136.65559655 988.44929844 C135.92015616 989.18464811 135.18471576 989.91999777 134.42698929 990.67763076 C123.32028459 1001.78316901 112.21749473 1012.89261106 101.1166752 1024.00403172 C88.49596732 1036.63677992 75.87004342 1049.26428774 63.237108 1061.88480875 C56.16670104 1068.94857862 49.10047135 1076.01646754 42.04016843 1083.09033683 C37.32430657 1087.81442957 32.60301801 1092.53305192 27.87727252 1097.24725747 C25.18459621 1099.93366405 22.49433514 1102.62237208 19.81063998 1105.31775334 C16.91828068 1108.22259129 14.01443723 1111.11567273 11.1093424 1114.00777394 C10.28015618 1114.8442695 9.45096996 1115.68076506 8.59665689 1116.54260898 C-1.9885349 1127.02962929 -12.08932904 1133.04218632 -27.2998001 1133.04218632 C-30.46852801 1132.73257016 -33.29449652 1132.08248371 -36.2998001 1131.04218632 C-36.9288626 1130.83078007 -37.5579251 1130.61937382 -38.2060501 1130.40156132 C-52.89403842 1124.26150063 -65.15503655 1107.33533351 -76.21262682 1096.27022987 C-78.92317567 1093.55894272 -81.63661473 1090.85055043 -84.34966499 1088.14176673 C-89.71748515 1082.78148579 -95.08264907 1077.4185536 -100.44697985 1072.05478091 C-106.87719096 1065.62548743 -113.31028047 1059.19907691 -119.74340688 1052.77270071 C-135.28178116 1037.25034293 -150.81511721 1021.72294742 -166.34788079 1006.19497555 C-173.69709448 998.84810083 -181.04693991 991.50185824 -188.39686075 984.15569097 C-213.56435681 959.00102271 -238.7308003 933.84530209 -263.89360923 908.68594509 C-265.47132181 907.10845414 -267.04903446 905.53096327 -268.6267472 903.95347247 C-270.20819933 902.37224098 -271.78965137 900.79100942 -273.37110335 899.20977777 C-276.54362265 896.03770101 -279.71614425 892.86562654 -282.88866729 889.69355351 C-284.06855618 888.5138287 -284.06855618 888.5138287 -285.27228121 887.31027107 C-310.80228032 861.78390608 -336.33842397 836.2636998 -361.878247 810.74716416 C-388.89283336 783.75716486 -415.90198628 756.76174021 -442.90487987 729.76004237 C-445.867739 726.79735469 -448.83062011 723.834689 -451.79351729 720.87203938 C-452.52304135 720.14257108 -453.25256542 719.41310279 -454.00419627 718.6615294 C-465.74784896 706.91902768 -477.49643151 695.18147039 -489.24677717 683.44566655 C-501.04902768 671.65777017 -512.84571871 659.864333 -524.63676976 648.06523399 C-531.64276443 641.05477906 -538.65289943 634.04852472 -545.66902934 627.04821292 C-550.35454887 622.37243145 -555.03460068 617.69122454 -559.71024138 613.00556464 C-562.37457829 610.33582759 -565.0412195 607.66851071 -567.71454398 605.00777076 C-570.59567882 602.14008588 -573.46504954 599.26090789 -576.33344382 596.3804794 C-577.16295031 595.5585681 -577.99245679 594.73665681 -578.84709984 593.88983911 C-588.12958069 584.52285079 -594.28309196 575.60295609 -594.7373001 562.16718632 C-594.1849749 542.38969575 -578.89678181 530.34355168 -565.80932158 517.30878788 C-564.25407012 515.75246159 -562.69925217 514.19570197 -561.14483184 512.63854557 C-556.94910634 508.43800178 -552.74720492 504.24368764 -548.54398149 500.05064827 C-544.13352043 495.64901573 -539.72837755 491.24206647 -535.32252043 486.83582646 C-527.92781012 479.44205051 -520.52927687 472.05211681 -513.12816924 464.66474491 C-505.52883413 457.07950591 -497.93301909 449.49076487 -490.34105986 441.89814335 C-489.8730153 441.43005883 -489.40497074 440.96197432 -488.92274301 440.47970542 C-488.45546996 440.01239201 -487.9881969 439.5450786 -487.50676405 439.06360418 C-478.39706109 429.95322478 -469.28355184 420.84666031 -460.16892284 411.74120957 C-457.55099322 409.12540655 -454.93377064 406.50889789 -452.31670493 403.89223057 C-448.19943987 399.77597316 -444.07962254 395.66228678 -439.95785064 391.55054241 C-438.44937823 390.04497981 -436.94173781 388.53858306 -435.43501014 387.03127438 C-433.37148865 384.96725851 -431.30489819 382.90636334 -429.23752898 380.84620243 C-428.64831001 380.25543486 -428.05909104 379.66466729 -427.45201695 379.05599767 C-424.65170851 376.27169213 -421.81149573 373.60154555 -418.80086917 371.04577881 C-411.97228544 365.12799081 -405.71749451 358.57905528 -399.34496611 352.18069035 C-397.81780834 350.65110266 -396.2904225 349.12174264 -394.76282901 347.59259009 C-391.44870537 344.27410008 -388.13619709 340.95400881 -384.82491988 337.63267857 C-379.43682719 332.22823385 -374.04526056 326.82726318 -368.65328521 321.42669255 C-361.33399729 314.0951428 -354.0159926 306.76231506 -346.69905064 299.42842407 C-334.34963977 287.05048659 -321.99499591 274.6777826 -309.63858874 262.30682963 C-307.00693458 259.67206181 -304.37533142 257.03724306 -301.74372691 254.40242565 C-301.21918506 253.87724378 -300.69464322 253.35206192 -300.15420617 252.81096545 C-299.09131564 251.74677754 -298.0284255 250.68258922 -296.96553577 249.61840051 C-295.89875638 248.55031868 -294.83197551 247.48223834 -293.76519316 246.41415948 C-281.19418689 233.82786864 -268.62407556 221.24068431 -256.05468291 208.65278202 C-255.50490028 208.10219347 -254.95511764 207.55160491 -254.38867493 206.98433185 C-236.5481766 189.11760342 -218.71291308 171.24565853 -200.87981434 153.37154476 C-182.53695718 134.98657672 -164.18743352 116.60828582 -145.8300268 98.23784507 C-143.23816131 95.64412673 -140.64637945 93.05032484 -138.05465239 90.45646816 C-137.5445981 89.94599768 -137.03454381 89.4355272 -136.50903333 88.90958791 C-128.30049771 80.69393252 -120.09914448 72.47114306 -111.90054956 64.24556885 C-103.66388948 55.98206701 -95.4199298 47.72591478 -87.16888279 39.4767767 C-82.69902123 35.00749378 -78.23252013 30.53497957 -73.77468032 26.05370289 C-69.69493219 21.95263817 -65.60609062 17.86087558 -61.50977904 13.77635696 C-60.02858333 12.29615918 -58.55078154 10.81255585 -57.07672054 9.32525281 C-55.07368595 7.30521122 -53.05869596 5.29789057 -51.04026335 3.29325157 C-50.46995843 2.71215275 -49.89965351 2.13105392 -49.31206661 1.53234604 C-35.76427156 -11.7988762 -14.44187125 -12.29432642 0 0 Z " fill="#FEFE00" transform="translate(594.2998000979424,8.957813680171967)"/>
<path d="M0 0 C7.0176922 1.36751779 11.04009612 9.20432014 14.76953125 14.7265625 C16.1015316 16.75181262 17.4281851 18.78058752 18.75 20.8125 C23.80765921 28.4957958 28.93305297 36.07743724 34.328125 43.52734375 C39.73271908 51.04538251 44.85780516 58.76516319 50.05908203 66.42431641 C52.92681602 70.64280006 55.8062197 74.85326135 58.6875 79.0625 C59.22093018 79.84197998 59.75436035 80.62145996 60.30395508 81.42456055 C64.11985425 86.99839204 67.945255 92.56564359 71.77441406 98.13037109 C75.33750568 103.31012213 78.88885001 108.49784676 82.4375 113.6875 C88.25674338 122.19722322 94.09324869 130.69493862 99.9375 139.1875 C106.33869079 148.4893768 112.72753837 157.79950944 119.10107422 167.12036133 C122.53947218 172.14763108 125.98482974 177.17002305 129.4375 182.1875 C133.44708738 188.01429803 137.44510903 193.84890652 141.4375 199.6875 C147.25674338 208.19722322 153.09324869 216.69493862 158.9375 225.1875 C164.92589383 233.88952178 170.9073184 242.59625651 176.875 251.3125 C177.41882324 252.1063208 177.96264648 252.9001416 178.52294922 253.71801758 C179.54373139 255.20974646 180.55899919 256.70526855 181.56787109 258.20507812 C182.74214198 259.9047358 184.00582162 261.54201095 185.28515625 263.1640625 C187.55644695 267.32004123 187.54292112 270.77365128 187.4375 275.4375 C187.42046021 276.70339966 187.42046021 276.70339966 187.40307617 277.99487305 C187.20505178 284.35433744 186.30487071 289.68229197 182.9375 295.1875 C182.586875 295.77660156 182.23625 296.36570312 181.875 296.97265625 C178.25328995 302.09083677 172.58179038 304.24930265 166.70703125 305.76171875 C151.18899607 308.14742515 137.72386155 305.00084171 123.01513672 300.1796875 C117.95929638 298.54975452 112.8542277 297.09474041 107.75 295.625 C105.96476626 295.10312959 104.17961138 294.58098935 102.39453125 294.05859375 C93.24975087 291.40865437 84.09215667 288.80311619 74.9375 286.1875 C74.6075 322.4875 74.2775 358.7875 73.9375 396.1875 C146.2075 396.1875 218.4775 396.1875 292.9375 396.1875 C292.9375 432.8175 292.9375 469.4475 292.9375 507.1875 C220.6675 507.1875 148.3975 507.1875 73.9375 507.1875 C73.9375 594.6375 73.9375 682.0875 73.9375 772.1875 C25.7575 772.1875 -22.4225 772.1875 -72.0625 772.1875 C-72.0625 611.8075 -72.0625 451.4275 -72.0625 286.1875 C-82.4811348 287.64646124 -82.4811348 287.64646124 -92.0625 290.4375 C-98.10548028 292.58277007 -104.19798964 294.40498339 -110.375 296.125 C-118.09626842 298.2837778 -125.7138344 300.64833593 -133.2902832 303.27124023 C-140.4777482 305.74337804 -146.76901046 306.42065053 -154.3125 306.5 C-155.21613281 306.52900391 -156.11976563 306.55800781 -157.05078125 306.58789062 C-165.09724238 306.6631453 -170.71823636 304.39597599 -177.375 300 C-184.72660702 292.30645777 -185.53023648 282.27655498 -185.57275391 272.11083984 C-185.36666857 264.37101826 -182.85427404 260.2138696 -178.0625 254.1875 C-175.88255043 251.1488047 -173.75909631 248.07100212 -171.625 245 C-171.02961426 244.15501953 -170.43422852 243.31003906 -169.82080078 242.43945312 C-165.03288851 235.64079331 -160.40382466 228.74505307 -155.8125 221.8125 C-150.93877355 214.4582307 -145.98915975 207.20273397 -140.8125 200.05859375 C-136.97994159 194.71512289 -133.31500711 189.25481826 -129.625 183.8125 C-129.25371979 183.26496063 -128.88243958 182.71742126 -128.49990845 182.15328979 C-126.67764272 179.46560552 -124.85565723 176.77773133 -123.03369141 174.08984375 C-120.4739999 170.32100394 -117.89760854 166.56393586 -115.3125 162.8125 C-111.38474192 157.11170773 -107.46973892 151.40237865 -103.5625 145.6875 C-99.12676794 139.20040447 -94.68146725 132.72003428 -90.2265625 126.24609375 C-86.66319401 121.06582106 -83.11146298 115.87765008 -79.5625 110.6875 C-75.57012949 104.84889242 -71.57205536 99.01432004 -67.5625 93.1875 C-61.37826352 84.1995177 -55.2204928 75.19347423 -49.0625 66.1875 C-42.46335076 56.53634094 -35.86363828 46.88568318 -29.23266602 37.25634766 C-26.16606686 32.80079547 -23.1161172 28.33416915 -20.07299805 23.86254883 C-18.41348135 21.43137476 -16.74276581 19.00822368 -15.0703125 16.5859375 C-13.24151293 13.93343656 -11.4605384 11.26424767 -9.7421875 8.5390625 C-4.50531688 0.55026771 -4.50531688 0.55026771 0 0 Z " fill="#000000" transform="translate(569.0625,180.8125)"/>
<path d="M0 0 C10.15395906 9.26309512 19.82364191 19.01813023 29.53694685 28.73806299 C32.23634103 31.43819552 34.93862551 34.13543307 37.64052105 36.83306217 C42.98620615 42.17120829 48.32923525 47.51200542 53.6714311 52.85364317 C60.07519743 59.25649185 66.48184221 65.65645753 72.88852376 72.056389 C88.36340125 87.51524995 103.8332405 102.97914861 119.30250722 118.44362372 C126.62215346 125.7609309 133.94243141 133.07760598 141.26278469 140.39420581 C166.33040117 165.44899421 191.39696482 190.50483522 216.459894 215.56431252 C218.0313573 217.13555419 219.60282068 218.70679579 221.17428414 220.27803731 C222.74946823 221.85300076 224.32465225 223.42796429 225.89983618 225.0029279 C229.05976987 228.16241904 232.21970584 231.3219079 235.37964326 234.4813953 C236.55485149 235.65643944 236.55485149 235.65643944 237.75380129 236.85522185 C263.17980682 262.27759365 288.61195627 287.6938073 314.04778688 313.10634856 C340.95398746 339.98795854 367.85475113 366.8749973 394.74925709 393.76830769 C397.70061934 396.71949848 400.65200357 399.67066729 403.60340387 402.62182003 C404.3300942 403.3484546 405.05678454 404.07508917 405.8054958 404.82374297 C417.50059955 416.51769602 429.20063211 428.20670564 440.90243025 439.89395936 C452.65765165 451.63482205 464.40730765 463.38123138 476.1513286 475.13329769 C483.1282309 482.11465815 490.10926711 489.09182417 497.09630776 496.06303834 C501.76371446 500.72069966 506.42564254 505.38379718 511.08317027 510.05133708 C513.73634236 512.70990404 516.39180478 515.36606437 519.05397025 518.01562835 C521.92483837 520.87302028 524.78390938 523.74193808 527.64203054 526.61208016 C528.46570132 527.42815575 529.2893721 528.24423133 530.1380026 529.08503649 C539.77695751 538.81181498 546.65062527 547.94423277 547.1376999 561.91718632 C546.69112217 578.52987779 536.63769269 588.41849616 525.41689855 599.57996327 C524.05724221 600.94442932 524.05724221 600.94442932 522.67011806 602.33646035 C520.16961717 604.84552099 517.66300376 607.34839348 515.15528521 609.85023749 C512.42221931 612.57911257 509.69497247 615.31379341 506.96695828 618.04771692 C502.19012073 622.83329941 497.40958904 627.61516635 492.62658578 632.39458615 C485.51409555 639.50176174 478.40732824 646.61463957 471.30163998 653.72861489 C457.87266159 667.17282448 444.43692974 680.61027118 430.9990995 694.04563233 C420.62398478 704.41891391 410.25066844 714.79399077 399.87861902 725.17033726 C398.3881296 726.66142908 396.89763958 728.15252029 395.40714897 729.64361091 C393.16111407 731.89055306 390.91507988 734.13749592 388.66904957 736.38444266 C367.79073042 757.27118971 346.91036707 778.1558914 326.02574712 799.03633839 C325.2386377 799.82329144 324.45152827 800.61024449 323.64056705 801.4210446 C319.65122055 805.40958532 315.66185406 809.39810604 311.67247958 813.38661876 C310.88018223 814.17874502 310.08788488 814.97087128 309.27157853 815.78700137 C307.6693625 817.38887074 306.06714554 818.99073917 304.46492764 820.59260667 C279.52438627 845.52778868 254.59050308 870.46961121 229.66186982 895.41669804 C201.65242918 923.44684856 173.63800655 951.47200616 145.61619878 979.4897936 C142.62931659 982.47628043 139.64245131 985.46278417 136.65559655 988.44929844 C135.92015616 989.18464811 135.18471576 989.91999777 134.42698929 990.67763076 C123.32028459 1001.78316901 112.21749473 1012.89261106 101.1166752 1024.00403172 C88.49596732 1036.63677992 75.87004342 1049.26428774 63.237108 1061.88480875 C56.16670104 1068.94857862 49.10047135 1076.01646754 42.04016843 1083.09033683 C37.32430657 1087.81442957 32.60301801 1092.53305192 27.87727252 1097.24725747 C25.18459621 1099.93366405 22.49433514 1102.62237208 19.81063998 1105.31775334 C16.91828068 1108.22259129 14.01443723 1111.11567273 11.1093424 1114.00777394 C10.28015618 1114.8442695 9.45096996 1115.68076506 8.59665689 1116.54260898 C-1.9885349 1127.02962929 -12.08932904 1133.04218632 -27.2998001 1133.04218632 C-30.46852801 1132.73257016 -33.29449652 1132.08248371 -36.2998001 1131.04218632 C-36.9288626 1130.83078007 -37.5579251 1130.61937382 -38.2060501 1130.40156132 C-52.89403842 1124.26150063 -65.15503655 1107.33533351 -76.21262682 1096.27022987 C-78.92317567 1093.55894272 -81.63661473 1090.85055043 -84.34966499 1088.14176673 C-89.71748515 1082.78148579 -95.08264907 1077.4185536 -100.44697985 1072.05478091 C-106.87719096 1065.62548743 -113.31028047 1059.19907691 -119.74340688 1052.77270071 C-135.28178116 1037.25034293 -150.81511721 1021.72294742 -166.34788079 1006.19497555 C-173.69709448 998.84810083 -181.04693991 991.50185824 -188.39686075 984.15569097 C-213.56435681 959.00102271 -238.7308003 933.84530209 -263.89360923 908.68594509 C-265.47132181 907.10845414 -267.04903446 905.53096327 -268.6267472 903.95347247 C-270.20819933 902.37224098 -271.78965137 900.79100942 -273.37110335 899.20977777 C-276.54362265 896.03770101 -279.71614425 892.86562654 -282.88866729 889.69355351 C-284.06855618 888.5138287 -284.06855618 888.5138287 -285.27228121 887.31027107 C-310.80228032 861.78390608 -336.33842397 836.2636998 -361.878247 810.74716416 C-388.89283336 783.75716486 -415.90198628 756.76174021 -442.90487987 729.76004237 C-445.867739 726.79735469 -448.83062011 723.834689 -451.79351729 720.87203938 C-452.52304135 720.14257108 -453.25256542 719.41310279 -454.00419627 718.6615294 C-465.74784896 706.91902768 -477.49643151 695.18147039 -489.24677717 683.44566655 C-501.04902768 671.65777017 -512.84571871 659.864333 -524.63676976 648.06523399 C-531.64276443 641.05477906 -538.65289943 634.04852472 -545.66902934 627.04821292 C-550.35454887 622.37243145 -555.03460068 617.69122454 -559.71024138 613.00556464 C-562.37457829 610.33582759 -565.0412195 607.66851071 -567.71454398 605.00777076 C-570.59567882 602.14008588 -573.46504954 599.26090789 -576.33344382 596.3804794 C-577.16295031 595.5585681 -577.99245679 594.73665681 -578.84709984 593.88983911 C-588.12958069 584.52285079 -594.28309196 575.60295609 -594.7373001 562.16718632 C-594.1849749 542.38969575 -578.89678181 530.34355168 -565.80932158 517.30878788 C-564.25407012 515.75246159 -562.69925217 514.19570197 -561.14483184 512.63854557 C-556.94910634 508.43800178 -552.74720492 504.24368764 -548.54398149 500.05064827 C-544.13352043 495.64901573 -539.72837755 491.24206647 -535.32252043 486.83582646 C-527.92781012 479.44205051 -520.52927687 472.05211681 -513.12816924 464.66474491 C-505.52883413 457.07950591 -497.93301909 449.49076487 -490.34105986 441.89814335 C-489.8730153 441.43005883 -489.40497074 440.96197432 -488.92274301 440.47970542 C-488.45546996 440.01239201 -487.9881969 439.5450786 -487.50676405 439.06360418 C-478.39706109 429.95322478 -469.28355184 420.84666031 -460.16892284 411.74120957 C-457.55099322 409.12540655 -454.93377064 406.50889789 -452.31670493 403.89223057 C-448.19943987 399.77597316 -444.07962254 395.66228678 -439.95785064 391.55054241 C-438.44937823 390.04497981 -436.94173781 388.53858306 -435.43501014 387.03127438 C-433.37148865 384.96725851 -431.30489819 382.90636334 -429.23752898 380.84620243 C-428.64831001 380.25543486 -428.05909104 379.66466729 -427.45201695 379.05599767 C-424.65170851 376.27169213 -421.81149573 373.60154555 -418.80086917 371.04577881 C-411.97228544 365.12799081 -405.71749451 358.57905528 -399.34496611 352.18069035 C-397.81780834 350.65110266 -396.2904225 349.12174264 -394.76282901 347.59259009 C-391.44870537 344.27410008 -388.13619709 340.95400881 -384.82491988 337.63267857 C-379.43682719 332.22823385 -374.04526056 326.82726318 -368.65328521 321.42669255 C-361.33399729 314.0951428 -354.0159926 306.76231506 -346.69905064 299.42842407 C-334.34963977 287.05048659 -321.99499591 274.6777826 -309.63858874 262.30682963 C-307.00693458 259.67206181 -304.37533142 257.03724306 -301.74372691 254.40242565 C-301.21918506 253.87724378 -300.69464322 253.35206192 -300.15420617 252.81096545 C-299.09131564 251.74677754 -298.0284255 250.68258922 -296.96553577 249.61840051 C-295.89875638 248.55031868 -294.83197551 247.48223834 -293.76519316 246.41415948 C-281.19418689 233.82786864 -268.62407556 221.24068431 -256.05468291 208.65278202 C-255.50490028 208.10219347 -254.95511764 207.55160491 -254.38867493 206.98433185 C-236.5481766 189.11760342 -218.71291308 171.24565853 -200.87981434 153.37154476 C-182.53695718 134.98657672 -164.18743352 116.60828582 -145.8300268 98.23784507 C-143.23816131 95.64412673 -140.64637945 93.05032484 -138.05465239 90.45646816 C-137.5445981 89.94599768 -137.03454381 89.4355272 -136.50903333 88.90958791 C-128.30049771 80.69393252 -120.09914448 72.47114306 -111.90054956 64.24556885 C-103.66388948 55.98206701 -95.4199298 47.72591478 -87.16888279 39.4767767 C-82.69902123 35.00749378 -78.23252013 30.53497957 -73.77468032 26.05370289 C-69.69493219 21.95263817 -65.60609062 17.86087558 -61.50977904 13.77635696 C-60.02858333 12.29615918 -58.55078154 10.81255585 -57.07672054 9.32525281 C-55.07368595 7.30521122 -53.05869596 5.29789057 -51.04026335 3.29325157 C-50.46995843 2.71215275 -49.89965351 2.13105392 -49.31206661 1.53234604 C-35.76427156 -11.7988762 -14.44187125 -12.29432642 0 0 Z M-30.37046432 24.48495406 C-31.15287925 25.25459516 -31.93529417 26.02423627 -32.74141863 26.81719983 C-34.0164228 28.10933397 -34.0164228 28.10933397 -35.31718463 29.42757183 C-36.23129889 30.3341193 -37.14541315 31.24066676 -38.08722785 32.17468536 C-40.63896976 34.70602693 -43.17479801 37.25281588 -45.7084245 39.80227159 C-48.46195338 42.56753473 -51.22986692 45.31833387 -53.99600685 48.07097143 C-58.84688865 52.90220773 -63.68833506 57.74274302 -68.52379912 62.58940846 C-75.71417512 69.79639634 -82.91870857 76.98910447 -90.12613465 84.17903613 C-102.99601044 97.01866215 -115.85141708 109.87269896 -128.70068762 122.73294213 C-139.94539523 133.98722549 -151.19451084 145.23707842 -162.44810599 156.48247486 C-163.95564843 157.98895152 -165.46319075 159.4954283 -166.97073295 161.0019052 C-169.24226465 163.27181588 -171.51380199 165.54172093 -173.78535304 167.81161226 C-194.91361004 188.92460487 -216.03697335 210.0424836 -237.14992541 231.17078167 C-237.94637415 231.96780918 -238.74282289 232.76483669 -239.56340644 233.58601655 C-246.03175682 240.059132 -252.4999608 246.53239375 -258.96815622 253.00566405 C-284.2039382 278.26104148 -309.45408125 303.50197789 -334.71605986 328.73115116 C-363.07679726 357.0551375 -391.42770357 385.38890811 -419.76342189 413.73792547 C-422.78244791 416.75830906 -425.80150269 419.7786639 -428.82057303 422.79900318 C-429.56397549 423.5427336 -430.30737795 424.28646402 -431.07330775 425.05273173 C-442.31495332 436.29896205 -453.5642054 447.53754598 -464.81721991 458.77239949 C-477.60880178 471.54339284 -490.38979857 484.32487144 -503.15671376 497.12052573 C-510.30809608 504.2873911 -517.46769951 511.4458085 -524.63922944 518.59251437 C-529.42250043 523.36087878 -534.1948692 528.13996856 -538.95833905 532.92811356 C-541.67688991 535.6601309 -544.40005154 538.38708898 -547.13649819 541.10119142 C-550.0778583 544.0187644 -552.99570093 546.95875617 -555.91162127 549.90175396 C-556.77332988 550.74912973 -557.63503849 551.59650549 -558.52285948 552.46955931 C-559.29275681 553.25422153 -560.06265414 554.03888374 -560.85588169 554.8473236 C-561.5261036 555.51772832 -562.19632551 556.18813304 -562.88685717 556.87885306 C-564.75822194 559.74406832 -564.63485787 561.68546754 -564.2998001 565.04218632 C-563.24841413 566.96810646 -563.24841413 566.96810646 -561.58631343 568.49116665 C-560.98103609 569.10777358 -560.37575876 569.7243805 -559.75213969 570.35967249 C-559.07599857 571.01765443 -558.39985746 571.67563638 -557.70322722 572.35355717 C-556.99354452 573.06766086 -556.28386182 573.78176454 -555.55267358 574.51750773 C-553.16462124 576.91311704 -550.755729 579.28661157 -548.34643096 581.66083866 C-546.63237772 583.37156315 -544.91965048 585.08361708 -543.20815581 586.79690129 C-539.51572545 590.48730672 -535.81426457 594.16839098 -532.10447043 597.84133106 C-526.73260515 603.15995562 -521.37790857 608.49559779 -516.02731586 613.83561231 C-507.33511529 622.50979707 -498.6299697 631.17086746 -489.91625518 639.82343632 C-481.47048613 648.21000936 -473.02951702 656.60135703 -464.59594268 665.00019413 C-464.07717627 665.51681879 -463.55840987 666.03344345 -463.02392327 666.5657234 C-457.35444928 672.2120128 -451.68601805 677.85934862 -446.01783389 683.5069328 C-444.51157944 685.00767312 -443.0053163 686.50840472 -441.49904268 688.00912581 C-440.50569697 688.99881957 -439.51236707 689.98852919 -438.51905323 690.97825493 C-432.21340262 697.26094654 -425.90333435 703.53915504 -419.58833128 709.81244594 C-415.9614621 713.41587377 -412.33649769 717.02121405 -408.71180648 720.62683254 C-407.03378021 722.29502341 -405.35484957 723.96230514 -403.67493552 725.62859493 C-401.37602454 727.90899378 -399.08030614 730.1925622 -396.78525847 732.47684819 C-396.12473241 733.13036869 -395.46420635 733.78388919 -394.78366435 734.45721334 C-391.80977346 737.42295258 -388.94294722 740.41914011 -386.22088641 743.61815602 C-380.5257969 750.20452257 -374.23536921 756.24416679 -368.07696074 762.39200932 C-366.61679145 763.85333165 -365.15684009 765.31487177 -363.69708723 766.77661008 C-359.69618532 770.78167987 -355.69217856 774.78363287 -351.68764251 778.78506857 C-347.36549028 783.10495669 -343.04621843 787.42772315 -338.72657317 791.75011784 C-330.75811729 799.72276223 -322.787389 807.69312936 -314.81546951 815.66231002 C-307.45345945 823.02180323 -300.09238113 830.38222677 -292.73222655 837.74357563 C-292.24376269 838.23211588 -291.75529883 838.72065613 -291.25203303 839.22400062 C-289.26918927 841.20715572 -287.28634905 843.19031435 -285.30351463 845.17347878 C-266.71365686 863.7663938 -248.12088699 882.35639431 -229.52680839 900.94508813 C-213.00190956 917.46523781 -196.47960298 933.98797588 -179.95946807 950.51288944 C-161.396925 969.080784 -142.83277154 987.64706602 -124.26600641 1006.21073884 C-122.28803795 1008.18838657 -120.31007343 1010.16603825 -118.33211058 1012.1436916 C-117.60157406 1012.87410951 -117.60157406 1012.87410951 -116.85627923 1013.61928333 C-109.49556153 1020.97886263 -102.13608023 1028.33967678 -94.7771942 1035.70108753 C-86.41536125 1044.06577502 -78.0517049 1052.42863455 -69.68577555 1060.78922544 C-65.41483295 1065.05753277 -61.14470708 1069.32664897 -56.87672919 1073.59792095 C-52.97460252 1077.50301391 -49.07019941 1081.40581528 -45.16391924 1085.30675335 C-43.74665605 1086.72289384 -42.33024682 1088.13988956 -40.91475138 1089.557797 C-38.9995598 1091.47600312 -37.08135427 1093.3911425 -35.16232222 1095.30550534 C-34.60587026 1095.86429847 -34.04941829 1096.4230916 -33.47610414 1096.99881786 C-29.33246008 1101.35853688 -29.33246008 1101.35853688 -23.86671661 1103.3823593 C-20.58508478 1102.9474708 -19.55690855 1101.92523849 -17.22913587 1099.59941858 C-16.44672095 1098.82977748 -15.66430603 1098.06013637 -14.85818157 1097.26717281 C-13.5831774 1095.97503867 -13.5831774 1095.97503867 -12.28241557 1094.65680081 C-11.3683013 1093.75025334 -10.45418704 1092.84370588 -9.51237234 1091.90968728 C-6.96063044 1089.37834571 -4.42480219 1086.83155675 -1.89117569 1084.28210105 C0.86235318 1081.51683791 3.63026672 1078.76603877 6.39640665 1076.01340121 C11.24728846 1071.18216491 16.08873486 1066.34162962 20.92419893 1061.49496418 C28.11457492 1054.2879763 35.31910837 1047.09526817 42.52653446 1039.9053365 C55.39641025 1027.06571049 68.25181688 1014.21167368 81.10108743 1001.35143051 C92.34579504 990.09714715 103.59491065 978.84729422 114.8485058 967.60189778 C116.35604823 966.09542112 117.86359055 964.58894434 119.37113276 963.08246744 C121.64266446 960.81255675 123.91420179 958.54265171 126.18575284 956.27276038 C147.31400984 935.15976777 168.43737316 914.04188904 189.55032521 892.91359097 C190.34677396 892.11656346 191.1432227 891.31953595 191.96380625 890.49835609 C198.43215663 884.02524064 204.9003606 877.55197889 211.36855602 871.07870859 C236.604338 845.82333115 261.85448105 820.58239475 287.11645967 795.35322148 C315.47719707 767.02923514 343.82810337 738.69546453 372.1638217 710.34644717 C375.18284772 707.32606358 378.2019025 704.30570874 381.22097284 701.28536946 C381.96437529 700.54163904 382.70777775 699.79790861 383.47370755 699.03164091 C394.71535312 687.78541059 405.9646052 676.54682666 417.21761972 665.31197315 C430.00920159 652.5409798 442.79019837 639.7595012 455.55711357 626.96384691 C462.70849589 619.79698154 469.86809931 612.63856413 477.03962924 605.49185827 C481.82290024 600.72349386 486.59526901 595.94440408 491.35873886 591.15625908 C494.07728972 588.42424174 496.80045134 585.69728366 499.53689799 582.98318122 C502.47825811 580.06560824 505.39610074 577.12561647 508.31202108 574.18261868 C509.17372969 573.33524291 510.0354383 572.48786715 510.92325929 571.61481333 C511.69315662 570.83015111 512.46305394 570.0454889 513.2562815 569.23704904 C513.9265034 568.56664432 514.59672531 567.8962396 515.28725697 567.20551958 C517.2075975 564.26531836 517.19507849 562.49089929 516.7001999 559.04218632 C515.32992168 556.78255975 515.32992168 556.78255975 513.2562815 554.8473236 C512.48638417 554.06266138 511.71648684 553.27799917 510.92325929 552.46955931 C510.06155068 551.62218355 509.19984207 550.77480778 508.31202108 549.90175396 C507.40517402 548.98648585 506.49832696 548.07121775 505.56399968 547.12821424 C503.0340281 544.5756163 500.48560702 542.04215384 497.93391327 539.51129572 C495.16593942 536.75939042 492.41535222 533.99020026 489.66254759 531.22313589 C484.83140353 526.37181909 479.98914512 521.53182058 475.13951951 516.69898182 C467.92818393 509.51254028 460.73402317 502.30908888 453.54322552 495.1021043 C440.70202851 482.23314393 427.84373909 469.38136958 414.97827799 456.53667178 C403.72008089 445.29653552 392.46766209 434.05065409 381.22097284 422.79900318 C380.47584389 422.05356105 379.73071495 421.30811892 378.96300634 420.54008764 C375.93853382 417.51432893 372.91408782 414.48854372 369.88968196 411.46271839 C341.50095261 383.06083805 313.09514181 354.67609725 284.68139429 326.29924798 C259.41943649 301.06989969 234.17155189 275.82655091 208.93579561 250.57099491 C202.47403631 244.10419305 196.01225797 237.63741022 189.55032521 231.17078167 C188.75486652 230.37474479 187.95940782 229.57870791 187.13984431 228.7585487 C166.07224881 207.67609997 144.9930959 186.60521363 123.91037226 165.53789419 C121.64278503 163.27193635 119.37520337 161.00597293 117.10762964 158.74000159 C115.60328551 157.23672098 114.09893329 155.73344846 112.59457294 154.23018409 C101.34621355 142.98976922 90.10384415 131.74338675 78.86425668 120.49420124 C66.08892199 107.70805944 53.30461983 94.93096011 40.50835911 82.16575946 C33.34068951 75.01499495 26.18000942 67.85739406 19.02907431 60.68989377 C14.25868082 55.90983518 9.47933809 51.13885415 4.69244085 46.3753232 C1.96070069 43.65641139 -0.76685149 40.93362018 -3.48368838 38.19980945 C-6.4032944 35.26216082 -9.34162836 32.34401597 -12.28241557 29.42757183 C-13.13241835 28.56614907 -13.98242113 27.70472631 -14.85818157 26.81719983 C-15.64059649 26.04755872 -16.42301141 25.27791762 -17.22913587 24.48495406 C-17.89969657 23.81495589 -18.57025728 23.14495772 -19.261138 22.45465658 C-23.77782833 19.32530485 -26.79276082 20.9102519 -30.37046432 24.48495406 Z " fill="#010100" transform="translate(594.2998000979424,8.957813680171967)"/>
</svg>
