<?xml version="1.0" encoding="UTF-8" standalone="no"?>
<!-- Created with Inkscape (http://www.inkscape.org/) -->

<svg
   width="400.99173"
   height="400.99173"
   viewBox="0 0 106.09573 106.09573"
   version="1.1"
   id="svg556"
   inkscape:version="1.2.2 (732a01da63, 2022-12-09)"
   sodipodi:docname="Rambu_peringatan_4c2.svg"
   xmlns:inkscape="http://www.inkscape.org/namespaces/inkscape"
   xmlns:sodipodi="http://sodipodi.sourceforge.net/DTD/sodipodi-0.dtd"
   xmlns="http://www.w3.org/2000/svg"
   xmlns:svg="http://www.w3.org/2000/svg">
  <sodipodi:namedview
     id="namedview558"
     pagecolor="#ffffff"
     bordercolor="#000000"
     borderopacity="0.25"
     inkscape:showpageshadow="2"
     inkscape:pageopacity="0.0"
     inkscape:pagecheckerboard="0"
     inkscape:deskcolor="#d1d1d1"
     inkscape:document-units="px"
     showgrid="false"
     inkscape:zoom="1.4324916"
     inkscape:cx="349.39123"
     inkscape:cy="237.69773"
     inkscape:window-width="1920"
     inkscape:window-height="991"
     inkscape:window-x="-9"
     inkscape:window-y="-9"
     inkscape:window-maximized="1"
     inkscape:current-layer="g32270"
     showguides="true" />
  <defs
     id="defs553" />
  <g
     inkscape:label="Layer 1"
     inkscape:groupmode="layer"
     id="layer1"
     transform="translate(-76.677193,-38.259282)">
    <path
       id="path12091"
       style="fill-rule:evenodd;stroke:none;stroke-width:0.26458334;stroke-linecap:round;stroke-dasharray:none;stroke-opacity:1;paint-order:stroke fill markers"
       d="M 78.812842,86.482956 124.90086,40.394932 c 2.67261,-2.672602 6.97578,-2.672607 9.64838,-5e-6 l 46.08803,46.088014 c 2.6726,2.672612 2.6726,6.975787 0,9.648391 l -46.08801,46.088028 c -2.67262,2.6726 -6.97578,2.6726 -9.64839,0 L 78.812842,96.131347 c -2.672603,-2.672602 -2.672603,-6.975777 0,-9.648391 z" />
    <g
       fill="#000000"
       fill-opacity="1"
       id="g10771"
       transform="matrix(1.1636234,0,0,1.1636234,-222.96006,-598.63778)"
       style="fill:#0000ff" />
    <g
       id="g15367"
       transform="matrix(-1,0,0,1,461.90383,20.514553)" />
    <g
       id="g32270"
       transform="matrix(-1,0,0,1,259.4501,0)">
      <g
         id="g31529"
         transform="matrix(2.6730102,0,0,2.6730102,-465.26395,-212.39361)" />
      <g
         id="g2277"
         transform="matrix(-1,0,0,1,259.4501,0)" />
      <g
         id="g3847"
         transform="matrix(-1,0,0,1,259.4501,0)" />
      <g
         id="g3933"
         transform="matrix(-1,0,0,1,259.4501,0)">
        <path
           id="path12093"
           style="fill:#ffff00;fill-rule:evenodd;stroke-width:9.0324;stroke-linecap:round;paint-order:stroke fill markers"
           d="m 81.99764,89.671855 46.0921,-46.092122 c 0.90596,-0.905961 2.36466,-0.905961 3.2706,-5e-6 l 46.09213,46.092112 c 0.90595,0.905955 0.90595,2.364642 0,3.270603 l -46.09211,46.092117 c -0.90596,0.90595 -2.36464,0.90595 -3.2706,0 L 81.99764,92.942453 c -0.905957,-0.905955 -0.905957,-2.364641 0,-3.270598 z" />
      </g>
      <g
         id="g3979"
         style="fill:#000000"
         transform="matrix(2.6730098,0,0,2.6730098,5.5284517,-137.84352)">
        <path
           fill-rule="evenodd"
           fill="#000000"
           fill-opacity="1"
           d="m 54.520054,86.731467 h -6.173611 v -4.814866 l 3.307292,0.982543 c 1.222319,0.362422 1.75562,-0.421679 1.12999,-1.284334 l -7.054176,-9.931519 -7.06107,9.931519 c -0.622871,0.862655 -0.09233,1.646756 1.132748,1.284334 L 43.10714,81.916601 V 98.11682 h 5.239303 v -7.823123 h 6.173611 z m 0,0"
           id="path3643"
           style="fill:#000000;stroke-width:0.352778" />
      </g>
    </g>
  </g>
</svg>
