<?xml version="1.0" encoding="UTF-8"?>
<svg version="1.1" xmlns="http://www.w3.org/2000/svg" width="500" height="500">
<path d="M0 0 C4.3048672 3.2330942 8.03133592 7.00850833 11.81987321 10.8214916 C13.17263014 12.16511187 13.17263014 12.16511187 14.55271548 13.53587598 C17.03587696 16.00274391 19.50971638 18.47877353 21.98200059 20.95653605 C24.6576161 23.63483486 27.34183702 26.30448674 30.0248903 28.97533071 C35.27202791 34.20146789 40.51093637 39.43577879 45.74669012 44.67331841 C50.00422492 48.93216338 54.26431603 53.18843484 58.5262121 57.44291532 C59.75611928 58.67072321 60.98602562 59.89853194 62.21593112 61.12634152 C63.13430092 62.04314604 63.13430092 62.04314604 64.07122365 62.97847185 C75.63607643 74.52444452 87.19096262 86.08035201 98.74296353 97.63918106 C109.30028572 108.20207897 119.87075061 118.75171289 130.4473991 129.29525616 C141.32116201 140.13524893 152.18557641 150.98453215 163.04015845 161.84373254 C169.12886228 167.93467744 175.221224 174.02185232 181.32351053 180.09919202 C186.51790299 185.27252863 191.70343396 190.45455306 196.87787112 195.6478522 C199.51541672 198.29452853 202.15674005 200.93710369 204.80920732 203.56883276 C207.69085746 206.4282019 210.55256206 209.30676076 213.41289079 212.1874584 C214.24528329 213.00733305 215.07767579 213.8272077 215.9352923 214.67192703 C223.77494483 222.63134739 229.45190248 231.14772722 229.67590654 242.5719341 C229.47045559 256.43987318 220.80362234 265.89874748 211.42634904 275.21590078 C210.5306022 276.11773873 209.63485536 277.01957667 208.71196467 277.94874305 C206.24509674 280.43190452 203.76906711 282.90574394 201.29130459 285.37802815 C198.61300579 288.05364366 195.9433539 290.73786459 193.27250993 293.42091787 C188.04637276 298.66805548 182.81206185 303.90696394 177.57452223 309.14271768 C173.31567726 313.40025249 169.0594058 317.6603436 164.80492532 321.92223966 C163.57711744 323.15214685 162.3493087 324.38205318 161.12149912 325.61195868 C160.20469461 326.53032849 160.20469461 326.53032849 159.26936879 327.46725122 C147.72339612 339.032104 136.16748864 350.58699018 124.60865959 362.1389911 C114.04576168 372.69631329 103.49612775 383.26677817 92.95258448 393.84342667 C82.11259172 404.71718958 71.26330849 415.58160398 60.40410811 426.43618602 C54.3131632 432.52488985 48.22598832 438.61725156 42.14864862 444.71953809 C36.97531202 449.91393055 31.79328758 455.09946152 26.59998844 460.27389868 C23.95331212 462.91144429 21.31073696 465.55276761 18.67900789 468.20523489 C15.81963874 471.08688502 12.94107989 473.94858963 10.06038225 476.80891836 C9.2405076 477.64131086 8.42063295 478.47370335 7.57591361 479.33131987 C-0.38350675 487.1709724 -8.89988658 492.84793005 -20.32409346 493.0719341 C-34.19203254 492.86648315 -43.65090684 484.1996499 -52.96806014 474.82237661 C-53.86989808 473.92662976 -54.77173603 473.03088292 -55.7009024 472.10799223 C-58.18406388 469.6411243 -60.6579033 467.16509468 -63.13018751 464.68733215 C-65.80580302 462.00903335 -68.49002395 459.33938147 -71.17307723 456.6685375 C-76.42021484 451.44240032 -81.6591233 446.20808942 -86.89487704 440.9705498 C-91.15241185 436.71170482 -95.41250295 432.45543337 -99.67439902 428.20095289 C-100.9043062 426.973145 -102.13421254 425.74533626 -103.36411804 424.51752669 C-103.97636458 423.90632368 -104.58861111 423.29512067 -105.21941058 422.66539636 C-116.78426336 411.11942369 -128.33914954 399.5635162 -139.89115045 388.00468715 C-150.44847264 377.44178924 -161.01893753 366.89215532 -171.59558602 356.34861205 C-182.46934894 345.50861928 -193.33376333 334.65933605 -204.18834537 323.80013567 C-210.27704921 317.70919077 -216.36941092 311.62201588 -222.47169745 305.54467618 C-227.66608991 300.37133958 -232.85162088 295.18931515 -238.02605804 289.996016 C-240.66360364 287.34933968 -243.30492697 284.70676452 -245.95739424 282.07503545 C-248.83904438 279.2156663 -251.70074898 276.33710745 -254.56107771 273.45640981 C-255.39347021 272.63653516 -256.22586271 271.81666051 -257.08347923 270.97194117 C-264.92313175 263.01252082 -270.6000894 254.49614099 -270.82409346 243.0719341 C-270.61864251 229.20399502 -261.95180926 219.74512073 -252.57453597 210.42796743 C-251.67878912 209.52612948 -250.78304228 208.62429153 -249.86015159 207.69512516 C-247.39328366 205.21196368 -244.91725404 202.73812426 -242.43949151 200.26584005 C-239.76119271 197.59022454 -237.09154082 194.90600362 -234.42069685 192.22295034 C-229.19455968 186.97581273 -223.96024877 181.73690427 -218.72270916 176.50115053 C-214.46386418 172.24361572 -210.20759272 167.98352461 -205.95311224 163.72162855 C-204.72530436 162.49172136 -203.49749562 161.26181502 -202.26968604 160.03190953 C-201.65848303 159.41966299 -201.04728002 158.80741645 -200.41755571 158.17661699 C-188.87158304 146.61176421 -177.31567556 135.05687803 -165.75684651 123.50487711 C-155.1939486 112.94755492 -144.64431467 102.37709003 -134.1007714 91.80044154 C-123.26077864 80.92667863 -112.41149541 70.06226423 -101.55229503 59.20768219 C-95.46135013 53.11897836 -89.37417524 47.02661665 -83.29683554 40.92433012 C-78.12349894 35.72993765 -72.9414745 30.54440668 -67.74817536 25.36996952 C-65.10149904 22.73242392 -62.45892388 20.0911006 -59.82719481 17.43863332 C-56.96782566 14.55698319 -54.08926681 11.69527858 -51.20856917 8.83494985 C-50.38869452 8.00255735 -49.56881987 7.17016485 -48.72410053 6.31254834 C-34.13271958 -8.05927164 -17.31275347 -11.78950201 0 0 Z " fill="#FEFE01" transform="translate(270.5740934610367,7.178065896034241)"/>
<path d="M0 0 C4.3048672 3.2330942 8.03133592 7.00850833 11.81987321 10.8214916 C13.17263014 12.16511187 13.17263014 12.16511187 14.55271548 13.53587598 C17.03587696 16.00274391 19.50971638 18.47877353 21.98200059 20.95653605 C24.6576161 23.63483486 27.34183702 26.30448674 30.0248903 28.97533071 C35.27202791 34.20146789 40.51093637 39.43577879 45.74669012 44.67331841 C50.00422492 48.93216338 54.26431603 53.18843484 58.5262121 57.44291532 C59.75611928 58.67072321 60.98602562 59.89853194 62.21593112 61.12634152 C63.13430092 62.04314604 63.13430092 62.04314604 64.07122365 62.97847185 C75.63607643 74.52444452 87.19096262 86.08035201 98.74296353 97.63918106 C109.30028572 108.20207897 119.87075061 118.75171289 130.4473991 129.29525616 C141.32116201 140.13524893 152.18557641 150.98453215 163.04015845 161.84373254 C169.12886228 167.93467744 175.221224 174.02185232 181.32351053 180.09919202 C186.51790299 185.27252863 191.70343396 190.45455306 196.87787112 195.6478522 C199.51541672 198.29452853 202.15674005 200.93710369 204.80920732 203.56883276 C207.69085746 206.4282019 210.55256206 209.30676076 213.41289079 212.1874584 C214.24528329 213.00733305 215.07767579 213.8272077 215.9352923 214.67192703 C223.77494483 222.63134739 229.45190248 231.14772722 229.67590654 242.5719341 C229.47045559 256.43987318 220.80362234 265.89874748 211.42634904 275.21590078 C210.5306022 276.11773873 209.63485536 277.01957667 208.71196467 277.94874305 C206.24509674 280.43190452 203.76906711 282.90574394 201.29130459 285.37802815 C198.61300579 288.05364366 195.9433539 290.73786459 193.27250993 293.42091787 C188.04637276 298.66805548 182.81206185 303.90696394 177.57452223 309.14271768 C173.31567726 313.40025249 169.0594058 317.6603436 164.80492532 321.92223966 C163.57711744 323.15214685 162.3493087 324.38205318 161.12149912 325.61195868 C160.20469461 326.53032849 160.20469461 326.53032849 159.26936879 327.46725122 C147.72339612 339.032104 136.16748864 350.58699018 124.60865959 362.1389911 C114.04576168 372.69631329 103.49612775 383.26677817 92.95258448 393.84342667 C82.11259172 404.71718958 71.26330849 415.58160398 60.40410811 426.43618602 C54.3131632 432.52488985 48.22598832 438.61725156 42.14864862 444.71953809 C36.97531202 449.91393055 31.79328758 455.09946152 26.59998844 460.27389868 C23.95331212 462.91144429 21.31073696 465.55276761 18.67900789 468.20523489 C15.81963874 471.08688502 12.94107989 473.94858963 10.06038225 476.80891836 C9.2405076 477.64131086 8.42063295 478.47370335 7.57591361 479.33131987 C-0.38350675 487.1709724 -8.89988658 492.84793005 -20.32409346 493.0719341 C-34.19203254 492.86648315 -43.65090684 484.1996499 -52.96806014 474.82237661 C-53.86989808 473.92662976 -54.77173603 473.03088292 -55.7009024 472.10799223 C-58.18406388 469.6411243 -60.6579033 467.16509468 -63.13018751 464.68733215 C-65.80580302 462.00903335 -68.49002395 459.33938147 -71.17307723 456.6685375 C-76.42021484 451.44240032 -81.6591233 446.20808942 -86.89487704 440.9705498 C-91.15241185 436.71170482 -95.41250295 432.45543337 -99.67439902 428.20095289 C-100.9043062 426.973145 -102.13421254 425.74533626 -103.36411804 424.51752669 C-103.97636458 423.90632368 -104.58861111 423.29512067 -105.21941058 422.66539636 C-116.78426336 411.11942369 -128.33914954 399.5635162 -139.89115045 388.00468715 C-150.44847264 377.44178924 -161.01893753 366.89215532 -171.59558602 356.34861205 C-182.46934894 345.50861928 -193.33376333 334.65933605 -204.18834537 323.80013567 C-210.27704921 317.70919077 -216.36941092 311.62201588 -222.47169745 305.54467618 C-227.66608991 300.37133958 -232.85162088 295.18931515 -238.02605804 289.996016 C-240.66360364 287.34933968 -243.30492697 284.70676452 -245.95739424 282.07503545 C-248.83904438 279.2156663 -251.70074898 276.33710745 -254.56107771 273.45640981 C-255.39347021 272.63653516 -256.22586271 271.81666051 -257.08347923 270.97194117 C-264.92313175 263.01252082 -270.6000894 254.49614099 -270.82409346 243.0719341 C-270.61864251 229.20399502 -261.95180926 219.74512073 -252.57453597 210.42796743 C-251.67878912 209.52612948 -250.78304228 208.62429153 -249.86015159 207.69512516 C-247.39328366 205.21196368 -244.91725404 202.73812426 -242.43949151 200.26584005 C-239.76119271 197.59022454 -237.09154082 194.90600362 -234.42069685 192.22295034 C-229.19455968 186.97581273 -223.96024877 181.73690427 -218.72270916 176.50115053 C-214.46386418 172.24361572 -210.20759272 167.98352461 -205.95311224 163.72162855 C-204.72530436 162.49172136 -203.49749562 161.26181502 -202.26968604 160.03190953 C-201.65848303 159.41966299 -201.04728002 158.80741645 -200.41755571 158.17661699 C-188.87158304 146.61176421 -177.31567556 135.05687803 -165.75684651 123.50487711 C-155.1939486 112.94755492 -144.64431467 102.37709003 -134.1007714 91.80044154 C-123.26077864 80.92667863 -112.41149541 70.06226423 -101.55229503 59.20768219 C-95.46135013 53.11897836 -89.37417524 47.02661665 -83.29683554 40.92433012 C-78.12349894 35.72993765 -72.9414745 30.54440668 -67.74817536 25.36996952 C-65.10149904 22.73242392 -62.45892388 20.0911006 -59.82719481 17.43863332 C-56.96782566 14.55698319 -54.08926681 11.69527858 -51.20856917 8.83494985 C-50.38869452 8.00255735 -49.56881987 7.17016485 -48.72410053 6.31254834 C-34.13271958 -8.05927164 -17.31275347 -11.78950201 0 0 Z M-28.24252856 17.79127443 C-28.94339968 18.43067284 -29.64427081 19.07007124 -30.36638045 19.72884536 C-34.20148007 23.36482695 -37.95997593 27.07058853 -41.69163191 30.81248891 C-42.5757255 31.69502251 -43.45981909 32.57755611 -44.3707034 33.48683316 C-46.80427671 35.91626103 -49.23475692 38.34876219 -51.66470218 40.78181815 C-54.29334449 43.41273376 -56.92487594 46.04075696 -59.55602705 48.66916311 C-64.70028467 53.80898575 -69.84184949 58.95149387 -74.9824376 64.0949863 C-79.15850877 68.27331897 -83.33555876 72.45067077 -87.51330435 76.62732923 C-88.40629939 77.52009442 -88.40629939 77.52009442 -89.31733473 78.43089527 C-90.52678949 79.6400303 -91.7362465 80.84916309 -92.94570572 82.05829366 C-104.27103334 93.38077354 -115.59330023 104.70631011 -126.91451443 116.03290274 C-136.63401934 125.75688197 -146.35615279 135.47822668 -156.08019698 145.19766653 C-167.37650111 156.48862435 -178.67118817 167.78119571 -189.96328229 179.0763641 C-191.1660504 180.27945077 -192.36882061 181.48253534 -193.57159293 182.6856178 C-194.16337602 183.27755517 -194.75515911 183.86949254 -195.36487503 184.47936741 C-199.5409144 188.65627125 -203.71811516 192.83201147 -207.89576209 197.00730741 C-212.98018979 202.08893661 -218.06284432 207.17233128 -223.14320277 212.25802884 C-225.73649167 214.85395299 -228.3305869 217.4490579 -230.92684042 220.04201734 C-233.73574592 222.84741262 -236.54079586 225.65664215 -239.34544051 228.46629751 C-240.17362459 229.29225087 -241.00180868 230.11820423 -241.85508925 230.96918648 C-242.97407051 232.09207937 -242.97407051 232.09207937 -244.11565745 233.23765695 C-244.76406012 233.88622197 -245.41246278 234.53478699 -246.08051401 235.20300549 C-248.33468108 237.6463543 -248.56722345 238.7309064 -248.82409346 242.1344341 C-248.44192545 247.77141229 -245.68886616 250.95732844 -241.79033244 254.8545841 C-241.02272906 255.62678627 -240.25512568 256.39898845 -239.46426159 257.19459069 C-238.20123922 258.44989771 -238.20123922 258.44989771 -236.91270125 259.73056448 C-236.01725114 260.628429 -235.12180103 261.52629353 -234.19921607 262.45136607 C-231.71739368 264.93959532 -229.22938046 267.42155216 -226.74029994 269.90251791 C-224.05570167 272.580534 -221.37687638 275.26431403 -218.69732344 277.94737661 C-213.44936753 283.2003727 -208.19608871 288.44801437 -202.940988 293.69386175 C-196.82466752 299.79979895 -190.71357681 305.9109591 -184.60268939 312.02233294 C-173.70281854 322.92270436 -162.79812425 333.81823767 -151.89074385 344.71109426 C-141.29922185 355.28852029 -130.71121708 365.86945064 -120.12707198 376.45425832 C-119.47483892 377.10653133 -118.82260587 377.75880434 -118.15060817 378.4308432 C-117.17397242 379.40753949 -117.17397242 379.40753949 -116.17760664 380.40396702 C-104.13579411 392.44646874 -92.09069747 404.48568085 -80.0440623 416.52335815 C-75.77920829 420.78519183 -71.51533511 425.04800532 -67.25176489 429.31112325 C-62.06034683 434.50186035 -56.86704967 439.69070909 -51.67137235 444.87718299 C-49.01878197 447.52514557 -46.3669954 450.17390007 -43.71734488 452.82480466 C-40.85043772 455.69300297 -37.97969103 458.55732631 -35.10850203 461.4212383 C-34.2642564 462.26703254 -33.42001076 463.11282678 -32.55018193 463.98425114 C-31.78518629 464.74602233 -31.02019066 465.50779351 -30.23201334 466.29264867 C-29.2376868 467.28591858 -29.2376868 467.28591858 -28.22327286 468.29925454 C-25.76162075 470.57208633 -24.69069218 470.8131342 -21.26159346 471.0719341 C-15.62589311 470.68985272 -12.43944968 467.93706306 -8.54144347 464.04096639 C-7.38314021 462.89048637 -7.38314021 462.89048637 -6.20143688 461.71676433 C-4.94612985 460.45476514 -4.94612985 460.45476514 -3.66546309 459.16727102 C-2.76759856 458.27252647 -1.86973404 457.37778193 -0.9446615 456.45592391 C1.54357013 453.97603796 4.02552952 451.48995666 6.50649035 449.00279963 C9.18452379 446.32024193 11.8683044 443.64344464 14.55134904 440.96590078 C19.8044338 435.72171119 25.05209491 430.47212655 30.29783419 425.22059035 C34.55986311 420.95404641 38.82383801 416.68945645 43.08921373 412.42625844 C43.99947064 411.51646124 43.99947064 411.51646124 44.92811657 410.58828428 C46.1608417 409.3561986 47.39357131 408.12411741 48.62630537 406.89204067 C60.18578659 395.33826286 71.73912883 383.77836193 83.29038432 372.21636099 C93.2082275 362.28957778 103.13130913 352.36805641 113.05823076 342.45035207 C124.58169139 330.93758609 136.10191145 319.42159343 147.61695254 307.90040576 C148.84391829 306.6728029 150.07088823 305.44520421 151.29786241 304.21760976 C151.90158691 303.61357671 152.50531141 303.00954367 153.12733059 302.38720658 C157.38807378 298.12473437 161.65113787 293.86459183 165.91509569 289.60533559 C171.10768132 284.41834966 176.29670784 279.22783487 181.48115543 274.03271437 C184.12785392 271.38074756 186.77614861 268.73042747 189.4287771 266.084391 C192.29968395 263.22051107 195.16282764 260.34899637 198.02521074 257.47659719 C198.87100497 256.6352644 199.71679921 255.7939316 200.58822358 254.92710388 C201.34999476 254.1601172 202.11176595 253.39313052 202.89662111 252.60290182 C203.88989101 251.60914486 203.88989101 251.60914486 204.90322697 250.595312 C207.05326179 248.09128928 207.41913924 245.86507566 207.92590654 242.6344341 C207.39874232 238.61480693 207.04285316 237.98460038 204.45614564 235.15349901 C203.81675035 234.45262788 203.17735505 233.75175676 202.51858413 233.02964711 C198.88415582 229.19543267 195.18121209 225.43641437 191.44208086 221.70439565 C190.56025282 220.82030206 189.67842479 219.93620847 188.76987469 219.02532417 C186.34237606 216.59175402 183.91180956 214.16126906 181.48068154 211.73132539 C178.85181227 209.10266128 176.22581356 206.47113201 173.59941423 203.84000051 C168.46335187 198.69565907 163.32454005 193.55407283 158.18461606 188.41358996 C154.00884817 184.23734607 149.83387267 180.06031167 145.65944993 175.88272321 C133.82072093 164.03519894 121.9799092 152.18976191 110.13640621 140.34700996 C109.49894816 139.70959186 108.8614901 139.07217376 108.20471513 138.41543996 C107.5664784 137.77724411 106.92824166 137.13904826 106.27066442 136.48151314 C95.90644294 126.1176989 85.54723025 115.74889398 75.19025365 105.37784011 C64.55246155 94.7257031 53.91096465 84.07727973 43.26556504 73.43274528 C37.29009802 67.45761065 31.31618965 61.48093641 25.34626329 55.50026548 C20.2690671 50.4139896 15.18845546 45.33115685 10.10331318 40.25282479 C7.50801148 37.66079975 4.91437275 35.06716492 2.32502878 32.46918714 C-0.4773314 29.65757859 -3.28734068 26.85369784 -6.09820235 24.05058706 C-7.33276313 22.80831093 -7.33276313 22.80831093 -8.59226453 21.54093832 C-9.71814399 20.42195706 -9.71814399 20.42195706 -10.86676848 19.28037012 C-11.51495378 18.63196745 -12.16313908 17.98356478 -12.83096635 17.31551355 C-15.3180113 15.18451622 -17.55716692 14.82458925 -20.76159346 14.3219341 C-24.78101354 14.84907116 -25.41143601 15.20485404 -28.24252856 17.79127443 Z " fill="#0A0908" transform="translate(270.5740934610367,7.178065896034241)"/>
<path d="M0 0 C10.66527592 7.32142203 18.59545987 18.52155677 22 31 C22.32534791 34.08657483 22.33196537 37.14823542 22.3125 40.25 C22.30512817 41.71312622 22.30512817 41.71312622 22.29760742 43.20581055 C21.66725613 86.35739704 16.15652619 129.5533529 7.81298828 171.83959961 C7.12715539 175.32400066 6.47424237 178.81367386 5.83105469 182.3061676 C1.82589755 204.02389284 -4.18510114 225.00953397 -11 246 C-11.37511719 247.15709473 -11.75023437 248.31418945 -12.13671875 249.50634766 C-13.20854733 252.79845973 -14.28864891 256.08765367 -15.375 259.375 C-15.69645996 260.34896729 -16.01791992 261.32293457 -16.34912109 262.32641602 C-18.02500877 267.32973307 -19.83831169 272.18593341 -22 277 C-23.65 277 -25.3 277 -27 277 C-33.55196252 261.07763297 -38.4917873 244.81440189 -43.19810486 228.2769165 C-44.20285855 224.74922133 -45.22678166 221.22927089 -46.29174805 217.71923828 C-49.12981542 208.34166507 -51.50076234 198.98625465 -53.4375 189.375 C-53.58207642 188.6679895 -53.72665283 187.960979 -53.87561035 187.23254395 C-57.43601851 169.74565197 -60.13547207 152.11659183 -62.6499939 134.45263672 C-62.88941728 132.77489858 -63.13125111 131.09750314 -63.37515259 129.42041016 C-65.44652082 115.14708892 -67.00259371 100.8734725 -68.1875 86.5 C-68.27371613 85.46349304 -68.35993225 84.42698608 -68.44876099 83.35906982 C-69.50668532 70.45152531 -70.3818358 57.57897284 -70.4375 44.625 C-70.4523645 42.88379883 -70.4523645 42.88379883 -70.4675293 41.10742188 C-70.32301443 27.24231163 -65.36674351 15.99870039 -55.9609375 5.8125 C-40.39194181 -8.57796613 -18.21013708 -9.44142214 0 0 Z " fill="#010100" transform="translate(275,74)"/>
<path d="M0 0 C4.46717875 3.53800557 8.20988141 7.52434313 10 13 C10.70529132 19.54629548 10.55227044 25.29483838 7 31 C1.23553381 36.85948487 -2.35739392 40.14430445 -10.6875 40.3125 C-17.89738189 40.23885463 -21.46525685 39.47706668 -26.67578125 34.3515625 C-31.9239178 28.61493591 -33.54190367 23.54227069 -33.375 15.78125 C-32.45570136 8.96311845 -27.90774764 4.32188415 -22.68359375 0.1875 C-15.72518323 -4.72052041 -7.20843021 -4.09438836 0 0 Z " fill="#050401" transform="translate(262,376)"/>
<path d="M0 0 C0 4.02370391 -1.38330362 4.97014103 -4 8 C-4.5053125 8.59683594 -5.010625 9.19367187 -5.53125 9.80859375 C-11.21515487 16.50947179 -11.21515487 16.50947179 -15 18.875 C-17.9837704 20.98850403 -18.53805858 21.86726838 -20 25 C-20.9590625 25.4640625 -20.9590625 25.4640625 -21.9375 25.9375 C-24.72227191 27.37207947 -25.43672676 29.32940822 -27 32 C-29 33.875 -29 33.875 -31 35 C-31.99 34.67 -32.98 34.34 -34 34 C-22.78 22.78 -11.56 11.56 0 0 Z " fill="#F4F71E" transform="translate(237,30)"/>
<path d="M0 0 C0.33 0 0.66 0 1 0 C1.14099121 0.83136475 1.28198242 1.66272949 1.42724609 2.51928711 C1.95847335 5.64508747 2.49175488 8.7705289 3.02636719 11.89575195 C3.25601423 13.24066668 3.48487518 14.5857159 3.71289062 15.9309082 C5.25285083 25.10478949 5.25285083 25.10478949 7.2265625 34.19140625 C7.93534277 37.68161214 7.99407661 38.80576542 7 42 C4.67409146 38.36576791 4.83734167 35.22911669 5 31 C4.34 31 3.68 31 3 31 C2.93941406 30.30132812 2.87882813 29.60265625 2.81640625 28.8828125 C2.73261719 27.97273438 2.64882812 27.06265625 2.5625 26.125 C2.44068359 24.76761719 2.44068359 24.76761719 2.31640625 23.3828125 C2.13010715 20.98889139 2.13010715 20.98889139 1 19 C0.84932786 17.5534758 0.75138964 16.1012066 0.68359375 14.6484375 C0.62075195 13.37226563 0.62075195 13.37226563 0.55664062 12.0703125 C0.51732422 11.18085938 0.47800781 10.29140625 0.4375 9.375 C0.39431641 8.4778125 0.35113281 7.580625 0.30664062 6.65625 C0.20043139 4.43765717 0.09838806 2.2189512 0 0 Z " fill="#E1E328" transform="translate(216,232)"/>
<path d="M0 0 C0 5.61921854 -5.39982222 9.92848975 -9 14 C-9.66 14.66 -10.32 15.32 -11 16 C-11.928125 17.0828125 -11.928125 17.0828125 -12.875 18.1875 C-13.926875 19.0846875 -13.926875 19.0846875 -15 20 C-16.32 19.67 -17.64 19.34 -19 19 C-12.73 12.73 -6.46 6.46 0 0 Z " fill="#F0F320" transform="translate(172,95)"/>
<path d="M0 0 C0.8125 1.6875 0.8125 1.6875 1 4 C-1.2104226 6.52619725 -3.61187747 8.65753894 -6.125 10.875 C-8.62009054 13.70276928 -9.64868338 16.48657678 -11 20 C-11.33 20 -11.66 20 -12 20 C-12.54591121 16.25660885 -12.75830191 14.13531077 -10.6171875 10.9296875 C-8.81129482 8.87362787 -6.94687849 6.92274363 -5 5 C-4.47921875 4.46632812 -3.9584375 3.93265625 -3.421875 3.3828125 C-2.29747625 2.23902756 -1.15144522 1.11655294 0 0 Z " fill="#F1F21D" transform="translate(34,233)"/>
<path d="M0 0 C0.33 0.99 0.66 1.98 1 3 C0.01 3.33 -0.98 3.66 -2 4 C-2.35130132 5.32871226 -2.68199374 6.66292823 -3 8 C-5.76368268 11.58832994 -8.58566337 14.54861597 -12.9375 15.9375 C-13.9584375 15.9684375 -13.9584375 15.9684375 -15 16 C-10.30233025 10.33870569 -5.25276628 5.14771096 0 0 Z " fill="#F0F31E" transform="translate(62,205)"/>
<path d="M0 0 C0.33 0.99 0.66 1.98 1 3 C0.01 3.33 -0.98 3.66 -2 4 C-2.12375 4.5775 -2.2475 5.155 -2.375 5.75 C-3.87207992 11.13948771 -9.50097455 14.17503053 -14 17 C-14.66 16.67 -15.32 16.34 -16 16 C-10.72 10.72 -5.44 5.44 0 0 Z " fill="#EFF31F" transform="translate(190,77)"/>
<path d="M0 0 C0 4.02370391 -1.38330362 4.97014103 -4 8 C-4.75796875 8.89525391 -4.75796875 8.89525391 -5.53125 9.80859375 C-7.62826654 12.28081178 -9.70674218 14.70674218 -12 17 C-13.32 16.67 -14.64 16.34 -16 16 C-10.72 10.72 -5.44 5.44 0 0 Z " fill="#F2F622" transform="translate(109,158)"/>
<path d="M0 0 C0.33 0.99 0.66 1.98 1 3 C0.01 3.33 -0.98 3.66 -2 4 C-2.59070014 5.94603274 -2.59070014 5.94603274 -3 8 C-5 10 -5 10 -7.5625 11.4375 C-10.2911131 12.82664051 -10.2911131 12.82664051 -11 16 C-12.65 16.33 -14.3 16.66 -16 17 C-11.01595832 10.96668638 -5.58084697 5.4815829 0 0 Z " fill="#EFF221" transform="translate(126,141)"/>
<path d="M0 0 C0.33 0 0.66 0 1 0 C1.12005212 6.36276245 0.89810286 12.69110458 0 19 C-0.33 19.33 -0.66 19.66 -1 20 C-1.28101946 22.31952569 -1.44782625 24.63885514 -1.62109375 26.96875 C-1.74613281 27.6390625 -1.87117188 28.309375 -2 29 C-2.66 29.33 -3.32 29.66 -4 30 C-4.25645895 23.26795268 -3.28162548 17.0986393 -2 10.5 C-1.80921875 9.48679688 -1.6184375 8.47359375 -1.421875 7.4296875 C-0.95435389 4.95182561 -0.48026672 2.47541732 0 0 Z " fill="#E1E128" transform="translate(285,228)"/>
<path d="M0 0 C3.1875 0.5625 3.1875 0.5625 6.1875 2.5625 C3.1875 3.5625 3.1875 3.5625 1.265625 2.91015625 C-0.94422387 2.29624431 -0.94422387 2.29624431 -2.953125 3.99609375 C-3.64921875 4.65738281 -4.3453125 5.31867187 -5.0625 6 C-5.76890625 6.65871094 -6.4753125 7.31742188 -7.203125 7.99609375 C-7.99976563 8.77146484 -7.99976563 8.77146484 -8.8125 9.5625 C-9.8025 8.9025 -10.7925 8.2425 -11.8125 7.5625 C-5.12814533 0.75661161 -5.12814533 0.75661161 0 0 Z " fill="#EBEE1E" transform="translate(249.8125,21.4375)"/>
<path d="M0 0 C3.29164829 -0.02895225 6.58326399 -0.0467823 9.875 -0.0625 C10.81214844 -0.07087891 11.74929687 -0.07925781 12.71484375 -0.08789062 C14.05869141 -0.09272461 14.05869141 -0.09272461 15.4296875 -0.09765625 C16.67081299 -0.10551147 16.67081299 -0.10551147 17.93701172 -0.11352539 C20 0 20 0 22 1 C24.3329866 1.04022391 26.66706666 1.04320247 29 1 C29 2.32 29 3.64 29 5 C28.41476562 4.7834375 27.82953125 4.566875 27.2265625 4.34375 C18.16395094 1.40452463 9.4065777 1.7205967 0 2 C0 1.34 0 0.68 0 0 Z " fill="#EDEE27" transform="translate(240,67)"/>
<path d="M0 0 C0.33 0 0.66 0 1 0 C1.05849554 3.20825562 1.09376162 6.41637233 1.125 9.625 C1.15013672 10.98044922 1.15013672 10.98044922 1.17578125 12.36328125 C1.21201643 17.32750152 0.96444146 21.34411907 -1 26 C-1.33 26 -1.66 26 -2 26 C-1.85771699 23.16644901 -1.71126584 20.33321213 -1.5625 17.5 C-1.52318359 16.70851562 -1.48386719 15.91703125 -1.44335938 15.1015625 C-1.17294782 10.02614559 -0.6872858 5.03624555 0 0 Z " fill="#F1F328" transform="translate(294,162)"/>
<path d="M0 0 C0 4.27142576 -2.48286435 6.16071473 -5.25 9.125 C-5.74113281 9.67542969 -6.23226563 10.22585938 -6.73828125 10.79296875 C-11.25671167 15.6969719 -11.25671167 15.6969719 -15 16 C-10.30233025 10.33870569 -5.25276628 5.14771096 0 0 Z " fill="#1C1A00" transform="translate(287,445)"/>
<path d="M0 0 C0 3 0 3 -1.35546875 4.61328125 C-2.26232422 5.45439453 -2.26232422 5.45439453 -3.1875 6.3125 C-6.39511259 9.37668275 -9.21992289 12.5459648 -12 16 C-12.99 15.67 -13.98 15.34 -15 15 C-10.05 10.05 -5.1 5.1 0 0 Z " fill="#201B00" transform="translate(333,399)"/>
<path d="M0 0 C0.33 0 0.66 0 1 0 C1 1.98 1 3.96 1 6 C0.34 6 -0.32 6 -1 6 C-0.938125 7.0828125 -0.938125 7.0828125 -0.875 8.1875 C-1.00921305 11.20729369 -1.75170619 13.26935729 -3 16 C-5.64 16 -8.28 16 -11 16 C-10.67 15.34 -10.34 14.68 -10 14 C-8.35 14.33 -6.7 14.66 -5 15 C-4.70996094 14.00419922 -4.70996094 14.00419922 -4.4140625 12.98828125 C-1.82776801 4.21792619 -1.82776801 4.21792619 0 0 Z " fill="#E9EB27" transform="translate(258,336)"/>
<path d="M0 0 C0.33 0 0.66 0 1 0 C2.20443195 7.05453001 3.28100502 13.83437211 3 21 C2.690625 20.360625 2.38125 19.72125 2.0625 19.0625 C1.1654837 17.06389179 1.1654837 17.06389179 0 16 C-0.07319621 13.30345146 -0.09242537 10.63308542 -0.0625 7.9375 C-0.05798828 7.17888672 -0.05347656 6.42027344 -0.04882812 5.63867188 C-0.0370068 3.75908129 -0.01907078 1.87953101 0 0 Z " fill="#D9DB23" transform="translate(209,184)"/>
<path d="M0 0 C0.75 1.75 0.75 1.75 1 4 C-0.75 6.25 -0.75 6.25 -3 8 C-3.99 8 -4.98 8 -6 8 C-6 8.66 -6 9.32 -6 10 C-7.65 10.66 -9.3 11.32 -11 12 C-7.49102731 7.81576108 -3.91939465 3.80411834 0 0 Z " fill="#EDF021" transform="translate(138,129)"/>
<path d="M0 0 C0.92277802 3.03001739 1.02219223 5.36540186 0.625 8.5 C0.53476562 9.2528125 0.44453125 10.005625 0.3515625 10.78125 C-0.24498902 14.54615295 -0.84407925 16.76611887 -3 20 C-3.66 20 -4.32 20 -5 20 C-4.35587386 17.22875964 -3.70977252 14.45800555 -3.0625 11.6875 C-2.88009766 10.90181641 -2.69769531 10.11613281 -2.50976562 9.30664062 C-2.33251953 8.54931641 -2.15527344 7.79199219 -1.97265625 7.01171875 C-1.81031494 6.31522217 -1.64797363 5.61872559 -1.48071289 4.90112305 C-1.06234435 3.2465594 -0.53968631 1.61905892 0 0 Z " fill="#E7E825" transform="translate(276,275)"/>
<path d="M0 0 C2 3 2 3 2 5 C-4.96428571 9.15178571 -4.96428571 9.15178571 -9 10 C-8.06409496 8.8944811 -7.12620142 7.79064547 -6.1875 6.6875 C-5.66542969 6.07261719 -5.14335938 5.45773438 -4.60546875 4.82421875 C-3.12827531 3.14575321 -1.59960869 1.56117966 0 0 Z " fill="#EFF31C" transform="translate(92,175)"/>
<path d="M0 0 C1.32 0 2.64 0 4 0 C3.34 1.65 2.68 3.3 2 5 C3.65 5 5.3 5 7 5 C7 5.33 7 5.66 7 6 C3.8125 6.3125 3.8125 6.3125 0 6 C-2.9375 3.5 -2.9375 3.5 -5 1 C-2.525 1.495 -2.525 1.495 0 2 C0 1.34 0 0.68 0 0 Z " fill="#EDF01D" transform="translate(246,472)"/>
<path d="M0 0 C2.31 0.33 4.62 0.66 7 1 C7.061875 2.051875 7.061875 2.051875 7.125 3.125 C8.38933399 7.27924027 10.81528782 9.08632715 14 12 C13.67 12.66 13.34 13.32 13 14 C10.83031809 11.85714108 8.66416525 9.71091768 6.5 7.5625 C5.87996094 6.95083984 5.25992188 6.33917969 4.62109375 5.70898438 C4.03457031 5.12568359 3.44804687 4.54238281 2.84375 3.94140625 C2.02680664 3.13231812 2.02680664 3.13231812 1.19335938 2.30688477 C0 1 0 1 0 0 Z " fill="#EBF024" transform="translate(205,437)"/>
<path d="M0 0 C0.66 0 1.32 0 2 0 C2.5321441 2.08047297 3.05031786 4.16452293 3.5625 6.25 C3.85253906 7.41015625 4.14257812 8.5703125 4.44140625 9.765625 C4.95179964 12.72090983 5.02996165 14.24434101 4 17 C1.67409146 13.36576791 1.83734167 10.22911669 2 6 C1.34 6 0.68 6 0 6 C0 4.02 0 2.04 0 0 Z " fill="#F2F227" transform="translate(219,257)"/>
<path d="M0 0 C0.33 0.99 0.66 1.98 1 3 C0.05125 3.7425 -0.8975 4.485 -1.875 5.25 C-4.32532401 7.27845219 -5.87325363 8.9577848 -7 12 C-8.32 11.67 -9.64 11.34 -11 11 C-7.37 7.37 -3.74 3.74 0 0 Z " fill="#F1F623" transform="translate(46,221)"/>
<path d="M0 0 C0.625 1.875 0.625 1.875 1 4 C0.34 4.66 -0.32 5.32 -1 6 C-1.99 6 -2.98 6 -4 6 C-4.33 6.99 -4.66 7.98 -5 9 C-6.65 9 -8.3 9 -10 9 C-9.278125 8.443125 -8.55625 7.88625 -7.8125 7.3125 C-5.02542701 5.02090666 -2.51358472 2.58540143 0 0 Z " fill="#E7E922" transform="translate(268,407)"/>
<path d="M0 0 C0 3.68553144 -0.8522582 5.03759752 -3 8 C-5.96240248 10.1477418 -7.31446856 11 -11 11 C-7.37 7.37 -3.74 3.74 0 0 Z " fill="#EDF123" transform="translate(202,65)"/>
<path d="M0 0 C3.71599191 -0.20086443 4.77208445 -0.1519437 8 2 C8.6875 5.625 8.6875 5.625 9 9 C7.87105124 8.06725891 6.74699124 7.12859878 5.625 6.1875 C4.99851563 5.66542969 4.37203125 5.14335937 3.7265625 4.60546875 C2 3 2 3 0 0 Z " fill="#F3F81F" transform="translate(178,410)"/>
<path d="M0 0 C5.68280467 1.48247078 5.68280467 1.48247078 7.1875 3.9375 C7.455625 4.618125 7.72375 5.29875 8 6 C9.5412312 7.70921589 9.5412312 7.70921589 11 9 C8 9 8 9 5.95703125 7.28515625 C5.24933594 6.55167969 4.54164063 5.81820313 3.8125 5.0625 C3.09707031 4.33160156 2.38164062 3.60070312 1.64453125 2.84765625 C0 1 0 1 0 0 Z M6 0 C6.66 0.66 7.32 1.32 8 2 C7.34 2 6.68 2 6 2 C6 1.34 6 0.68 6 0 Z " fill="#EDF021" transform="translate(168,400)"/>
<path d="M0 0 C5.68701095 1.48356808 5.68701095 1.48356808 7.25 4.0625 C7.4975 4.701875 7.745 5.34125 8 6 C8.66 6.33 9.32 6.66 10 7 C10 7.99 10 8.98 10 10 C2.51708428 3.84965831 2.51708428 3.84965831 0 0 Z " fill="#EEF120" transform="translate(125,357)"/>
<path d="M0 0 C0.33 0.99 0.66 1.98 1 3 C-1.14822047 6.2223307 -2.7274751 7.08437567 -6 9 C-7.75149165 10.58245275 -7.75149165 10.58245275 -9 12 C-9.66 11.67 -10.32 11.34 -11 11 C-7.37 7.37 -3.74 3.74 0 0 Z " fill="#EDF125" transform="translate(78,189)"/>
<path d="M0 0 C1.12894876 0.93274109 2.25300876 1.87140122 3.375 2.8125 C4.00148438 3.33457031 4.62796875 3.85664063 5.2734375 4.39453125 C7 6 7 6 9 9 C8.01 9.495 8.01 9.495 7 10 C6.34 9.67 5.68 9.34 5 9 C5 8.34 5 7.68 5 7 C3.68 7 2.36 7 1 7 C0.67 4.69 0.34 2.38 0 0 Z " fill="#F1F41E" transform="translate(357,125)"/>
<path d="M0 0 C2.24808254 3.37212381 3.05160443 6.2874961 4.125 10.1875 C4.30675781 10.84169922 4.48851562 11.49589844 4.67578125 12.16992188 C5.12199044 13.77862343 5.56164215 15.38914131 6 17 C5.34 17 4.68 17 4 17 C0.92291196 11.06561592 -0.48736475 6.70126536 0 0 Z " fill="#EAEC27" transform="translate(237,320)"/>
<path d="M0 0 C0.0825 0.7425 0.165 1.485 0.25 2.25 C1.1396946 5.51221354 2.48503749 6.80954878 5 9 C2 9 2 9 0.17578125 7.46875 C-0.43910156 6.8190625 -1.05398437 6.169375 -1.6875 5.5 C-2.31011719 4.8503125 -2.93273437 4.200625 -3.57421875 3.53125 C-4.04472656 3.0259375 -4.51523438 2.520625 -5 2 C-2 0 -2 0 0 0 Z " fill="#EEF220" transform="translate(194,420)"/>
<path d="M0 0 C2.57146057 2.57146057 2.80117997 4.6050417 3.625 8.125 C3.88539063 9.22070312 4.14578125 10.31640625 4.4140625 11.4453125 C4.70410156 12.70988281 4.70410156 12.70988281 5 14 C4.01 13.67 3.02 13.34 2 13 C0.01165038 8.60470084 -0.19118486 4.77962147 0 0 Z " fill="#DCDF22" transform="translate(229,294)"/>
<path d="M0 0 C0.66 0.33 1.32 0.66 2 1 C1.24203125 1.61488281 1.24203125 1.61488281 0.46875 2.2421875 C-0.50578125 3.05042969 -0.50578125 3.05042969 -1.5 3.875 C-2.1496875 4.40867187 -2.799375 4.94234375 -3.46875 5.4921875 C-4.22671875 6.23855469 -4.22671875 6.23855469 -5 7 C-5 7.66 -5 8.32 -5 9 C-7 10.625 -7 10.625 -9 12 C-9.66 11.67 -10.32 11.34 -11 11 C-9.92173635 9.72486237 -8.83714481 8.45507431 -7.75 7.1875 C-7.14671875 6.47980469 -6.5434375 5.77210937 -5.921875 5.04296875 C-4.07629602 3.08110329 -2.20054668 1.54330375 0 0 Z " fill="#232100" transform="translate(225,75)"/>
<path d="M0 0 C2.31 0.33 4.62 0.66 7 1 C7 1.66 7 2.32 7 3 C7.86625 3.37125 7.86625 3.37125 8.75 3.75 C11.3002997 5.16683317 13.01785701 6.87627537 15 9 C11.44577514 9 11.10684151 8.47208088 8.625 6.125 C5.8907868 3.66362761 3.5746867 2.0832384 0 1 C0 0.67 0 0.34 0 0 Z " fill="#DBDE26" transform="translate(270,72)"/>
<path d="M0 0 C0 3.94405202 -1.49401172 5.0517785 -4 8 C-4.99 9.485 -4.99 9.485 -6 11 C-7.32 10.67 -8.64 10.34 -10 10 C-6.7 6.7 -3.4 3.4 0 0 Z " fill="#EDF125" transform="translate(237,30)"/>
<path d="M0 0 C4.92127034 -0.16682272 8.50343896 -0.24828052 13 2 C13 2.66 13 3.32 13 4 C8.71 3.34 4.42 2.68 0 2 C0 1.34 0 0.68 0 0 Z " fill="#F3F223" transform="translate(247,371)"/>
<path d="M0 0 C1.14926266 0.95421808 2.29430541 1.91352045 3.4375 2.875 C4.07558594 3.40867188 4.71367187 3.94234375 5.37109375 4.4921875 C7 6 7 6 8 8 C5.69 7.67 3.38 7.34 1 7 C0.67 4.69 0.34 2.38 0 0 Z " fill="#ECEF20" transform="translate(405,173)"/>
<path d="M0 0 C0.2475 0.639375 0.495 1.27875 0.75 1.9375 C1.81562433 4.18741541 1.81562433 4.18741541 4.125 4.75 C4.74375 4.8325 5.3625 4.915 6 5 C5.34 6.32 4.68 7.64 4 9 C1.69 6.69 -0.62 4.38 -3 2 C-2.01 1.34 -1.02 0.68 0 0 Z " fill="#F4F821" transform="translate(64,292)"/>
<path d="M0 0 C-1 3 -1 3 -2.8125 4 C-3.534375 4.33 -4.25625 4.66 -5 5 C-6.35113205 5.97581759 -7.68946944 6.97029741 -9 8 C-7.53356282 2.37865749 -7.53356282 2.37865749 -5.0625 0.625 C-3 0 -3 0 0 0 Z " fill="#FBFC0E" transform="translate(180,92)"/>
<path d="M0 0 C2.5 2.0625 2.5 2.0625 5 5 C5.3125 8.8125 5.3125 8.8125 5 12 C4.67 12 4.34 12 4 12 C4 10.02 4 8.04 4 6 C3.01 6 2.02 6 1 6 C0.67 4.02 0.34 2.04 0 0 Z " fill="#E4EA27" transform="translate(473,241)"/>
<path d="M0 0 C1.12894876 0.93274109 2.25300876 1.87140122 3.375 2.8125 C4.00148438 3.33457031 4.62796875 3.85664063 5.2734375 4.39453125 C7 6 7 6 9 9 C7.68 9.33 6.36 9.66 5 10 C4.731875 9.236875 4.46375 8.47375 4.1875 7.6875 C3.04199033 5.09503074 2.00288478 3.91184456 0 2 C0 1.34 0 0.68 0 0 Z " fill="#E9EC26" transform="translate(381,149)"/>
<path d="M0 0 C2.31 0.33 4.62 0.66 7 1 C6.67 2.65 6.34 4.3 6 6 C3.97945196 4.35830472 1.97956942 2.69088222 0 1 C0 0.67 0 0.34 0 0 Z " fill="#F6F820" transform="translate(115,347)"/>
<path d="M0 0 C0.66 0 1.32 0 2 0 C0.515 5.445 0.515 5.445 -1 11 C-1.66 10.01 -2.32 9.02 -3 8 C-1.55555556 1.55555556 -1.55555556 1.55555556 0 0 Z " fill="#211B00" transform="translate(264,312)"/>
<path d="M0 0 C-1.6232687 0.6708712 -3.24867578 1.33657029 -4.875 2 C-6.23238281 2.556875 -6.23238281 2.556875 -7.6171875 3.125 C-10 4 -10 4 -12 4 C-11.67 3.01 -11.34 2.02 -11 1 C-6.90275533 -0.54613006 -4.18142349 -1.29227216 0 0 Z " fill="#EBEB27" transform="translate(237,71)"/>
<path d="M0 0 C0.66 0 1.32 0 2 0 C1.34 3.63 0.68 7.26 0 11 C-0.33 11 -0.66 11 -1 11 C-1.02688151 9.35425434 -1.04634123 7.70838587 -1.0625 6.0625 C-1.07410156 5.14597656 -1.08570313 4.22945313 -1.09765625 3.28515625 C-1 1 -1 1 0 0 Z " fill="#2C2802" transform="translate(273,280)"/>
<path d="M0 0 C2.475 0.495 2.475 0.495 5 1 C5 1.66 5 2.32 5 3 C5.66 3.33 6.32 3.66 7 4 C7 4.99 7 5.98 7 7 C5.83040013 6.02433888 4.66438823 5.044375 3.5 4.0625 C2.8503125 3.51722656 2.200625 2.97195313 1.53125 2.41015625 C1.0259375 1.94480469 0.520625 1.47945313 0 1 C0 0.67 0 0.34 0 0 Z " fill="#E9EC26" transform="translate(24,256)"/>
<path d="M0 0 C1 2 1 2 0.4375 4 C-1.57302108 6.79724672 -3.74418077 7.15065585 -7 8 C-6.02133662 6.85373678 -5.04205413 5.70800212 -4.0625 4.5625 C-3.51722656 3.92441406 -2.97195312 3.28632812 -2.41015625 2.62890625 C-1.63204305 1.73008851 -0.84063472 0.84063472 0 0 Z " fill="#E6EB24" transform="translate(218,49)"/>
<path d="M0 0 C1.98 0.66 3.96 1.32 6 2 C6.33 3.65 6.66 5.3 7 7 C5.83040013 6.02433888 4.66438823 5.044375 3.5 4.0625 C2.8503125 3.51722656 2.200625 2.97195313 1.53125 2.41015625 C1.0259375 1.94480469 0.520625 1.47945313 0 1 C0 0.67 0 0.34 0 0 Z " fill="#E6EA23" transform="translate(48,280)"/>
<path d="M0 0 C0.66 1.32 1.32 2.64 2 4 C1.34 4.66 0.68 5.32 0 6 C-0.69748583 7.31747324 -1.36959957 8.64914193 -2 10 C-2.25 3.375 -2.25 3.375 0 0 Z " fill="#E3E923" transform="translate(24,243)"/>
<path d="M0 0 C2.31 1.98 4.62 3.96 7 6 C6.34 6.66 5.68 7.32 5 8 C4.34 7.67 3.68 7.34 3 7 C3 6.01 3 5.02 3 4 C2.34 4 1.68 4 1 4 C0.67 2.68 0.34 1.36 0 0 Z " fill="#E8EC27" transform="translate(256,24)"/>
<path d="M0 0 C1.32 0 2.64 0 4 0 C4 0.66 4 1.32 4 2 C4.66 2.33 5.32 2.66 6 3 C6 3.99 6 4.98 6 6 C3.97945196 4.35830472 1.97956942 2.69088222 0 1 C0 0.67 0 0.34 0 0 Z " fill="#E9ED21" transform="translate(233,465)"/>
<path d="M0 0 C2.31 0.33 4.62 0.66 7 1 C5.68 2.32 4.36 3.64 3 5 C3 4.01 3 3.02 3 2 C2.01 2 1.02 2 0 2 C0 1.34 0 0.68 0 0 Z " fill="#F7F719" transform="translate(284,440)"/>
<path d="M0 0 C2.31 0.33 4.62 0.66 7 1 C6.67 2.65 6.34 4.3 6 6 C3.97945196 4.35830472 1.97956942 2.69088222 0 1 C0 0.67 0 0.34 0 0 Z " fill="#E7EA22" transform="translate(109,341)"/>
</svg>
