<?xml version="1.0" encoding="UTF-8"?>
<svg version="1.1" xmlns="http://www.w3.org/2000/svg" width="500" height="500">
<path d="M0 0 C4.3048672 3.2330942 8.03133592 7.00850833 11.81987321 10.8214916 C13.17263014 12.16511187 13.17263014 12.16511187 14.55271548 13.53587598 C17.03587696 16.00274391 19.50971638 18.47877353 21.98200059 20.95653605 C24.6576161 23.63483486 27.34183702 26.30448674 30.0248903 28.97533071 C35.27202791 34.20146789 40.51093637 39.43577879 45.74669012 44.67331841 C50.00422492 48.93216338 54.26431603 53.18843484 58.5262121 57.44291532 C59.75611928 58.67072321 60.98602562 59.89853194 62.21593112 61.12634152 C63.13430092 62.04314604 63.13430092 62.04314604 64.07122365 62.97847185 C75.63607643 74.52444452 87.19096262 86.08035201 98.74296353 97.63918106 C109.30028572 108.20207897 119.87075061 118.75171289 130.4473991 129.29525616 C141.32116201 140.13524893 152.18557641 150.98453215 163.04015845 161.84373254 C169.12886228 167.93467744 175.221224 174.02185232 181.32351053 180.09919202 C186.51790299 185.27252863 191.70343396 190.45455306 196.87787112 195.6478522 C199.51541672 198.29452853 202.15674005 200.93710369 204.80920732 203.56883276 C207.69085746 206.4282019 210.55256206 209.30676076 213.41289079 212.1874584 C214.24528329 213.00733305 215.07767579 213.8272077 215.9352923 214.67192703 C223.77494483 222.63134739 229.45190248 231.14772722 229.67590654 242.5719341 C229.47045559 256.43987318 220.80362234 265.89874748 211.42634904 275.21590078 C210.5306022 276.11773873 209.63485536 277.01957667 208.71196467 277.94874305 C206.24509674 280.43190452 203.76906711 282.90574394 201.29130459 285.37802815 C198.61300579 288.05364366 195.9433539 290.73786459 193.27250993 293.42091787 C188.04637276 298.66805548 182.81206185 303.90696394 177.57452223 309.14271768 C173.31567726 313.40025249 169.0594058 317.6603436 164.80492532 321.92223966 C163.57711744 323.15214685 162.3493087 324.38205318 161.12149912 325.61195868 C160.20469461 326.53032849 160.20469461 326.53032849 159.26936879 327.46725122 C147.72339612 339.032104 136.16748864 350.58699018 124.60865959 362.1389911 C114.04576168 372.69631329 103.49612775 383.26677817 92.95258448 393.84342667 C82.11259172 404.71718958 71.26330849 415.58160398 60.40410811 426.43618602 C54.3131632 432.52488985 48.22598832 438.61725156 42.14864862 444.71953809 C36.97531202 449.91393055 31.79328758 455.09946152 26.59998844 460.27389868 C23.95331212 462.91144429 21.31073696 465.55276761 18.67900789 468.20523489 C15.81963874 471.08688502 12.94107989 473.94858963 10.06038225 476.80891836 C9.2405076 477.64131086 8.42063295 478.47370335 7.57591361 479.33131987 C-0.38350675 487.1709724 -8.89988658 492.84793005 -20.32409346 493.0719341 C-34.19203254 492.86648315 -43.65090684 484.1996499 -52.96806014 474.82237661 C-53.86989808 473.92662976 -54.77173603 473.03088292 -55.7009024 472.10799223 C-58.18406388 469.6411243 -60.6579033 467.16509468 -63.13018751 464.68733215 C-65.80580302 462.00903335 -68.49002395 459.33938147 -71.17307723 456.6685375 C-76.42021484 451.44240032 -81.6591233 446.20808942 -86.89487704 440.9705498 C-91.15241185 436.71170482 -95.41250295 432.45543337 -99.67439902 428.20095289 C-100.9043062 426.973145 -102.13421254 425.74533626 -103.36411804 424.51752669 C-103.97636458 423.90632368 -104.58861111 423.29512067 -105.21941058 422.66539636 C-116.78426336 411.11942369 -128.33914954 399.5635162 -139.89115045 388.00468715 C-150.44847264 377.44178924 -161.01893753 366.89215532 -171.59558602 356.34861205 C-182.46934894 345.50861928 -193.33376333 334.65933605 -204.18834537 323.80013567 C-210.27704921 317.70919077 -216.36941092 311.62201588 -222.47169745 305.54467618 C-227.66608991 300.37133958 -232.85162088 295.18931515 -238.02605804 289.996016 C-240.66360364 287.34933968 -243.30492697 284.70676452 -245.95739424 282.07503545 C-248.83904438 279.2156663 -251.70074898 276.33710745 -254.56107771 273.45640981 C-255.39347021 272.63653516 -256.22586271 271.81666051 -257.08347923 270.97194117 C-264.92313175 263.01252082 -270.6000894 254.49614099 -270.82409346 243.0719341 C-270.61864251 229.20399502 -261.95180926 219.74512073 -252.57453597 210.42796743 C-251.67878912 209.52612948 -250.78304228 208.62429153 -249.86015159 207.69512516 C-247.39328366 205.21196368 -244.91725404 202.73812426 -242.43949151 200.26584005 C-239.76119271 197.59022454 -237.09154082 194.90600362 -234.42069685 192.22295034 C-229.19455968 186.97581273 -223.96024877 181.73690427 -218.72270916 176.50115053 C-214.46386418 172.24361572 -210.20759272 167.98352461 -205.95311224 163.72162855 C-204.72530436 162.49172136 -203.49749562 161.26181502 -202.26968604 160.03190953 C-201.65848303 159.41966299 -201.04728002 158.80741645 -200.41755571 158.17661699 C-188.87158304 146.61176421 -177.31567556 135.05687803 -165.75684651 123.50487711 C-155.1939486 112.94755492 -144.64431467 102.37709003 -134.1007714 91.80044154 C-123.26077864 80.92667863 -112.41149541 70.06226423 -101.55229503 59.20768219 C-95.46135013 53.11897836 -89.37417524 47.02661665 -83.29683554 40.92433012 C-78.12349894 35.72993765 -72.9414745 30.54440668 -67.74817536 25.36996952 C-65.10149904 22.73242392 -62.45892388 20.0911006 -59.82719481 17.43863332 C-56.96782566 14.55698319 -54.08926681 11.69527858 -51.20856917 8.83494985 C-50.38869452 8.00255735 -49.56881987 7.17016485 -48.72410053 6.31254834 C-34.13271958 -8.05927164 -17.31275347 -11.78950201 0 0 Z " fill="#FEFE01" transform="translate(270.5740934610367,7.178065896034241)"/>
<path d="M0 0 C4.3048672 3.2330942 8.03133592 7.00850833 11.81987321 10.8214916 C13.17263014 12.16511187 13.17263014 12.16511187 14.55271548 13.53587598 C17.03587696 16.00274391 19.50971638 18.47877353 21.98200059 20.95653605 C24.6576161 23.63483486 27.34183702 26.30448674 30.0248903 28.97533071 C35.27202791 34.20146789 40.51093637 39.43577879 45.74669012 44.67331841 C50.00422492 48.93216338 54.26431603 53.18843484 58.5262121 57.44291532 C59.75611928 58.67072321 60.98602562 59.89853194 62.21593112 61.12634152 C63.13430092 62.04314604 63.13430092 62.04314604 64.07122365 62.97847185 C75.63607643 74.52444452 87.19096262 86.08035201 98.74296353 97.63918106 C109.30028572 108.20207897 119.87075061 118.75171289 130.4473991 129.29525616 C141.32116201 140.13524893 152.18557641 150.98453215 163.04015845 161.84373254 C169.12886228 167.93467744 175.221224 174.02185232 181.32351053 180.09919202 C186.51790299 185.27252863 191.70343396 190.45455306 196.87787112 195.6478522 C199.51541672 198.29452853 202.15674005 200.93710369 204.80920732 203.56883276 C207.69085746 206.4282019 210.55256206 209.30676076 213.41289079 212.1874584 C214.24528329 213.00733305 215.07767579 213.8272077 215.9352923 214.67192703 C223.77494483 222.63134739 229.45190248 231.14772722 229.67590654 242.5719341 C229.47045559 256.43987318 220.80362234 265.89874748 211.42634904 275.21590078 C210.5306022 276.11773873 209.63485536 277.01957667 208.71196467 277.94874305 C206.24509674 280.43190452 203.76906711 282.90574394 201.29130459 285.37802815 C198.61300579 288.05364366 195.9433539 290.73786459 193.27250993 293.42091787 C188.04637276 298.66805548 182.81206185 303.90696394 177.57452223 309.14271768 C173.31567726 313.40025249 169.0594058 317.6603436 164.80492532 321.92223966 C163.57711744 323.15214685 162.3493087 324.38205318 161.12149912 325.61195868 C160.20469461 326.53032849 160.20469461 326.53032849 159.26936879 327.46725122 C147.72339612 339.032104 136.16748864 350.58699018 124.60865959 362.1389911 C114.04576168 372.69631329 103.49612775 383.26677817 92.95258448 393.84342667 C82.11259172 404.71718958 71.26330849 415.58160398 60.40410811 426.43618602 C54.3131632 432.52488985 48.22598832 438.61725156 42.14864862 444.71953809 C36.97531202 449.91393055 31.79328758 455.09946152 26.59998844 460.27389868 C23.95331212 462.91144429 21.31073696 465.55276761 18.67900789 468.20523489 C15.81963874 471.08688502 12.94107989 473.94858963 10.06038225 476.80891836 C9.2405076 477.64131086 8.42063295 478.47370335 7.57591361 479.33131987 C-0.38350675 487.1709724 -8.89988658 492.84793005 -20.32409346 493.0719341 C-34.19203254 492.86648315 -43.65090684 484.1996499 -52.96806014 474.82237661 C-53.86989808 473.92662976 -54.77173603 473.03088292 -55.7009024 472.10799223 C-58.18406388 469.6411243 -60.6579033 467.16509468 -63.13018751 464.68733215 C-65.80580302 462.00903335 -68.49002395 459.33938147 -71.17307723 456.6685375 C-76.42021484 451.44240032 -81.6591233 446.20808942 -86.89487704 440.9705498 C-91.15241185 436.71170482 -95.41250295 432.45543337 -99.67439902 428.20095289 C-100.9043062 426.973145 -102.13421254 425.74533626 -103.36411804 424.51752669 C-103.97636458 423.90632368 -104.58861111 423.29512067 -105.21941058 422.66539636 C-116.78426336 411.11942369 -128.33914954 399.5635162 -139.89115045 388.00468715 C-150.44847264 377.44178924 -161.01893753 366.89215532 -171.59558602 356.34861205 C-182.46934894 345.50861928 -193.33376333 334.65933605 -204.18834537 323.80013567 C-210.27704921 317.70919077 -216.36941092 311.62201588 -222.47169745 305.54467618 C-227.66608991 300.37133958 -232.85162088 295.18931515 -238.02605804 289.996016 C-240.66360364 287.34933968 -243.30492697 284.70676452 -245.95739424 282.07503545 C-248.83904438 279.2156663 -251.70074898 276.33710745 -254.56107771 273.45640981 C-255.39347021 272.63653516 -256.22586271 271.81666051 -257.08347923 270.97194117 C-264.92313175 263.01252082 -270.6000894 254.49614099 -270.82409346 243.0719341 C-270.61864251 229.20399502 -261.95180926 219.74512073 -252.57453597 210.42796743 C-251.67878912 209.52612948 -250.78304228 208.62429153 -249.86015159 207.69512516 C-247.39328366 205.21196368 -244.91725404 202.73812426 -242.43949151 200.26584005 C-239.76119271 197.59022454 -237.09154082 194.90600362 -234.42069685 192.22295034 C-229.19455968 186.97581273 -223.96024877 181.73690427 -218.72270916 176.50115053 C-214.46386418 172.24361572 -210.20759272 167.98352461 -205.95311224 163.72162855 C-204.72530436 162.49172136 -203.49749562 161.26181502 -202.26968604 160.03190953 C-201.65848303 159.41966299 -201.04728002 158.80741645 -200.41755571 158.17661699 C-188.87158304 146.61176421 -177.31567556 135.05687803 -165.75684651 123.50487711 C-155.1939486 112.94755492 -144.64431467 102.37709003 -134.1007714 91.80044154 C-123.26077864 80.92667863 -112.41149541 70.06226423 -101.55229503 59.20768219 C-95.46135013 53.11897836 -89.37417524 47.02661665 -83.29683554 40.92433012 C-78.12349894 35.72993765 -72.9414745 30.54440668 -67.74817536 25.36996952 C-65.10149904 22.73242392 -62.45892388 20.0911006 -59.82719481 17.43863332 C-56.96782566 14.55698319 -54.08926681 11.69527858 -51.20856917 8.83494985 C-50.38869452 8.00255735 -49.56881987 7.17016485 -48.72410053 6.31254834 C-34.13271958 -8.05927164 -17.31275347 -11.78950201 0 0 Z M-35.19788802 23.22972524 C-36.11227532 24.13415717 -37.02666263 25.03858909 -37.96875864 25.97042805 C-40.49822339 28.47371518 -42.99555794 31.00704197 -45.48863435 33.54650068 C-48.18548307 36.28248393 -50.91119158 38.98944885 -53.63343489 41.70012319 C-58.95775704 47.01081827 -64.25521048 52.34756115 -69.54430295 57.69331781 C-75.70265297 63.91537002 -81.88838228 70.10989837 -88.0757122 76.30311092 C-99.11126216 87.35078721 -110.1235778 98.4213304 -121.12218916 109.50577199 C-131.80029102 120.2671306 -142.49162263 131.01508706 -153.1993376 141.74698293 C-154.18921817 142.73910815 -154.18921817 142.73910815 -155.19909633 143.75127629 C-157.85154054 146.40966885 -160.50402166 149.06802456 -163.15656534 151.72631787 C-174.58616545 163.18137026 -186.00471385 174.64743576 -197.42186496 186.114894 C-199.27229693 187.97329183 -201.12299398 189.83142531 -202.97375667 191.68949378 C-209.44964902 198.19141206 -215.92220948 204.69659397 -222.38541771 211.21112362 C-225.05857909 213.90548501 -227.73321889 216.59832943 -230.41212904 219.28697622 C-233.31133771 222.19692614 -236.20267032 225.11457304 -239.09315169 228.03319204 C-239.94720817 228.88824404 -240.80126465 229.74329603 -241.68120164 230.6242587 C-242.45033951 231.40354566 -243.21947739 232.18283262 -244.01192248 232.98573434 C-244.68050534 233.65897849 -245.3490882 234.33222263 -246.03793114 235.02586812 C-248.13282892 237.47520215 -248.5603671 239.75467492 -249.19909346 242.8844341 C-248.4929953 247.33285251 -247.6000573 248.28000635 -244.60428298 251.48789537 C-243.78335567 252.37031715 -242.96242836 253.25273893 -242.11662447 254.16190076 C-238.2726926 258.18347882 -234.39354992 262.164019 -230.46606123 266.10405385 C-229.59492485 266.98168919 -228.72378847 267.85932453 -227.82625401 268.76355487 C-225.43718769 271.16932878 -223.04600593 273.57296096 -220.65377748 275.97558808 C-218.59545368 278.04363679 -216.53891801 280.11345935 -214.48236537 282.18326915 C-207.13293599 289.57993213 -199.77635224 296.96946119 -192.41784346 304.35709035 C-191.83675629 304.94048511 -191.25566912 305.52387986 -190.65697324 306.12495324 C-179.10423916 317.72312069 -167.54800374 329.31779668 -155.98596632 340.90669 C-153.4526293 343.44601514 -150.91934122 345.98538909 -148.38610518 348.52481496 C-147.44177922 349.47144039 -147.44177922 349.47144039 -146.47837597 350.43718957 C-136.25867844 360.68265448 -126.05467566 370.94360974 -115.85669714 381.2106883 C-105.37231369 391.76552218 -94.87288254 402.30520231 -84.35887635 412.83052951 C-78.46134855 418.73521477 -72.57079107 424.64651276 -66.69730818 430.5751251 C-61.70167246 435.61762201 -56.69274712 440.64641763 -51.66582155 445.65773023 C-49.1024858 448.21395426 -46.54607836 450.77622453 -44.00678122 453.3563484 C-41.25340346 456.15364223 -38.46959808 458.91932441 -35.68212569 461.68266714 C-34.88570835 462.50170508 -34.08929101 463.32074303 -33.26873982 464.16460031 C-28.95586753 468.38287658 -25.80927511 470.7070331 -19.71092045 471.18229896 C-15.04398128 470.39524373 -11.79757468 467.29628487 -8.54144347 464.05772626 C-7.76924129 463.29443978 -6.99703912 462.53115329 -6.20143688 461.74473691 C-4.94612985 460.4888768 -4.94612985 460.4888768 -3.66546309 459.20764577 C-2.76759856 458.31713462 -1.86973404 457.42662348 -0.9446615 456.50912714 C1.5435843 454.04085995 4.02555906 451.56637015 6.50649035 449.09075391 C9.18462797 446.42044018 11.86841202 443.75581091 14.55134904 441.09032094 C21.02555025 434.65558879 27.49010858 428.21121076 33.95350099 421.76562458 C36.99812928 418.72976822 40.0437357 415.69489347 43.08921373 412.65988958 C53.212533 402.5705818 63.33334113 392.47876503 73.44691408 382.37968671 C76.06961282 379.76080765 78.69232207 377.1419391 81.3150667 374.52310598 C81.96692151 373.87221864 82.61877633 373.22133131 83.29038432 372.55072011 C93.85818353 361.99953333 104.44291319 351.46550312 115.03481564 340.93851839 C125.91049537 330.12895403 136.77108298 319.3044126 147.61695254 308.46493673 C153.70641707 302.37980381 159.80230992 296.3014294 165.91509569 290.23971593 C171.11884862 285.07934118 176.30878437 279.90555975 181.48115543 274.71372263 C184.12038654 272.06539254 186.7656708 269.42396292 189.4287771 266.79962385 C192.31623496 263.95383909 195.17174008 261.07798637 198.02521074 258.19812429 C198.87100497 257.37426854 199.71679921 256.5504128 200.58822358 255.70159173 C204.86359371 251.32990267 207.33212781 248.14362851 207.79546225 241.94933367 C206.98494296 237.28346509 203.88833757 234.03315481 200.64887464 230.77087343 C199.49964487 229.60642002 199.49964487 229.60642002 198.32719833 228.41844231 C197.06652497 227.15627568 197.06652497 227.15627568 195.78038347 225.86861074 C194.88649433 224.9659571 193.9926052 224.06330345 193.07162851 223.13329667 C190.59390246 220.63171362 188.10994394 218.13640172 185.62484241 215.64214826 C182.9443141 212.94968024 180.26944483 210.2515991 177.59367692 207.55440176 C171.13403842 201.04579148 164.66456276 194.54700323 158.1933243 188.04992899 C156.36561458 186.21479199 154.53816504 184.37939633 152.7108084 182.54390776 C141.36064033 171.14328008 130.00729185 159.74583033 118.64431989 148.35796297 C116.01442901 145.72221286 113.38457025 143.08643072 110.75476396 140.45059621 C110.10114832 139.79548847 109.44753268 139.14038073 108.7741105 138.46542124 C98.17875353 127.84473896 87.60413948 117.20364828 77.03783821 106.5540668 C66.1879029 95.61931924 55.31922698 84.70348375 44.43203062 73.80583256 C38.32015806 67.6871304 32.21689605 61.56034133 26.13461435 55.41221082 C20.95671809 50.17834816 15.7621785 44.96175988 10.54502665 39.76701405 C7.88381202 37.11618081 5.23136372 34.45790317 2.60017717 31.77723348 C-0.25313752 28.87070981 -3.14375579 26.0044052 -6.03968489 23.14033926 C-6.86451874 22.28774123 -7.68935259 21.4351432 -8.53918141 20.55670887 C-12.27938993 16.91731854 -15.24543734 14.29109725 -20.56850684 13.77654684 C-27.11659304 14.40288686 -30.81688145 18.70286981 -35.19788802 23.22972524 Z " fill="#070705" transform="translate(270.5740934610367,7.178065896034241)"/>
<path d="M0 0 C0 38.61 0 77.22 0 117 C-91.08 117 -182.16 117 -276 117 C-274.43414239 113.86828477 -271.84519985 113.6040315 -268.625 112.375 C-267.25717416 111.8440896 -265.89001797 111.31145159 -264.5234375 110.77734375 C-263.7922168 110.4922998 -263.06099609 110.20725586 -262.30761719 109.91357422 C-258.26421104 108.31280975 -254.25693922 106.6270821 -250.25 104.9375 C-249.43595703 104.59468994 -248.62191406 104.25187988 -247.78320312 103.89868164 C-243.53265117 102.09980586 -239.31295113 100.25385344 -235.125 98.3125 C-230.2336331 96.04853916 -225.23173999 94.15425832 -220.19140625 92.25 C-216.3536008 90.74682039 -212.6285117 89.05447983 -208.89306641 87.31542969 C-206.11472321 86.05216276 -203.31784916 84.86575765 -200.49609375 83.703125 C-193.8460122 80.94581142 -187.23585432 78.09978602 -180.625 75.25 C-170.85609031 71.04755749 -161.0519107 66.94678905 -151.19628906 62.95117188 C-145.93981414 60.81381529 -140.74288056 58.59243185 -135.60253906 56.1862793 C-132.96123681 54.98233111 -130.29764036 53.86224255 -127.61328125 52.7578125 C-121.12447947 50.06636693 -114.68193132 47.2725878 -108.24249268 44.46575928 C-80.78081505 32.50267749 -80.78081505 32.50267749 -69.86328125 28.4609375 C-66.86372873 27.34386775 -63.95811355 26.1183099 -61.0625 24.75 C-55.59143482 22.22372234 -50.04109877 19.92776021 -44.45336914 17.67480469 C-40.50941653 16.07370574 -36.61981444 14.3867137 -32.75 12.61328125 C-26.71617102 9.85074227 -20.6208539 7.25051264 -14.5 4.6875 C-13.43007813 4.23310547 -12.36015625 3.77871094 -11.2578125 3.31054688 C-10.23429687 2.88193359 -9.21078125 2.45332031 -8.15625 2.01171875 C-6.77663086 1.43103638 -6.77663086 1.43103638 -5.36914062 0.83862305 C-3 0 -3 0 0 0 Z " fill="#030300" transform="translate(376,184)"/>
<path d="M0 0 C2.65623956 2.65623956 2.35230896 4.50503463 2.55859375 8.125 C2.8705797 10.40685245 2.8705797 10.40685245 6 12 C6 13.32 6 14.64 6 16 C0.72 17.98 -4.56 19.96 -10 22 C-10.99 20.02 -10.99 20.02 -12 18 C-14.2119413 15.0031763 -15.88101106 13.07932596 -19 11 C-21.83665329 10.68193122 -21.83665329 10.68193122 -24.9375 10.75 C-26.49791016 10.74226562 -26.49791016 10.74226562 -28.08984375 10.734375 C-30.96602629 10.99689904 -32.60782629 11.42171527 -35 13 C-37.25891556 16.95310223 -37.32023739 20.51667657 -37 25 C-36.38655243 26.68698082 -35.72904086 28.35965807 -35 30 C-35 30.99 -35 31.98 -35 33 C-36.00417969 33.36351562 -37.00835937 33.72703125 -38.04296875 34.1015625 C-44.64257628 36.51795423 -51.14695478 38.9793068 -57.5 42 C-63.52632181 44.85692293 -69.66463234 47.1884932 -75.91796875 49.484375 C-83.26045518 52.18643823 -90.54607589 55.09389838 -97.73828125 58.171875 C-100 59 -100 59 -103 59 C-103.5878125 57.39125 -103.5878125 57.39125 -104.1875 55.75 C-105.85210361 52.00274165 -107.2532213 49.95144724 -111 48 C-114.7763217 47.39715346 -118.23105861 47.32091146 -122 48 C-125.15222575 50.22990529 -125.15222575 50.22990529 -127 53 C-127.33 53.33 -127.66 53.66 -128 54 C-128.09955104 55.93538935 -128.12968668 57.87455769 -128.125 59.8125 C-128.12757813 60.87082031 -128.13015625 61.92914063 -128.1328125 63.01953125 C-128.02063661 65.53689017 -127.7309121 67.60423255 -127 70 C-129.875 70.625 -129.875 70.625 -133 71 C-133.66 70.34 -134.32 69.68 -135 69 C-135.78375 69.04125 -136.5675 69.0825 -137.375 69.125 C-140 69 -140 69 -142.1875 67.4375 C-144.45885319 64.38292157 -145.25653521 61.71732393 -146 58 C-145.67 57.01 -145.34 56.02 -145 55 C-145.15688424 52.87183587 -145.15688424 52.87183587 -146 51 C-146.99 50.67 -147.98 50.34 -149 50 C-149.24686439 45.46970477 -148.65361665 42.51472715 -146.6875 38.4375 C-146.04361328 37.07431641 -146.04361328 37.07431641 -145.38671875 35.68359375 C-144.47193728 33.91329835 -143.4953695 32.17342802 -142.45703125 30.47265625 C-140.89604105 28.08747974 -140.89604105 28.08747974 -140.35546875 25.4609375 C-138.15361361 21.46333308 -134.38329511 20.38856408 -130.3125 18.625 C-129.02690186 18.04419678 -129.02690186 18.04419678 -127.71533203 17.45166016 C-125.96906927 16.66280536 -124.22003694 15.88005223 -122.46826172 15.10351562 C-119.67836167 13.85620126 -116.92145817 12.54889821 -114.16552734 11.22875977 C-91.6558556 0.49569158 -71.94305739 -5.75690281 -46.9609375 0.38671875 C-41.63632943 1.48957293 -37.25471845 0.57115547 -32.0546875 -0.74609375 C-21.2209526 -3.47410651 -10.32396414 -5.16198207 0 0 Z " fill="#070701" transform="translate(296,175)"/>
<path d="M0 0 C0.66 0 1.32 0 2 0 C2.02332946 15.49839856 2.04097941 30.99679582 2.05181217 46.49520779 C2.05697503 53.69090295 2.06401753 60.88658722 2.07543945 68.08227539 C2.0853866 74.35184694 2.0918535 80.62141061 2.09408849 86.89098984 C2.09539555 90.21265621 2.09899997 93.53429466 2.10573006 96.85595512 C2.11293628 100.55819947 2.11399112 104.26039631 2.11352539 107.96264648 C2.11712067 109.07178909 2.12071594 110.1809317 2.12442017 111.32368469 C2.1230455 112.32634369 2.12167084 113.32900269 2.12025452 114.36204529 C2.12163721 115.67698298 2.12163721 115.67698298 2.12304783 117.01848507 C2 119 2 119 1 120 C-0.4750333 120.10172289 -1.95491285 120.13397571 -3.43344212 120.1386652 C-4.39685034 120.14413964 -5.36025857 120.14961409 -6.35286099 120.15525442 C-7.95934432 120.15672158 -7.95934432 120.15672158 -9.59828186 120.15821838 C-11.29015417 120.16562535 -11.29015417 120.16562535 -13.01620573 120.17318195 C-16.82728987 120.1886423 -20.63835707 120.19694055 -24.44946289 120.20532227 C-27.16879148 120.21434055 -29.88811376 120.22485979 -32.60743713 120.23532104 C-38.47821912 120.25711552 -44.34900338 120.27524909 -50.21980476 120.29092598 C-58.70809306 120.31359763 -67.19635619 120.34174415 -75.68462317 120.37124526 C-89.45485813 120.41895442 -103.22510335 120.46220956 -116.99536133 120.50268555 C-130.37525228 120.54202358 -143.75513409 120.58344572 -157.13500977 120.62768555 C-157.95915782 120.63040982 -158.78330588 120.63313409 -159.63242812 120.63594092 C-163.76676126 120.64962012 -167.90109427 120.66334044 -172.03542721 120.67708123 C-206.35693259 120.79109821 -240.67845716 120.89789598 -275 121 C-275.33 120.01 -275.66 119.02 -276 118 C-184.59 118 -93.18 118 1 118 C0.505 59.59 0.505 59.59 0 0 Z " fill="#F4F522" transform="translate(375,183)"/>
<path d="M0 0 C-0.33 0.99 -0.66 1.98 -1 3 C-3.26685031 4.03895722 -5.41935737 4.87646307 -7.7734375 5.6640625 C-8.45298492 5.90160248 -9.13253235 6.13914246 -9.83267212 6.38388062 C-12.00978693 7.14201069 -14.19213376 7.88361296 -16.375 8.625 C-17.83891359 9.13173932 -19.30246053 9.6395392 -20.765625 10.1484375 C-25.50172581 11.79163821 -30.24415046 13.41471682 -35 15 C-36.00842453 13.56839732 -37.00647891 12.12948547 -38 10.6875 C-38.556875 9.88699219 -39.11375 9.08648437 -39.6875 8.26171875 C-41 6 -41 6 -41 3 C-26.78454388 -3.20310812 -15.11835029 -5.18343439 0 0 Z " fill="#FAFA08" transform="translate(239,183)"/>
<path d="M0 0 C3.07469523 1.70251719 5.40613254 3.81226508 7 7 C7.37593152 11.98109259 7.1765161 15.05673864 4 19 C1.57088532 21.20828607 -0.12754842 21.9518452 -3.40625 22.1328125 C-7.56473622 21.92488819 -10.23551769 21.56426075 -13.625 19.0625 C-15.59980271 14.66407579 -15.79438941 10.74297206 -15 6 C-11.21221123 -0.18672166 -6.91624103 -1.06760768 0 0 Z " fill="#090801" transform="translate(184,224)"/>
<path d="M0 0 C3.24438786 1.22224474 3.7803714 2.02102478 6 5 C7.09042388 10.30885203 6.93919793 14.48516463 4.0625 19.125 C0.05834241 21.57652506 -3.32054178 22.30573593 -8 22 C-11.670261 20.43818681 -12.7727373 19.34089404 -15 16 C-15.76795735 10.77789002 -15.82925566 6.40973461 -13.125 1.8125 C-8.67100999 -0.77081421 -5.02340406 -0.95340524 0 0 Z " fill="#080701" transform="translate(276,187)"/>
<path d="M0 0 C2.78998312 2.50136418 4.13562873 5.27125747 5.8125 8.625 C5.8125 9.285 5.8125 9.945 5.8125 10.625 C2.0434031 11.90102233 -1.728085 13.16983463 -5.5 14.4375 C-6.55251953 14.79392578 -7.60503906 15.15035156 -8.68945312 15.51757812 C-28.04006902 22.00747699 -28.04006902 22.00747699 -32.1875 20.625 C-31.2354279 19.61903703 -30.27562654 18.62038437 -29.3125 17.625 C-28.77882812 17.068125 -28.24515625 16.51125 -27.6953125 15.9375 C-26.1875 14.625 -26.1875 14.625 -24.1875 14.625 C-24.1875 13.965 -24.1875 13.305 -24.1875 12.625 C-21.86606789 10.883179 -19.55061612 9.27180912 -17.125 7.6875 C-16.46822266 7.24470703 -15.81144531 6.80191406 -15.13476562 6.34570312 C-4.39590422 -0.75358358 -4.39590422 -0.75358358 0 0 Z " fill="#FDFD05" transform="translate(193.1875,189.375)"/>
<path d="M0 0 C2.97872214 1.5049293 5.16787969 3.19996707 7 6 C7.36926898 7.99367789 7.70592804 9.99385125 8 12 C8.74685059 11.69707031 9.49370117 11.39414063 10.26318359 11.08203125 C13.63235539 9.71778165 17.00363809 8.35882778 20.375 7 C21.550625 6.52304688 22.72625 6.04609375 23.9375 5.5546875 C25.61972656 4.87792969 25.61972656 4.87792969 27.3359375 4.1875 C28.37282715 3.76855469 29.4097168 3.34960938 30.47802734 2.91796875 C33 2 33 2 35 2 C34.67 3.32 34.34 4.64 34 6 C33.2575 6.12375 32.515 6.2475 31.75 6.375 C29.05299403 6.85561805 29.05299403 6.85561805 27.0625 8.0625 C24.31378018 9.3119181 21.98134247 9.13551557 19 9 C19 9.66 19 10.32 19 11 C15.17010894 12.80230168 12.21878192 13.19622241 8 13 C7.855625 13.78375 7.71125 14.5675 7.5625 15.375 C7 18 7 18 6 20 C5.34 20 4.68 20 4 20 C3.773125 20.61875 3.54625 21.2375 3.3125 21.875 C1.54501287 24.73664583 0.22985688 25.13870483 -3 26 C-6.5625 26.125 -6.5625 26.125 -10 26 C-11.32 26 -12.64 26 -14 26 C-17.66666667 26 -21.33333333 26 -25 26 C-25 25.34 -25 24.68 -25 24 C-26.65 23.67 -28.3 23.34 -30 23 C-29.67 22.34 -29.34 21.68 -29 21 C-26.625 20.875 -26.625 20.875 -24 21 C-23.34 21.66 -22.68 22.32 -22 23 C-18.91652174 23.16681109 -18.91652174 23.16681109 -16 23 C-16.32226562 22.46246094 -16.64453125 21.92492187 -16.9765625 21.37109375 C-18.93783799 16.82722267 -18.55018883 11.84563895 -18 7 C-13.76061828 -0.30927883 -7.89276762 -1.25316923 0 0 Z M-15 7 C-15.33 7.33 -15.66 7.66 -16 8 C-16.52848208 12.678366 -16.56716899 16.73675997 -14.625 21.0625 C-10.67614072 23.97713423 -6.83538082 24.2668879 -2 24 C1.3235075 22.72716734 2.59996125 21.49659982 4.8125 18.75 C6.34360486 15.20428349 6.47873189 12.82985513 6 9 C3.9209015 5.77381267 2.19960471 4.1330698 -1 2 C-7.36725832 0.86724805 -10.90130714 1.74854977 -15 7 Z " fill="#D3D63B" transform="translate(185,222)"/>
<path d="M0 0 C0.33 1.32 0.66 2.64 1 4 C0.01 4.33 -0.98 4.66 -2 5 C-2.73323796 7.01508358 -2.73323796 7.01508358 -3 9 C-3.66 9 -4.32 9 -5 9 C-5.33 9.66 -5.66 10.32 -6 11 C-6.61875 11.268125 -7.2375 11.53625 -7.875 11.8125 C-10.71069752 13.3971545 -11.61641813 15.09447807 -13 18 C-13 19.32 -13 20.64 -13 22 C-13.61875 22.28875 -14.2375 22.5775 -14.875 22.875 C-17.13325765 23.93720042 -17.13325765 23.93720042 -19 26 C-19.16677282 29.58343976 -19.16677282 29.58343976 -19 33 C-18.34 33 -17.68 33 -17 33 C-17.33 33.99 -17.66 34.98 -18 36 C-20.790071 33.12273928 -21.93351879 31.5318497 -22.4375 27.5 C-21.71120633 21.68965068 -18.62419464 18.37420545 -14.55078125 14.35546875 C-13.27944336 13.09379883 -13.27944336 13.09379883 -11.98242188 11.80664062 C-11.10134766 10.94232422 -10.22027344 10.07800781 -9.3125 9.1875 C-8.41982422 8.30384766 -7.52714844 7.42019531 -6.60742188 6.50976562 C-4.40940071 4.33525271 -2.2068407 2.16555573 0 0 Z " fill="#ECEF1A" transform="translate(44,223)"/>
<path d="M0 0 C3.70236803 1.84411843 5.71795457 4.57693186 8 8 C7.6875 9.875 7.6875 9.875 7 12 C6.65939189 13.66519519 6.32441604 15.33157466 6 17 C5.67 17 5.34 17 5 17 C4.98582031 16.32453125 4.97164063 15.6490625 4.95703125 14.953125 C4.67748418 9.28099793 4.67748418 9.28099793 2.0625 4.375 C-2.35566307 2.39133495 -6.23860969 2.25327268 -11 3 C-13.85222791 4.10205377 -13.85222791 4.10205377 -15 7 C-15.48497386 11.83526172 -15.54357352 16.36927943 -14 21 C-14.66 21.66 -15.32 22.32 -16 23 C-18.19998088 17.77504541 -19.65305101 13.76861729 -19 8 C-15.10425632 -0.5706361 -8.68224849 -1.26519396 0 0 Z " fill="#DADE40" transform="translate(277,185)"/>
<path d="M0 0 C0 4.07546013 -1.55304448 5.80536362 -4 9 C-6.25 10.375 -6.25 10.375 -8 11 C-8 11.66 -8 12.32 -8 13 C-8.66 13 -9.32 13 -10 13 C-10.226875 13.53625 -10.45375 14.0725 -10.6875 14.625 C-11.86248478 16.75116293 -13.03384262 18.25498127 -14.625 20.0625 C-17.31436107 22.75923113 -17.31436107 22.75923113 -17 26 C-21.1077065 27.58706842 -22.59232396 28.10191901 -27 27 C-18.09 18.09 -9.18 9.18 0 0 Z " fill="#EDF11D" transform="translate(171,96)"/>
<path d="M0 0 C-0.33 0.99 -0.66 1.98 -1 3 C-3.30615472 4.04691167 -5.48336816 4.89744996 -7.875 5.6875 C-8.83212891 6.02491211 -8.83212891 6.02491211 -9.80859375 6.36914062 C-12.66597979 7.350435 -14.95856532 8 -18 8 C-18 7.34 -18 6.68 -18 6 C-16.35 6 -14.7 6 -13 6 C-13 5.34 -13 4.68 -13 4 C-11.35 4 -9.7 4 -8 4 C-8 3.34 -8 2.68 -8 2 C-7.01 1.67 -6.02 1.34 -5 1 C-13.35600408 -0.10102642 -21.58807963 -0.10094304 -30 0 C-23.0159622 -6.9840378 -8.25898265 -2.83165119 0 0 Z " fill="#DAD91C" transform="translate(239,183)"/>
<path d="M0 0 C0.66 0.33 1.32 0.66 2 1 C2 1.99 2 2.98 2 4 C4.97 4.495 4.97 4.495 8 5 C8 4.34 8 3.68 8 3 C10.31 3 12.62 3 15 3 C11.38622292 4.96699259 7.57704089 6.26341647 3.6875 7.5625 C3.04876953 7.78357422 2.41003906 8.00464844 1.75195312 8.23242188 C-2.5217908 9.66566325 -6.54690367 10.48728904 -11 11 C-10.04882866 9.8274869 -9.08882991 8.66212985 -8.125 7.5 C-7.32449219 6.52546875 -7.32449219 6.52546875 -6.5078125 5.53125 C-6.01023438 5.0259375 -5.51265625 4.520625 -5 4 C-4.34 4 -3.68 4 -3 4 C-3 3.34 -3 2.68 -3 2 C-2.01 1.34 -1.02 0.68 0 0 Z " fill="#E9EA19" transform="translate(172,200)"/>
<path d="M0 0 C-0.33 0.66 -0.66 1.32 -1 2 C-0.67 2.99 -0.34 3.98 0 5 C-1.95649397 5.83764268 -3.91525556 6.66999059 -5.875 7.5 C-7.51082031 8.19609375 -7.51082031 8.19609375 -9.1796875 8.90625 C-12 10 -12 10 -14 10 C-13.47731534 7.23723823 -12.89130413 4.6739124 -12 2 C-8.02584132 -0.22085338 -4.4785979 -0.17563129 0 0 Z " fill="#121200" transform="translate(215,175)"/>
<path d="M0 0 C0 0.99 0 1.98 0 3 C-4.58399052 5.68331153 -7.71750033 6.2934722 -13 6 C-14.32 6 -15.64 6 -17 6 C-20.66666667 6 -24.33333333 6 -28 6 C-28 5.34 -28 4.68 -28 4 C-29.65 3.67 -31.3 3.34 -33 3 C-32.67 2.34 -32.34 1.68 -32 1 C-29.625 0.875 -29.625 0.875 -27 1 C-26.34 1.66 -25.68 2.32 -25 3 C-21.41656024 3.16677282 -21.41656024 3.16677282 -18 3 C-18 2.34 -18 1.68 -18 1 C-16.5459375 1.5259375 -16.5459375 1.5259375 -15.0625 2.0625 C-10.66905101 3.32673736 -6.4214671 3.11662305 -2 2 C-1.34 1.34 -0.68 0.68 0 0 Z " fill="#E1E31B" transform="translate(188,242)"/>
<path d="M0 0 C-0.33 1.32 -0.66 2.64 -1 4 C-1.7425 4.12375 -2.485 4.2475 -3.25 4.375 C-5.94700597 4.85561805 -5.94700597 4.85561805 -7.9375 6.0625 C-10.68621982 7.3119181 -13.01865753 7.13551557 -16 7 C-16 7.66 -16 8.32 -16 9 C-19.82989106 10.80230168 -22.78121808 11.19622241 -27 11 C-27.144375 11.78375 -27.28875 12.5675 -27.4375 13.375 C-28 16 -28 16 -29 18 C-29.66 17.67 -30.32 17.34 -31 17 C-30.266968 14.06787202 -29.77151255 12.38095419 -28 10 C-25.5068322 8.65469951 -23.04003177 7.87313223 -20.33203125 7.04296875 C-15.75615075 5.61065914 -11.38031907 3.75963046 -6.95214844 1.92944336 C-2.20906305 0 -2.20906305 0 0 0 Z " fill="#DBDC19" transform="translate(220,224)"/>
<path d="M0 0 C-0.64026123 0.25692627 -1.28052246 0.51385254 -1.94018555 0.77856445 C-4.85773131 1.95218653 -7.7726193 3.13227524 -10.6875 4.3125 C-11.69490234 4.71662109 -12.70230469 5.12074219 -13.74023438 5.53710938 C-14.71669922 5.93349609 -15.69316406 6.32988281 -16.69921875 6.73828125 C-17.59471436 7.09962158 -18.49020996 7.46096191 -19.4128418 7.83325195 C-22.08287206 9.03737337 -24.4948164 10.48814356 -27 12 C-28.9170519 12.62866884 -30.85663002 13.19264133 -32.8125 13.6875 C-34.27623047 14.06455078 -34.27623047 14.06455078 -35.76953125 14.44921875 C-36.50558594 14.63097656 -37.24164063 14.81273437 -38 15 C-38 14.34 -38 13.68 -38 13 C-35.03 12.01 -32.06 11.02 -29 10 C-29 9.67 -29 9.34 -29 9 C-27.35 9 -25.7 9 -24 9 C-24 8.34 -24 7.68 -24 7 C-22.68 7 -21.36 7 -20 7 C-20 6.34 -20 5.68 -20 5 C-16.96938263 2.17336649 -13.97942038 1.22495799 -10 0.25 C-8.453125 -0.14445313 -8.453125 -0.14445313 -6.875 -0.546875 C-4.05850933 -0.99077842 -2.66770734 -0.77426484 0 0 Z " fill="#E5E61F" transform="translate(333,202)"/>
<path d="M0 0 C-6.27 6.27 -12.54 12.54 -19 19 C-19.33 17.68 -19.66 16.36 -20 15 C-19.34 15 -18.68 15 -18 15 C-18 14.34 -18 13.68 -18 13 C-17.34 13 -16.68 13 -16 13 C-16 12.34 -16 11.68 -16 11 C-15.01 11 -14.02 11 -13 11 C-13.33 10.01 -13.66 9.02 -14 8 C-12.68 7.67 -11.36 7.34 -10 7 C-10 6.34 -10 5.68 -10 5 C-9.34 5 -8.68 5 -8 5 C-8 4.34 -8 3.68 -8 3 C-7.34 3 -6.68 3 -6 3 C-6 2.01 -6 1.02 -6 0 C-4 -1 -4 -1 0 0 Z " fill="#F1F21B" transform="translate(359,374)"/>
<path d="M0 0 C0 0.66 0 1.32 0 2 C-7.41797432 6.42225392 -7.41797432 6.42225392 -11 7 C-12.0725 7.185625 -13.145 7.37125 -14.25 7.5625 C-15.1575 7.706875 -16.065 7.85125 -17 8 C-17.66 10.31 -18.32 12.62 -19 15 C-19.99 15 -20.98 15 -22 15 C-21.690625 14.505 -21.38125 14.01 -21.0625 13.5 C-19.58355618 10.02013219 -19.37597149 6.75971491 -19 3 C-18.67 3.99 -18.34 4.98 -18 6 C-16.86820312 5.566875 -15.73640625 5.13375 -14.5703125 4.6875 C-13.0886073 4.12482714 -11.60683286 3.56233657 -10.125 3 C-9.37863281 2.71382812 -8.63226563 2.42765625 -7.86328125 2.1328125 C-2.2265625 0 -2.2265625 0 0 0 Z " fill="#E7E715" transform="translate(302,191)"/>
<path d="M0 0 C1.32 0.66 2.64 1.32 4 2 C-0.95 6.95 -5.9 11.9 -11 17 C-11.66 15.68 -12.32 14.36 -13 13 C-8.375 8.125 -8.375 8.125 -5 7 C-3.79117904 4.99983534 -3.79117904 4.99983534 -3 3 C-2.01 3 -1.02 3 0 3 C0 2.01 0 1.02 0 0 Z " fill="#F3F416" transform="translate(373,354)"/>
<path d="M0 0 C0.33 0.99 0.66 1.98 1 3 C-0.07421875 4.7890625 -0.07421875 4.7890625 -1.6875 6.625 C-2.20699219 7.23601562 -2.72648437 7.84703125 -3.26171875 8.4765625 C-5.181038 10.15866252 -6.50835704 10.59829721 -9 11 C-9.103125 11.639375 -9.20625 12.27875 -9.3125 12.9375 C-9.539375 13.618125 -9.76625 14.29875 -10 15 C-10.99 15.33 -11.98 15.66 -13 16 C-13 16.66 -13 17.32 -13 18 C-14.65 18.33 -16.3 18.66 -18 19 C-12.44964797 12.21623641 -6.23557973 6.14477032 0 0 Z " fill="#E5EB26" transform="translate(126,141)"/>
<path d="M0 0 C0.82741699 0.01047363 1.65483398 0.02094727 2.50732422 0.03173828 C3.40322266 0.03818359 4.29912109 0.04462891 5.22216797 0.05126953 C6.62789062 0.07640625 6.62789062 0.07640625 8.06201172 0.10205078 C9.00689453 0.11107422 9.95177734 0.12009766 10.92529297 0.12939453 C13.26278464 0.15300556 15.59977295 0.18593562 17.93701172 0.22705078 C17.93701172 0.88705078 17.93701172 1.54705078 17.93701172 2.22705078 C19.58701172 2.22705078 21.23701172 2.22705078 22.93701172 2.22705078 C22.93701172 2.88705078 22.93701172 3.54705078 22.93701172 4.22705078 C14.02701172 3.56705078 5.11701172 2.90705078 -4.06298828 2.22705078 C-2.06298828 0.22705078 -2.06298828 0.22705078 0 0 Z " fill="#E4E424" transform="translate(224.06298828125,170.77294921875)"/>
<path d="M0 0 C1.32 0.33 2.64 0.66 4 1 C-0.29 5.29 -4.58 9.58 -9 14 C-9.33 12.68 -9.66 11.36 -10 10 C-9.34 10 -8.68 10 -8 10 C-8 9.34 -8 8.68 -8 8 C-7.34 8 -6.68 8 -6 8 C-5.938125 7.21625 -5.87625 6.4325 -5.8125 5.625 C-5.544375 4.75875 -5.27625 3.8925 -5 3 C-2.4375 1.6875 -2.4375 1.6875 0 1 C0 0.67 0 0.34 0 0 Z " fill="#F1F21A" transform="translate(271,457)"/>
<path d="M0 0 C4.13621084 3.3810038 7.81316569 6.66590534 11 11 C9.02 11 7.04 11 5 11 C5 10.01 5 9.02 5 8 C3.68 8.33 2.36 8.66 1 9 C1 7.68 1 6.36 1 5 C0.34 5 -0.32 5 -1 5 C-0.67 3.35 -0.34 1.7 0 0 Z " fill="#F5F812" transform="translate(391,159)"/>
<path d="M0 0 C0 3.52707529 -0.05453046 5.9112775 -2.41796875 8.6328125 C-6.12724072 11.76071955 -9.18216297 13.8249178 -14 15 C-9.59156563 9.70987876 -4.92440206 4.81191572 0 0 Z " fill="#EEF21B" transform="translate(190,77)"/>
<path d="M0 0 C7.48291572 6.15034169 7.48291572 6.15034169 10 10 C8.35 10.33 6.7 10.66 5 11 C5.33 9.68 5.66 8.36 6 7 C5.34 7 4.68 7 4 7 C4 7.66 4 8.32 4 9 C3.01 9 2.02 9 1 9 C1 7.68 1 6.36 1 5 C0.34 5 -0.32 5 -1 5 C-0.67 3.35 -0.34 1.7 0 0 Z " fill="#F6F814" transform="translate(455,223)"/>
<path d="M0 0 C1.65 0.33 3.3 0.66 5 1 C0.88380164 5.91935902 -3.40410362 10.52647956 -8 15 C-8.33 13.68 -8.66 12.36 -9 11 C-7.68 10.34 -6.36 9.68 -5 9 C-5 8.34 -5 7.68 -5 7 C-4.34 7 -3.68 7 -3 7 C-3 6.34 -3 5.68 -3 5 C-2.01 5 -1.02 5 0 5 C0 3.35 0 1.7 0 0 Z " fill="#F0F11C" transform="translate(298,428)"/>
<path d="M0 0 C6.625 -0.125 6.625 -0.125 10 1 C9.67 1.99 9.34 2.98 9 4 C6.69384528 5.04691167 4.51663184 5.89744996 2.125 6.6875 C1.48691406 6.91244141 0.84882813 7.13738281 0.19140625 7.36914062 C-2.66597979 8.350435 -4.95856532 9 -8 9 C-8 8.34 -8 7.68 -8 7 C-6.35 7 -4.7 7 -3 7 C-3 6.34 -3 5.68 -3 5 C-1.35 5 0.3 5 2 5 C2 4.34 2 3.68 2 3 C2.99 2.67 3.98 2.34 5 2 C3.35 1.67 1.7 1.34 0 1 C0 0.67 0 0.34 0 0 Z " fill="#EDEB21" transform="translate(229,182)"/>
<path d="M0 0 C-0.99 1.485 -0.99 1.485 -2 3 C-2 3.99 -2 4.98 -2 6 C-5.83887763 7.48320272 -8.06204091 8.22419163 -12 7 C-3.58823529 -1.79411765 -3.58823529 -1.79411765 0 0 Z " fill="#FCFC08" transform="translate(156,116)"/>
<path d="M0 0 C0.804375 0.350625 1.60875 0.70125 2.4375 1.0625 C7.8370146 2.4834249 12.73990396 1.75336535 18 0 C18 2 18 2 16.5 3.625 C12.84446187 5.63554597 10.14447334 5.27176874 6 5 C5.67 4.67 5.34 4.34 5 4 C3.31816052 3.76712992 1.6287584 3.58735834 -0.0625 3.4375 C-1.44115234 3.31181641 -1.44115234 3.31181641 -2.84765625 3.18359375 C-3.91306641 3.09271484 -3.91306641 3.09271484 -5 3 C-5 2.67 -5 2.34 -5 2 C-3.35 2 -1.7 2 0 2 C0 1.34 0 0.68 0 0 Z " fill="#E8E91E" transform="translate(262,206)"/>
<path d="M0 0 C1.9375 2 1.9375 2 3 4 C2.75 5.9375 2.75 5.9375 2 8 C1.65939189 9.66519519 1.32441604 11.33157466 1 13 C0.67 13 0.34 13 0 13 C-0.01417969 12.32453125 -0.02835937 11.6490625 -0.04296875 10.953125 C-0.29144821 5.25619376 -0.29144821 5.25619376 -3.0625 0.4375 C-6.83030992 -1.40632188 -9.82266654 -1.71679095 -14 -2 C-14 -2.33 -14 -2.66 -14 -3 C-7.78103546 -4.28668232 -5.05375757 -4.3485821 0 0 Z " fill="#B6BA26" transform="translate(282,189)"/>
<path d="M0 0 C7.48291572 6.15034169 7.48291572 6.15034169 10 10 C8.35 10.33 6.7 10.66 5 11 C5 10.34 5 9.68 5 9 C3.68 8.34 2.36 7.68 1 7 C1 6.34 1 5.68 1 5 C0.34 5 -0.32 5 -1 5 C-0.67 3.35 -0.34 1.7 0 0 Z " fill="#F1F416" transform="translate(375,143)"/>
<path d="M0 0 C0.69140625 1.7734375 0.69140625 1.7734375 1 4 C-2.14942758 8.76942068 -6.42195649 11.77555142 -12 13 C-8.19524578 8.43969176 -4.25030379 4.14910608 0 0 Z " fill="#EDF11C" transform="translate(203,64)"/>
<path d="M0 0 C0 0.99 0 1.98 0 3 C0.99 2.67 1.98 2.34 3 2 C3 3.32 3 4.64 3 6 C3.99 6 4.98 6 6 6 C5.67 7.65 5.34 9.3 5 11 C-2.48291572 4.84965831 -2.48291572 4.84965831 -5 1 C-2 0 -2 0 0 0 Z " fill="#F2F518" transform="translate(52,278)"/>
<path d="M0 0 C0.99 0 1.98 0 3 0 C3 0.99 3 1.98 3 3 C5.64 3 8.28 3 11 3 C10.67 3.66 10.34 4.32 10 5 C8.07421875 5.484375 8.07421875 5.484375 5.6875 5.75 C4.90761719 5.84796875 4.12773437 5.9459375 3.32421875 6.046875 C0.69866432 5.99392264 -0.76473757 5.32990442 -3 4 C-2.01 3.67 -1.02 3.34 0 3 C0 2.01 0 1.02 0 0 Z " fill="#E9EC16" transform="translate(246,472)"/>
<path d="M0 0 C1.12894876 0.93274109 2.25300876 1.87140122 3.375 2.8125 C4.00148438 3.33457031 4.62796875 3.85664063 5.2734375 4.39453125 C7 6 7 6 9 9 C6.36 9 3.72 9 1 9 C1 7.68 1 6.36 1 5 C0.34 5 -0.32 5 -1 5 C-0.67 3.35 -0.34 1.7 0 0 Z " fill="#F2F516" transform="translate(423,191)"/>
<path d="M0 0 C-2.77723925 0.78688445 -5.22610077 1.11949924 -8.109375 1.09765625 C-8.86347656 1.09443359 -9.61757813 1.09121094 -10.39453125 1.08789062 C-11.17183594 1.07951172 -11.94914062 1.07113281 -12.75 1.0625 C-13.54277344 1.05798828 -14.33554687 1.05347656 -15.15234375 1.04882812 C-17.10159508 1.03708565 -19.05080738 1.01915146 -21 1 C-14.56190339 -5.43809661 -7.63535742 -2.85053344 0 0 Z " fill="#D7D619" transform="translate(292,172)"/>
<path d="M0 0 C0 3 0 3 -1.16162109 4.48632812 C-1.69352051 4.99615234 -2.22541992 5.50597656 -2.7734375 6.03125 C-3.3509375 6.59457031 -3.9284375 7.15789062 -4.5234375 7.73828125 C-5.43996094 8.61033203 -5.43996094 8.61033203 -6.375 9.5 C-7.57249163 10.653993 -8.76788737 11.81016577 -9.9609375 12.96875 C-10.49509277 13.47857422 -11.02924805 13.98839844 -11.57958984 14.51367188 C-13.22510712 16.14934032 -13.22510712 16.14934032 -15 19 C-15.99 18.67 -16.98 18.34 -18 18 C-12.06 12.06 -6.12 6.12 0 0 Z " fill="#292500" transform="translate(335,397)"/>
<path d="M0 0 C0.515625 0.391875 1.03125 0.78375 1.5625 1.1875 C1.2325 1.8475 0.9025 2.5075 0.5625 3.1875 C-0.200625 2.960625 -0.96375 2.73375 -1.75 2.5 C-2.636875 2.396875 -3.52375 2.29375 -4.4375 2.1875 C-5.45352018 3.17121896 -6.45044718 4.17471832 -7.4375 5.1875 C-9.0915162 6.16328914 -10.78284861 7.07765983 -12.5 7.9375 C-13.37785156 8.38609375 -14.25570312 8.8346875 -15.16015625 9.296875 C-15.91167969 9.59078125 -16.66320312 9.8846875 -17.4375 10.1875 C-18.0975 9.8575 -18.7575 9.5275 -19.4375 9.1875 C-4.76476131 -1.58825377 -4.76476131 -1.58825377 0 0 Z " fill="#DDDE24" transform="translate(193.4375,189.8125)"/>
<path d="M0 0 C2.54106009 2.20961747 3.30621489 3.73988358 4 7 C2.54293274 7.50367757 1.08429904 8.00282556 -0.375 8.5 C-1.18710938 8.7784375 -1.99921875 9.056875 -2.8359375 9.34375 C-5 10 -5 10 -7 10 C-7 9.34 -7 8.68 -7 8 C-6.360625 7.896875 -5.72125 7.79375 -5.0625 7.6875 C-4.381875 7.460625 -3.70125 7.23375 -3 7 C-2.67 6.01 -2.34 5.02 -2 4 C-1.34 4 -0.68 4 0 4 C0 2.68 0 1.36 0 0 Z " fill="#E5E81C" transform="translate(195,193)"/>
<path d="M0 0 C7.48291572 6.15034169 7.48291572 6.15034169 10 10 C8.35 10.33 6.7 10.66 5 11 C5 10.01 5 9.02 5 8 C4.01 7.67 3.02 7.34 2 7 C2.33 6.01 2.66 5.02 3 4 C1.68 4.33 0.36 4.66 -1 5 C-0.67 3.35 -0.34 1.7 0 0 Z " fill="#F0F318" transform="translate(343,111)"/>
<path d="M0 0 C0 4.12527351 -1.49125936 5.76504496 -4 9 C-5.93102068 10.54010673 -7.86430538 11.73799864 -10 13 C-10.66 12.67 -11.32 12.34 -12 12 C-8.04 8.04 -4.08 4.08 0 0 Z " fill="#ECF020" transform="translate(107,160)"/>
<path d="M0 0 C1.32 0.33 2.64 0.66 4 1 C3.67 1.99 3.34 2.98 3 4 C0.12890625 5.38671875 0.12890625 5.38671875 -3.4375 6.6875 C-4.61183594 7.12449219 -5.78617188 7.56148438 -6.99609375 8.01171875 C-10 9 -10 9 -12 9 C-12 8.34 -12 7.68 -12 7 C-10.68 7 -9.36 7 -8 7 C-8 6.34 -8 5.68 -8 5 C-6.35 5 -4.7 5 -3 5 C-3 4.01 -3 3.02 -3 2 C-2.01 2 -1.02 2 0 2 C0 1.34 0 0.68 0 0 Z " fill="#ECEE1E" transform="translate(156,272)"/>
<path d="M0 0 C1.65 0 3.3 0 5 0 C-1.15034169 7.48291572 -1.15034169 7.48291572 -5 10 C-4.6875 7.625 -4.6875 7.625 -4 5 C-3.01 4.34 -2.02 3.68 -1 3 C-0.67 2.01 -0.34 1.02 0 0 Z " fill="#F0F21A" transform="translate(462,265)"/>
<path d="M0 0 C1.65 0 3.3 0 5 0 C2.36918522 3.19456081 -0.68904879 4.29085201 -4.5 5.75 C-5.6446875 6.19859375 -6.789375 6.6471875 -7.96875 7.109375 C-11 8 -11 8 -14 7 C-7.25 4 -7.25 4 -5 4 C-5 3.34 -5 2.68 -5 2 C-3.35 2 -1.7 2 0 2 C0 1.34 0 0.68 0 0 Z " fill="#E1E425" transform="translate(247,235)"/>
<path d="M0 0 C1 3 1 3 -0.125 6.125 C-2 9 -2 9 -4.5 9.875 C-6.33151879 9.96657594 -8.16619324 10 -10 10 C-6.7 6.7 -3.4 3.4 0 0 Z " fill="#EDF11C" transform="translate(214,53)"/>
<path d="M0 0 C0.33 0.99 0.66 1.98 1 3 C-0.01320313 3.90492188 -0.01320313 3.90492188 -1.046875 4.828125 C-1.93890625 5.62734375 -2.8309375 6.4265625 -3.75 7.25 C-4.63171875 8.03890625 -5.5134375 8.8278125 -6.421875 9.640625 C-8.67866165 11.70592672 -10.85739926 13.81735064 -13 16 C-13.66 15.67 -14.32 15.34 -15 15 C-10.05 10.05 -5.1 5.1 0 0 Z " fill="#2A2500" transform="translate(316,416)"/>
<path d="M0 0 C0.99 0.33 1.98 0.66 3 1 C3.06058594 1.61488281 3.12117188 2.22976562 3.18359375 2.86328125 C3.26738281 3.67152344 3.35117187 4.47976562 3.4375 5.3125 C3.51871094 6.11300781 3.59992188 6.91351563 3.68359375 7.73828125 C3.95265693 10.16087179 3.95265693 10.16087179 5 13 C4.34 13.66 3.68 14.32 3 15 C0.74315457 9.63999211 -0.36263859 5.8022175 0 0 Z " fill="#BBBB28" transform="translate(258,193)"/>
<path d="M0 0 C1.66842534 0.32441604 3.33480481 0.65939189 5 1 C6.6662553 1.0370279 8.33401319 1.04759962 10 1 C6.15299368 3.08379509 2.09945571 4.49686624 -2 6 C-2.66 4.68 -3.32 3.36 -4 2 C-3.01 1.67 -2.02 1.34 -1 1 C-0.67 0.67 -0.34 0.34 0 0 Z " fill="#E9EC1E" transform="translate(206,192)"/>
<path d="M0 0 C0.99 0.33 1.98 0.66 3 1 C0.42033404 3.57966596 -2.09307892 4.33609844 -5.5 5.625 C-6.6653125 6.07101563 -7.830625 6.51703125 -9.03125 6.9765625 C-12 8 -12 8 -14 8 C-14 7.34 -14 6.68 -14 6 C-12.68 6 -11.36 6 -10 6 C-10 5.34 -10 4.68 -10 4 C-8.68 4 -7.36 4 -6 4 C-6 3.34 -6 2.68 -6 2 C-4.02 2 -2.04 2 0 2 C0 1.34 0 0.68 0 0 Z " fill="#E8EA24" transform="translate(370,183)"/>
<path d="M0 0 C0.66 0.99 1.32 1.98 2 3 C1.01 4.485 1.01 4.485 0 6 C-0.66 6 -1.32 6 -2 6 C-2.33 6.99 -2.66 7.98 -3 9 C-4.32 8.34 -5.64 7.68 -7 7 C-4.69 4.69 -2.38 2.38 0 0 Z " fill="#F1F418" transform="translate(134,133)"/>
<path d="M0 0 C0.33 0.99 0.66 1.98 1 3 C1.99 3.66 2.98 4.32 4 5 C3.34 6.32 2.68 7.64 2 9 C-0.31 6.69 -2.62 4.38 -5 2 C-2 0 -2 0 0 0 Z " fill="#F0F419" transform="translate(132,358)"/>
<path d="M0 0 C1.98 0 3.96 0 6 0 C2.92849245 2.55227651 0.01474376 3.88776704 -3.75 5.1875 C-4.73484375 5.53167969 -5.7196875 5.87585938 -6.734375 6.23046875 C-7.48203125 6.48441406 -8.2296875 6.73835938 -9 7 C-9 6.01 -9 5.02 -9 4 C-7.35 4 -5.7 4 -4 4 C-4 3.34 -4 2.68 -4 2 C-2.68 2 -1.36 2 0 2 C0 1.34 0 0.68 0 0 Z " fill="#E6E723" transform="translate(171,267)"/>
<path d="M0 0 C0 0.66 0 1.32 0 2 C-4.455 2.495 -4.455 2.495 -9 3 C-9.144375 3.78375 -9.28875 4.5675 -9.4375 5.375 C-10 8 -10 8 -11 10 C-11.66 9.67 -12.32 9.34 -13 9 C-11.51665233 4.28818975 -11.51665233 4.28818975 -10 2 C-6.45886335 0.54560459 -3.81211499 0 0 0 Z " fill="#E3E721" transform="translate(202,232)"/>
<path d="M0 0 C7.48291572 6.15034169 7.48291572 6.15034169 10 10 C8.02 10 6.04 10 4 10 C4 8.68 4 7.36 4 6 C3.01 5.67 2.02 5.34 1 5 C0.67 3.35 0.34 1.7 0 0 Z " fill="#EDF11D" transform="translate(264,32)"/>
<path d="M0 0 C7.48291572 6.15034169 7.48291572 6.15034169 10 10 C7.69 9.34 5.38 8.68 3 8 C3 6.68 3 5.36 3 4 C2.34 4 1.68 4 1 4 C0.67 2.68 0.34 1.36 0 0 Z " fill="#ECF11E" transform="translate(438,206)"/>
<path d="M0 0 C3.875 1.875 3.875 1.875 5 3 C5.14115161 5.67058851 5.04247107 8.32432238 5 11 C4.01 10.67 3.02 10.34 2 10 C1.77213542 7.98177083 1.54427083 5.96354167 1.31640625 3.9453125 C1.08707039 1.92595684 1.08707039 1.92595684 0 0 Z " fill="#E8E923" transform="translate(296,175)"/>
<path d="M0 0 C2.875 -0.125 2.875 -0.125 6 0 C6.66 0.66 7.32 1.32 8 2 C10.58354218 2.16687448 10.58354218 2.16687448 13 2 C12.67 2.66 12.34 3.32 12 4 C9.67843403 4.40729228 7.3431213 4.74438677 5 5 C5 4.34 5 3.68 5 3 C3.35 2.67 1.7 2.34 0 2 C0 1.34 0 0.68 0 0 Z " fill="#CACB19" transform="translate(155,243)"/>
<path d="M0 0 C0.66 0.33 1.32 0.66 2 1 C1.01 2.485 1.01 2.485 0 4 C0.99 4.33 1.98 4.66 3 5 C0.03 5.66 -2.94 6.32 -6 7 C-4.02 4.69 -2.04 2.38 0 0 Z " fill="#C9CB29" transform="translate(167,204)"/>
<path d="M0 0 C-2.25597827 2.25597827 -4.04603867 2.96574192 -7 4.125 C-7.886875 4.47820312 -8.77375 4.83140625 -9.6875 5.1953125 C-12 6 -12 6 -14 6 C-14 5.34 -14 4.68 -14 4 C-13.01 4 -12.02 4 -11 4 C-11 3.34 -11 2.68 -11 2 C-7.17679443 0.57741188 -4.08718695 -0.24042276 0 0 Z " fill="#E7E823" transform="translate(347,195)"/>
<path d="M0 0 C0 0.66 0 1.32 0 2 C-0.99 2 -1.98 2 -3 2 C-3 2.66 -3 3.32 -3 4 C-6.08809695 5.76462683 -7.23312136 6 -11 6 C-11 5.34 -11 4.68 -11 4 C-9.5437455 3.32880451 -8.08492133 2.66318193 -6.625 2 C-5.81289062 1.62875 -5.00078125 1.2575 -4.1640625 0.875 C-2 0 -2 0 0 0 Z " fill="#E3E320" transform="translate(247,213)"/>
<path d="M0 0 C2.78637633 4.1795645 1.79562512 6.14668677 1 11 C-0.32 11.33 -1.64 11.66 -3 12 C-2.690625 11.505 -2.38125 11.01 -2.0625 10.5 C-0.58355618 7.02013219 -0.37597149 3.75971491 0 0 Z " fill="#F0EF21" transform="translate(283,194)"/>
<path d="M0 0 C1.6026782 -0.10824843 3.20745748 -0.18570645 4.8125 -0.25 C5.70582031 -0.29640625 6.59914062 -0.3428125 7.51953125 -0.390625 C10 0 10 0 11.82421875 2.015625 C12.40623047 2.99789063 12.40623047 2.99789063 13 4 C11.989375 3.67 10.97875 3.34 9.9375 3 C6.24520089 1.92998679 2.84751793 1.84295845 -1 2 C-0.67 1.34 -0.34 0.68 0 0 Z " fill="#C6CB1C" transform="translate(245,22)"/>
<path d="M0 0 C1.32 0.66 2.64 1.32 4 2 C1.03 4.475 1.03 4.475 -2 7 C-2.125 4.625 -2.125 4.625 -2 2 C-1.34 1.34 -0.68 0.68 0 0 Z " fill="#F2F417" transform="translate(284,443)"/>
<path d="M0 0 C1.67542976 0.28604898 3.34385343 0.61781233 5 1 C3.35830472 3.02054804 1.69088222 5.02043058 0 7 C-0.33 7 -0.66 7 -1 7 C-1.04254356 5.00045254 -1.04080783 2.99958364 -1 1 C-0.67 0.67 -0.34 0.34 0 0 Z " fill="#F2F218" transform="translate(310,416)"/>
<path d="M0 0 C0.33 1.32 0.66 2.64 1 4 C0.01 4 -0.98 4 -2 4 C-2.33 5.32 -2.66 6.64 -3 8 C-4.32 7.67 -5.64 7.34 -7 7 C-4.69 4.69 -2.38 2.38 0 0 Z " fill="#EBEF20" transform="translate(68,199)"/>
<path d="M0 0 C6.625 -0.125 6.625 -0.125 10 1 C9.67 1.99 9.34 2.98 9 4 C7.35 4.33 5.7 4.66 4 5 C4.33 4.01 4.66 3.02 5 2 C3.35 1.67 1.7 1.34 0 1 C0 0.67 0 0.34 0 0 Z " fill="#E5E62C" transform="translate(229,182)"/>
<path d="M0 0 C2.31 0.33 4.62 0.66 7 1 C7 2.98 7 4.96 7 7 C5.83040013 6.02433888 4.66438823 5.044375 3.5 4.0625 C2.8503125 3.51722656 2.200625 2.97195313 1.53125 2.41015625 C1.0259375 1.94480469 0.520625 1.47945313 0 1 C0 0.67 0 0.34 0 0 Z " fill="#EDF11C" transform="translate(163,395)"/>
<path d="M0 0 C-6.625 4 -6.625 4 -10 4 C-9 1 -9 1 -6.6875 -0.25 C-3.90126985 -1.0275526 -2.66561622 -0.98726527 0 0 Z " fill="#D4D81A" transform="translate(295,195)"/>
<path d="M0 0 C1 2 1 2 0.375 3.9375 C-1.3792518 6.5688777 -3.16320216 7.65252103 -6 9 C-6.66 8.67 -7.32 8.34 -8 8 C-5.36 5.36 -2.72 2.72 0 0 Z " fill="#E8ED22" transform="translate(87,180)"/>
<path d="M0 0 C2.31 1.98 4.62 3.96 7 6 C3 7 3 7 1 7 C0.67 4.69 0.34 2.38 0 0 Z " fill="#EEF21D" transform="translate(395,163)"/>
<path d="M0 0 C2.31 1.98 4.62 3.96 7 6 C6.34 6.66 5.68 7.32 5 8 C5 7.34 5 6.68 5 6 C3.35 6 1.7 6 0 6 C0 4.02 0 2.04 0 0 Z " fill="#EDF11B" transform="translate(300,68)"/>
<path d="M0 0 C1.98 1.65 3.96 3.3 6 5 C5.67 5.66 5.34 6.32 5 7 C3.68 6.67 2.36 6.34 1 6 C0.67 4.02 0.34 2.04 0 0 Z " fill="#1C1701" transform="translate(183,416)"/>
<path d="M0 0 C0.33 2.31 0.66 4.62 1 7 C-0.98 5.35 -2.96 3.7 -5 2 C-2 0 -2 0 0 0 Z " fill="#EEF11A" transform="translate(116,342)"/>
<path d="M0 0 C2.31 0.33 4.62 0.66 7 1 C7 2.98 7 4.96 7 7 C5.83040013 6.02433888 4.66438823 5.044375 3.5 4.0625 C2.8503125 3.51722656 2.200625 2.97195313 1.53125 2.41015625 C1.0259375 1.94480469 0.520625 1.47945313 0 1 C0 0.67 0 0.34 0 0 Z " fill="#ECF01E" transform="translate(77,309)"/>
<path d="M0 0 C0 1.32 0 2.64 0 4 C-2.64 4 -5.28 4 -8 4 C-6.4425489 0.88509781 -3.40085499 0 0 0 Z " fill="#191300" transform="translate(111,296)"/>
<path d="M0 0 C0.33 2.31 0.66 4.62 1 7 C-0.98 5.35 -2.96 3.7 -5 2 C-2 0 -2 0 0 0 Z " fill="#EEF11A" transform="translate(68,294)"/>
<path d="M0 0 C0.33 2.31 0.66 4.62 1 7 C-0.98 5.35 -2.96 3.7 -5 2 C-2 0 -2 0 0 0 Z " fill="#EEF119" transform="translate(36,262)"/>
<path d="M0 0 C1.98 1.65 3.96 3.3 6 5 C3 7 3 7 1 7 C1.33 5.68 1.66 4.36 2 3 C1.34 3 0.68 3 0 3 C0 2.01 0 1.02 0 0 Z " fill="#EFF21B" transform="translate(459,227)"/>
<path d="M0 0 C0.33 0.99 0.66 1.98 1 3 C-0.21484375 4.82421875 -0.21484375 4.82421875 -1.9375 6.6875 C-2.50339844 7.31011719 -3.06929688 7.93273437 -3.65234375 8.57421875 C-4.09707031 9.04472656 -4.54179688 9.51523438 -5 10 C-5 5.88168014 -2.91010261 2.91010261 0 0 Z " fill="#F4F617" transform="translate(126,141)"/>
<path d="M0 0 C1.32 0.33 2.64 0.66 4 1 C0.535 3.97 0.535 3.97 -3 7 C-3 5.68 -3 4.36 -3 3 C-2.01 3 -1.02 3 0 3 C0 2.01 0 1.02 0 0 Z " fill="#F0F123" transform="translate(332,396)"/>
<path d="M0 0 C2.31 0 4.62 0 7 0 C3.71536341 2.18975773 0.79303725 2.99806563 -3 4 C-3.33 3.34 -3.66 2.68 -4 2 C-2.68 2 -1.36 2 0 2 C0 1.34 0 0.68 0 0 Z " fill="#E0E11C" transform="translate(105,295)"/>
<path d="M0 0 C1.98 1.65 3.96 3.3 6 5 C3 7 3 7 1 7 C0.67 4.69 0.34 2.38 0 0 Z " fill="#EFF21F" transform="translate(411,179)"/>
<path d="M0 0 C1.32 0.66 2.64 1.32 4 2 C1.03 4.475 1.03 4.475 -2 7 C-1.125 1.125 -1.125 1.125 0 0 Z " fill="#1B1800" transform="translate(83,179)"/>
<path d="M0 0 C1.98 1.65 3.96 3.3 6 5 C3 7 3 7 1 7 C0.67 4.69 0.34 2.38 0 0 Z " fill="#F0F41C" transform="translate(315,83)"/>
<path d="M0 0 C1 2 1 2 0.4375 4 C-1.57302108 6.79724672 -3.74418077 7.15065585 -7 8 C-6.02133662 6.85373678 -5.04205413 5.70800212 -4.0625 4.5625 C-3.51722656 3.92441406 -2.97195312 3.28632812 -2.41015625 2.62890625 C-1.63204305 1.73008851 -0.84063472 0.84063472 0 0 Z " fill="#EBEF23" transform="translate(222,45)"/>
<path d="M0 0 C0 3.10551666 -0.5393715 4.35261084 -2 7 C-3.32 6.67 -4.64 6.34 -6 6 C-4.02 4.02 -2.04 2.04 0 0 Z " fill="#EAEF1E" transform="translate(235,32)"/>
<path d="M0 0 C3.36720387 1.39332574 4.9859524 2.9789286 7 6 C5 5 3 4 1 3 C1 3.66 1 4.32 1 5 C0.34 5 -0.32 5 -1 5 C-0.67 3.35 -0.34 1.7 0 0 Z " fill="#EDF11B" transform="translate(257,26)"/>
<path d="M0 0 C1.98 0.66 3.96 1.32 6 2 C6.33 3.65 6.66 5.3 7 7 C5.83040013 6.02433888 4.66438823 5.044375 3.5 4.0625 C2.8503125 3.51722656 2.200625 2.97195313 1.53125 2.41015625 C1.0259375 1.94480469 0.520625 1.47945313 0 1 C0 0.67 0 0.34 0 0 Z " fill="#E9EE1C" transform="translate(200,432)"/>
<path d="M0 0 C1.98 0.66 3.96 1.32 6 2 C6.33 3.65 6.66 5.3 7 7 C5.83040013 6.02433888 4.66438823 5.044375 3.5 4.0625 C2.8503125 3.51722656 2.200625 2.97195313 1.53125 2.41015625 C1.0259375 1.94480469 0.520625 1.47945313 0 1 C0 0.67 0 0.34 0 0 Z " fill="#E9EF1C" transform="translate(104,336)"/>
<path d="M0 0 C1.32 0.33 2.64 0.66 4 1 C4.33 2.98 4.66 4.96 5 7 C4.01 7.495 4.01 7.495 3 8 C2.67 6.02 2.34 4.04 2 2 C1.34 2 0.68 2 0 2 C0 1.34 0 0.68 0 0 Z " fill="#DFE123" transform="translate(147,225)"/>
<path d="M0 0 C0 0.99 0 1.98 0 3 C-0.99 3.33 -1.98 3.66 -3 4 C-3 4.66 -3 5.32 -3 6 C-4.65 6.33 -6.3 6.66 -8 7 C-5.78972846 3.62642766 -3.53600465 1.91135386 0 0 Z " fill="#F2F418" transform="translate(116,153)"/>
<path d="M0 0 C0 3.10551666 -0.5393715 4.35261084 -2 7 C-3.32 6.67 -4.64 6.34 -6 6 C-4.02 4.02 -2.04 2.04 0 0 Z " fill="#EAEE20" transform="translate(150,117)"/>
<path d="M0 0 C1.98 1.65 3.96 3.3 6 5 C3.13822943 6.43088528 1.06624227 5.59991697 -2 5 C-1.01 4.67 -0.02 4.34 1 4 C0.67 2.68 0.34 1.36 0 0 Z " fill="#EDF21A" transform="translate(282,50)"/>
<path d="M0 0 C1.32 0.33 2.64 0.66 4 1 C1.03 3.475 1.03 3.475 -2 6 C-2 4.68 -2 3.36 -2 2 C-1.34 2 -0.68 2 0 2 C0 1.34 0 0.68 0 0 Z " fill="#EEEE1E" transform="translate(391,337)"/>
<path d="M0 0 C2.97 0.495 2.97 0.495 6 1 C6 2.65 6 4.3 6 6 C3.97945196 4.35830472 1.97956942 2.69088222 0 1 C0 0.67 0 0.34 0 0 Z " fill="#ECF11E" transform="translate(96,328)"/>
<path d="M0 0 C0 0.99 0 1.98 0 3 C-3.3 2.34 -6.6 1.68 -10 1 C-10 0.67 -10 0.34 -10 0 C-6.30458414 -0.95024979 -3.69541586 -0.95024979 0 0 Z " fill="#C7C827" transform="translate(187,223)"/>
<path d="M0 0 C-4.30769231 3.07692308 -4.30769231 3.07692308 -7.8125 2.6875 C-8.534375 2.460625 -9.25625 2.23375 -10 2 C-9.67 1.34 -9.34 0.68 -9 0 C-2.57142857 -1.28571429 -2.57142857 -1.28571429 0 0 Z " fill="#1C1901" transform="translate(170,210)"/>
<path d="M0 0 C1.32 0.66 2.64 1.32 4 2 C-1.75 5 -1.75 5 -4 5 C-4.33 4.01 -4.66 3.02 -5 2 C-3.68 2.33 -2.36 2.66 -1 3 C-0.67 2.01 -0.34 1.02 0 0 Z " fill="#EFEF21" transform="translate(163,192)"/>
<path d="M0 0 C0 3.10551666 -0.5393715 4.35261084 -2 7 C-3.32 6.67 -4.64 6.34 -6 6 C-4.02 4.02 -2.04 2.04 0 0 Z " fill="#EAEE24" transform="translate(94,173)"/>
<path d="M0 0 C1.98 1.65 3.96 3.3 6 5 C3.92446352 5.5534764 2.15634036 6 0 6 C0 4.02 0 2.04 0 0 Z " fill="#EDF01E" transform="translate(294,62)"/>
<path d="M0 0 C-3.69969252 3.03903314 -6.23004695 4 -11 4 C-7.64191281 0.32209498 -4.88401581 -0.13200043 0 0 Z " fill="#EEF21E" transform="translate(251,23)"/>
</svg>
