<?xml version="1.0" encoding="UTF-8"?>
<svg version="1.1" xmlns="http://www.w3.org/2000/svg" width="500" height="500">
<path d="M0 0 C4.3048672 3.2330942 8.03133592 7.00850833 11.81987321 10.8214916 C13.17263014 12.16511187 13.17263014 12.16511187 14.55271548 13.53587598 C17.03587696 16.00274391 19.50971638 18.47877353 21.98200059 20.95653605 C24.6576161 23.63483486 27.34183702 26.30448674 30.0248903 28.97533071 C35.27202791 34.20146789 40.51093637 39.43577879 45.74669012 44.67331841 C50.00422492 48.93216338 54.26431603 53.18843484 58.5262121 57.44291532 C59.75611928 58.67072321 60.98602562 59.89853194 62.21593112 61.12634152 C63.13430092 62.04314604 63.13430092 62.04314604 64.07122365 62.97847185 C75.63607643 74.52444452 87.19096262 86.08035201 98.74296353 97.63918106 C109.30028572 108.20207897 119.87075061 118.75171289 130.4473991 129.29525616 C141.32116201 140.13524893 152.18557641 150.98453215 163.04015845 161.84373254 C169.12886228 167.93467744 175.221224 174.02185232 181.32351053 180.09919202 C186.51790299 185.27252863 191.70343396 190.45455306 196.87787112 195.6478522 C199.51541672 198.29452853 202.15674005 200.93710369 204.80920732 203.56883276 C207.69085746 206.4282019 210.55256206 209.30676076 213.41289079 212.1874584 C214.24528329 213.00733305 215.07767579 213.8272077 215.9352923 214.67192703 C223.77494483 222.63134739 229.45190248 231.14772722 229.67590654 242.5719341 C229.47045559 256.43987318 220.80362234 265.89874748 211.42634904 275.21590078 C210.5306022 276.11773873 209.63485536 277.01957667 208.71196467 277.94874305 C206.24509674 280.43190452 203.76906711 282.90574394 201.29130459 285.37802815 C198.61300579 288.05364366 195.9433539 290.73786459 193.27250993 293.42091787 C188.04637276 298.66805548 182.81206185 303.90696394 177.57452223 309.14271768 C173.31567726 313.40025249 169.0594058 317.6603436 164.80492532 321.92223966 C163.57711744 323.15214685 162.3493087 324.38205318 161.12149912 325.61195868 C160.20469461 326.53032849 160.20469461 326.53032849 159.26936879 327.46725122 C147.72339612 339.032104 136.16748864 350.58699018 124.60865959 362.1389911 C114.04576168 372.69631329 103.49612775 383.26677817 92.95258448 393.84342667 C82.11259172 404.71718958 71.26330849 415.58160398 60.40410811 426.43618602 C54.3131632 432.52488985 48.22598832 438.61725156 42.14864862 444.71953809 C36.97531202 449.91393055 31.79328758 455.09946152 26.59998844 460.27389868 C23.95331212 462.91144429 21.31073696 465.55276761 18.67900789 468.20523489 C15.81963874 471.08688502 12.94107989 473.94858963 10.06038225 476.80891836 C9.2405076 477.64131086 8.42063295 478.47370335 7.57591361 479.33131987 C-0.38350675 487.1709724 -8.89988658 492.84793005 -20.32409346 493.0719341 C-34.19203254 492.86648315 -43.65090684 484.1996499 -52.96806014 474.82237661 C-53.86989808 473.92662976 -54.77173603 473.03088292 -55.7009024 472.10799223 C-58.18406388 469.6411243 -60.6579033 467.16509468 -63.13018751 464.68733215 C-65.80580302 462.00903335 -68.49002395 459.33938147 -71.17307723 456.6685375 C-76.42021484 451.44240032 -81.6591233 446.20808942 -86.89487704 440.9705498 C-91.15241185 436.71170482 -95.41250295 432.45543337 -99.67439902 428.20095289 C-100.9043062 426.973145 -102.13421254 425.74533626 -103.36411804 424.51752669 C-103.97636458 423.90632368 -104.58861111 423.29512067 -105.21941058 422.66539636 C-116.78426336 411.11942369 -128.33914954 399.5635162 -139.89115045 388.00468715 C-150.44847264 377.44178924 -161.01893753 366.89215532 -171.59558602 356.34861205 C-182.46934894 345.50861928 -193.33376333 334.65933605 -204.18834537 323.80013567 C-210.27704921 317.70919077 -216.36941092 311.62201588 -222.47169745 305.54467618 C-227.66608991 300.37133958 -232.85162088 295.18931515 -238.02605804 289.996016 C-240.66360364 287.34933968 -243.30492697 284.70676452 -245.95739424 282.07503545 C-248.83904438 279.2156663 -251.70074898 276.33710745 -254.56107771 273.45640981 C-255.39347021 272.63653516 -256.22586271 271.81666051 -257.08347923 270.97194117 C-264.92313175 263.01252082 -270.6000894 254.49614099 -270.82409346 243.0719341 C-270.61864251 229.20399502 -261.95180926 219.74512073 -252.57453597 210.42796743 C-251.67878912 209.52612948 -250.78304228 208.62429153 -249.86015159 207.69512516 C-247.39328366 205.21196368 -244.91725404 202.73812426 -242.43949151 200.26584005 C-239.76119271 197.59022454 -237.09154082 194.90600362 -234.42069685 192.22295034 C-229.19455968 186.97581273 -223.96024877 181.73690427 -218.72270916 176.50115053 C-214.46386418 172.24361572 -210.20759272 167.98352461 -205.95311224 163.72162855 C-204.72530436 162.49172136 -203.49749562 161.26181502 -202.26968604 160.03190953 C-201.65848303 159.41966299 -201.04728002 158.80741645 -200.41755571 158.17661699 C-188.87158304 146.61176421 -177.31567556 135.05687803 -165.75684651 123.50487711 C-155.1939486 112.94755492 -144.64431467 102.37709003 -134.1007714 91.80044154 C-123.26077864 80.92667863 -112.41149541 70.06226423 -101.55229503 59.20768219 C-95.46135013 53.11897836 -89.37417524 47.02661665 -83.29683554 40.92433012 C-78.12349894 35.72993765 -72.9414745 30.54440668 -67.74817536 25.36996952 C-65.10149904 22.73242392 -62.45892388 20.0911006 -59.82719481 17.43863332 C-56.96782566 14.55698319 -54.08926681 11.69527858 -51.20856917 8.83494985 C-50.38869452 8.00255735 -49.56881987 7.17016485 -48.72410053 6.31254834 C-34.13271958 -8.05927164 -17.31275347 -11.78950201 0 0 Z " fill="#FEFE01" transform="translate(270.5740934610367,7.178065896034241)"/>
<path d="M0 0 C4.3048672 3.2330942 8.03133592 7.00850833 11.81987321 10.8214916 C13.17263014 12.16511187 13.17263014 12.16511187 14.55271548 13.53587598 C17.03587696 16.00274391 19.50971638 18.47877353 21.98200059 20.95653605 C24.6576161 23.63483486 27.34183702 26.30448674 30.0248903 28.97533071 C35.27202791 34.20146789 40.51093637 39.43577879 45.74669012 44.67331841 C50.00422492 48.93216338 54.26431603 53.18843484 58.5262121 57.44291532 C59.75611928 58.67072321 60.98602562 59.89853194 62.21593112 61.12634152 C63.13430092 62.04314604 63.13430092 62.04314604 64.07122365 62.97847185 C75.63607643 74.52444452 87.19096262 86.08035201 98.74296353 97.63918106 C109.30028572 108.20207897 119.87075061 118.75171289 130.4473991 129.29525616 C141.32116201 140.13524893 152.18557641 150.98453215 163.04015845 161.84373254 C169.12886228 167.93467744 175.221224 174.02185232 181.32351053 180.09919202 C186.51790299 185.27252863 191.70343396 190.45455306 196.87787112 195.6478522 C199.51541672 198.29452853 202.15674005 200.93710369 204.80920732 203.56883276 C207.69085746 206.4282019 210.55256206 209.30676076 213.41289079 212.1874584 C214.24528329 213.00733305 215.07767579 213.8272077 215.9352923 214.67192703 C223.77494483 222.63134739 229.45190248 231.14772722 229.67590654 242.5719341 C229.47045559 256.43987318 220.80362234 265.89874748 211.42634904 275.21590078 C210.5306022 276.11773873 209.63485536 277.01957667 208.71196467 277.94874305 C206.24509674 280.43190452 203.76906711 282.90574394 201.29130459 285.37802815 C198.61300579 288.05364366 195.9433539 290.73786459 193.27250993 293.42091787 C188.04637276 298.66805548 182.81206185 303.90696394 177.57452223 309.14271768 C173.31567726 313.40025249 169.0594058 317.6603436 164.80492532 321.92223966 C163.57711744 323.15214685 162.3493087 324.38205318 161.12149912 325.61195868 C160.20469461 326.53032849 160.20469461 326.53032849 159.26936879 327.46725122 C147.72339612 339.032104 136.16748864 350.58699018 124.60865959 362.1389911 C114.04576168 372.69631329 103.49612775 383.26677817 92.95258448 393.84342667 C82.11259172 404.71718958 71.26330849 415.58160398 60.40410811 426.43618602 C54.3131632 432.52488985 48.22598832 438.61725156 42.14864862 444.71953809 C36.97531202 449.91393055 31.79328758 455.09946152 26.59998844 460.27389868 C23.95331212 462.91144429 21.31073696 465.55276761 18.67900789 468.20523489 C15.81963874 471.08688502 12.94107989 473.94858963 10.06038225 476.80891836 C9.2405076 477.64131086 8.42063295 478.47370335 7.57591361 479.33131987 C-0.38350675 487.1709724 -8.89988658 492.84793005 -20.32409346 493.0719341 C-34.19203254 492.86648315 -43.65090684 484.1996499 -52.96806014 474.82237661 C-53.86989808 473.92662976 -54.77173603 473.03088292 -55.7009024 472.10799223 C-58.18406388 469.6411243 -60.6579033 467.16509468 -63.13018751 464.68733215 C-65.80580302 462.00903335 -68.49002395 459.33938147 -71.17307723 456.6685375 C-76.42021484 451.44240032 -81.6591233 446.20808942 -86.89487704 440.9705498 C-91.15241185 436.71170482 -95.41250295 432.45543337 -99.67439902 428.20095289 C-100.9043062 426.973145 -102.13421254 425.74533626 -103.36411804 424.51752669 C-103.97636458 423.90632368 -104.58861111 423.29512067 -105.21941058 422.66539636 C-116.78426336 411.11942369 -128.33914954 399.5635162 -139.89115045 388.00468715 C-150.44847264 377.44178924 -161.01893753 366.89215532 -171.59558602 356.34861205 C-182.46934894 345.50861928 -193.33376333 334.65933605 -204.18834537 323.80013567 C-210.27704921 317.70919077 -216.36941092 311.62201588 -222.47169745 305.54467618 C-227.66608991 300.37133958 -232.85162088 295.18931515 -238.02605804 289.996016 C-240.66360364 287.34933968 -243.30492697 284.70676452 -245.95739424 282.07503545 C-248.83904438 279.2156663 -251.70074898 276.33710745 -254.56107771 273.45640981 C-255.39347021 272.63653516 -256.22586271 271.81666051 -257.08347923 270.97194117 C-264.92313175 263.01252082 -270.6000894 254.49614099 -270.82409346 243.0719341 C-270.61864251 229.20399502 -261.95180926 219.74512073 -252.57453597 210.42796743 C-251.67878912 209.52612948 -250.78304228 208.62429153 -249.86015159 207.69512516 C-247.39328366 205.21196368 -244.91725404 202.73812426 -242.43949151 200.26584005 C-239.76119271 197.59022454 -237.09154082 194.90600362 -234.42069685 192.22295034 C-229.19455968 186.97581273 -223.96024877 181.73690427 -218.72270916 176.50115053 C-214.46386418 172.24361572 -210.20759272 167.98352461 -205.95311224 163.72162855 C-204.72530436 162.49172136 -203.49749562 161.26181502 -202.26968604 160.03190953 C-201.65848303 159.41966299 -201.04728002 158.80741645 -200.41755571 158.17661699 C-188.87158304 146.61176421 -177.31567556 135.05687803 -165.75684651 123.50487711 C-155.1939486 112.94755492 -144.64431467 102.37709003 -134.1007714 91.80044154 C-123.26077864 80.92667863 -112.41149541 70.06226423 -101.55229503 59.20768219 C-95.46135013 53.11897836 -89.37417524 47.02661665 -83.29683554 40.92433012 C-78.12349894 35.72993765 -72.9414745 30.54440668 -67.74817536 25.36996952 C-65.10149904 22.73242392 -62.45892388 20.0911006 -59.82719481 17.43863332 C-56.96782566 14.55698319 -54.08926681 11.69527858 -51.20856917 8.83494985 C-50.38869452 8.00255735 -49.56881987 7.17016485 -48.72410053 6.31254834 C-34.13271958 -8.05927164 -17.31275347 -11.78950201 0 0 Z M-35.19788802 23.22972524 C-36.11227532 24.13415717 -37.02666263 25.03858909 -37.96875864 25.97042805 C-40.49822339 28.47371518 -42.99555794 31.00704197 -45.48863435 33.54650068 C-48.18548307 36.28248393 -50.91119158 38.98944885 -53.63343489 41.70012319 C-58.95775704 47.01081827 -64.25521048 52.34756115 -69.54430295 57.69331781 C-75.70265297 63.91537002 -81.88838228 70.10989837 -88.0757122 76.30311092 C-99.11126216 87.35078721 -110.1235778 98.4213304 -121.12218916 109.50577199 C-131.80029102 120.2671306 -142.49162263 131.01508706 -153.1993376 141.74698293 C-154.18921817 142.73910815 -154.18921817 142.73910815 -155.19909633 143.75127629 C-157.85154054 146.40966885 -160.50402166 149.06802456 -163.15656534 151.72631787 C-174.58616545 163.18137026 -186.00471385 174.64743576 -197.42186496 186.114894 C-199.27229693 187.97329183 -201.12299398 189.83142531 -202.97375667 191.68949378 C-209.44964902 198.19141206 -215.92220948 204.69659397 -222.38541771 211.21112362 C-225.05857909 213.90548501 -227.73321889 216.59832943 -230.41212904 219.28697622 C-233.31133771 222.19692614 -236.20267032 225.11457304 -239.09315169 228.03319204 C-239.94720817 228.88824404 -240.80126465 229.74329603 -241.68120164 230.6242587 C-242.45033951 231.40354566 -243.21947739 232.18283262 -244.01192248 232.98573434 C-244.68050534 233.65897849 -245.3490882 234.33222263 -246.03793114 235.02586812 C-248.13282892 237.47520215 -248.5603671 239.75467492 -249.19909346 242.8844341 C-248.4929953 247.33285251 -247.6000573 248.28000635 -244.60428298 251.48789537 C-243.78335567 252.37031715 -242.96242836 253.25273893 -242.11662447 254.16190076 C-238.2726926 258.18347882 -234.39354992 262.164019 -230.46606123 266.10405385 C-229.59492485 266.98168919 -228.72378847 267.85932453 -227.82625401 268.76355487 C-225.43718769 271.16932878 -223.04600593 273.57296096 -220.65377748 275.97558808 C-218.59545368 278.04363679 -216.53891801 280.11345935 -214.48236537 282.18326915 C-207.13293599 289.57993213 -199.77635224 296.96946119 -192.41784346 304.35709035 C-191.83675629 304.94048511 -191.25566912 305.52387986 -190.65697324 306.12495324 C-179.10423916 317.72312069 -167.54800374 329.31779668 -155.98596632 340.90669 C-153.4526293 343.44601514 -150.91934122 345.98538909 -148.38610518 348.52481496 C-147.44177922 349.47144039 -147.44177922 349.47144039 -146.47837597 350.43718957 C-136.25867844 360.68265448 -126.05467566 370.94360974 -115.85669714 381.2106883 C-105.37231369 391.76552218 -94.87288254 402.30520231 -84.35887635 412.83052951 C-78.46134855 418.73521477 -72.57079107 424.64651276 -66.69730818 430.5751251 C-61.70167246 435.61762201 -56.69274712 440.64641763 -51.66582155 445.65773023 C-49.1024858 448.21395426 -46.54607836 450.77622453 -44.00678122 453.3563484 C-41.25340346 456.15364223 -38.46959808 458.91932441 -35.68212569 461.68266714 C-34.88570835 462.50170508 -34.08929101 463.32074303 -33.26873982 464.16460031 C-28.95586753 468.38287658 -25.80927511 470.7070331 -19.71092045 471.18229896 C-15.04398128 470.39524373 -11.79757468 467.29628487 -8.54144347 464.05772626 C-7.76924129 463.29443978 -6.99703912 462.53115329 -6.20143688 461.74473691 C-4.94612985 460.4888768 -4.94612985 460.4888768 -3.66546309 459.20764577 C-2.76759856 458.31713462 -1.86973404 457.42662348 -0.9446615 456.50912714 C1.5435843 454.04085995 4.02555906 451.56637015 6.50649035 449.09075391 C9.18462797 446.42044018 11.86841202 443.75581091 14.55134904 441.09032094 C21.02555025 434.65558879 27.49010858 428.21121076 33.95350099 421.76562458 C36.99812928 418.72976822 40.0437357 415.69489347 43.08921373 412.65988958 C53.212533 402.5705818 63.33334113 392.47876503 73.44691408 382.37968671 C76.06961282 379.76080765 78.69232207 377.1419391 81.3150667 374.52310598 C81.96692151 373.87221864 82.61877633 373.22133131 83.29038432 372.55072011 C93.85818353 361.99953333 104.44291319 351.46550312 115.03481564 340.93851839 C125.91049537 330.12895403 136.77108298 319.3044126 147.61695254 308.46493673 C153.70641707 302.37980381 159.80230992 296.3014294 165.91509569 290.23971593 C171.11884862 285.07934118 176.30878437 279.90555975 181.48115543 274.71372263 C184.12038654 272.06539254 186.7656708 269.42396292 189.4287771 266.79962385 C192.31623496 263.95383909 195.17174008 261.07798637 198.02521074 258.19812429 C198.87100497 257.37426854 199.71679921 256.5504128 200.58822358 255.70159173 C204.86359371 251.32990267 207.33212781 248.14362851 207.79546225 241.94933367 C206.98494296 237.28346509 203.88833757 234.03315481 200.64887464 230.77087343 C199.49964487 229.60642002 199.49964487 229.60642002 198.32719833 228.41844231 C197.06652497 227.15627568 197.06652497 227.15627568 195.78038347 225.86861074 C194.88649433 224.9659571 193.9926052 224.06330345 193.07162851 223.13329667 C190.59390246 220.63171362 188.10994394 218.13640172 185.62484241 215.64214826 C182.9443141 212.94968024 180.26944483 210.2515991 177.59367692 207.55440176 C171.13403842 201.04579148 164.66456276 194.54700323 158.1933243 188.04992899 C156.36561458 186.21479199 154.53816504 184.37939633 152.7108084 182.54390776 C141.36064033 171.14328008 130.00729185 159.74583033 118.64431989 148.35796297 C116.01442901 145.72221286 113.38457025 143.08643072 110.75476396 140.45059621 C110.10114832 139.79548847 109.44753268 139.14038073 108.7741105 138.46542124 C98.17875353 127.84473896 87.60413948 117.20364828 77.03783821 106.5540668 C66.1879029 95.61931924 55.31922698 84.70348375 44.43203062 73.80583256 C38.32015806 67.6871304 32.21689605 61.56034133 26.13461435 55.41221082 C20.95671809 50.17834816 15.7621785 44.96175988 10.54502665 39.76701405 C7.88381202 37.11618081 5.23136372 34.45790317 2.60017717 31.77723348 C-0.25313752 28.87070981 -3.14375579 26.0044052 -6.03968489 23.14033926 C-6.86451874 22.28774123 -7.68935259 21.4351432 -8.53918141 20.55670887 C-12.27938993 16.91731854 -15.24543734 14.29109725 -20.56850684 13.77654684 C-27.11659304 14.40288686 -30.81688145 18.70286981 -35.19788802 23.22972524 Z " fill="#070705" transform="translate(270.5740934610367,7.178065896034241)"/>
<path d="M0 0 C0.66 0 1.32 0 2 0 C3.63309959 2.53464342 5.14495481 5.06495891 6.625 7.6875 C7.52619477 9.25456757 8.42855136 10.82096754 9.33203125 12.38671875 C9.78143066 13.16837402 10.23083008 13.9500293 10.69384766 14.75537109 C12.50900391 17.87472559 14.40458716 20.9364371 16.3125 24 C18.87309887 28.13477942 21.32999292 32.29445674 23.66015625 36.5625 C28.04363893 44.53711572 32.60683476 52.41561091 37.3203125 60.19921875 C38.64177722 62.40268434 39.94699035 64.61315686 41.2421875 66.83203125 C45.98168492 74.94763474 50.80047063 82.9920666 55.86425781 90.91064453 C59.22086918 96.19914798 60.4349011 99.69393411 60 106 C58.74360091 108.82689795 57.67448232 110.47004961 55.25 112.375 C50.54553033 113.68179713 47.36469851 112.7170768 43.16015625 110.5078125 C41.14615056 109.32429844 39.14512721 108.11830908 37.16015625 106.88671875 C33.52981429 104.71928344 29.80201049 102.84392979 26 101 C26.05217727 104.37622928 26.14732018 107.74995887 26.25 111.125 C26.26417969 112.07632813 26.27835937 113.02765625 26.29296875 114.0078125 C26.49461877 119.81533315 26.83418842 123.63495396 31 128 C34.8318502 130.89199088 38.82697654 133.48495355 42.875 136.0625 C56.90073026 145.10783622 56.90073026 145.10783622 61 149 C61 149.66 61 150.32 61 151 C61.87398437 151.37898438 61.87398437 151.37898438 62.765625 151.765625 C74.38048966 158.18222855 80.91433412 174.04811834 84.47802734 186.25268555 C85.0057141 188.1629486 85.50375715 190.08132825 86 192 C86.36931641 193.39798828 86.36931641 193.39798828 86.74609375 194.82421875 C91.71491741 217.2010591 86.75623828 242.67235723 75 262 C71.44759033 267.13209822 67.5341471 271.70449222 63 276 C62.278125 276.763125 61.55625 277.52625 60.8125 278.3125 C53.49399794 285.3057353 45.39340682 290.84890342 36.80175781 296.14306641 C31.97757908 299.16450256 28.85705121 301.42884636 27 307 C26.84566845 309.94698025 26.74236528 312.87515234 26.68359375 315.82421875 C26.66494263 316.58786743 26.6462915 317.35151611 26.6270752 318.13830566 C26.55883363 320.98792065 26.49864909 323.83772399 26.4375 326.6875 C26.293125 333.060625 26.14875 339.43375 26 346 C9.83 346 -6.34 346 -23 346 C-23.061875 334.6459375 -23.061875 334.6459375 -23.125 323.0625 C-23.14320801 320.69070557 -23.16141602 318.31891113 -23.18017578 315.87524414 C-23.18602354 313.97021714 -23.19111843 312.06518761 -23.1953125 310.16015625 C-23.20554443 309.1913855 -23.21577637 308.22261475 -23.22631836 307.2244873 C-23.2303336 291.3903929 -17.00294069 278.9720531 -7.015625 267.01171875 C-5 265 -5 265 -2 264 C-2 263.34 -2 262.68 -2 262 C-1.34 262 -0.68 262 0 262 C0 261.34 0 260.68 0 260 C2.17138672 258.30419922 2.17138672 258.30419922 5.1796875 256.3046875 C6.25347656 255.58925781 7.32726562 254.87382812 8.43359375 254.13671875 C8.99804199 253.76595215 9.56249023 253.39518555 10.14404297 253.01318359 C11.86627619 251.8807363 13.58000624 250.73625265 15.29296875 249.58984375 C23.73332957 244 23.73332957 244 26 244 C26 243.34 26 242.68 26 242 C27.3303125 241.01 27.3303125 241.01 28.6875 240 C33.69727581 236.03491677 36.02308151 229.93075547 38 224 C39.22212396 212.37195503 39.15011622 201.70841468 32 192 C31.27296875 191.278125 30.5459375 190.55625 29.796875 189.8125 C28 188 28 188 28 186 C27.34 186 26.68 186 26 186 C26 185.34 26 184.68 26 184 C25.46375 183.7525 24.9275 183.505 24.375 183.25 C21.4176018 181.69347463 18.70275949 179.96564327 16 178 C16 177.34 16 176.68 16 176 C15.29875 175.74992188 14.5975 175.49984375 13.875 175.2421875 C10.63726511 173.84327487 7.9211808 172.09977783 5 170.125 C3.989375 169.44695312 2.97875 168.76890625 1.9375 168.0703125 C-10.01374042 159.64723082 -18.23164492 147.62025588 -21.6328125 133.34375 C-23.49138459 122.60533349 -23.1901485 111.86333035 -23 101 C-24.52405601 101.76202801 -26.0480539 102.52417246 -27.57177734 103.28686523 C-28.86273149 103.9316885 -30.15473576 104.57441345 -31.44775391 105.21508789 C-34.13809874 106.55075619 -36.80609512 107.89182477 -39.4296875 109.35546875 C-44.31905587 112.07505718 -47.54260069 112.89465562 -53 112 C-56.08976689 109.29645397 -57.75190047 107.48195168 -58.4375 103.38671875 C-57.79581736 98.41940761 -55.48473915 94.7317554 -53 90.4375 C-52.24505249 89.10078247 -52.24505249 89.10078247 -51.47485352 87.73706055 C-48.11894569 81.83256486 -44.63474601 76.01976357 -41.02734375 70.265625 C-35.44294115 61.27032524 -30.16876196 52.07910902 -24.9375 42.875 C-21.86952436 37.4829867 -18.71394006 32.15242974 -15.51123047 26.84008789 C-12.50208463 21.8462553 -9.52341614 16.83507913 -6.5625 11.8125 C-6.13727051 11.09344482 -5.71204102 10.37438965 -5.27392578 9.63354492 C-4.67620361 8.61804565 -4.67620361 8.61804565 -4.06640625 7.58203125 C-3.5396228 6.68834839 -3.5396228 6.68834839 -3.00219727 5.77661133 C-1.93322769 3.88163164 -0.95769519 1.95324713 0 0 Z " fill="#020200" transform="translate(235,77)"/>
<path d="M0 0 C0.33 1.32 0.66 2.64 1 4 C0.01 4.33 -0.98 4.66 -2 5 C-2.73323796 7.01508358 -2.73323796 7.01508358 -3 9 C-3.66 9 -4.32 9 -5 9 C-5.33 9.66 -5.66 10.32 -6 11 C-6.61875 11.268125 -7.2375 11.53625 -7.875 11.8125 C-10.71069752 13.3971545 -11.61641813 15.09447807 -13 18 C-13 19.32 -13 20.64 -13 22 C-13.61875 22.28875 -14.2375 22.5775 -14.875 22.875 C-17.13325765 23.93720042 -17.13325765 23.93720042 -19 26 C-19.16677282 29.58343976 -19.16677282 29.58343976 -19 33 C-18.34 33 -17.68 33 -17 33 C-17.33 33.99 -17.66 34.98 -18 36 C-20.790071 33.12273928 -21.93351879 31.5318497 -22.4375 27.5 C-21.71120633 21.68965068 -18.62419464 18.37420545 -14.55078125 14.35546875 C-13.27944336 13.09379883 -13.27944336 13.09379883 -11.98242188 11.80664062 C-11.10134766 10.94232422 -10.22027344 10.07800781 -9.3125 9.1875 C-8.41982422 8.30384766 -7.52714844 7.42019531 -6.60742188 6.50976562 C-4.40940071 4.33525271 -2.2068407 2.16555573 0 0 Z " fill="#ECEF1A" transform="translate(44,223)"/>
<path d="M0 0 C0 4.07546013 -1.55304448 5.80536362 -4 9 C-6.25 10.375 -6.25 10.375 -8 11 C-8 11.66 -8 12.32 -8 13 C-8.66 13 -9.32 13 -10 13 C-10.226875 13.53625 -10.45375 14.0725 -10.6875 14.625 C-11.86248478 16.75116293 -13.03384262 18.25498127 -14.625 20.0625 C-17.31436107 22.75923113 -17.31436107 22.75923113 -17 26 C-21.1077065 27.58706842 -22.59232396 28.10191901 -27 27 C-18.09 18.09 -9.18 9.18 0 0 Z " fill="#EDF11D" transform="translate(171,96)"/>
<path d="M0 0 C0.01981934 0.5983667 0.03963867 1.1967334 0.06005859 1.81323242 C0.51178869 14.8073361 1.41603651 27.24168026 4 40 C3.505 38.515 3.505 38.515 3 37 C2.34 37 1.68 37 1 37 C-1.0479476 25.60704881 -2.20160173 14.5808996 -2 3 C-2.99 3 -3.98 3 -5 3 C-5 3.66 -5 4.32 -5 5 C-5.99 5.33 -6.98 5.66 -8 6 C-8.66 5.34 -9.32 4.68 -10 4 C-3.375 0 -3.375 0 0 0 Z " fill="#D7D91F" transform="translate(212,178)"/>
<path d="M0 0 C5.95246006 7.50527573 4.74313661 17.82584646 4 27 C2.77444092 32.33906925 1.0474398 36.27728316 -3 40 C-3.625 37.6875 -3.625 37.6875 -4 35 C-3.34 34.01 -2.68 33.02 -2 32 C-1.01 32 -0.02 32 1 32 C1 30.02 1 28.04 1 26 C1.66 26 2.32 26 3 26 C2.88658509 23.51979503 2.75985314 21.04155031 2.625 18.5625 C2.5940625 17.85544922 2.563125 17.14839844 2.53125 16.41992188 C2.42719371 14.60760812 2.22080108 12.80182012 2 11 C1.34 10.67 0.68 10.34 0 10 C0.33 7.69 0.66 5.38 1 3 C0.34 3 -0.32 3 -1 3 C-0.67 2.01 -0.34 1.02 0 0 Z " fill="#F2F22A" transform="translate(270,274)"/>
<path d="M0 0 C-6.27 6.27 -12.54 12.54 -19 19 C-19.33 17.68 -19.66 16.36 -20 15 C-19.34 15 -18.68 15 -18 15 C-18 14.34 -18 13.68 -18 13 C-17.34 13 -16.68 13 -16 13 C-16 12.34 -16 11.68 -16 11 C-15.01 11 -14.02 11 -13 11 C-13.33 10.01 -13.66 9.02 -14 8 C-12.68 7.67 -11.36 7.34 -10 7 C-10 6.34 -10 5.68 -10 5 C-9.34 5 -8.68 5 -8 5 C-8 4.34 -8 3.68 -8 3 C-7.34 3 -6.68 3 -6 3 C-6 2.01 -6 1.02 -6 0 C-4 -1 -4 -1 0 0 Z " fill="#F1F21B" transform="translate(359,374)"/>
<path d="M0 0 C1.32 0.66 2.64 1.32 4 2 C-0.95 6.95 -5.9 11.9 -11 17 C-11.66 15.68 -12.32 14.36 -13 13 C-8.375 8.125 -8.375 8.125 -5 7 C-3.79117904 4.99983534 -3.79117904 4.99983534 -3 3 C-2.01 3 -1.02 3 0 3 C0 2.01 0 1.02 0 0 Z " fill="#F3F416" transform="translate(373,354)"/>
<path d="M0 0 C0.33 0.99 0.66 1.98 1 3 C-0.07421875 4.7890625 -0.07421875 4.7890625 -1.6875 6.625 C-2.20699219 7.23601562 -2.72648437 7.84703125 -3.26171875 8.4765625 C-5.181038 10.15866252 -6.50835704 10.59829721 -9 11 C-9.103125 11.639375 -9.20625 12.27875 -9.3125 12.9375 C-9.539375 13.618125 -9.76625 14.29875 -10 15 C-10.99 15.33 -11.98 15.66 -13 16 C-13 16.66 -13 17.32 -13 18 C-14.65 18.33 -16.3 18.66 -18 19 C-12.44964797 12.21623641 -6.23557973 6.14477032 0 0 Z " fill="#E5EB26" transform="translate(126,141)"/>
<path d="M0 0 C0.66 0 1.32 0 2 0 C3.59138085 4.17737474 4.21278058 7.53160785 4 12 C4.66 12 5.32 12 6 12 C7.26693763 21.66039945 7.08984092 31.27721582 7 41 C6.67 41 6.34 41 6 41 C5.96036133 40.34628418 5.92072266 39.69256836 5.87988281 39.01904297 C4.82656432 22.00572854 4.82656432 22.00572854 0.8046875 5.51171875 C0 3 0 3 0 0 Z " fill="#EBEA2B" transform="translate(317,255)"/>
<path d="M0 0 C1.32 0.33 2.64 0.66 4 1 C-0.29 5.29 -4.58 9.58 -9 14 C-9.33 12.68 -9.66 11.36 -10 10 C-9.34 10 -8.68 10 -8 10 C-8 9.34 -8 8.68 -8 8 C-7.34 8 -6.68 8 -6 8 C-5.938125 7.21625 -5.87625 6.4325 -5.8125 5.625 C-5.544375 4.75875 -5.27625 3.8925 -5 3 C-2.4375 1.6875 -2.4375 1.6875 0 1 C0 0.67 0 0.34 0 0 Z " fill="#F1F21A" transform="translate(271,457)"/>
<path d="M0 0 C1.98 0.99 1.98 0.99 4 2 C3.01 2 2.02 2 1 2 C1.14080555 4.77117304 1.28743118 7.54182641 1.4375 10.3125 C1.47681641 11.09818359 1.51613281 11.88386719 1.55664062 12.69335938 C1.59853516 13.45068359 1.64042969 14.20800781 1.68359375 14.98828125 C1.73858032 16.03302612 1.73858032 16.03302612 1.79467773 17.09887695 C2.0899341 19.83271923 2.60148635 21.60148635 4.5625 23.5625 C5.036875 24.036875 5.51125 24.51125 6 25 C6 25.66 6 26.32 6 27 C6.99 27 7.98 27 9 27 C9.33 27.99 9.66 28.98 10 30 C5.57258356 28.64717831 3.63690779 26.76701112 1 23 C-0.2263757 20.54724859 -0.11415314 18.9494219 -0.09765625 16.2109375 C-0.09443359 15.26992187 -0.09121094 14.32890625 -0.08789062 13.359375 C-0.07951172 12.37453125 -0.07113281 11.3896875 -0.0625 10.375 C-0.05798828 9.38242188 -0.05347656 8.38984375 -0.04882812 7.3671875 C-0.03702145 4.9113984 -0.020554 2.45572896 0 0 Z " fill="#DFE236" transform="translate(261,178)"/>
<path d="M0 0 C4.13621084 3.3810038 7.81316569 6.66590534 11 11 C9.02 11 7.04 11 5 11 C5 10.01 5 9.02 5 8 C3.68 8.33 2.36 8.66 1 9 C1 7.68 1 6.36 1 5 C0.34 5 -0.32 5 -1 5 C-0.67 3.35 -0.34 1.7 0 0 Z " fill="#F5F812" transform="translate(391,159)"/>
<path d="M0 0 C0 3.52707529 -0.05453046 5.9112775 -2.41796875 8.6328125 C-6.12724072 11.76071955 -9.18216297 13.8249178 -14 15 C-9.59156563 9.70987876 -4.92440206 4.81191572 0 0 Z " fill="#EEF21B" transform="translate(190,77)"/>
<path d="M0 0 C7.48291572 6.15034169 7.48291572 6.15034169 10 10 C8.35 10.33 6.7 10.66 5 11 C5.33 9.68 5.66 8.36 6 7 C5.34 7 4.68 7 4 7 C4 7.66 4 8.32 4 9 C3.01 9 2.02 9 1 9 C1 7.68 1 6.36 1 5 C0.34 5 -0.32 5 -1 5 C-0.67 3.35 -0.34 1.7 0 0 Z " fill="#F6F814" transform="translate(455,223)"/>
<path d="M0 0 C0.33 0.66 0.66 1.32 1 2 C-4.06163433 6.21802861 -7.06854394 8.28408229 -13.75 8.125 C-14.73484375 8.10695312 -15.7196875 8.08890625 -16.734375 8.0703125 C-17.85585937 8.03550781 -17.85585937 8.03550781 -19 8 C-19.33 6.68 -19.66 5.36 -20 4 C-19.01 4.495 -19.01 4.495 -18 5 C-10.7732501 5.77429463 -6.21781079 3.56759635 0 0 Z " fill="#CBCB1C" transform="translate(200,183)"/>
<path d="M0 0 C1.65 0.33 3.3 0.66 5 1 C0.88380164 5.91935902 -3.40410362 10.52647956 -8 15 C-8.33 13.68 -8.66 12.36 -9 11 C-7.68 10.34 -6.36 9.68 -5 9 C-5 8.34 -5 7.68 -5 7 C-4.34 7 -3.68 7 -3 7 C-3 6.34 -3 5.68 -3 5 C-2.01 5 -1.02 5 0 5 C0 3.35 0 1.7 0 0 Z " fill="#F0F11C" transform="translate(298,428)"/>
<path d="M0 0 C-0.99 1.485 -0.99 1.485 -2 3 C-2 3.99 -2 4.98 -2 6 C-5.83887763 7.48320272 -8.06204091 8.22419163 -12 7 C-3.58823529 -1.79411765 -3.58823529 -1.79411765 0 0 Z " fill="#FCFC08" transform="translate(156,116)"/>
<path d="M0 0 C0.66 0.33 1.32 0.66 2 1 C0.875 3.4375 0.875 3.4375 -1 6 C-2.99422795 6.36628677 -4.99453311 6.70131344 -7 7 C-8.09166275 8.93330603 -8.09166275 8.93330603 -9 11 C-11.4375 12.3125 -11.4375 12.3125 -14 13 C-14.99 12.67 -15.98 12.34 -17 12 C-15.94039063 11.30132812 -14.88078125 10.60265625 -13.7890625 9.8828125 C-12.40096066 8.96366399 -11.01294426 8.04438644 -9.625 7.125 C-8.92632812 6.66480469 -8.22765625 6.20460938 -7.5078125 5.73046875 C-6.50234375 5.06337891 -6.50234375 5.06337891 -5.4765625 4.3828125 C-4.85861816 3.97434082 -4.24067383 3.56586914 -3.60400391 3.14501953 C-1.84857985 1.95836857 -1.84857985 1.95836857 0 0 Z " fill="#D5D61A" transform="translate(289,360)"/>
<path d="M0 0 C7.48291572 6.15034169 7.48291572 6.15034169 10 10 C8.35 10.33 6.7 10.66 5 11 C5 10.34 5 9.68 5 9 C3.68 8.34 2.36 7.68 1 7 C1 6.34 1 5.68 1 5 C0.34 5 -0.32 5 -1 5 C-0.67 3.35 -0.34 1.7 0 0 Z " fill="#F1F416" transform="translate(375,143)"/>
<path d="M0 0 C0.69140625 1.7734375 0.69140625 1.7734375 1 4 C-2.14942758 8.76942068 -6.42195649 11.77555142 -12 13 C-8.19524578 8.43969176 -4.25030379 4.14910608 0 0 Z " fill="#EDF11C" transform="translate(203,64)"/>
<path d="M0 0 C0 0.99 0 1.98 0 3 C0.99 2.67 1.98 2.34 3 2 C3 3.32 3 4.64 3 6 C3.99 6 4.98 6 6 6 C5.67 7.65 5.34 9.3 5 11 C-2.48291572 4.84965831 -2.48291572 4.84965831 -5 1 C-2 0 -2 0 0 0 Z " fill="#F2F518" transform="translate(52,278)"/>
<path d="M0 0 C0.99 0 1.98 0 3 0 C3 0.99 3 1.98 3 3 C5.64 3 8.28 3 11 3 C10.67 3.66 10.34 4.32 10 5 C8.07421875 5.484375 8.07421875 5.484375 5.6875 5.75 C4.90761719 5.84796875 4.12773437 5.9459375 3.32421875 6.046875 C0.69866432 5.99392264 -0.76473757 5.32990442 -3 4 C-2.01 3.67 -1.02 3.34 0 3 C0 2.01 0 1.02 0 0 Z " fill="#E9EC16" transform="translate(246,472)"/>
<path d="M0 0 C1.12894876 0.93274109 2.25300876 1.87140122 3.375 2.8125 C4.00148438 3.33457031 4.62796875 3.85664063 5.2734375 4.39453125 C7 6 7 6 9 9 C6.36 9 3.72 9 1 9 C1 7.68 1 6.36 1 5 C0.34 5 -0.32 5 -1 5 C-0.67 3.35 -0.34 1.7 0 0 Z " fill="#F2F516" transform="translate(423,191)"/>
<path d="M0 0 C0 3 0 3 -1.16162109 4.48632812 C-1.69352051 4.99615234 -2.22541992 5.50597656 -2.7734375 6.03125 C-3.3509375 6.59457031 -3.9284375 7.15789062 -4.5234375 7.73828125 C-5.43996094 8.61033203 -5.43996094 8.61033203 -6.375 9.5 C-7.57249163 10.653993 -8.76788737 11.81016577 -9.9609375 12.96875 C-10.49509277 13.47857422 -11.02924805 13.98839844 -11.57958984 14.51367188 C-13.22510712 16.14934032 -13.22510712 16.14934032 -15 19 C-15.99 18.67 -16.98 18.34 -18 18 C-12.06 12.06 -6.12 6.12 0 0 Z " fill="#292500" transform="translate(335,397)"/>
<path d="M0 0 C7.48291572 6.15034169 7.48291572 6.15034169 10 10 C8.35 10.33 6.7 10.66 5 11 C5 10.01 5 9.02 5 8 C4.01 7.67 3.02 7.34 2 7 C2.33 6.01 2.66 5.02 3 4 C1.68 4.33 0.36 4.66 -1 5 C-0.67 3.35 -0.34 1.7 0 0 Z " fill="#F0F318" transform="translate(343,111)"/>
<path d="M0 0 C0 4.12527351 -1.49125936 5.76504496 -4 9 C-5.93102068 10.54010673 -7.86430538 11.73799864 -10 13 C-10.66 12.67 -11.32 12.34 -12 12 C-8.04 8.04 -4.08 4.08 0 0 Z " fill="#ECF020" transform="translate(107,160)"/>
<path d="M0 0 C1.65 0 3.3 0 5 0 C-1.15034169 7.48291572 -1.15034169 7.48291572 -5 10 C-4.6875 7.625 -4.6875 7.625 -4 5 C-3.01 4.34 -2.02 3.68 -1 3 C-0.67 2.01 -0.34 1.02 0 0 Z " fill="#F0F21A" transform="translate(462,265)"/>
<path d="M0 0 C1 3 1 3 -0.125 6.125 C-2 9 -2 9 -4.5 9.875 C-6.33151879 9.96657594 -8.16619324 10 -10 10 C-6.7 6.7 -3.4 3.4 0 0 Z " fill="#EDF11C" transform="translate(214,53)"/>
<path d="M0 0 C0.33 0.99 0.66 1.98 1 3 C-0.01320313 3.90492188 -0.01320313 3.90492188 -1.046875 4.828125 C-1.93890625 5.62734375 -2.8309375 6.4265625 -3.75 7.25 C-4.63171875 8.03890625 -5.5134375 8.8278125 -6.421875 9.640625 C-8.67866165 11.70592672 -10.85739926 13.81735064 -13 16 C-13.66 15.67 -14.32 15.34 -15 15 C-10.05 10.05 -5.1 5.1 0 0 Z " fill="#2A2500" transform="translate(316,416)"/>
<path d="M0 0 C0.33 0 0.66 0 1 0 C1.02690844 2.62506802 1.04679404 5.24986173 1.0625 7.875 C1.07087891 8.62136719 1.07925781 9.36773437 1.08789062 10.13671875 C1.11328125 15.7734375 1.11328125 15.7734375 0 18 C-0.66 18 -1.32 18 -2 18 C-1.34 12.06 -0.68 6.12 0 0 Z " fill="#CDCF1C" transform="translate(322,298)"/>
<path d="M0 0 C0.66 0.99 1.32 1.98 2 3 C1.01 4.485 1.01 4.485 0 6 C-0.66 6 -1.32 6 -2 6 C-2.33 6.99 -2.66 7.98 -3 9 C-4.32 8.34 -5.64 7.68 -7 7 C-4.69 4.69 -2.38 2.38 0 0 Z " fill="#F1F418" transform="translate(134,133)"/>
<path d="M0 0 C0.99 0 1.98 0 3 0 C1.23570801 4.97209562 -1.3939166 9.43438061 -4 14 C-4.33 14 -4.66 14 -5 14 C-5 12.35 -5 10.7 -5 9 C-4.34 9 -3.68 9 -3 9 C-3 8.01 -3 7.02 -3 6 C-2.34 6 -1.68 6 -1 6 C-1.020625 5.195625 -1.04125 4.39125 -1.0625 3.5625 C-1 1 -1 1 0 0 Z " fill="#EAEA1D" transform="translate(230,81)"/>
<path d="M0 0 C1.32 0.33 2.64 0.66 4 1 C3.04367001 2.29315061 2.08486149 3.58446853 1.125 4.875 C0.59132812 5.59429687 0.05765625 6.31359375 -0.4921875 7.0546875 C-2 9 -2 9 -4 11 C-4.125 5.25 -4.125 5.25 -3 3 C-2.01 3 -1.02 3 0 3 C0 2.01 0 1.02 0 0 Z " fill="#E9E91D" transform="translate(223,346)"/>
<path d="M0 0 C0.33 0.99 0.66 1.98 1 3 C1.99 3.66 2.98 4.32 4 5 C3.34 6.32 2.68 7.64 2 9 C-0.31 6.69 -2.62 4.38 -5 2 C-2 0 -2 0 0 0 Z " fill="#F0F419" transform="translate(132,358)"/>
<path d="M0 0 C7.48291572 6.15034169 7.48291572 6.15034169 10 10 C8.02 10 6.04 10 4 10 C4 8.68 4 7.36 4 6 C3.01 5.67 2.02 5.34 1 5 C0.67 3.35 0.34 1.7 0 0 Z " fill="#EDF11D" transform="translate(264,32)"/>
<path d="M0 0 C0 2.97 0 5.94 0 9 C-0.33 9 -0.66 9 -1 9 C-1 7.02 -1 5.04 -1 3 C-2.32 3 -3.64 3 -5 3 C-5 3.66 -5 4.32 -5 5 C-5.99 5.33 -6.98 5.66 -8 6 C-8.66 5.34 -9.32 4.68 -10 4 C-3.375 0 -3.375 0 0 0 Z " fill="#C1C41A" transform="translate(212,178)"/>
<path d="M0 0 C7.48291572 6.15034169 7.48291572 6.15034169 10 10 C7.69 9.34 5.38 8.68 3 8 C3 6.68 3 5.36 3 4 C2.34 4 1.68 4 1 4 C0.67 2.68 0.34 1.36 0 0 Z " fill="#ECF11E" transform="translate(438,206)"/>
<path d="M0 0 C6.4 2.4 6.4 2.4 9 5 C7.35 5 5.7 5 4 5 C4 4.34 4 3.68 4 3 C2.02 3.33 0.04 3.66 -2 4 C-2 3.01 -2 2.02 -2 1 C-1.34 0.67 -0.68 0.34 0 0 Z " fill="#E6E818" transform="translate(265,180)"/>
<path d="M0 0 C0.99 0.33 1.98 0.66 3 1 C3 1.99 3 2.98 3 4 C3.66 4 4.32 4 5 4 C5 4.99 5 5.98 5 7 C5.66 7 6.32 7 7 7 C7.33 8.98 7.66 10.96 8 13 C5.68757908 10.83676753 3.9843604 8.62352196 2.3125 5.9375 C1.87550781 5.24527344 1.43851562 4.55304688 0.98828125 3.83984375 C0 2 0 2 0 0 Z " fill="#E6E723" transform="translate(274,140)"/>
<path d="M0 0 C2.50298434 2.93828597 3.46930939 5.17902761 4 9 C3.01 9.66 2.02 10.32 1 11 C-0.09658936 7.71023192 0.20046862 6.28696233 1 3 C0.34 3 -0.32 3 -1 3 C-0.67 2.01 -0.34 1.02 0 0 Z " fill="#DDDF1B" transform="translate(270,274)"/>
<path d="M0 0 C1.6026782 -0.10824843 3.20745748 -0.18570645 4.8125 -0.25 C5.70582031 -0.29640625 6.59914062 -0.3428125 7.51953125 -0.390625 C10 0 10 0 11.82421875 2.015625 C12.40623047 2.99789063 12.40623047 2.99789063 13 4 C11.989375 3.67 10.97875 3.34 9.9375 3 C6.24520089 1.92998679 2.84751793 1.84295845 -1 2 C-0.67 1.34 -0.34 0.68 0 0 Z " fill="#C6CB1C" transform="translate(245,22)"/>
<path d="M0 0 C0.66 0.33 1.32 0.66 2 1 C0.35 5.29 -1.3 9.58 -3 14 C-3.33 14 -3.66 14 -4 14 C-4.21278058 9.53160785 -3.59138085 6.17737474 -2 2 C-1.34 2 -0.68 2 0 2 C0 1.34 0 0.68 0 0 Z " fill="#E2E221" transform="translate(217,357)"/>
<path d="M0 0 C1.32 0.33 2.64 0.66 4 1 C4 1.66 4 2.32 4 3 C3.34 3 2.68 3 2 3 C2 3.66 2 4.32 2 5 C0.35 5.66 -1.3 6.32 -3 7 C-3.33 6.34 -3.66 5.68 -4 5 C-3.01 5 -2.02 5 -1 5 C-0.67 3.35 -0.34 1.7 0 0 Z " fill="#EEEE1C" transform="translate(259,316)"/>
<path d="M0 0 C0.33 0.66 0.66 1.32 1 2 C0.01 3.485 0.01 3.485 -1 5 C-3.6015625 5.29296875 -3.6015625 5.29296875 -6.625 5.1875 C-8.12933594 5.14689453 -8.12933594 5.14689453 -9.6640625 5.10546875 C-10.82035156 5.05326172 -10.82035156 5.05326172 -12 5 C-12 4.34 -12 3.68 -12 3 C-10.948125 3.061875 -9.89625 3.12375 -8.8125 3.1875 C-4.84183507 2.9922214 -3.15803031 2.29674932 0 0 Z " fill="#E9E922" transform="translate(293,186)"/>
<path d="M0 0 C1.32 0.66 2.64 1.32 4 2 C1.03 4.475 1.03 4.475 -2 7 C-2.125 4.625 -2.125 4.625 -2 2 C-1.34 1.34 -0.68 0.68 0 0 Z " fill="#F2F417" transform="translate(284,443)"/>
<path d="M0 0 C1.67542976 0.28604898 3.34385343 0.61781233 5 1 C3.35830472 3.02054804 1.69088222 5.02043058 0 7 C-0.33 7 -0.66 7 -1 7 C-1.04254356 5.00045254 -1.04080783 2.99958364 -1 1 C-0.67 0.67 -0.34 0.34 0 0 Z " fill="#F2F218" transform="translate(310,416)"/>
<path d="M0 0 C0.66 0.33 1.32 0.66 2 1 C0.87895467 2.31587941 -0.24696965 3.62760353 -1.375 4.9375 C-2.00148437 5.66839844 -2.62796875 6.39929688 -3.2734375 7.15234375 C-5 9 -5 9 -7 10 C-5.33248852 6.05860922 -2.77289351 3.2107188 0 0 Z " fill="#272601" transform="translate(231,341)"/>
<path d="M0 0 C0.33 1.32 0.66 2.64 1 4 C0.01 4 -0.98 4 -2 4 C-2.33 5.32 -2.66 6.64 -3 8 C-4.32 7.67 -5.64 7.34 -7 7 C-4.69 4.69 -2.38 2.38 0 0 Z " fill="#EBEF20" transform="translate(68,199)"/>
<path d="M0 0 C2.31 0.33 4.62 0.66 7 1 C7 2.98 7 4.96 7 7 C5.83040013 6.02433888 4.66438823 5.044375 3.5 4.0625 C2.8503125 3.51722656 2.200625 2.97195313 1.53125 2.41015625 C1.0259375 1.94480469 0.520625 1.47945313 0 1 C0 0.67 0 0.34 0 0 Z " fill="#EDF11C" transform="translate(163,395)"/>
<path d="M0 0 C0.99 0 1.98 0 3 0 C2.50168276 3.68754757 1.89932357 5.60490662 -1 8 C-1.625 5.6875 -1.625 5.6875 -2 3 C-1.34 2.01 -0.68 1.02 0 0 Z " fill="#E9EC15" transform="translate(268,306)"/>
<path d="M0 0 C1 2 1 2 0.375 3.9375 C-1.3792518 6.5688777 -3.16320216 7.65252103 -6 9 C-6.66 8.67 -7.32 8.34 -8 8 C-5.36 5.36 -2.72 2.72 0 0 Z " fill="#E8ED22" transform="translate(87,180)"/>
<path d="M0 0 C2.31 1.98 4.62 3.96 7 6 C3 7 3 7 1 7 C0.67 4.69 0.34 2.38 0 0 Z " fill="#EEF21D" transform="translate(395,163)"/>
<path d="M0 0 C2.31 1.98 4.62 3.96 7 6 C6.34 6.66 5.68 7.32 5 8 C5 7.34 5 6.68 5 6 C3.35 6 1.7 6 0 6 C0 4.02 0 2.04 0 0 Z " fill="#EDF11B" transform="translate(300,68)"/>
<path d="M0 0 C1.98 1.65 3.96 3.3 6 5 C5.67 5.66 5.34 6.32 5 7 C3.68 6.67 2.36 6.34 1 6 C0.67 4.02 0.34 2.04 0 0 Z " fill="#1C1701" transform="translate(183,416)"/>
<path d="M0 0 C0.33 2.31 0.66 4.62 1 7 C-0.98 5.35 -2.96 3.7 -5 2 C-2 0 -2 0 0 0 Z " fill="#EEF11A" transform="translate(116,342)"/>
<path d="M0 0 C2.31 0.33 4.62 0.66 7 1 C7 2.98 7 4.96 7 7 C5.83040013 6.02433888 4.66438823 5.044375 3.5 4.0625 C2.8503125 3.51722656 2.200625 2.97195313 1.53125 2.41015625 C1.0259375 1.94480469 0.520625 1.47945313 0 1 C0 0.67 0 0.34 0 0 Z " fill="#ECF01E" transform="translate(77,309)"/>
<path d="M0 0 C0.33 2.31 0.66 4.62 1 7 C-0.98 5.35 -2.96 3.7 -5 2 C-2 0 -2 0 0 0 Z " fill="#EEF11A" transform="translate(68,294)"/>
<path d="M0 0 C0.33 2.31 0.66 4.62 1 7 C-0.98 5.35 -2.96 3.7 -5 2 C-2 0 -2 0 0 0 Z " fill="#EEF119" transform="translate(36,262)"/>
<path d="M0 0 C1.98 1.65 3.96 3.3 6 5 C3 7 3 7 1 7 C1.33 5.68 1.66 4.36 2 3 C1.34 3 0.68 3 0 3 C0 2.01 0 1.02 0 0 Z " fill="#EFF21B" transform="translate(459,227)"/>
<path d="M0 0 C0.33 0.99 0.66 1.98 1 3 C-0.21484375 4.82421875 -0.21484375 4.82421875 -1.9375 6.6875 C-2.50339844 7.31011719 -3.06929688 7.93273437 -3.65234375 8.57421875 C-4.09707031 9.04472656 -4.54179688 9.51523438 -5 10 C-5 5.88168014 -2.91010261 2.91010261 0 0 Z " fill="#F4F617" transform="translate(126,141)"/>
<path d="M0 0 C1.32 0.33 2.64 0.66 4 1 C0.535 3.97 0.535 3.97 -3 7 C-3 5.68 -3 4.36 -3 3 C-2.01 3 -1.02 3 0 3 C0 2.01 0 1.02 0 0 Z " fill="#F0F123" transform="translate(332,396)"/>
<path d="M0 0 C1.98 1.65 3.96 3.3 6 5 C3 7 3 7 1 7 C0.67 4.69 0.34 2.38 0 0 Z " fill="#EFF21F" transform="translate(411,179)"/>
<path d="M0 0 C1.32 0.66 2.64 1.32 4 2 C1.03 4.475 1.03 4.475 -2 7 C-1.125 1.125 -1.125 1.125 0 0 Z " fill="#1B1800" transform="translate(83,179)"/>
<path d="M0 0 C0.66 0 1.32 0 2 0 C2 0.66 2 1.32 2 2 C3.32 2.66 4.64 3.32 6 4 C5.34 5.32 4.68 6.64 4 8 C0 1.125 0 1.125 0 0 Z " fill="#E6E61F" transform="translate(254,106)"/>
<path d="M0 0 C1.98 1.65 3.96 3.3 6 5 C3 7 3 7 1 7 C0.67 4.69 0.34 2.38 0 0 Z " fill="#F0F41C" transform="translate(315,83)"/>
<path d="M0 0 C1 2 1 2 0.4375 4 C-1.57302108 6.79724672 -3.74418077 7.15065585 -7 8 C-6.02133662 6.85373678 -5.04205413 5.70800212 -4.0625 4.5625 C-3.51722656 3.92441406 -2.97195312 3.28632812 -2.41015625 2.62890625 C-1.63204305 1.73008851 -0.84063472 0.84063472 0 0 Z " fill="#EBEF23" transform="translate(222,45)"/>
<path d="M0 0 C0 3.10551666 -0.5393715 4.35261084 -2 7 C-3.32 6.67 -4.64 6.34 -6 6 C-4.02 4.02 -2.04 2.04 0 0 Z " fill="#EAEF1E" transform="translate(235,32)"/>
<path d="M0 0 C3.36720387 1.39332574 4.9859524 2.9789286 7 6 C5 5 3 4 1 3 C1 3.66 1 4.32 1 5 C0.34 5 -0.32 5 -1 5 C-0.67 3.35 -0.34 1.7 0 0 Z " fill="#EDF11B" transform="translate(257,26)"/>
<path d="M0 0 C1.98 0.66 3.96 1.32 6 2 C6.33 3.65 6.66 5.3 7 7 C5.83040013 6.02433888 4.66438823 5.044375 3.5 4.0625 C2.8503125 3.51722656 2.200625 2.97195313 1.53125 2.41015625 C1.0259375 1.94480469 0.520625 1.47945313 0 1 C0 0.67 0 0.34 0 0 Z " fill="#E9EE1C" transform="translate(200,432)"/>
<path d="M0 0 C0.625 1.8125 0.625 1.8125 1 4 C0.01 5.485 0.01 5.485 -1 7 C-2.32 6.67 -3.64 6.34 -5 6 C-3.35 4.02 -1.7 2.04 0 0 Z " fill="#E1E41D" transform="translate(307,342)"/>
<path d="M0 0 C1.98 0.66 3.96 1.32 6 2 C6.33 3.65 6.66 5.3 7 7 C5.83040013 6.02433888 4.66438823 5.044375 3.5 4.0625 C2.8503125 3.51722656 2.200625 2.97195313 1.53125 2.41015625 C1.0259375 1.94480469 0.520625 1.47945313 0 1 C0 0.67 0 0.34 0 0 Z " fill="#E9EF1C" transform="translate(104,336)"/>
<path d="M0 0 C0 0.99 0 1.98 0 3 C-0.99 3.33 -1.98 3.66 -3 4 C-3 4.66 -3 5.32 -3 6 C-4.65 6.33 -6.3 6.66 -8 7 C-5.78972846 3.62642766 -3.53600465 1.91135386 0 0 Z " fill="#F2F418" transform="translate(116,153)"/>
<path d="M0 0 C0 3.10551666 -0.5393715 4.35261084 -2 7 C-3.32 6.67 -4.64 6.34 -6 6 C-4.02 4.02 -2.04 2.04 0 0 Z " fill="#EAEE20" transform="translate(150,117)"/>
<path d="M0 0 C0.66 0 1.32 0 2 0 C2.66 1.65 3.32 3.3 4 5 C2.02 5.33 0.04 5.66 -2 6 C-1.34 4.02 -0.68 2.04 0 0 Z " fill="#2D2700" transform="translate(235,77)"/>
<path d="M0 0 C1.98 1.65 3.96 3.3 6 5 C3.13822943 6.43088528 1.06624227 5.59991697 -2 5 C-1.01 4.67 -0.02 4.34 1 4 C0.67 2.68 0.34 1.36 0 0 Z " fill="#EDF21A" transform="translate(282,50)"/>
<path d="M0 0 C1.04059132 3.12177395 1.32284898 4.07083439 0 7 C-2.5625 8.25 -2.5625 8.25 -5 9 C-3.35 6.03 -1.7 3.06 0 0 Z " fill="#D3D71F" transform="translate(313,332)"/>
<path d="M0 0 C1.32 0.33 2.64 0.66 4 1 C1.03 3.475 1.03 3.475 -2 6 C-2 4.68 -2 3.36 -2 2 C-1.34 2 -0.68 2 0 2 C0 1.34 0 0.68 0 0 Z " fill="#EEEE1E" transform="translate(391,337)"/>
<path d="M0 0 C2.97 0.495 2.97 0.495 6 1 C6 2.65 6 4.3 6 6 C3.97945196 4.35830472 1.97956942 2.69088222 0 1 C0 0.67 0 0.34 0 0 Z " fill="#ECF11E" transform="translate(96,328)"/>
<path d="M0 0 C1.80411967 2.75924185 2.0127245 3.88972103 1.625 7.25 C1.41875 8.1575 1.2125 9.065 1 10 C-1 8 -1 8 -1.1875 5 C-1 2 -1 2 0 0 Z " fill="#2D2900" transform="translate(178,175)"/>
<path d="M0 0 C0 3.10551666 -0.5393715 4.35261084 -2 7 C-3.32 6.67 -4.64 6.34 -6 6 C-4.02 4.02 -2.04 2.04 0 0 Z " fill="#EAEE24" transform="translate(94,173)"/>
<path d="M0 0 C0.99 0.33 1.98 0.66 3 1 C1.68 3.31 0.36 5.62 -1 8 C-1.33 8 -1.66 8 -2 8 C-2 6.35 -2 4.7 -2 3 C-1.34 3 -0.68 3 0 3 C0 2.01 0 1.02 0 0 Z " fill="#DDDE21" transform="translate(207,121)"/>
<path d="M0 0 C2.475 0.495 2.475 0.495 5 1 C4.34 2.65 3.68 4.3 3 6 C1.5 4.6875 1.5 4.6875 0 3 C0 2.01 0 1.02 0 0 Z " fill="#EDEC1C" transform="translate(261,117)"/>
<path d="M0 0 C1.98 1.65 3.96 3.3 6 5 C3.92446352 5.5534764 2.15634036 6 0 6 C0 4.02 0 2.04 0 0 Z " fill="#EDF01E" transform="translate(294,62)"/>
<path d="M0 0 C-3.69969252 3.03903314 -6.23004695 4 -11 4 C-7.64191281 0.32209498 -4.88401581 -0.13200043 0 0 Z " fill="#EEF21E" transform="translate(251,23)"/>
</svg>
