<?xml version="1.0" encoding="UTF-8"?>
<svg version="1.1" xmlns="http://www.w3.org/2000/svg" width="500" height="500">
<path d="M0 0 C4.3048672 3.2330942 8.03133592 7.00850833 11.81987321 10.8214916 C13.17263014 12.16511187 13.17263014 12.16511187 14.55271548 13.53587598 C17.03587696 16.00274391 19.50971638 18.47877353 21.98200059 20.95653605 C24.6576161 23.63483486 27.34183702 26.30448674 30.0248903 28.97533071 C35.27202791 34.20146789 40.51093637 39.43577879 45.74669012 44.67331841 C50.00422492 48.93216338 54.26431603 53.18843484 58.5262121 57.44291532 C59.75611928 58.67072321 60.98602562 59.89853194 62.21593112 61.12634152 C63.13430092 62.04314604 63.13430092 62.04314604 64.07122365 62.97847185 C75.63607643 74.52444452 87.19096262 86.08035201 98.74296353 97.63918106 C109.30028572 108.20207897 119.87075061 118.75171289 130.4473991 129.29525616 C141.32116201 140.13524893 152.18557641 150.98453215 163.04015845 161.84373254 C169.12886228 167.93467744 175.221224 174.02185232 181.32351053 180.09919202 C186.51790299 185.27252863 191.70343396 190.45455306 196.87787112 195.6478522 C199.51541672 198.29452853 202.15674005 200.93710369 204.80920732 203.56883276 C207.69085746 206.4282019 210.55256206 209.30676076 213.41289079 212.1874584 C214.24528329 213.00733305 215.07767579 213.8272077 215.9352923 214.67192703 C223.77494483 222.63134739 229.45190248 231.14772722 229.67590654 242.5719341 C229.47045559 256.43987318 220.80362234 265.89874748 211.42634904 275.21590078 C210.5306022 276.11773873 209.63485536 277.01957667 208.71196467 277.94874305 C206.24509674 280.43190452 203.76906711 282.90574394 201.29130459 285.37802815 C198.61300579 288.05364366 195.9433539 290.73786459 193.27250993 293.42091787 C188.04637276 298.66805548 182.81206185 303.90696394 177.57452223 309.14271768 C173.31567726 313.40025249 169.0594058 317.6603436 164.80492532 321.92223966 C163.57711744 323.15214685 162.3493087 324.38205318 161.12149912 325.61195868 C160.20469461 326.53032849 160.20469461 326.53032849 159.26936879 327.46725122 C147.72339612 339.032104 136.16748864 350.58699018 124.60865959 362.1389911 C114.04576168 372.69631329 103.49612775 383.26677817 92.95258448 393.84342667 C82.11259172 404.71718958 71.26330849 415.58160398 60.40410811 426.43618602 C54.3131632 432.52488985 48.22598832 438.61725156 42.14864862 444.71953809 C36.97531202 449.91393055 31.79328758 455.09946152 26.59998844 460.27389868 C23.95331212 462.91144429 21.31073696 465.55276761 18.67900789 468.20523489 C15.81963874 471.08688502 12.94107989 473.94858963 10.06038225 476.80891836 C9.2405076 477.64131086 8.42063295 478.47370335 7.57591361 479.33131987 C-0.38350675 487.1709724 -8.89988658 492.84793005 -20.32409346 493.0719341 C-34.19203254 492.86648315 -43.65090684 484.1996499 -52.96806014 474.82237661 C-53.86989808 473.92662976 -54.77173603 473.03088292 -55.7009024 472.10799223 C-58.18406388 469.6411243 -60.6579033 467.16509468 -63.13018751 464.68733215 C-65.80580302 462.00903335 -68.49002395 459.33938147 -71.17307723 456.6685375 C-76.42021484 451.44240032 -81.6591233 446.20808942 -86.89487704 440.9705498 C-91.15241185 436.71170482 -95.41250295 432.45543337 -99.67439902 428.20095289 C-100.9043062 426.973145 -102.13421254 425.74533626 -103.36411804 424.51752669 C-103.97636458 423.90632368 -104.58861111 423.29512067 -105.21941058 422.66539636 C-116.78426336 411.11942369 -128.33914954 399.5635162 -139.89115045 388.00468715 C-150.44847264 377.44178924 -161.01893753 366.89215532 -171.59558602 356.34861205 C-182.46934894 345.50861928 -193.33376333 334.65933605 -204.18834537 323.80013567 C-210.27704921 317.70919077 -216.36941092 311.62201588 -222.47169745 305.54467618 C-227.66608991 300.37133958 -232.85162088 295.18931515 -238.02605804 289.996016 C-240.66360364 287.34933968 -243.30492697 284.70676452 -245.95739424 282.07503545 C-248.83904438 279.2156663 -251.70074898 276.33710745 -254.56107771 273.45640981 C-255.39347021 272.63653516 -256.22586271 271.81666051 -257.08347923 270.97194117 C-264.92313175 263.01252082 -270.6000894 254.49614099 -270.82409346 243.0719341 C-270.61864251 229.20399502 -261.95180926 219.74512073 -252.57453597 210.42796743 C-251.67878912 209.52612948 -250.78304228 208.62429153 -249.86015159 207.69512516 C-247.39328366 205.21196368 -244.91725404 202.73812426 -242.43949151 200.26584005 C-239.76119271 197.59022454 -237.09154082 194.90600362 -234.42069685 192.22295034 C-229.19455968 186.97581273 -223.96024877 181.73690427 -218.72270916 176.50115053 C-214.46386418 172.24361572 -210.20759272 167.98352461 -205.95311224 163.72162855 C-204.72530436 162.49172136 -203.49749562 161.26181502 -202.26968604 160.03190953 C-201.65848303 159.41966299 -201.04728002 158.80741645 -200.41755571 158.17661699 C-188.87158304 146.61176421 -177.31567556 135.05687803 -165.75684651 123.50487711 C-155.1939486 112.94755492 -144.64431467 102.37709003 -134.1007714 91.80044154 C-123.26077864 80.92667863 -112.41149541 70.06226423 -101.55229503 59.20768219 C-95.46135013 53.11897836 -89.37417524 47.02661665 -83.29683554 40.92433012 C-78.12349894 35.72993765 -72.9414745 30.54440668 -67.74817536 25.36996952 C-65.10149904 22.73242392 -62.45892388 20.0911006 -59.82719481 17.43863332 C-56.96782566 14.55698319 -54.08926681 11.69527858 -51.20856917 8.83494985 C-50.38869452 8.00255735 -49.56881987 7.17016485 -48.72410053 6.31254834 C-34.13271958 -8.05927164 -17.31275347 -11.78950201 0 0 Z " fill="#FDFD01" transform="translate(270.5740934610367,7.178065896034241)"/>
<path d="M0 0 C4.3048672 3.2330942 8.03133592 7.00850833 11.81987321 10.8214916 C13.17263014 12.16511187 13.17263014 12.16511187 14.55271548 13.53587598 C17.03587696 16.00274391 19.50971638 18.47877353 21.98200059 20.95653605 C24.6576161 23.63483486 27.34183702 26.30448674 30.0248903 28.97533071 C35.27202791 34.20146789 40.51093637 39.43577879 45.74669012 44.67331841 C50.00422492 48.93216338 54.26431603 53.18843484 58.5262121 57.44291532 C59.75611928 58.67072321 60.98602562 59.89853194 62.21593112 61.12634152 C63.13430092 62.04314604 63.13430092 62.04314604 64.07122365 62.97847185 C75.63607643 74.52444452 87.19096262 86.08035201 98.74296353 97.63918106 C109.30028572 108.20207897 119.87075061 118.75171289 130.4473991 129.29525616 C141.32116201 140.13524893 152.18557641 150.98453215 163.04015845 161.84373254 C169.12886228 167.93467744 175.221224 174.02185232 181.32351053 180.09919202 C186.51790299 185.27252863 191.70343396 190.45455306 196.87787112 195.6478522 C199.51541672 198.29452853 202.15674005 200.93710369 204.80920732 203.56883276 C207.69085746 206.4282019 210.55256206 209.30676076 213.41289079 212.1874584 C214.24528329 213.00733305 215.07767579 213.8272077 215.9352923 214.67192703 C223.77494483 222.63134739 229.45190248 231.14772722 229.67590654 242.5719341 C229.47045559 256.43987318 220.80362234 265.89874748 211.42634904 275.21590078 C210.5306022 276.11773873 209.63485536 277.01957667 208.71196467 277.94874305 C206.24509674 280.43190452 203.76906711 282.90574394 201.29130459 285.37802815 C198.61300579 288.05364366 195.9433539 290.73786459 193.27250993 293.42091787 C188.04637276 298.66805548 182.81206185 303.90696394 177.57452223 309.14271768 C173.31567726 313.40025249 169.0594058 317.6603436 164.80492532 321.92223966 C163.57711744 323.15214685 162.3493087 324.38205318 161.12149912 325.61195868 C160.20469461 326.53032849 160.20469461 326.53032849 159.26936879 327.46725122 C147.72339612 339.032104 136.16748864 350.58699018 124.60865959 362.1389911 C114.04576168 372.69631329 103.49612775 383.26677817 92.95258448 393.84342667 C82.11259172 404.71718958 71.26330849 415.58160398 60.40410811 426.43618602 C54.3131632 432.52488985 48.22598832 438.61725156 42.14864862 444.71953809 C36.97531202 449.91393055 31.79328758 455.09946152 26.59998844 460.27389868 C23.95331212 462.91144429 21.31073696 465.55276761 18.67900789 468.20523489 C15.81963874 471.08688502 12.94107989 473.94858963 10.06038225 476.80891836 C9.2405076 477.64131086 8.42063295 478.47370335 7.57591361 479.33131987 C-0.38350675 487.1709724 -8.89988658 492.84793005 -20.32409346 493.0719341 C-34.19203254 492.86648315 -43.65090684 484.1996499 -52.96806014 474.82237661 C-53.86989808 473.92662976 -54.77173603 473.03088292 -55.7009024 472.10799223 C-58.18406388 469.6411243 -60.6579033 467.16509468 -63.13018751 464.68733215 C-65.80580302 462.00903335 -68.49002395 459.33938147 -71.17307723 456.6685375 C-76.42021484 451.44240032 -81.6591233 446.20808942 -86.89487704 440.9705498 C-91.15241185 436.71170482 -95.41250295 432.45543337 -99.67439902 428.20095289 C-100.9043062 426.973145 -102.13421254 425.74533626 -103.36411804 424.51752669 C-103.97636458 423.90632368 -104.58861111 423.29512067 -105.21941058 422.66539636 C-116.78426336 411.11942369 -128.33914954 399.5635162 -139.89115045 388.00468715 C-150.44847264 377.44178924 -161.01893753 366.89215532 -171.59558602 356.34861205 C-182.46934894 345.50861928 -193.33376333 334.65933605 -204.18834537 323.80013567 C-210.27704921 317.70919077 -216.36941092 311.62201588 -222.47169745 305.54467618 C-227.66608991 300.37133958 -232.85162088 295.18931515 -238.02605804 289.996016 C-240.66360364 287.34933968 -243.30492697 284.70676452 -245.95739424 282.07503545 C-248.83904438 279.2156663 -251.70074898 276.33710745 -254.56107771 273.45640981 C-255.39347021 272.63653516 -256.22586271 271.81666051 -257.08347923 270.97194117 C-264.92313175 263.01252082 -270.6000894 254.49614099 -270.82409346 243.0719341 C-270.61864251 229.20399502 -261.95180926 219.74512073 -252.57453597 210.42796743 C-251.67878912 209.52612948 -250.78304228 208.62429153 -249.86015159 207.69512516 C-247.39328366 205.21196368 -244.91725404 202.73812426 -242.43949151 200.26584005 C-239.76119271 197.59022454 -237.09154082 194.90600362 -234.42069685 192.22295034 C-229.19455968 186.97581273 -223.96024877 181.73690427 -218.72270916 176.50115053 C-214.46386418 172.24361572 -210.20759272 167.98352461 -205.95311224 163.72162855 C-204.72530436 162.49172136 -203.49749562 161.26181502 -202.26968604 160.03190953 C-201.65848303 159.41966299 -201.04728002 158.80741645 -200.41755571 158.17661699 C-188.87158304 146.61176421 -177.31567556 135.05687803 -165.75684651 123.50487711 C-155.1939486 112.94755492 -144.64431467 102.37709003 -134.1007714 91.80044154 C-123.26077864 80.92667863 -112.41149541 70.06226423 -101.55229503 59.20768219 C-95.46135013 53.11897836 -89.37417524 47.02661665 -83.29683554 40.92433012 C-78.12349894 35.72993765 -72.9414745 30.54440668 -67.74817536 25.36996952 C-65.10149904 22.73242392 -62.45892388 20.0911006 -59.82719481 17.43863332 C-56.96782566 14.55698319 -54.08926681 11.69527858 -51.20856917 8.83494985 C-50.38869452 8.00255735 -49.56881987 7.17016485 -48.72410053 6.31254834 C-34.13271958 -8.05927164 -17.31275347 -11.78950201 0 0 Z M-35.19788802 23.22972524 C-36.11227532 24.13415717 -37.02666263 25.03858909 -37.96875864 25.97042805 C-40.49822339 28.47371518 -42.99555794 31.00704197 -45.48863435 33.54650068 C-48.18548307 36.28248393 -50.91119158 38.98944885 -53.63343489 41.70012319 C-58.95775704 47.01081827 -64.25521048 52.34756115 -69.54430295 57.69331781 C-75.70265297 63.91537002 -81.88838228 70.10989837 -88.0757122 76.30311092 C-99.11126216 87.35078721 -110.1235778 98.4213304 -121.12218916 109.50577199 C-131.80029102 120.2671306 -142.49162263 131.01508706 -153.1993376 141.74698293 C-154.18921817 142.73910815 -154.18921817 142.73910815 -155.19909633 143.75127629 C-157.85154054 146.40966885 -160.50402166 149.06802456 -163.15656534 151.72631787 C-174.58616545 163.18137026 -186.00471385 174.64743576 -197.42186496 186.114894 C-199.27229693 187.97329183 -201.12299398 189.83142531 -202.97375667 191.68949378 C-209.44964902 198.19141206 -215.92220948 204.69659397 -222.38541771 211.21112362 C-225.05857909 213.90548501 -227.73321889 216.59832943 -230.41212904 219.28697622 C-233.31133771 222.19692614 -236.20267032 225.11457304 -239.09315169 228.03319204 C-239.94720817 228.88824404 -240.80126465 229.74329603 -241.68120164 230.6242587 C-242.45033951 231.40354566 -243.21947739 232.18283262 -244.01192248 232.98573434 C-244.68050534 233.65897849 -245.3490882 234.33222263 -246.03793114 235.02586812 C-248.13282892 237.47520215 -248.5603671 239.75467492 -249.19909346 242.8844341 C-248.4929953 247.33285251 -247.6000573 248.28000635 -244.60428298 251.48789537 C-243.78335567 252.37031715 -242.96242836 253.25273893 -242.11662447 254.16190076 C-238.2726926 258.18347882 -234.39354992 262.164019 -230.46606123 266.10405385 C-229.59492485 266.98168919 -228.72378847 267.85932453 -227.82625401 268.76355487 C-225.43718769 271.16932878 -223.04600593 273.57296096 -220.65377748 275.97558808 C-218.59545368 278.04363679 -216.53891801 280.11345935 -214.48236537 282.18326915 C-207.13293599 289.57993213 -199.77635224 296.96946119 -192.41784346 304.35709035 C-191.83675629 304.94048511 -191.25566912 305.52387986 -190.65697324 306.12495324 C-179.10423916 317.72312069 -167.54800374 329.31779668 -155.98596632 340.90669 C-153.4526293 343.44601514 -150.91934122 345.98538909 -148.38610518 348.52481496 C-147.44177922 349.47144039 -147.44177922 349.47144039 -146.47837597 350.43718957 C-136.25867844 360.68265448 -126.05467566 370.94360974 -115.85669714 381.2106883 C-105.37231369 391.76552218 -94.87288254 402.30520231 -84.35887635 412.83052951 C-78.46134855 418.73521477 -72.57079107 424.64651276 -66.69730818 430.5751251 C-61.70167246 435.61762201 -56.69274712 440.64641763 -51.66582155 445.65773023 C-49.1024858 448.21395426 -46.54607836 450.77622453 -44.00678122 453.3563484 C-41.25340346 456.15364223 -38.46959808 458.91932441 -35.68212569 461.68266714 C-34.88570835 462.50170508 -34.08929101 463.32074303 -33.26873982 464.16460031 C-28.95586753 468.38287658 -25.80927511 470.7070331 -19.71092045 471.18229896 C-15.04398128 470.39524373 -11.79757468 467.29628487 -8.54144347 464.05772626 C-7.76924129 463.29443978 -6.99703912 462.53115329 -6.20143688 461.74473691 C-4.94612985 460.4888768 -4.94612985 460.4888768 -3.66546309 459.20764577 C-2.76759856 458.31713462 -1.86973404 457.42662348 -0.9446615 456.50912714 C1.5435843 454.04085995 4.02555906 451.56637015 6.50649035 449.09075391 C9.18462797 446.42044018 11.86841202 443.75581091 14.55134904 441.09032094 C21.02555025 434.65558879 27.49010858 428.21121076 33.95350099 421.76562458 C36.99812928 418.72976822 40.0437357 415.69489347 43.08921373 412.65988958 C53.212533 402.5705818 63.33334113 392.47876503 73.44691408 382.37968671 C76.06961282 379.76080765 78.69232207 377.1419391 81.3150667 374.52310598 C81.96692151 373.87221864 82.61877633 373.22133131 83.29038432 372.55072011 C93.85818353 361.99953333 104.44291319 351.46550312 115.03481564 340.93851839 C125.91049537 330.12895403 136.77108298 319.3044126 147.61695254 308.46493673 C153.70641707 302.37980381 159.80230992 296.3014294 165.91509569 290.23971593 C171.11884862 285.07934118 176.30878437 279.90555975 181.48115543 274.71372263 C184.12038654 272.06539254 186.7656708 269.42396292 189.4287771 266.79962385 C192.31623496 263.95383909 195.17174008 261.07798637 198.02521074 258.19812429 C198.87100497 257.37426854 199.71679921 256.5504128 200.58822358 255.70159173 C204.86359371 251.32990267 207.33212781 248.14362851 207.79546225 241.94933367 C206.98494296 237.28346509 203.88833757 234.03315481 200.64887464 230.77087343 C199.49964487 229.60642002 199.49964487 229.60642002 198.32719833 228.41844231 C197.06652497 227.15627568 197.06652497 227.15627568 195.78038347 225.86861074 C194.88649433 224.9659571 193.9926052 224.06330345 193.07162851 223.13329667 C190.59390246 220.63171362 188.10994394 218.13640172 185.62484241 215.64214826 C182.9443141 212.94968024 180.26944483 210.2515991 177.59367692 207.55440176 C171.13403842 201.04579148 164.66456276 194.54700323 158.1933243 188.04992899 C156.36561458 186.21479199 154.53816504 184.37939633 152.7108084 182.54390776 C141.36064033 171.14328008 130.00729185 159.74583033 118.64431989 148.35796297 C116.01442901 145.72221286 113.38457025 143.08643072 110.75476396 140.45059621 C110.10114832 139.79548847 109.44753268 139.14038073 108.7741105 138.46542124 C98.17875353 127.84473896 87.60413948 117.20364828 77.03783821 106.5540668 C66.1879029 95.61931924 55.31922698 84.70348375 44.43203062 73.80583256 C38.32015806 67.6871304 32.21689605 61.56034133 26.13461435 55.41221082 C20.95671809 50.17834816 15.7621785 44.96175988 10.54502665 39.76701405 C7.88381202 37.11618081 5.23136372 34.45790317 2.60017717 31.77723348 C-0.25313752 28.87070981 -3.14375579 26.0044052 -6.03968489 23.14033926 C-6.86451874 22.28774123 -7.68935259 21.4351432 -8.53918141 20.55670887 C-12.27938993 16.91731854 -15.24543734 14.29109725 -20.56850684 13.77654684 C-27.11659304 14.40288686 -30.81688145 18.70286981 -35.19788802 23.22972524 Z " fill="#070705" transform="translate(270.5740934610367,7.178065896034241)"/>
<path d="M0 0 C4.39887485 0.73314581 6.99398397 1.23651191 10.84375 2.96875 C11.74963867 3.3706958 12.65552734 3.7726416 13.58886719 4.18676758 C14.54954102 4.62013428 15.51021484 5.05350098 16.5 5.5 C24.53546803 9.06465942 32.60004537 12.51771807 40.75 15.8125 C46.86771141 18.29093572 52.92355895 20.82517882 58.90234375 23.625 C64.49067751 26.10557186 70.18050463 28.35082447 75.859375 30.61523438 C81.29912493 32.80743032 86.53758172 35.22235223 91.76049805 37.88867188 C94.56979781 39.28275587 97.43232246 40.41870117 100.375 41.5 C108.52077655 44.55944659 116.54090689 47.84311173 124.4375 51.5 C128.40730186 53.32782244 132.41167607 54.95541481 136.5 56.5 C140.37999326 57.96688193 144.17973254 59.49437104 147.9375 61.25 C153.54760819 63.86088982 159.26730042 66.17516164 165 68.5 C171.47716711 71.12836905 177.90351438 73.79954778 184.23828125 76.7578125 C187.95558454 78.4298103 191.72584582 79.96153299 195.5 81.5 C201.20620645 83.82641488 206.84107573 86.25425369 212.4375 88.8359375 C218.96190822 91.79976928 225.62782625 94.44328629 232.265625 97.140625 C249.99357713 104.3517138 249.99357713 104.3517138 257.39453125 107.8046875 C262.87752576 110.32012426 268.4481842 112.64149139 274 115 C274 115.33 274 115.66 274 116 C183.58 116 93.16 116 0 116 C0 77.72 0 39.44 0 0 Z " fill="#010100" transform="translate(124,186)"/>
<path d="M0 0 C8.5244141 0.6685815 16.6230739 3.11501041 24.46484375 6.4921875 C27.93825632 7.97366513 31.3963707 9.12781719 35 10.25 C55.26321681 16.84596684 72.49064495 27.34804952 84 45.75 C88.07202216 52.21090996 91.951956 55.79122597 99 59 C107.20766741 63.15765448 114.78041364 67.90940323 118 77 C118.25596456 80.77547723 118.19614941 83.41155176 117 87 C116.01 87 115.02 87 114 87 C114.0309375 88.423125 114.0309375 88.423125 114.0625 89.875 C114 93 114 93 113 95 C108.66695924 94.35534798 105.13327935 92.81074878 101.1875 90.9375 C100.02605469 90.38964844 98.86460937 89.84179688 97.66796875 89.27734375 C96.78753906 88.85582031 95.90710938 88.43429688 95 88 C95.32097656 87.26652344 95.64195312 86.53304687 95.97265625 85.77734375 C97.4642676 81.74488874 97.69289268 78.23931111 97 74 C95.07655539 70.32547712 95.07655539 70.32547712 92 68 C87.53966501 66.70577165 83.60851303 66.46382899 79.1875 67.9375 C76.07770893 70.86958872 74.07289137 74.28643716 72 78 C67.48684877 77.40735969 63.714236 76.22434927 59.52734375 74.453125 C58.92297989 74.20004578 58.31861603 73.94696655 57.69593811 73.68621826 C55.77386307 72.88015537 53.85556285 72.0655581 51.9375 71.25 C49.42699405 70.18981466 46.91494723 69.13332848 44.40234375 68.078125 C43.78517487 67.81825302 43.16800598 67.55838104 42.53213501 67.29063416 C37.35645127 65.12225869 32.13219894 63.09921505 26.88012695 61.12426758 C22.1616846 59.28240719 17.59185796 57.13317082 13 55 C11.27247088 54.22550369 9.54341653 53.45439593 7.8125 52.6875 C7.07644531 52.36136719 6.34039062 52.03523438 5.58203125 51.69921875 C5.05996094 51.46847656 4.53789062 51.23773438 4 51 C4.350625 50.01 4.70125 49.02 5.0625 48 C6.56829781 42.78272872 5.70854046 38.12562139 4 33 C1.52869082 31.84478498 1.52869082 31.84478498 -1 31 C-1.33 30.67 -1.66 30.34 -2 30 C-6.60579907 29.60967804 -9.10412784 29.57741879 -13.3125 31.5625 C-16.62246479 34.56456109 -17.55284593 36.8193327 -19 41 C-23.75 40.125 -23.75 40.125 -26 39 C-26.144375 38.195625 -26.28875 37.39125 -26.4375 36.5625 C-26.76502717 33.65559342 -26.76502717 33.65559342 -30 32 C-29.01176471 23.6 -29.01176471 23.6 -27 20 C-24.92578125 19.3671875 -24.92578125 19.3671875 -23 19 C-23.09023437 18.43152344 -23.18046875 17.86304688 -23.2734375 17.27734375 C-23.39965517 14.36948285 -23.21497152 12.67124401 -22 10 C-15.53915362 5.27827781 -8.0625128 2.16125026 0 2 C0 1.34 0 0.68 0 0 Z " fill="#080701" transform="translate(218,152)"/>
<path d="M0 0 C13.23110913 3.16396088 24.07740813 10.56496214 31.35546875 22.17578125 C32.16847403 24.47683257 31.65960809 25.69748194 31 28 C27.01757432 26.27827291 23.03969816 24.54626461 19.0625 22.8125 C17.94552734 22.32974609 16.82855469 21.84699219 15.67773438 21.34960938 C9.25023838 18.54111406 3.04535349 15.5618992 -3 12 C-2.69230293 10.18667846 -2.37870936 8.37435655 -2.0625 6.5625 C-1.80146484 5.04849609 -1.80146484 5.04849609 -1.53515625 3.50390625 C-1 1 -1 1 0 0 Z " fill="#F5F50E" transform="translate(258,172)"/>
<path d="M0 0 C2.50534242 1.93269273 4.00038184 3.54520891 4.5234375 6.73828125 C4.61798088 12.21234283 3.93695241 15.40241153 0.1875 19.6875 C-3.52472612 20.92490871 -6.95477882 21.24506126 -10.8125 20.6875 C-14.09231751 18.61978896 -15.65996007 16.91630989 -17.8125 13.6875 C-18.29506365 9.42485442 -18.08123267 7.19617256 -16.0625 3.375 C-11.6617323 -1.88147253 -6.41352158 -2.99297674 0 0 Z " fill="#0A0901" transform="translate(309.8125,221.3125)"/>
<path d="M0 0 C4.43819095 2.25802698 4.43819095 2.25802698 6 5 C7.09753939 10.3047737 6.93677502 14.48907255 4.0625 19.125 C0.13909634 21.52708387 -3.40341834 22.32069174 -8 22 C-10.67097266 20.93161093 -11.87021675 20.15295883 -13.75 17.9375 C-15.47148907 13.89200069 -15.73025059 10.33439058 -15 6 C-11.10637389 -0.22980177 -6.98649324 -0.97132151 0 0 Z " fill="#090802" transform="translate(216,183)"/>
<path d="M0 0 C9.86372381 -0.33797023 18.48488608 0.0248517 28 3 C29.46566406 3.42925781 29.46566406 3.42925781 30.9609375 3.8671875 C33.31372548 4.55918396 35.65888177 5.26969542 38 6 C37.85769192 7.41702513 37.71099254 8.8336096 37.5625 10.25 C37.48128906 11.03890625 37.40007812 11.8278125 37.31640625 12.640625 C37.02365007 14.82364639 36.57935581 16.8773182 36 19 C31.35279172 17.60442068 27.22930676 15.65118931 23 13.3125 C16.62717722 9.83743252 10.17385431 6.59145118 3.6328125 3.4453125 C1 2 1 2 0 0 Z " fill="#F3F411" transform="translate(215,163)"/>
<path d="M0 0 C3.53643649 2.33446495 5.5911735 5.04862644 6.46484375 9.21875 C6.68707373 14.41004234 5.60833656 18.5285659 3 23 C-0.31959928 24.32029517 -3.71991819 24.10087045 -7.25 24.0625 C-8.32765625 24.05347656 -9.4053125 24.04445312 -10.515625 24.03515625 C-11.33546875 24.02355469 -12.1553125 24.01195312 -13 24 C-13 23.34 -13 22.68 -13 22 C-12.32453125 22.02320313 -11.6490625 22.04640625 -10.953125 22.0703125 C-10.06109375 22.08835938 -9.1690625 22.10640625 -8.25 22.125 C-7.36828125 22.14820313 -6.4865625 22.17140625 -5.578125 22.1953125 C-2.79507722 21.98447555 -1.28990988 21.58302466 1 20 C2.92787464 17.13555535 3.2509947 14.84889689 3.1875 11.4375 C3.18105469 10.67308594 3.17460937 9.90867188 3.16796875 9.12109375 C3.07053505 6.81102284 3.07053505 6.81102284 2 4 C-1.96998457 1.78147921 -5.51783613 1.5998068 -10 2 C-12.81789177 3.25239634 -14.45864906 4.24210869 -16.25 6.75 C-17.26434758 9.79304274 -17.63319111 12.82098958 -18 16 C-18.33 14.68 -18.66 13.36 -19 12 C-20.98 12 -22.96 12 -25 12 C-25.33 11.34 -25.66 10.68 -26 10 C-23.03 10.495 -23.03 10.495 -20 11 C-19.773125 10.113125 -19.54625 9.22625 -19.3125 8.3125 C-17.80889801 4.51769499 -16.08494714 2.63349146 -13 0 C-8.51543556 -1.49485481 -4.54961909 -1.24144645 0 0 Z " fill="#D3D734" transform="translate(310,219)"/>
<path d="M0 0 C0.33 1.32 0.66 2.64 1 4 C0.01 4.33 -0.98 4.66 -2 5 C-2.73323796 7.01508358 -2.73323796 7.01508358 -3 9 C-3.66 9 -4.32 9 -5 9 C-5.33 9.66 -5.66 10.32 -6 11 C-6.61875 11.268125 -7.2375 11.53625 -7.875 11.8125 C-10.71069752 13.3971545 -11.61641813 15.09447807 -13 18 C-13 19.32 -13 20.64 -13 22 C-13.61875 22.28875 -14.2375 22.5775 -14.875 22.875 C-17.13325765 23.93720042 -17.13325765 23.93720042 -19 26 C-19.16677282 29.58343976 -19.16677282 29.58343976 -19 33 C-18.34 33 -17.68 33 -17 33 C-17.33 33.99 -17.66 34.98 -18 36 C-20.790071 33.12273928 -21.93351879 31.5318497 -22.4375 27.5 C-21.71120633 21.68965068 -18.62419464 18.37420545 -14.55078125 14.35546875 C-13.27944336 13.09379883 -13.27944336 13.09379883 -11.98242188 11.80664062 C-11.10134766 10.94232422 -10.22027344 10.07800781 -9.3125 9.1875 C-8.41982422 8.30384766 -7.52714844 7.42019531 -6.60742188 6.50976562 C-4.40940071 4.33525271 -2.2068407 2.16555573 0 0 Z " fill="#ECEF1A" transform="translate(44,223)"/>
<path d="M0 0 C3.30361229 2.99629952 4.47187047 5.14704282 5.6875 9.4375 C5.66627153 13.28692855 4.90575826 16.78272523 3.6875 20.4375 C5.3375 21.0975 6.9875 21.7575 8.6875 22.4375 C5.3763987 23.54120043 3.44001051 23.36423641 0 23 C-0.99386719 22.89816406 -1.98773438 22.79632813 -3.01171875 22.69140625 C-3.77097656 22.60761719 -4.53023437 22.52382812 -5.3125 22.4375 C-1.5625 19.4375 -1.5625 19.4375 0.6875 19.4375 C2.23215221 14.80354337 2.30265747 10.271914 1.6875 5.4375 C-0.4750539 2.43782846 -1.87266844 1.70307472 -5.47265625 1.0390625 C-9.65691613 0.74567533 -11.76672691 1.07365127 -15.3125 3.4375 C-17.89047862 7.30446793 -18.07842131 9.83395252 -18.3125 14.4375 C-18.6425 14.4375 -18.9725 14.4375 -19.3125 14.4375 C-20.86158417 7.52620138 -20.86158417 7.52620138 -19.40625 4.640625 C-14.09043813 -1.90689938 -7.67138402 -3.61857737 0 0 Z " fill="#C9CF44" transform="translate(219.3125,182.5625)"/>
<path d="M0 0 C0 4.07546013 -1.55304448 5.80536362 -4 9 C-6.25 10.375 -6.25 10.375 -8 11 C-8 11.66 -8 12.32 -8 13 C-8.66 13 -9.32 13 -10 13 C-10.226875 13.53625 -10.45375 14.0725 -10.6875 14.625 C-11.86248478 16.75116293 -13.03384262 18.25498127 -14.625 20.0625 C-17.31436107 22.75923113 -17.31436107 22.75923113 -17 26 C-21.1077065 27.58706842 -22.59232396 28.10191901 -27 27 C-18.09 18.09 -9.18 9.18 0 0 Z " fill="#EDF11D" transform="translate(171,96)"/>
<path d="M0 0 C2.5215021 -0.08172936 5.04029917 -0.14083373 7.5625 -0.1875 C8.26697266 -0.21263672 8.97144531 -0.23777344 9.69726562 -0.26367188 C14.88003315 -0.33532304 18.36264182 0.67827402 23 3 C22.01 4.98 21.02 6.96 20 9 C19.01 8.566875 19.01 8.566875 18 8.125 C14.90094808 6.88514274 14.90094808 6.88514274 11.125 6.125 C6.89025381 5.12669481 3.67806182 3.29878864 0 1 C0 0.67 0 0.34 0 0 Z " fill="#FAFA0C" transform="translate(215,163)"/>
<path d="M0 0 C0.474375 0.639375 0.94875 1.27875 1.4375 1.9375 C2.18 2.906875 2.9225 3.87625 3.6875 4.875 C5.4375 7.9375 5.4375 7.9375 4.4375 11.9375 C-0.5125 9.6275 -5.4625 7.3175 -10.5625 4.9375 C-9.2425 4.6075 -7.9225 4.2775 -6.5625 3.9375 C-6.5625 2.6175 -6.5625 1.2975 -6.5625 -0.0625 C-2.06028761 -1.40099558 -2.06028761 -1.40099558 0 0 Z " fill="#EAEA15" transform="translate(284.5625,188.0625)"/>
<path d="M0 0 C-6.27 6.27 -12.54 12.54 -19 19 C-19.33 17.68 -19.66 16.36 -20 15 C-19.34 15 -18.68 15 -18 15 C-18 14.34 -18 13.68 -18 13 C-17.34 13 -16.68 13 -16 13 C-16 12.34 -16 11.68 -16 11 C-15.01 11 -14.02 11 -13 11 C-13.33 10.01 -13.66 9.02 -14 8 C-12.68 7.67 -11.36 7.34 -10 7 C-10 6.34 -10 5.68 -10 5 C-9.34 5 -8.68 5 -8 5 C-8 4.34 -8 3.68 -8 3 C-7.34 3 -6.68 3 -6 3 C-6 2.01 -6 1.02 -6 0 C-4 -1 -4 -1 0 0 Z " fill="#F1F21B" transform="translate(359,374)"/>
<path d="M0 0 C1.32 0.66 2.64 1.32 4 2 C-0.95 6.95 -5.9 11.9 -11 17 C-11.66 15.68 -12.32 14.36 -13 13 C-8.375 8.125 -8.375 8.125 -5 7 C-3.79117904 4.99983534 -3.79117904 4.99983534 -3 3 C-2.01 3 -1.02 3 0 3 C0 2.01 0 1.02 0 0 Z " fill="#F3F416" transform="translate(373,354)"/>
<path d="M0 0 C0.33 0.99 0.66 1.98 1 3 C-0.07421875 4.7890625 -0.07421875 4.7890625 -1.6875 6.625 C-2.20699219 7.23601562 -2.72648437 7.84703125 -3.26171875 8.4765625 C-5.181038 10.15866252 -6.50835704 10.59829721 -9 11 C-9.103125 11.639375 -9.20625 12.27875 -9.3125 12.9375 C-9.539375 13.618125 -9.76625 14.29875 -10 15 C-10.99 15.33 -11.98 15.66 -13 16 C-13 16.66 -13 17.32 -13 18 C-14.65 18.33 -16.3 18.66 -18 19 C-12.44964797 12.21623641 -6.23557973 6.14477032 0 0 Z " fill="#E5EB26" transform="translate(126,141)"/>
<path d="M0 0 C1.32 0 2.64 0 4 0 C4 1.98 4 3.96 4 6 C4.99 5.67 5.98 5.34 7 5 C7.14285714 12.42857143 7.14285714 12.42857143 6 16 C6.99 16.66 7.98 17.32 9 18 C6.39376858 17.64780657 4.39210885 17.23526531 2.125 15.875 C0.30744253 12.84573755 1.31598209 10.36308803 2 7 C2.185625 5.865625 2.37125 4.73125 2.5625 3.5625 C2.706875 2.716875 2.85125 1.87125 3 1 C2.01 0.67 1.02 0.34 0 0 Z " fill="#262501" transform="translate(250,168)"/>
<path d="M0 0 C1.32 0.33 2.64 0.66 4 1 C-0.29 5.29 -4.58 9.58 -9 14 C-9.33 12.68 -9.66 11.36 -10 10 C-9.34 10 -8.68 10 -8 10 C-8 9.34 -8 8.68 -8 8 C-7.34 8 -6.68 8 -6 8 C-5.938125 7.21625 -5.87625 6.4325 -5.8125 5.625 C-5.544375 4.75875 -5.27625 3.8925 -5 3 C-2.4375 1.6875 -2.4375 1.6875 0 1 C0 0.67 0 0.34 0 0 Z " fill="#F1F21A" transform="translate(271,457)"/>
<path d="M0 0 C4.13621084 3.3810038 7.81316569 6.66590534 11 11 C9.02 11 7.04 11 5 11 C5 10.01 5 9.02 5 8 C3.68 8.33 2.36 8.66 1 9 C1 7.68 1 6.36 1 5 C0.34 5 -0.32 5 -1 5 C-0.67 3.35 -0.34 1.7 0 0 Z " fill="#F5F812" transform="translate(391,159)"/>
<path d="M0 0 C0 3.52707529 -0.05453046 5.9112775 -2.41796875 8.6328125 C-6.12724072 11.76071955 -9.18216297 13.8249178 -14 15 C-9.59156563 9.70987876 -4.92440206 4.81191572 0 0 Z " fill="#EEF21B" transform="translate(190,77)"/>
<path d="M0 0 C0.99 0.33 1.98 0.66 3 1 C2.125 8.625 2.125 8.625 1 12 C3.475 12.99 3.475 12.99 6 14 C2.6888987 15.10370043 0.75251051 14.92673641 -2.6875 14.5625 C-4.17830078 14.40974609 -4.17830078 14.40974609 -5.69921875 14.25390625 C-6.45847656 14.17011719 -7.21773437 14.08632812 -8 14 C-4.25 11 -4.25 11 -2 11 C-1.34 7.37 -0.68 3.74 0 0 Z " fill="#D0D21B" transform="translate(222,191)"/>
<path d="M0 0 C7.48291572 6.15034169 7.48291572 6.15034169 10 10 C8.35 10.33 6.7 10.66 5 11 C5.33 9.68 5.66 8.36 6 7 C5.34 7 4.68 7 4 7 C4 7.66 4 8.32 4 9 C3.01 9 2.02 9 1 9 C1 7.68 1 6.36 1 5 C0.34 5 -0.32 5 -1 5 C-0.67 3.35 -0.34 1.7 0 0 Z " fill="#F6F814" transform="translate(455,223)"/>
<path d="M0 0 C1.65 0.33 3.3 0.66 5 1 C0.88380164 5.91935902 -3.40410362 10.52647956 -8 15 C-8.33 13.68 -8.66 12.36 -9 11 C-7.68 10.34 -6.36 9.68 -5 9 C-5 8.34 -5 7.68 -5 7 C-4.34 7 -3.68 7 -3 7 C-3 6.34 -3 5.68 -3 5 C-2.01 5 -1.02 5 0 5 C0 3.35 0 1.7 0 0 Z " fill="#F0F11C" transform="translate(298,428)"/>
<path d="M0 0 C-0.99 1.485 -0.99 1.485 -2 3 C-2 3.99 -2 4.98 -2 6 C-5.83887763 7.48320272 -8.06204091 8.22419163 -12 7 C-3.58823529 -1.79411765 -3.58823529 -1.79411765 0 0 Z " fill="#FCFC08" transform="translate(156,116)"/>
<path d="M0 0 C2.97 0.33 5.94 0.66 9 1 C9 1.66 9 2.32 9 3 C12.3 3.66 15.6 4.32 19 5 C19 5.66 19 6.32 19 7 C19.99 7 20.98 7 22 7 C22 7.66 22 8.32 22 9 C14.39162534 6.92957946 7.2271408 4.14169523 0 1 C0 0.67 0 0.34 0 0 Z " fill="#E4E521" transform="translate(278,250)"/>
<path d="M0 0 C7.48291572 6.15034169 7.48291572 6.15034169 10 10 C8.35 10.33 6.7 10.66 5 11 C5 10.34 5 9.68 5 9 C3.68 8.34 2.36 7.68 1 7 C1 6.34 1 5.68 1 5 C0.34 5 -0.32 5 -1 5 C-0.67 3.35 -0.34 1.7 0 0 Z " fill="#F1F416" transform="translate(375,143)"/>
<path d="M0 0 C0.69140625 1.7734375 0.69140625 1.7734375 1 4 C-2.14942758 8.76942068 -6.42195649 11.77555142 -12 13 C-8.19524578 8.43969176 -4.25030379 4.14910608 0 0 Z " fill="#EDF11C" transform="translate(203,64)"/>
<path d="M0 0 C0 0.99 0 1.98 0 3 C0.99 2.67 1.98 2.34 3 2 C3 3.32 3 4.64 3 6 C3.99 6 4.98 6 6 6 C5.67 7.65 5.34 9.3 5 11 C-2.48291572 4.84965831 -2.48291572 4.84965831 -5 1 C-2 0 -2 0 0 0 Z " fill="#F2F518" transform="translate(52,278)"/>
<path d="M0 0 C0.99 0 1.98 0 3 0 C3 0.99 3 1.98 3 3 C5.64 3 8.28 3 11 3 C10.67 3.66 10.34 4.32 10 5 C8.07421875 5.484375 8.07421875 5.484375 5.6875 5.75 C4.90761719 5.84796875 4.12773437 5.9459375 3.32421875 6.046875 C0.69866432 5.99392264 -0.76473757 5.32990442 -3 4 C-2.01 3.67 -1.02 3.34 0 3 C0 2.01 0 1.02 0 0 Z " fill="#E9EC16" transform="translate(246,472)"/>
<path d="M0 0 C1.12894876 0.93274109 2.25300876 1.87140122 3.375 2.8125 C4.00148438 3.33457031 4.62796875 3.85664063 5.2734375 4.39453125 C7 6 7 6 9 9 C6.36 9 3.72 9 1 9 C1 7.68 1 6.36 1 5 C0.34 5 -0.32 5 -1 5 C-0.67 3.35 -0.34 1.7 0 0 Z " fill="#F2F516" transform="translate(423,191)"/>
<path d="M0 0 C0 3 0 3 -1.16162109 4.48632812 C-1.69352051 4.99615234 -2.22541992 5.50597656 -2.7734375 6.03125 C-3.3509375 6.59457031 -3.9284375 7.15789062 -4.5234375 7.73828125 C-5.43996094 8.61033203 -5.43996094 8.61033203 -6.375 9.5 C-7.57249163 10.653993 -8.76788737 11.81016577 -9.9609375 12.96875 C-10.49509277 13.47857422 -11.02924805 13.98839844 -11.57958984 14.51367188 C-13.22510712 16.14934032 -13.22510712 16.14934032 -15 19 C-15.99 18.67 -16.98 18.34 -18 18 C-12.06 12.06 -6.12 6.12 0 0 Z " fill="#292500" transform="translate(335,397)"/>
<path d="M0 0 C2.62527189 -0.05382106 5.24944713 -0.09358313 7.875 -0.125 C8.62136719 -0.14175781 9.36773437 -0.15851563 10.13671875 -0.17578125 C12.09194461 -0.1933959 14.04742021 -0.10320189 16 0 C16.66 0.66 17.32 1.32 18 2 C16.84371094 2.09087891 16.84371094 2.09087891 15.6640625 2.18359375 C14.66117188 2.26738281 13.65828125 2.35117188 12.625 2.4375 C11.12839844 2.55931641 11.12839844 2.55931641 9.6015625 2.68359375 C7.02072387 2.84965626 7.02072387 2.84965626 5 4 C2.375 2.625 2.375 2.625 0 1 C0 0.67 0 0.34 0 0 Z " fill="#C8CA2A" transform="translate(215,163)"/>
<path d="M0 0 C4.571279 0.54855348 8.67435795 1.41744803 13 3 C13 3.66 13 4.32 13 5 C14.65 5 16.3 5 18 5 C18 5.66 18 6.32 18 7 C18.66 7 19.32 7 20 7 C20 7.66 20 8.32 20 9 C10 5 10 5 0 1 C0 0.67 0 0.34 0 0 Z " fill="#E2E422" transform="translate(335,274)"/>
<path d="M0 0 C5.44876003 1.72066106 10.71169451 3.84705349 16 6 C16.33 5.34 16.66 4.68 17 4 C17 5.32 17 6.64 17 8 C13.66666667 7.33333333 10.33333333 6.66666667 7 6 C7 5.34 7 4.68 7 4 C4.69 3.67 2.38 3.34 0 3 C0 2.01 0 1.02 0 0 Z " fill="#E4E71D" transform="translate(315,241)"/>
<path d="M0 0 C7.48291572 6.15034169 7.48291572 6.15034169 10 10 C8.35 10.33 6.7 10.66 5 11 C5 10.01 5 9.02 5 8 C4.01 7.67 3.02 7.34 2 7 C2.33 6.01 2.66 5.02 3 4 C1.68 4.33 0.36 4.66 -1 5 C-0.67 3.35 -0.34 1.7 0 0 Z " fill="#F0F318" transform="translate(343,111)"/>
<path d="M0 0 C0 4.12527351 -1.49125936 5.76504496 -4 9 C-5.93102068 10.54010673 -7.86430538 11.73799864 -10 13 C-10.66 12.67 -11.32 12.34 -12 12 C-8.04 8.04 -4.08 4.08 0 0 Z " fill="#ECF020" transform="translate(107,160)"/>
<path d="M0 0 C1.65 0 3.3 0 5 0 C-1.15034169 7.48291572 -1.15034169 7.48291572 -5 10 C-4.6875 7.625 -4.6875 7.625 -4 5 C-3.01 4.34 -2.02 3.68 -1 3 C-0.67 2.01 -0.34 1.02 0 0 Z " fill="#F0F21A" transform="translate(462,265)"/>
<path d="M0 0 C1 3 1 3 -0.125 6.125 C-2 9 -2 9 -4.5 9.875 C-6.33151879 9.96657594 -8.16619324 10 -10 10 C-6.7 6.7 -3.4 3.4 0 0 Z " fill="#EDF11C" transform="translate(214,53)"/>
<path d="M0 0 C0.33 0.99 0.66 1.98 1 3 C-0.01320313 3.90492188 -0.01320313 3.90492188 -1.046875 4.828125 C-1.93890625 5.62734375 -2.8309375 6.4265625 -3.75 7.25 C-4.63171875 8.03890625 -5.5134375 8.8278125 -6.421875 9.640625 C-8.67866165 11.70592672 -10.85739926 13.81735064 -13 16 C-13.66 15.67 -14.32 15.34 -15 15 C-10.05 10.05 -5.1 5.1 0 0 Z " fill="#2A2500" transform="translate(316,416)"/>
<path d="M0 0 C0.66 0.99 1.32 1.98 2 3 C1.01 4.485 1.01 4.485 0 6 C-0.66 6 -1.32 6 -2 6 C-2.33 6.99 -2.66 7.98 -3 9 C-4.32 8.34 -5.64 7.68 -7 7 C-4.69 4.69 -2.38 2.38 0 0 Z " fill="#F1F418" transform="translate(134,133)"/>
<path d="M0 0 C0.33 0.99 0.66 1.98 1 3 C1.99 3.66 2.98 4.32 4 5 C3.34 6.32 2.68 7.64 2 9 C-0.31 6.69 -2.62 4.38 -5 2 C-2 0 -2 0 0 0 Z " fill="#F0F419" transform="translate(132,358)"/>
<path d="M0 0 C5.94 2.475 5.94 2.475 12 5 C12 5.33 12 5.66 12 6 C8.37 6 4.74 6 1 6 C1.66 5.34 2.32 4.68 3 4 C2.01 3.34 1.02 2.68 0 2 C0 1.34 0 0.68 0 0 Z " fill="#191600" transform="translate(386,296)"/>
<path d="M0 0 C0.99 0.495 0.99 0.495 2 1 C2 1.66 2 2.32 2 3 C7.94 3.99 7.94 3.99 14 5 C13.67 5.66 13.34 6.32 13 7 C5.7735697 7.61240935 5.7735697 7.61240935 2 4.625 C0 2 0 2 0 0 Z " fill="#E6E824" transform="translate(202,200)"/>
<path d="M0 0 C7.48291572 6.15034169 7.48291572 6.15034169 10 10 C8.02 10 6.04 10 4 10 C4 8.68 4 7.36 4 6 C3.01 5.67 2.02 5.34 1 5 C0.67 3.35 0.34 1.7 0 0 Z " fill="#EDF11D" transform="translate(264,32)"/>
<path d="M0 0 C7.48291572 6.15034169 7.48291572 6.15034169 10 10 C7.69 9.34 5.38 8.68 3 8 C3 6.68 3 5.36 3 4 C2.34 4 1.68 4 1 4 C0.67 2.68 0.34 1.36 0 0 Z " fill="#ECF11E" transform="translate(438,206)"/>
<path d="M0 0 C0.66 0.99 1.32 1.98 2 3 C-1.92857754 4.85131483 -4.98775112 5.22004943 -9.3125 5.125 C-10.38113281 5.10695312 -11.44976562 5.08890625 -12.55078125 5.0703125 C-13.35902344 5.04710937 -14.16726563 5.02390625 -15 5 C-15 4.34 -15 3.68 -15 3 C-14.00419922 3.05220703 -14.00419922 3.05220703 -12.98828125 3.10546875 C-6.02058166 3.32707069 -6.02058166 3.32707069 0 0 Z " fill="#E2E523" transform="translate(312,238)"/>
<path d="M0 0 C1 3 1 3 0.0625 5.1875 C-0.4634375 6.0846875 -0.4634375 6.0846875 -1 7 C-2.32 7 -3.64 7 -5 7 C-5.33 8.65 -5.66 10.3 -6 12 C-6.33 12 -6.66 12 -7 12 C-7 9.69 -7 7.38 -7 5 C-5.02 5 -3.04 5 -1 5 C-0.67 3.35 -0.34 1.7 0 0 Z " fill="#E5E825" transform="translate(196,165)"/>
<path d="M0 0 C2.64 0 5.28 0 8 0 C8 0.99 8 1.98 8 3 C9.32 3 10.64 3 12 3 C12 3.66 12 4.32 12 5 C7.43545749 4.45660208 4.0271824 3.20536179 0 1 C0 0.67 0 0.34 0 0 Z " fill="#E6E922" transform="translate(241,234)"/>
<path d="M0 0 C2.64 0.33 5.28 0.66 8 1 C8.33 2.98 8.66 4.96 9 7 C7.4972763 6.02501855 5.99788037 5.04490611 4.5 4.0625 C3.6646875 3.51722656 2.829375 2.97195312 1.96875 2.41015625 C1.3190625 1.94480469 0.669375 1.47945312 0 1 C0 0.67 0 0.34 0 0 Z " fill="#EAE81D" transform="translate(320,212)"/>
<path d="M0 0 C0.33 0 0.66 0 1 0 C1.05447047 1.41623216 1.09300508 2.83308191 1.125 4.25 C1.14820313 5.03890625 1.17140625 5.8278125 1.1953125 6.640625 C0.9828378 9.20731941 0.28654105 10.7916067 -1 13 C-1.66 12.34 -2.32 11.68 -3 11 C-2.01 7.37 -1.02 3.74 0 0 Z " fill="#BDC22D" transform="translate(315,226)"/>
<path d="M0 0 C1.6026782 -0.10824843 3.20745748 -0.18570645 4.8125 -0.25 C5.70582031 -0.29640625 6.59914062 -0.3428125 7.51953125 -0.390625 C10 0 10 0 11.82421875 2.015625 C12.40623047 2.99789063 12.40623047 2.99789063 13 4 C11.989375 3.67 10.97875 3.34 9.9375 3 C6.24520089 1.92998679 2.84751793 1.84295845 -1 2 C-0.67 1.34 -0.34 0.68 0 0 Z " fill="#C6CB1C" transform="translate(245,22)"/>
<path d="M0 0 C1.32 0.66 2.64 1.32 4 2 C1.03 4.475 1.03 4.475 -2 7 C-2.125 4.625 -2.125 4.625 -2 2 C-1.34 1.34 -0.68 0.68 0 0 Z " fill="#F2F417" transform="translate(284,443)"/>
<path d="M0 0 C1.67542976 0.28604898 3.34385343 0.61781233 5 1 C3.35830472 3.02054804 1.69088222 5.02043058 0 7 C-0.33 7 -0.66 7 -1 7 C-1.04254356 5.00045254 -1.04080783 2.99958364 -1 1 C-0.67 0.67 -0.34 0.34 0 0 Z " fill="#F2F218" transform="translate(310,416)"/>
<path d="M0 0 C0.33 1.32 0.66 2.64 1 4 C0.01 4 -0.98 4 -2 4 C-2.33 5.32 -2.66 6.64 -3 8 C-4.32 7.67 -5.64 7.34 -7 7 C-4.69 4.69 -2.38 2.38 0 0 Z " fill="#EBEF20" transform="translate(68,199)"/>
<path d="M0 0 C0.70125 0.144375 1.4025 0.28875 2.125 0.4375 C5.07556141 1.01478375 8.03270151 1.51695141 11 2 C11 2.66 11 3.32 11 4 C11.66 4 12.32 4 13 4 C12.67 4.66 12.34 5.32 12 6 C8.04 4.35 4.08 2.7 0 1 C0 0.67 0 0.34 0 0 Z " fill="#DEE020" transform="translate(158,199)"/>
<path d="M0 0 C0.99 0.33 1.98 0.66 3 1 C2.67 3.64 2.34 6.28 2 9 C0.68 9.33 -0.64 9.66 -2 10 C-1.34 6.7 -0.68 3.4 0 0 Z " fill="#A1A825" transform="translate(222,191)"/>
<path d="M0 0 C2.31 0.33 4.62 0.66 7 1 C7 2.98 7 4.96 7 7 C5.83040013 6.02433888 4.66438823 5.044375 3.5 4.0625 C2.8503125 3.51722656 2.200625 2.97195313 1.53125 2.41015625 C1.0259375 1.94480469 0.520625 1.47945313 0 1 C0 0.67 0 0.34 0 0 Z " fill="#EDF11C" transform="translate(163,395)"/>
<path d="M0 0 C4.52220645 0.79803643 8.87816169 1.93908085 13 4 C12.67 4.66 12.34 5.32 12 6 C8.04 4.35 4.08 2.7 0 1 C0 0.67 0 0.34 0 0 Z " fill="#D8D91F" transform="translate(172,205)"/>
<path d="M0 0 C1 2 1 2 0.375 3.9375 C-1.3792518 6.5688777 -3.16320216 7.65252103 -6 9 C-6.66 8.67 -7.32 8.34 -8 8 C-5.36 5.36 -2.72 2.72 0 0 Z " fill="#E8ED22" transform="translate(87,180)"/>
<path d="M0 0 C2.31 1.98 4.62 3.96 7 6 C3 7 3 7 1 7 C0.67 4.69 0.34 2.38 0 0 Z " fill="#EEF21D" transform="translate(395,163)"/>
<path d="M0 0 C2.31 1.98 4.62 3.96 7 6 C6.34 6.66 5.68 7.32 5 8 C5 7.34 5 6.68 5 6 C3.35 6 1.7 6 0 6 C0 4.02 0 2.04 0 0 Z " fill="#EDF11B" transform="translate(300,68)"/>
<path d="M0 0 C1.98 1.65 3.96 3.3 6 5 C5.67 5.66 5.34 6.32 5 7 C3.68 6.67 2.36 6.34 1 6 C0.67 4.02 0.34 2.04 0 0 Z " fill="#1C1701" transform="translate(183,416)"/>
<path d="M0 0 C0.33 2.31 0.66 4.62 1 7 C-0.98 5.35 -2.96 3.7 -5 2 C-2 0 -2 0 0 0 Z " fill="#EEF11A" transform="translate(116,342)"/>
<path d="M0 0 C2.31 0.33 4.62 0.66 7 1 C7 2.98 7 4.96 7 7 C5.83040013 6.02433888 4.66438823 5.044375 3.5 4.0625 C2.8503125 3.51722656 2.200625 2.97195313 1.53125 2.41015625 C1.0259375 1.94480469 0.520625 1.47945313 0 1 C0 0.67 0 0.34 0 0 Z " fill="#ECF01E" transform="translate(77,309)"/>
<path d="M0 0 C0.33 2.31 0.66 4.62 1 7 C-0.98 5.35 -2.96 3.7 -5 2 C-2 0 -2 0 0 0 Z " fill="#EEF11A" transform="translate(68,294)"/>
<path d="M0 0 C0.33 2.31 0.66 4.62 1 7 C-0.98 5.35 -2.96 3.7 -5 2 C-2 0 -2 0 0 0 Z " fill="#EEF119" transform="translate(36,262)"/>
<path d="M0 0 C1.98 1.65 3.96 3.3 6 5 C3 7 3 7 1 7 C1.33 5.68 1.66 4.36 2 3 C1.34 3 0.68 3 0 3 C0 2.01 0 1.02 0 0 Z " fill="#EFF21B" transform="translate(459,227)"/>
<path d="M0 0 C2.84383123 1.2748209 5.13754018 2.45137078 7 5 C6.6875 7.1875 6.6875 7.1875 6 9 C5.7525 8.21625 5.505 7.4325 5.25 6.625 C3.84610901 3.67682892 2.99324263 3.0975223 0 2 C0 1.34 0 0.68 0 0 Z " fill="#C6CA3C" transform="translate(308,219)"/>
<path d="M0 0 C0.33 0.99 0.66 1.98 1 3 C-0.21484375 4.82421875 -0.21484375 4.82421875 -1.9375 6.6875 C-2.50339844 7.31011719 -3.06929688 7.93273437 -3.65234375 8.57421875 C-4.09707031 9.04472656 -4.54179688 9.51523438 -5 10 C-5 5.88168014 -2.91010261 2.91010261 0 0 Z " fill="#F4F617" transform="translate(126,141)"/>
<path d="M0 0 C1.32 0.33 2.64 0.66 4 1 C0.535 3.97 0.535 3.97 -3 7 C-3 5.68 -3 4.36 -3 3 C-2.01 3 -1.02 3 0 3 C0 2.01 0 1.02 0 0 Z " fill="#F0F123" transform="translate(332,396)"/>
<path d="M0 0 C1.43931117 0.45261358 2.87638999 0.91232979 4.3125 1.375 C5.11300781 1.63023437 5.91351563 1.88546875 6.73828125 2.1484375 C9 3 9 3 12 5 C9.44345185 5.95582656 8.39658231 6.17802782 5.859375 5.0390625 C5.16328125 4.57242188 4.4671875 4.10578125 3.75 3.625 C3.04359375 3.16351563 2.3371875 2.70203125 1.609375 2.2265625 C1.07828125 1.82179687 0.5471875 1.41703125 0 1 C0 0.67 0 0.34 0 0 Z " fill="#D7DA1E" transform="translate(309,206)"/>
<path d="M0 0 C1.98 1.65 3.96 3.3 6 5 C3 7 3 7 1 7 C0.67 4.69 0.34 2.38 0 0 Z " fill="#EFF21F" transform="translate(411,179)"/>
<path d="M0 0 C1.32 0.66 2.64 1.32 4 2 C1.03 4.475 1.03 4.475 -2 7 C-1.125 1.125 -1.125 1.125 0 0 Z " fill="#1B1800" transform="translate(83,179)"/>
<path d="M0 0 C1.98 1.65 3.96 3.3 6 5 C3 7 3 7 1 7 C0.67 4.69 0.34 2.38 0 0 Z " fill="#F0F41C" transform="translate(315,83)"/>
<path d="M0 0 C1 2 1 2 0.4375 4 C-1.57302108 6.79724672 -3.74418077 7.15065585 -7 8 C-6.02133662 6.85373678 -5.04205413 5.70800212 -4.0625 4.5625 C-3.51722656 3.92441406 -2.97195312 3.28632812 -2.41015625 2.62890625 C-1.63204305 1.73008851 -0.84063472 0.84063472 0 0 Z " fill="#EBEF23" transform="translate(222,45)"/>
<path d="M0 0 C0 3.10551666 -0.5393715 4.35261084 -2 7 C-3.32 6.67 -4.64 6.34 -6 6 C-4.02 4.02 -2.04 2.04 0 0 Z " fill="#EAEF1E" transform="translate(235,32)"/>
<path d="M0 0 C3.36720387 1.39332574 4.9859524 2.9789286 7 6 C5 5 3 4 1 3 C1 3.66 1 4.32 1 5 C0.34 5 -0.32 5 -1 5 C-0.67 3.35 -0.34 1.7 0 0 Z " fill="#EDF11B" transform="translate(257,26)"/>
<path d="M0 0 C1.98 0.66 3.96 1.32 6 2 C6.33 3.65 6.66 5.3 7 7 C5.83040013 6.02433888 4.66438823 5.044375 3.5 4.0625 C2.8503125 3.51722656 2.200625 2.97195313 1.53125 2.41015625 C1.0259375 1.94480469 0.520625 1.47945313 0 1 C0 0.67 0 0.34 0 0 Z " fill="#E9EE1C" transform="translate(200,432)"/>
<path d="M0 0 C1.98 0.66 3.96 1.32 6 2 C6.33 3.65 6.66 5.3 7 7 C5.83040013 6.02433888 4.66438823 5.044375 3.5 4.0625 C2.8503125 3.51722656 2.200625 2.97195313 1.53125 2.41015625 C1.0259375 1.94480469 0.520625 1.47945313 0 1 C0 0.67 0 0.34 0 0 Z " fill="#E9EF1C" transform="translate(104,336)"/>
<path d="M0 0 C3.34373475 0.55728913 6.03312999 1.35173889 9 3 C9 3.66 9 4.32 9 5 C5.9168649 3.80100302 2.93720508 2.52299523 0 1 C0 0.67 0 0.34 0 0 Z " fill="#D9DE22" transform="translate(226,169)"/>
<path d="M0 0 C0 0.99 0 1.98 0 3 C-0.99 3.33 -1.98 3.66 -3 4 C-3 4.66 -3 5.32 -3 6 C-4.65 6.33 -6.3 6.66 -8 7 C-5.78972846 3.62642766 -3.53600465 1.91135386 0 0 Z " fill="#F2F418" transform="translate(116,153)"/>
<path d="M0 0 C0 3.10551666 -0.5393715 4.35261084 -2 7 C-3.32 6.67 -4.64 6.34 -6 6 C-4.02 4.02 -2.04 2.04 0 0 Z " fill="#EAEE20" transform="translate(150,117)"/>
<path d="M0 0 C1.98 1.65 3.96 3.3 6 5 C3.13822943 6.43088528 1.06624227 5.59991697 -2 5 C-1.01 4.67 -0.02 4.34 1 4 C0.67 2.68 0.34 1.36 0 0 Z " fill="#EDF21A" transform="translate(282,50)"/>
<path d="M0 0 C1.32 0.33 2.64 0.66 4 1 C1.03 3.475 1.03 3.475 -2 6 C-2 4.68 -2 3.36 -2 2 C-1.34 2 -0.68 2 0 2 C0 1.34 0 0.68 0 0 Z " fill="#EEEE1E" transform="translate(391,337)"/>
<path d="M0 0 C2.97 0.495 2.97 0.495 6 1 C6 2.65 6 4.3 6 6 C3.97945196 4.35830472 1.97956942 2.69088222 0 1 C0 0.67 0 0.34 0 0 Z " fill="#ECF11E" transform="translate(96,328)"/>
<path d="M0 0 C0.99 0.66 1.98 1.32 3 2 C0.69 3.32 -1.62 4.64 -4 6 C-3.67 4.35 -3.34 2.7 -3 1 C-2.01 0.67 -1.02 0.34 0 0 Z " fill="#2B2902" transform="translate(205,180)"/>
<path d="M0 0 C0 3.10551666 -0.5393715 4.35261084 -2 7 C-3.32 6.67 -4.64 6.34 -6 6 C-4.02 4.02 -2.04 2.04 0 0 Z " fill="#EAEE24" transform="translate(94,173)"/>
<path d="M0 0 C1.98 1.65 3.96 3.3 6 5 C3.92446352 5.5534764 2.15634036 6 0 6 C0 4.02 0 2.04 0 0 Z " fill="#EDF01E" transform="translate(294,62)"/>
<path d="M0 0 C-3.69969252 3.03903314 -6.23004695 4 -11 4 C-7.64191281 0.32209498 -4.88401581 -0.13200043 0 0 Z " fill="#EEF21E" transform="translate(251,23)"/>
</svg>
